<?xml version="1.0" encoding="UTF-8" standalone="no"?><svg xmlns="http://www.w3.org/2000/svg" xmlns:xlink="http://www.w3.org/1999/xlink" contentScriptType="application/ecmascript" contentStyleType="text/css" height="1990px" preserveAspectRatio="none" style="width:1739px;height:1990px;" version="1.1" viewBox="0 0 1739 1990" width="1739px" zoomAndPan="magnify"><defs><filter height="300%" id="f1mlraau69nkq7" width="300%" x="-1" y="-1"><feGaussianBlur result="blurOut" stdDeviation="2.0"/><feColorMatrix in="blurOut" result="blurOut2" type="matrix" values="0 0 0 0 0 0 0 0 0 0 0 0 0 0 0 0 0 0 .4 0"/><feOffset dx="4.0" dy="4.0" in="blurOut2" result="blurOut3"/><feBlend in="SourceGraphic" in2="blurOut3" mode="normal"/></filter></defs><g><text fill="#000000" font-family="sans-serif" font-size="14" font-weight="bold" lengthAdjust="spacingAndGlyphs" textLength="404" x="668.5" y="22.9951">2.06 Design an API to manage NET DEBIT CAP #330</text><rect fill="#FFFFE0" height="1945.1641" style="stroke: #A80036; stroke-width: 1.0;" width="718.5" x="960.5" y="34.2969"/><text fill="#000000" font-family="sans-serif" font-size="13" font-weight="bold" lengthAdjust="spacingAndGlyphs" textLength="119" x="1260.25" y="46.3638">Central Services</text><rect fill="#FFFFFF" filter="url(#f1mlraau69nkq7)" height="1741.5703" style="stroke: #A80036; stroke-width: 1.0;" width="10" x="87" y="126.5938"/><rect fill="#FFFFFF" filter="url(#f1mlraau69nkq7)" height="1696.3047" style="stroke: #A80036; stroke-width: 1.0;" width="10" x="720" y="171.8594"/><rect fill="#FFFFFF" filter="url(#f1mlraau69nkq7)" height="1462.7109" style="stroke: #A80036; stroke-width: 1.0;" width="10" x="1027" y="376.3203"/><rect fill="#FFFFFF" filter="url(#f1mlraau69nkq7)" height="135.6641" style="stroke: #A80036; stroke-width: 1.0;" width="10" x="1384" y="420.5859"/><rect fill="#FFFFFF" filter="url(#f1mlraau69nkq7)" height="120.5313" style="stroke: #A80036; stroke-width: 1.0;" width="10" x="1384" y="666.7813"/><rect fill="#FFFFFF" filter="url(#f1mlraau69nkq7)" height="120.5313" style="stroke: #A80036; stroke-width: 1.0;" width="10" x="1384" y="1051.9063"/><rect fill="#FFFFFF" filter="url(#f1mlraau69nkq7)" height="77.3984" style="stroke: #A80036; stroke-width: 1.0;" width="10" x="1622" y="449.7188"/><rect fill="#FFFFFF" filter="url(#f1mlraau69nkq7)" height="62.2656" style="stroke: #A80036; stroke-width: 1.0;" width="10" x="1622" y="695.9141"/><rect fill="#FFFFFF" filter="url(#f1mlraau69nkq7)" height="62.2656" style="stroke: #A80036; stroke-width: 1.0;" width="10" x="1622" y="1081.0391"/><rect fill="#FFFFFF" filter="url(#f1mlraau69nkq7)" height="1742.5703" style="stroke: #000000; stroke-width: 2.0;" width="1715" x="13" y="133.5938"/><rect fill="#FFFFFF" filter="url(#f1mlraau69nkq7)" height="1197.5156" style="stroke: #000000; stroke-width: 2.0;" width="1695" x="23" y="613.3828"/><rect fill="#FFFFFF" filter="url(#f1mlraau69nkq7)" height="526.8594" style="stroke: #000000; stroke-width: 2.0;" width="763.5" x="944.5" y="844.4453"/><rect fill="#FFFFFF" filter="url(#f1mlraau69nkq7)" height="311.8594" style="stroke: #000000; stroke-width: 2.0;" width="743.5" x="954.5" y="868.5781"/><rect fill="#FFFFFF" height="183.8672" style="stroke: none; stroke-width: 1.0;" width="763.5" x="944.5" y="1187.4375"/><rect fill="#FFFFFF" height="183.8672" style="stroke: none; stroke-width: 1.0;" width="1695" x="23" y="1627.0313"/><line style="stroke: #A80036; stroke-width: 1.0; stroke-dasharray: 5.0,5.0;" x1="92" x2="92" y1="116.5938" y2="1893.1641"/><line style="stroke: #A80036; stroke-width: 1.0; stroke-dasharray: 5.0,5.0;" x1="725" x2="725" y1="116.5938" y2="1893.1641"/><line style="stroke: #A80036; stroke-width: 1.0; stroke-dasharray: 5.0,5.0;" x1="1031.5" x2="1031.5" y1="116.5938" y2="1893.1641"/><line style="stroke: #A80036; stroke-width: 1.0; stroke-dasharray: 5.0,5.0;" x1="1388.5" x2="1388.5" y1="116.5938" y2="1893.1641"/><line style="stroke: #A80036; stroke-width: 1.0; stroke-dasharray: 5.0,5.0;" x1="1627" x2="1627" y1="116.5938" y2="1893.1641"/><text fill="#000000" font-family="sans-serif" font-size="14" lengthAdjust="spacingAndGlyphs" textLength="112" x="33" y="113.292">HUB OPERATOR</text><ellipse cx="92" cy="43.2969" fill="#FEFECE" filter="url(#f1mlraau69nkq7)" rx="8" ry="8" style="stroke: #A80036; stroke-width: 2.0;"/><path d="M92,51.2969 L92,78.2969 M79,59.2969 L105,59.2969 M92,78.2969 L79,93.2969 M92,78.2969 L105,93.2969 " fill="none" filter="url(#f1mlraau69nkq7)" style="stroke: #A80036; stroke-width: 2.0;"/><text fill="#000000" font-family="sans-serif" font-size="14" lengthAdjust="spacingAndGlyphs" textLength="112" x="33" y="1905.1592">HUB OPERATOR</text><ellipse cx="92" cy="1918.4609" fill="#FEFECE" filter="url(#f1mlraau69nkq7)" rx="8" ry="8" style="stroke: #A80036; stroke-width: 2.0;"/><path d="M92,1926.4609 L92,1953.4609 M79,1934.4609 L105,1934.4609 M92,1953.4609 L79,1968.4609 M92,1953.4609 L105,1968.4609 " fill="none" filter="url(#f1mlraau69nkq7)" style="stroke: #A80036; stroke-width: 2.0;"/><text fill="#000000" font-family="sans-serif" font-size="14" lengthAdjust="spacingAndGlyphs" textLength="128" x="658" y="113.292">Central Service API</text><path d="M704.5,72.2969 L704.5,96.2969 M704.5,84.2969 L721.5,84.2969 " fill="none" filter="url(#f1mlraau69nkq7)" style="stroke: #A80036; stroke-width: 2.0;"/><ellipse cx="733.5" cy="84.2969" fill="#FEFECE" filter="url(#f1mlraau69nkq7)" rx="12" ry="12" style="stroke: #A80036; stroke-width: 2.0;"/><text fill="#000000" font-family="sans-serif" font-size="14" lengthAdjust="spacingAndGlyphs" textLength="128" x="658" y="1905.1592">Central Service API</text><path d="M704.5,1912.4609 L704.5,1936.4609 M704.5,1924.4609 L721.5,1924.4609 " fill="none" filter="url(#f1mlraau69nkq7)" style="stroke: #A80036; stroke-width: 2.0;"/><ellipse cx="733.5" cy="1924.4609" fill="#FEFECE" filter="url(#f1mlraau69nkq7)" rx="12" ry="12" style="stroke: #A80036; stroke-width: 2.0;"/><text fill="#000000" font-family="sans-serif" font-size="14" lengthAdjust="spacingAndGlyphs" textLength="129" x="964.5" y="113.292">Participant Handler</text><ellipse cx="1032" cy="84.2969" fill="#FEFECE" filter="url(#f1mlraau69nkq7)" rx="12" ry="12" style="stroke: #A80036; stroke-width: 2.0;"/><polygon fill="#A80036" points="1028,72.2969,1034,67.2969,1032,72.2969,1034,77.2969,1028,72.2969" style="stroke: #A80036; stroke-width: 1.0;"/><text fill="#000000" font-family="sans-serif" font-size="14" lengthAdjust="spacingAndGlyphs" textLength="129" x="964.5" y="1905.1592">Participant Handler</text><ellipse cx="1032" cy="1924.4609" fill="#FEFECE" filter="url(#f1mlraau69nkq7)" rx="12" ry="12" style="stroke: #A80036; stroke-width: 2.0;"/><polygon fill="#A80036" points="1028,1912.4609,1034,1907.4609,1032,1912.4609,1034,1917.4609,1028,1912.4609" style="stroke: #A80036; stroke-width: 1.0;"/><text fill="#000000" font-family="sans-serif" font-size="14" lengthAdjust="spacingAndGlyphs" textLength="107" x="1332.5" y="113.292">Participant DAO</text><ellipse cx="1389" cy="84.2969" fill="#FEFECE" filter="url(#f1mlraau69nkq7)" rx="12" ry="12" style="stroke: #A80036; stroke-width: 2.0;"/><line style="stroke: #A80036; stroke-width: 2.0;" x1="1377" x2="1401" y1="98.2969" y2="98.2969"/><text fill="#000000" font-family="sans-serif" font-size="14" lengthAdjust="spacingAndGlyphs" textLength="107" x="1332.5" y="1905.1592">Participant DAO</text><ellipse cx="1389" cy="1924.4609" fill="#FEFECE" filter="url(#f1mlraau69nkq7)" rx="12" ry="12" style="stroke: #A80036; stroke-width: 2.0;"/><line style="stroke: #A80036; stroke-width: 2.0;" x1="1377" x2="1401" y1="1938.4609" y2="1938.4609"/><text fill="#000000" font-family="sans-serif" font-size="14" lengthAdjust="spacingAndGlyphs" textLength="90" x="1579" y="113.292">Central Store</text><path d="M1609,64.2969 C1609,54.2969 1627,54.2969 1627,54.2969 C1627,54.2969 1645,54.2969 1645,64.2969 L1645,90.2969 C1645,100.2969 1627,100.2969 1627,100.2969 C1627,100.2969 1609,100.2969 1609,90.2969 L1609,64.2969 " fill="#FEFECE" filter="url(#f1mlraau69nkq7)" style="stroke: #000000; stroke-width: 1.5;"/><path d="M1609,64.2969 C1609,74.2969 1627,74.2969 1627,74.2969 C1627,74.2969 1645,74.2969 1645,64.2969 " fill="none" style="stroke: #000000; stroke-width: 1.5;"/><text fill="#000000" font-family="sans-serif" font-size="14" lengthAdjust="spacingAndGlyphs" textLength="90" x="1579" y="1905.1592">Central Store</text><path d="M1609,1918.4609 C1609,1908.4609 1627,1908.4609 1627,1908.4609 C1627,1908.4609 1645,1908.4609 1645,1918.4609 L1645,1944.4609 C1645,1954.4609 1627,1954.4609 1627,1954.4609 C1627,1954.4609 1609,1954.4609 1609,1944.4609 L1609,1918.4609 " fill="#FEFECE" filter="url(#f1mlraau69nkq7)" style="stroke: #000000; stroke-width: 1.5;"/><path d="M1609,1918.4609 C1609,1928.4609 1627,1928.4609 1627,1928.4609 C1627,1928.4609 1645,1928.4609 1645,1918.4609 " fill="none" style="stroke: #000000; stroke-width: 1.5;"/><rect fill="#FFFFFF" filter="url(#f1mlraau69nkq7)" height="1741.5703" style="stroke: #A80036; stroke-width: 1.0;" width="10" x="87" y="126.5938"/><rect fill="#FFFFFF" filter="url(#f1mlraau69nkq7)" height="1696.3047" style="stroke: #A80036; stroke-width: 1.0;" width="10" x="720" y="171.8594"/><rect fill="#FFFFFF" filter="url(#f1mlraau69nkq7)" height="1462.7109" style="stroke: #A80036; stroke-width: 1.0;" width="10" x="1027" y="376.3203"/><rect fill="#FFFFFF" filter="url(#f1mlraau69nkq7)" height="135.6641" style="stroke: #A80036; stroke-width: 1.0;" width="10" x="1384" y="420.5859"/><rect fill="#FFFFFF" filter="url(#f1mlraau69nkq7)" height="120.5313" style="stroke: #A80036; stroke-width: 1.0;" width="10" x="1384" y="666.7813"/><rect fill="#FFFFFF" filter="url(#f1mlraau69nkq7)" height="120.5313" style="stroke: #A80036; stroke-width: 1.0;" width="10" x="1384" y="1051.9063"/><rect fill="#FFFFFF" filter="url(#f1mlraau69nkq7)" height="77.3984" style="stroke: #A80036; stroke-width: 1.0;" width="10" x="1622" y="449.7188"/><rect fill="#FFFFFF" filter="url(#f1mlraau69nkq7)" height="62.2656" style="stroke: #A80036; stroke-width: 1.0;" width="10" x="1622" y="695.9141"/><rect fill="#FFFFFF" filter="url(#f1mlraau69nkq7)" height="62.2656" style="stroke: #A80036; stroke-width: 1.0;" width="10" x="1622" y="1081.0391"/><path d="M13,133.5938 L227,133.5938 L227,140.5938 L217,150.5938 L13,150.5938 L13,133.5938 " fill="#EEEEEE" style="stroke: #000000; stroke-width: 1.0;"/><rect fill="none" height="1742.5703" style="stroke: #000000; stroke-width: 2.0;" width="1715" x="13" y="133.5938"/><text fill="#000000" font-family="sans-serif" font-size="13" font-weight="bold" lengthAdjust="spacingAndGlyphs" textLength="169" x="28" y="146.6606">Manage Net Debit Cap</text><polygon fill="#A80036" points="708,167.8594,718,171.8594,708,175.8594,712,171.8594" style="stroke: #A80036; stroke-width: 1.0;"/><line style="stroke: #A80036; stroke-width: 1.0;" x1="97" x2="714" y1="171.8594" y2="171.8594"/><text fill="#000000" font-family="sans-serif" font-size="13" font-weight="bold" lengthAdjust="spacingAndGlyphs" textLength="9" x="104" y="166.7935">1</text><text fill="#000000" font-family="sans-serif" font-size="13" lengthAdjust="spacingAndGlyphs" textLength="591" x="117" y="166.7935">Request to adjust ParticipantLimit for a certain Currency - POST - /participants/{name}/limits</text><path d="M102,184.8594 L102,345.8594 L280,345.8594 L280,194.8594 L270,184.8594 L102,184.8594 " fill="#FFFF00" filter="url(#f1mlraau69nkq7)" style="stroke: #A80036; stroke-width: 1.0;"/><path d="M270,184.8594 L270,194.8594 L280,194.8594 L270,184.8594 " fill="#FFFF00" style="stroke: #A80036; stroke-width: 1.0;"/><text fill="#000000" font-family="sans-serif" font-size="13" lengthAdjust="spacingAndGlyphs" textLength="61" x="108" y="201.9263">Message:</text><text fill="#000000" font-family="sans-serif" font-size="13" lengthAdjust="spacingAndGlyphs" textLength="8" x="108" y="217.0591">{</text><text fill="#000000" font-family="sans-serif" font-size="13" lengthAdjust="spacingAndGlyphs" textLength="66" x="124" y="232.1919">payload: {</text><text fill="#000000" font-family="sans-serif" font-size="13" lengthAdjust="spacingAndGlyphs" textLength="125" x="140" y="247.3247">currency: &lt;string&gt;,</text><text fill="#000000" font-family="sans-serif" font-size="13" lengthAdjust="spacingAndGlyphs" textLength="43" x="140" y="262.4575">limit: {</text><text fill="#000000" font-family="sans-serif" font-size="13" lengthAdjust="spacingAndGlyphs" textLength="98" x="156" y="277.5903">type: &lt;string&gt;,</text><text fill="#000000" font-family="sans-serif" font-size="13" lengthAdjust="spacingAndGlyphs" textLength="75" x="156" y="292.7231">value: &lt;Id&gt;</text><text fill="#000000" font-family="sans-serif" font-size="13" lengthAdjust="spacingAndGlyphs" textLength="8" x="140" y="307.856">}</text><text fill="#000000" font-family="sans-serif" font-size="13" lengthAdjust="spacingAndGlyphs" textLength="8" x="124" y="322.9888">}</text><text fill="#000000" font-family="sans-serif" font-size="13" lengthAdjust="spacingAndGlyphs" textLength="8" x="108" y="338.1216">}</text><polygon fill="#A80036" points="1015,372.3203,1025,376.3203,1015,380.3203,1019,376.3203" style="stroke: #A80036; stroke-width: 1.0;"/><line style="stroke: #A80036; stroke-width: 1.0;" x1="730" x2="1021" y1="376.3203" y2="376.3203"/><text fill="#000000" font-family="sans-serif" font-size="13" font-weight="bold" lengthAdjust="spacingAndGlyphs" textLength="9" x="737" y="371.2544">2</text><text fill="#000000" font-family="sans-serif" font-size="13" lengthAdjust="spacingAndGlyphs" textLength="168" x="750" y="371.2544">Adjust Limit for Participant</text><polygon fill="#A80036" points="1372,416.5859,1382,420.5859,1372,424.5859,1376,420.5859" style="stroke: #A80036; stroke-width: 1.0;"/><line style="stroke: #A80036; stroke-width: 1.0;" x1="1037" x2="1378" y1="420.5859" y2="420.5859"/><text fill="#000000" font-family="sans-serif" font-size="13" font-weight="bold" lengthAdjust="spacingAndGlyphs" textLength="9" x="1044" y="407.9536">3</text><text fill="#000000" font-family="sans-serif" font-size="13" lengthAdjust="spacingAndGlyphs" textLength="166" x="1057" y="400.3872">Fetch Participant/currency</text><text fill="#FF0000" font-family="sans-serif" font-size="13" font-weight="bold" lengthAdjust="spacingAndGlyphs" textLength="82" x="1057" y="415.52">Error code:</text><text fill="#FF0000" font-family="sans-serif" font-size="13" lengthAdjust="spacingAndGlyphs" textLength="32" x="1143" y="415.52">3200</text><polygon fill="#A80036" points="1610,445.7188,1620,449.7188,1610,453.7188,1614,449.7188" style="stroke: #A80036; stroke-width: 1.0;"/><line style="stroke: #A80036; stroke-width: 1.0;" x1="1394" x2="1616" y1="449.7188" y2="449.7188"/><text fill="#000000" font-family="sans-serif" font-size="13" font-weight="bold" lengthAdjust="spacingAndGlyphs" textLength="9" x="1401" y="444.6528">4</text><text fill="#000000" font-family="sans-serif" font-size="13" lengthAdjust="spacingAndGlyphs" textLength="166" x="1414" y="444.6528">Fetch Participant/currency</text><polygon fill="#FFFFE0" filter="url(#f1mlraau69nkq7)" points="1562,462.7188,1691,462.7188,1701,481.7188,1691,500.7188,1562,500.7188,1552,481.7188,1562,462.7188" style="stroke: #A80036; stroke-width: 1.0;"/><text fill="#000000" font-family="sans-serif" font-size="13" lengthAdjust="spacingAndGlyphs" textLength="68" x="1564" y="478.7856">participant</text><text fill="#000000" font-family="sans-serif" font-size="13" lengthAdjust="spacingAndGlyphs" textLength="125" x="1564" y="493.9185">participantCurrency</text><polygon fill="#A80036" points="1405,523.1172,1395,527.1172,1405,531.1172,1401,527.1172" style="stroke: #A80036; stroke-width: 1.0;"/><line style="stroke: #A80036; stroke-width: 1.0; stroke-dasharray: 2.0,2.0;" x1="1399" x2="1626" y1="527.1172" y2="527.1172"/><text fill="#000000" font-family="sans-serif" font-size="13" font-weight="bold" lengthAdjust="spacingAndGlyphs" textLength="9" x="1411" y="522.0513">5</text><text fill="#000000" font-family="sans-serif" font-size="13" lengthAdjust="spacingAndGlyphs" textLength="191" x="1424" y="522.0513">Retrieved Participant/currency</text><polygon fill="#A80036" points="1048,552.25,1038,556.25,1048,560.25,1044,556.25" style="stroke: #A80036; stroke-width: 1.0;"/><line style="stroke: #A80036; stroke-width: 1.0; stroke-dasharray: 2.0,2.0;" x1="1042" x2="1388" y1="556.25" y2="556.25"/><text fill="#000000" font-family="sans-serif" font-size="13" font-weight="bold" lengthAdjust="spacingAndGlyphs" textLength="9" x="1054" y="551.1841">6</text><text fill="#000000" font-family="sans-serif" font-size="13" lengthAdjust="spacingAndGlyphs" textLength="173" x="1067" y="551.1841">Return Participant/currency</text><line style="stroke: #A80036; stroke-width: 1.0;" x1="1037" x2="1079" y1="585.3828" y2="585.3828"/><line style="stroke: #A80036; stroke-width: 1.0;" x1="1079" x2="1079" y1="585.3828" y2="598.3828"/><line style="stroke: #A80036; stroke-width: 1.0;" x1="1038" x2="1079" y1="598.3828" y2="598.3828"/><polygon fill="#A80036" points="1048,594.3828,1038,598.3828,1048,602.3828,1044,598.3828" style="stroke: #A80036; stroke-width: 1.0;"/><text fill="#000000" font-family="sans-serif" font-size="13" font-weight="bold" lengthAdjust="spacingAndGlyphs" textLength="9" x="1044" y="580.3169">7</text><text fill="#000000" font-family="sans-serif" font-size="13" lengthAdjust="spacingAndGlyphs" textLength="90" x="1057" y="580.3169">Validate DFSP</text><path d="M23,613.3828 L87,613.3828 L87,620.3828 L77,630.3828 L23,630.3828 L23,613.3828 " fill="#EEEEEE" style="stroke: #000000; stroke-width: 1.0;"/><rect fill="none" height="1197.5156" style="stroke: #000000; stroke-width: 2.0;" width="1695" x="23" y="613.3828"/><text fill="#000000" font-family="sans-serif" font-size="13" font-weight="bold" lengthAdjust="spacingAndGlyphs" textLength="19" x="38" y="626.4497">alt</text><text fill="#000000" font-family="sans-serif" font-size="11" font-weight="bold" lengthAdjust="spacingAndGlyphs" textLength="202" x="102" y="625.5933">[Validate participant (success)]</text><polygon fill="#A80036" points="1372,662.7813,1382,666.7813,1372,670.7813,1376,666.7813" style="stroke: #A80036; stroke-width: 1.0;"/><line style="stroke: #A80036; stroke-width: 1.0;" x1="1037" x2="1378" y1="666.7813" y2="666.7813"/><text fill="#000000" font-family="sans-serif" font-size="13" font-weight="bold" lengthAdjust="spacingAndGlyphs" textLength="9" x="1044" y="654.1489">8</text><text fill="#000000" font-family="sans-serif" font-size="13" lengthAdjust="spacingAndGlyphs" textLength="298" x="1057" y="646.5825">(for ParticipantCurrency) Fetch ParticipantLimit</text><text fill="#FF0000" font-family="sans-serif" font-size="13" font-weight="bold" lengthAdjust="spacingAndGlyphs" textLength="82" x="1057" y="661.7153">Error code:</text><text fill="#FF0000" font-family="sans-serif" font-size="13" lengthAdjust="spacingAndGlyphs" textLength="32" x="1143" y="661.7153">3200</text><polygon fill="#A80036" points="1610,691.9141,1620,695.9141,1610,699.9141,1614,695.9141" style="stroke: #A80036; stroke-width: 1.0;"/><line style="stroke: #A80036; stroke-width: 1.0;" x1="1394" x2="1616" y1="695.9141" y2="695.9141"/><text fill="#000000" font-family="sans-serif" font-size="13" font-weight="bold" lengthAdjust="spacingAndGlyphs" textLength="9" x="1401" y="690.8481">9</text><text fill="#000000" font-family="sans-serif" font-size="13" lengthAdjust="spacingAndGlyphs" textLength="138" x="1414" y="690.8481">Fetch ParticipantLimit</text><polygon fill="#FFFFE0" filter="url(#f1mlraau69nkq7)" points="1575,708.9141,1678,708.9141,1688,719.9141,1678,731.9141,1575,731.9141,1565,719.9141,1575,708.9141" style="stroke: #A80036; stroke-width: 1.0;"/><text fill="#000000" font-family="sans-serif" font-size="13" lengthAdjust="spacingAndGlyphs" textLength="99" x="1577" y="724.981">participantLimit</text><polygon fill="#A80036" points="1405,754.1797,1395,758.1797,1405,762.1797,1401,758.1797" style="stroke: #A80036; stroke-width: 1.0;"/><line style="stroke: #A80036; stroke-width: 1.0; stroke-dasharray: 2.0,2.0;" x1="1399" x2="1626" y1="758.1797" y2="758.1797"/><text fill="#000000" font-family="sans-serif" font-size="13" font-weight="bold" lengthAdjust="spacingAndGlyphs" textLength="18" x="1411" y="753.1138">10</text><text fill="#000000" font-family="sans-serif" font-size="13" lengthAdjust="spacingAndGlyphs" textLength="163" x="1433" y="753.1138">Retrieved ParticipantLimit</text><polygon fill="#A80036" points="1048,783.3125,1038,787.3125,1048,791.3125,1044,787.3125" style="stroke: #A80036; stroke-width: 1.0;"/><line style="stroke: #A80036; stroke-width: 1.0; stroke-dasharray: 2.0,2.0;" x1="1042" x2="1388" y1="787.3125" y2="787.3125"/><text fill="#000000" font-family="sans-serif" font-size="13" font-weight="bold" lengthAdjust="spacingAndGlyphs" textLength="18" x="1054" y="782.2466">11</text><text fill="#000000" font-family="sans-serif" font-size="13" lengthAdjust="spacingAndGlyphs" textLength="145" x="1076" y="782.2466">Return ParticipantLimit</text><line style="stroke: #A80036; stroke-width: 1.0;" x1="1037" x2="1079" y1="816.4453" y2="816.4453"/><line style="stroke: #A80036; stroke-width: 1.0;" x1="1079" x2="1079" y1="816.4453" y2="829.4453"/><line style="stroke: #A80036; stroke-width: 1.0;" x1="1038" x2="1079" y1="829.4453" y2="829.4453"/><polygon fill="#A80036" points="1048,825.4453,1038,829.4453,1048,833.4453,1044,829.4453" style="stroke: #A80036; stroke-width: 1.0;"/><text fill="#000000" font-family="sans-serif" font-size="13" font-weight="bold" lengthAdjust="spacingAndGlyphs" textLength="18" x="1044" y="811.3794">12</text><text fill="#000000" font-family="sans-serif" font-size="13" lengthAdjust="spacingAndGlyphs" textLength="155" x="1066" y="811.3794">Validate ParticipantLimit</text><path d="M944.5,844.4453 L1008.5,844.4453 L1008.5,851.4453 L998.5,861.4453 L944.5,861.4453 L944.5,844.4453 " fill="#EEEEEE" style="stroke: #000000; stroke-width: 1.0;"/><rect fill="none" height="526.8594" style="stroke: #000000; stroke-width: 2.0;" width="763.5" x="944.5" y="844.4453"/><text fill="#000000" font-family="sans-serif" font-size="13" font-weight="bold" lengthAdjust="spacingAndGlyphs" textLength="19" x="959.5" y="857.5122">alt</text><text fill="#000000" font-family="sans-serif" font-size="11" font-weight="bold" lengthAdjust="spacingAndGlyphs" textLength="233" x="1023.5" y="856.6558">[Validate participantLimit (success)]</text><path d="M954.5,868.5781 L1597.5,868.5781 L1597.5,875.5781 L1587.5,885.5781 L954.5,885.5781 L954.5,868.5781 " fill="#EEEEEE" style="stroke: #000000; stroke-width: 1.0;"/><rect fill="none" height="311.8594" style="stroke: #000000; stroke-width: 2.0;" width="743.5" x="954.5" y="868.5781"/><text fill="#000000" font-family="sans-serif" font-size="13" font-weight="bold" lengthAdjust="spacingAndGlyphs" textLength="598" x="969.5" y="881.645">DB TRANSACTION IMPLEMENTATION - Lock on ParticipantLimit table with UPDATE</text><path d="M1394,890.7109 L1394,1005.7109 L1624,1005.7109 L1624,900.7109 L1614,890.7109 L1394,890.7109 " fill="#D3D3D3" filter="url(#f1mlraau69nkq7)" style="stroke: #A80036; stroke-width: 1.0;"/><path d="M1614,890.7109 L1614,900.7109 L1624,900.7109 L1614,890.7109 " fill="#D3D3D3" style="stroke: #A80036; stroke-width: 1.0;"/><text fill="#000000" font-family="sans-serif" font-size="13" lengthAdjust="spacingAndGlyphs" textLength="209" x="1400" y="907.7778">If (record exists &amp;&amp; isActive = 1)</text><text fill="#000000" font-family="sans-serif" font-size="13" lengthAdjust="spacingAndGlyphs" textLength="148" x="1416" y="922.9106">oldIsActive.isActive = 0</text><text fill="#000000" font-family="sans-serif" font-size="13" lengthAdjust="spacingAndGlyphs" textLength="84" x="1416" y="938.0435">insert Record</text><text fill="#000000" font-family="sans-serif" font-size="13" lengthAdjust="spacingAndGlyphs" textLength="26" x="1400" y="953.1763">Else</text><text fill="#000000" font-family="sans-serif" font-size="13" lengthAdjust="spacingAndGlyphs" textLength="84" x="1416" y="968.3091">insert Record</text><text fill="#000000" font-family="sans-serif" font-size="13" lengthAdjust="spacingAndGlyphs" textLength="24" x="1400" y="983.4419">End</text><text fill="#000000" font-family="sans-serif" font-size="13" lengthAdjust="spacingAndGlyphs" textLength="0" x="1404" y="998.5747"/><polygon fill="#A80036" points="1372,1047.9063,1382,1051.9063,1372,1055.9063,1376,1051.9063" style="stroke: #A80036; stroke-width: 1.0;"/><line style="stroke: #A80036; stroke-width: 1.0;" x1="1037" x2="1378" y1="1051.9063" y2="1051.9063"/><text fill="#000000" font-family="sans-serif" font-size="13" font-weight="bold" lengthAdjust="spacingAndGlyphs" textLength="18" x="1044" y="1039.2739">13</text><text fill="#000000" font-family="sans-serif" font-size="13" lengthAdjust="spacingAndGlyphs" textLength="302" x="1066" y="1031.7075">(for ParticipantLimit) Insert new ParticipantLimit</text><text fill="#FF0000" font-family="sans-serif" font-size="13" font-weight="bold" lengthAdjust="spacingAndGlyphs" textLength="82" x="1066" y="1046.8403">Error code:</text><text fill="#FF0000" font-family="sans-serif" font-size="13" lengthAdjust="spacingAndGlyphs" textLength="32" x="1152" y="1046.8403">3200</text><polygon fill="#A80036" points="1610,1077.0391,1620,1081.0391,1610,1085.0391,1614,1081.0391" style="stroke: #A80036; stroke-width: 1.0;"/><line style="stroke: #A80036; stroke-width: 1.0;" x1="1394" x2="1616" y1="1081.0391" y2="1081.0391"/><text fill="#000000" font-family="sans-serif" font-size="13" font-weight="bold" lengthAdjust="spacingAndGlyphs" textLength="18" x="1401" y="1075.9731">14</text><text fill="#000000" font-family="sans-serif" font-size="13" lengthAdjust="spacingAndGlyphs" textLength="139" x="1423" y="1075.9731">Insert ParticipantLimit</text><polygon fill="#FFFFE0" filter="url(#f1mlraau69nkq7)" points="1575,1094.0391,1678,1094.0391,1688,1105.0391,1678,1117.0391,1575,1117.0391,1565,1105.0391,1575,1094.0391" style="stroke: #A80036; stroke-width: 1.0;"/><text fill="#000000" font-family="sans-serif" font-size="13" lengthAdjust="spacingAndGlyphs" textLength="99" x="1577" y="1110.106">participantLimit</text><polygon fill="#A80036" points="1405,1139.3047,1395,1143.3047,1405,1147.3047,1401,1143.3047" style="stroke: #A80036; stroke-width: 1.0;"/><line style="stroke: #A80036; stroke-width: 1.0; stroke-dasharray: 2.0,2.0;" x1="1399" x2="1626" y1="1143.3047" y2="1143.3047"/><text fill="#000000" font-family="sans-serif" font-size="13" font-weight="bold" lengthAdjust="spacingAndGlyphs" textLength="18" x="1411" y="1138.2388">15</text><text fill="#000000" font-family="sans-serif" font-size="13" lengthAdjust="spacingAndGlyphs" textLength="155" x="1433" y="1138.2388">Inserted ParticipantLimit</text><polygon fill="#A80036" points="1048,1168.4375,1038,1172.4375,1048,1176.4375,1044,1172.4375" style="stroke: #A80036; stroke-width: 1.0;"/><line style="stroke: #A80036; stroke-width: 1.0; stroke-dasharray: 2.0,2.0;" x1="1042" x2="1388" y1="1172.4375" y2="1172.4375"/><text fill="#000000" font-family="sans-serif" font-size="13" font-weight="bold" lengthAdjust="spacingAndGlyphs" textLength="18" x="1054" y="1167.3716">16</text><text fill="#000000" font-family="sans-serif" font-size="13" lengthAdjust="spacingAndGlyphs" textLength="145" x="1076" y="1167.3716">Return ParticipantLimit</text><line style="stroke: #000000; stroke-width: 1.0; stroke-dasharray: 2.0,2.0;" x1="944.5" x2="1708" y1="1188.4375" y2="1188.4375"/><text fill="#000000" font-family="sans-serif" font-size="11" font-weight="bold" lengthAdjust="spacingAndGlyphs" textLength="224" x="949.5" y="1198.6479">[Validate participantLimit (failure)]</text><path d="M1042,1207.2422 L1042,1232.2422 L1174,1232.2422 L1174,1217.2422 L1164,1207.2422 L1042,1207.2422 " fill="#FF0000" filter="url(#f1mlraau69nkq7)" style="stroke: #A80036; stroke-width: 1.0;"/><path d="M1164,1207.2422 L1164,1217.2422 L1174,1217.2422 L1164,1207.2422 " fill="#FF0000" style="stroke: #A80036; stroke-width: 1.0;"/><text fill="#000000" font-family="sans-serif" font-size="13" lengthAdjust="spacingAndGlyphs" textLength="111" x="1048" y="1224.3091">Validation failure!</text><path d="M1042,1246.375 L1042,1361.375 L1415,1361.375 L1415,1256.375 L1405,1246.375 L1042,1246.375 " fill="#FFFF00" filter="url(#f1mlraau69nkq7)" style="stroke: #A80036; stroke-width: 1.0;"/><path d="M1405,1246.375 L1405,1256.375 L1415,1256.375 L1405,1246.375 " fill="#FFFF00" style="stroke: #A80036; stroke-width: 1.0;"/><text fill="#000000" font-family="sans-serif" font-size="13" lengthAdjust="spacingAndGlyphs" textLength="61" x="1048" y="1263.4419">Message:</text><text fill="#000000" font-family="sans-serif" font-size="13" lengthAdjust="spacingAndGlyphs" textLength="8" x="1064" y="1278.5747">{</text><text fill="#000000" font-family="sans-serif" font-size="13" lengthAdjust="spacingAndGlyphs" textLength="130" x="1080" y="1293.7075">"errorInformation": {</text><text fill="#000000" font-family="sans-serif" font-size="13" lengthAdjust="spacingAndGlyphs" textLength="118" x="1096" y="1308.8403">"errorCode": 3200,</text><text fill="#000000" font-family="sans-serif" font-size="13" lengthAdjust="spacingAndGlyphs" textLength="304" x="1096" y="1323.9731">"errorDescription": "ParticipantLimit Not Found",</text><text fill="#000000" font-family="sans-serif" font-size="13" lengthAdjust="spacingAndGlyphs" textLength="8" x="1080" y="1339.106">}</text><text fill="#000000" font-family="sans-serif" font-size="13" lengthAdjust="spacingAndGlyphs" textLength="8" x="1064" y="1354.2388">}</text><polygon fill="#A80036" points="741,1395.4375,731,1399.4375,741,1403.4375,737,1399.4375" style="stroke: #A80036; stroke-width: 1.0;"/><line style="stroke: #A80036; stroke-width: 1.0; stroke-dasharray: 2.0,2.0;" x1="735" x2="1026" y1="1399.4375" y2="1399.4375"/><text fill="#000000" font-family="sans-serif" font-size="13" font-weight="bold" lengthAdjust="spacingAndGlyphs" textLength="18" x="747" y="1394.3716">17</text><text fill="#000000" font-family="sans-serif" font-size="13" lengthAdjust="spacingAndGlyphs" textLength="251" x="769" y="1394.3716">Return new Limit values and status 200</text><path d="M1042,1412.4375 L1042,1588.4375 L1329,1588.4375 L1329,1422.4375 L1319,1412.4375 L1042,1412.4375 " fill="#FFFF00" filter="url(#f1mlraau69nkq7)" style="stroke: #A80036; stroke-width: 1.0;"/><path d="M1319,1412.4375 L1319,1422.4375 L1329,1422.4375 L1319,1412.4375 " fill="#FFFF00" style="stroke: #A80036; stroke-width: 1.0;"/><text fill="#000000" font-family="sans-serif" font-size="13" lengthAdjust="spacingAndGlyphs" textLength="61" x="1048" y="1429.5044">Message:</text><text fill="#000000" font-family="sans-serif" font-size="13" lengthAdjust="spacingAndGlyphs" textLength="8" x="1048" y="1444.6372">{</text><text fill="#000000" font-family="sans-serif" font-size="13" lengthAdjust="spacingAndGlyphs" textLength="113" x="1064" y="1459.77">"currency": "EUR",</text><text fill="#000000" font-family="sans-serif" font-size="13" lengthAdjust="spacingAndGlyphs" textLength="53" x="1064" y="1474.9028">"limit": {</text><text fill="#000000" font-family="sans-serif" font-size="13" lengthAdjust="spacingAndGlyphs" textLength="204" x="1080" y="1490.0356">"participantLimitId": &lt;number&gt;,</text><text fill="#000000" font-family="sans-serif" font-size="13" lengthAdjust="spacingAndGlyphs" textLength="234" x="1080" y="1505.1685">"participantLimitTypeId": &lt;number&gt;,</text><text fill="#000000" font-family="sans-serif" font-size="13" lengthAdjust="spacingAndGlyphs" textLength="108" x="1080" y="1520.3013">"type": &lt;string&gt;,</text><text fill="#000000" font-family="sans-serif" font-size="13" lengthAdjust="spacingAndGlyphs" textLength="114" x="1080" y="1535.4341">"value": &lt;string&gt;,</text><text fill="#000000" font-family="sans-serif" font-size="13" lengthAdjust="spacingAndGlyphs" textLength="75" x="1080" y="1550.5669">"isActive": 1</text><text fill="#000000" font-family="sans-serif" font-size="13" lengthAdjust="spacingAndGlyphs" textLength="8" x="1064" y="1565.6997">}</text><text fill="#000000" font-family="sans-serif" font-size="13" lengthAdjust="spacingAndGlyphs" textLength="8" x="1048" y="1580.8325">}</text><polygon fill="#A80036" points="108,1615.0313,98,1619.0313,108,1623.0313,104,1619.0313" style="stroke: #A80036; stroke-width: 1.0;"/><line style="stroke: #A80036; stroke-width: 1.0; stroke-dasharray: 2.0,2.0;" x1="102" x2="719" y1="1619.0313" y2="1619.0313"/><text fill="#000000" font-family="sans-serif" font-size="13" font-weight="bold" lengthAdjust="spacingAndGlyphs" textLength="18" x="114" y="1613.9653">18</text><text fill="#000000" font-family="sans-serif" font-size="13" lengthAdjust="spacingAndGlyphs" textLength="251" x="136" y="1613.9653">Return new Limit values and status 200</text><line style="stroke: #000000; stroke-width: 1.0; stroke-dasharray: 2.0,2.0;" x1="23" x2="1718" y1="1628.0313" y2="1628.0313"/><text fill="#000000" font-family="sans-serif" font-size="11" font-weight="bold" lengthAdjust="spacingAndGlyphs" textLength="193" x="28" y="1638.2417">[Validate participant (failure)]</text><path d="M1042,1646.8359 L1042,1671.8359 L1174,1671.8359 L1174,1656.8359 L1164,1646.8359 L1042,1646.8359 " fill="#FF0000" filter="url(#f1mlraau69nkq7)" style="stroke: #A80036; stroke-width: 1.0;"/><path d="M1164,1646.8359 L1164,1656.8359 L1174,1656.8359 L1164,1646.8359 " fill="#FF0000" style="stroke: #A80036; stroke-width: 1.0;"/><text fill="#000000" font-family="sans-serif" font-size="13" lengthAdjust="spacingAndGlyphs" textLength="111" x="1048" y="1663.9028">Validation failure!</text><path d="M1042,1685.9688 L1042,1800.9688 L1355,1800.9688 L1355,1695.9688 L1345,1685.9688 L1042,1685.9688 " fill="#FFFF00" filter="url(#f1mlraau69nkq7)" style="stroke: #A80036; stroke-width: 1.0;"/><path d="M1345,1685.9688 L1345,1695.9688 L1355,1695.9688 L1345,1685.9688 " fill="#FFFF00" style="stroke: #A80036; stroke-width: 1.0;"/><text fill="#000000" font-family="sans-serif" font-size="13" lengthAdjust="spacingAndGlyphs" textLength="61" x="1048" y="1703.0356">Message:</text><text fill="#000000" font-family="sans-serif" font-size="13" lengthAdjust="spacingAndGlyphs" textLength="8" x="1064" y="1718.1685">{</text><text fill="#000000" font-family="sans-serif" font-size="13" lengthAdjust="spacingAndGlyphs" textLength="130" x="1080" y="1733.3013">"errorInformation": {</text><text fill="#000000" font-family="sans-serif" font-size="13" lengthAdjust="spacingAndGlyphs" textLength="118" x="1096" y="1748.4341">"errorCode": 3200,</text><text fill="#000000" font-family="sans-serif" font-size="13" lengthAdjust="spacingAndGlyphs" textLength="244" x="1096" y="1763.5669">"errorDescription": "FSP id Not Found",</text><text fill="#000000" font-family="sans-serif" font-size="13" lengthAdjust="spacingAndGlyphs" textLength="8" x="1080" y="1778.6997">}</text><text fill="#000000" font-family="sans-serif" font-size="13" lengthAdjust="spacingAndGlyphs" textLength="8" x="1064" y="1793.8325">}</text><polygon fill="#A80036" points="741,1835.0313,731,1839.0313,741,1843.0313,737,1839.0313" style="stroke: #A80036; stroke-width: 1.0;"/><line style="stroke: #A80036; stroke-width: 1.0; stroke-dasharray: 2.0,2.0;" x1="735" x2="1031" y1="1839.0313" y2="1839.0313"/><text fill="#000000" font-family="sans-serif" font-size="13" font-weight="bold" lengthAdjust="spacingAndGlyphs" textLength="18" x="747" y="1833.9653">19</text><text fill="#000000" font-family="sans-serif" font-size="13" lengthAdjust="spacingAndGlyphs" textLength="42" x="769" y="1833.9653">Return</text><text fill="#FF0000" font-family="sans-serif" font-size="13" font-weight="bold" lengthAdjust="spacingAndGlyphs" textLength="82" x="815" y="1833.9653">Error code:</text><text fill="#FF0000" font-family="sans-serif" font-size="13" lengthAdjust="spacingAndGlyphs" textLength="32" x="901" y="1833.9653">3200</text><polygon fill="#A80036" points="103,1864.1641,93,1868.1641,103,1872.1641,99,1868.1641" style="stroke: #A80036; stroke-width: 1.0;"/><line style="stroke: #A80036; stroke-width: 1.0; stroke-dasharray: 2.0,2.0;" x1="97" x2="724" y1="1868.1641" y2="1868.1641"/><text fill="#000000" font-family="sans-serif" font-size="13" font-weight="bold" lengthAdjust="spacingAndGlyphs" textLength="18" x="109" y="1863.0981">20</text><text fill="#000000" font-family="sans-serif" font-size="13" lengthAdjust="spacingAndGlyphs" textLength="42" x="131" y="1863.0981">Return</text><text fill="#FF0000" font-family="sans-serif" font-size="13" font-weight="bold" lengthAdjust="spacingAndGlyphs" textLength="82" x="177" y="1863.0981">Error code:</text><text fill="#FF0000" font-family="sans-serif" font-size="13" lengthAdjust="spacingAndGlyphs" textLength="32" x="263" y="1863.0981">3200</text><!--
@startuml
title 2.06 Design an API to manage NET DEBIT CAP #330

autonumber

actor "HUB OPERATOR" as OPERATOR
boundary "Central Service API" as CSAPI
control "Participant Handler" as PARTICIPANT_HANDLER
entity "Central Service API" as CSAPI
entity "Participant DAO" as PARTICIPANT_DAO
database "Central Store" as DB

box "Central Services" #LightYellow
participant PARTICIPANT_HANDLER
participant PARTICIPANT_DAO
participant DB
end box


activate OPERATOR
group Manage Net Debit Cap
    OPERATOR -> CSAPI: Request to adjust ParticipantLimit for a certain Currency - POST - /participants/{name}/limits
    note right of OPERATOR #yellow
        Message:
        {
            payload: {
                currency: <string>,
                limit: {
                    type: <string>,
                    value: <Id>
                }
            }
        }
    end note

    activate CSAPI
    CSAPI -> PARTICIPANT_HANDLER: Adjust Limit for Participant
    activate PARTICIPANT_HANDLER
    PARTICIPANT_HANDLER ->PARTICIPANT_DAO: Fetch Participant/currency \n<color #FF0000><b>Error code:</b> 3200</color>
    activate PARTICIPANT_DAO
    PARTICIPANT_DAO -> DB: Fetch Participant/currency
    activate DB
    hnote over DB #lightyellow
        participant
        participantCurrency
    end note
    DB - -> PARTICIPANT_DAO: Retrieved Participant/currency
    deactivate DB
    PARTICIPANT_DAO - -> PARTICIPANT_HANDLER: Return Participant/currency
    deactivate PARTICIPANT_DAO
    PARTICIPANT_HANDLER -> PARTICIPANT_HANDLER: Validate DFSP
    alt Validate participant (success)
                PARTICIPANT_HANDLER ->PARTICIPANT_DAO:  (for ParticipantCurrency) Fetch ParticipantLimit \n<color #FF0000><b>Error code:</b> 3200</color>
                activate PARTICIPANT_DAO
                PARTICIPANT_DAO -> DB: Fetch ParticipantLimit
                activate DB
                hnote over DB #lightyellow
                    participantLimit
                end note
                DB - -> PARTICIPANT_DAO: Retrieved ParticipantLimit
                deactivate DB
                PARTICIPANT_DAO - -> PARTICIPANT_HANDLER: Return ParticipantLimit
                deactivate PARTICIPANT_DAO
                PARTICIPANT_HANDLER -> PARTICIPANT_HANDLER: Validate ParticipantLimit
                alt Validate participantLimit (success)
                    Group DB TRANSACTION IMPLEMENTATION - Lock on ParticipantLimit table with UPDATE
                    note right of PARTICIPANT_DAO #lightgrey
                        If (record exists && isActive = 1)
                            oldIsActive.isActive = 0
                            insert Record
                        Else
                            insert Record
                        End

                    end note

                    PARTICIPANT_HANDLER ->PARTICIPANT_DAO:  (for ParticipantLimit) Insert new ParticipantLimit \n<color #FF0000><b>Error code:</b> 3200</color>

                    activate PARTICIPANT_DAO

                    PARTICIPANT_DAO -> DB: Insert ParticipantLimit
                    activate DB
                    hnote over DB #lightyellow
                        participantLimit
                    end note
                    DB - -> PARTICIPANT_DAO: Inserted ParticipantLimit
                    deactivate DB
                    PARTICIPANT_DAO - -> PARTICIPANT_HANDLER: Return ParticipantLimit


                    deactivate PARTICIPANT_DAO
                End

         else Validate participantLimit (failure)
                    note right of PARTICIPANT_HANDLER #red: Validation failure!

                    note right of PARTICIPANT_HANDLER #yellow
                        Message:
                            {
                                "errorInformation": {
                                    "errorCode": 3200,
                                    "errorDescription": "ParticipantLimit Not Found",
                                }
                            }
                    end note
                end
            PARTICIPANT_HANDLER - -> CSAPI: Return new Limit values and status 200
                note right of PARTICIPANT_HANDLER #yellow
                    Message:
                    {
                        "currency": "EUR",
                        "limit": {
                            "participantLimitId": <number>,
                            "participantLimitTypeId": <number>,
                            "type": <string>,
                            "value": <string>,
                            "isActive": 1
                        }
                    }
                end note
            CSAPI - -> OPERATOR: Return new Limit values and status 200

    else Validate participant (failure)
        note right of PARTICIPANT_HANDLER #red: Validation failure!

        note right of PARTICIPANT_HANDLER #yellow
            Message:
                {
                    "errorInformation": {
                        "errorCode": 3200,
                        "errorDescription": "FSP id Not Found",
                    }
                }
        end note

    end
        PARTICIPANT_HANDLER - ->CSAPI: Return <color #FF0000><b>Error code:</b> 3200</color>
        deactivate PARTICIPANT_HANDLER
        CSAPI - ->OPERATOR: Return <color #FF0000><b>Error code:</b> 3200</color>

    deactivate PARTICIPANT_HANDLER
    deactivate CSAPI
    deactivate OPERATOR
end
@enduml

PlantUML version 1.2018.08(Sun Jun 24 12:31:00 UTC 2018)
(GPL source distribution)
Java Runtime: Java(TM) SE Runtime Environment
JVM: Java HotSpot(TM) 64-Bit Server VM
Java Version: 1.7.0_25-b15
Operating System: Linux
Default Encoding: UTF-8
Language: en
Country: US
--></g></svg>