<?xml version="1.0" encoding="UTF-8" standalone="no"?><svg xmlns="http://www.w3.org/2000/svg" xmlns:xlink="http://www.w3.org/1999/xlink" contentScriptType="application/ecmascript" contentStyleType="text/css" height="615.6px" preserveAspectRatio="none" style="width:932px;height:615px;" version="1.1" viewBox="0 0 932 615" width="932.4px" zoomAndPan="magnify"><defs><filter height="300%" id="fdu5jas4n4zoq" width="300%" x="-1" y="-1"><feGaussianBlur result="blurOut" stdDeviation="1.2000000476837158"/><feColorMatrix in="blurOut" result="blurOut2" type="matrix" values="0 0 0 0 0 0 0 0 0 0 0 0 0 0 0 0 0 0 .4 0"/><feOffset dx="2.4000000953674316" dy="2.4000000953674316" in="blurOut2" result="blurOut3"/><feBlend in="SourceGraphic" in2="blurOut3" mode="normal"/></filter></defs><g><text fill="#000000" font-family="sans-serif" font-size="8.4" font-weight="bold" lengthAdjust="spacingAndGlyphs" textLength="253.2" x="339.9" y="14.1211">6.1.1. getSettlementWindowById GET: /settlementWindows</text><rect fill="#FFB6C1" height="588.7489" style="stroke: #A80036; stroke-width: 0.6000000238418579;" width="67.2" x="50.4" y="20.693"/><text fill="#000000" font-family="sans-serif" font-size="7.8" font-weight="bold" lengthAdjust="spacingAndGlyphs" textLength="48.6" x="59.7" y="28.234">Central HUB</text><rect fill="#90EE90" height="588.7489" style="stroke: #A80036; stroke-width: 0.6000000238418579;" width="411.9" x="277.5" y="20.693"/><text fill="#000000" font-family="sans-serif" font-size="7.8" font-weight="bold" lengthAdjust="spacingAndGlyphs" textLength="74.4" x="446.25" y="28.234">Settlement Service</text><rect fill="#FFFFE0" height="588.7489" style="stroke: #A80036; stroke-width: 0.6000000238418579;" width="68.4" x="819.6" y="20.693"/><text fill="#000000" font-family="sans-serif" font-size="7.8" font-weight="bold" lengthAdjust="spacingAndGlyphs" textLength="64.8" x="821.4" y="28.234">Central Services</text><rect fill="#FFFFFF" filter="url(#fdu5jas4n4zoq)" height="17.5863" style="stroke: #A80036; stroke-width: 0.6000000238418579;" width="6" x="324" y="139.1449"/><rect fill="#FFFFFF" filter="url(#fdu5jas4n4zoq)" height="77.918" style="stroke: #A80036; stroke-width: 0.6000000238418579;" width="6" x="324" y="297.6082"/><rect fill="#FFFFFF" filter="url(#fdu5jas4n4zoq)" height="136.077" style="stroke: #A80036; stroke-width: 0.6000000238418579;" width="6" x="324" y="402.0856"/><rect fill="#FFFFFF" filter="url(#fdu5jas4n4zoq)" height="140.877" style="stroke: #A80036; stroke-width: 0.6000000238418579;" width="6" x="477.6" y="156.7313"/><rect fill="#FFFFFF" filter="url(#fdu5jas4n4zoq)" height="227.768" style="stroke: #A80036; stroke-width: 0.6000000238418579;" width="6" x="649.8" y="174.3176"/><rect fill="#FFFFFF" filter="url(#fdu5jas4n4zoq)" height="46.9453" style="stroke: #A80036; stroke-width: 0.6000000238418579;" width="6" x="850.8" y="200.9039"/><rect fill="#FFFFFF" filter="url(#fdu5jas4n4zoq)" height="454.7766" style="stroke: #000000; stroke-width: 1.2000000476837158;" width="917.4" x="7.8" y="92.5723"/><rect fill="#FFFFFF" filter="url(#fdu5jas4n4zoq)" height="286.1133" style="stroke: #000000; stroke-width: 1.2000000476837158;" width="679.2" x="13.8" y="257.0356"/><rect fill="#FFFFFF" height="162.6363" style="stroke: none; stroke-width: 0.6000000238418579;" width="679.2" x="13.8" y="380.5125"/><line style="stroke: #A80036; stroke-width: 0.6000000238418579; stroke-dasharray: 5.0,5.0;" x1="84" x2="84" y1="82.3723" y2="557.5489"/><line style="stroke: #A80036; stroke-width: 0.6000000238418579; stroke-dasharray: 5.0,5.0;" x1="326.7" x2="326.7" y1="82.3723" y2="557.5489"/><line style="stroke: #A80036; stroke-width: 0.6000000238418579; stroke-dasharray: 5.0,5.0;" x1="480.3" x2="480.3" y1="82.3723" y2="557.5489"/><line style="stroke: #A80036; stroke-width: 0.6000000238418579; stroke-dasharray: 5.0,5.0;" x1="652.8" x2="652.8" y1="82.3723" y2="557.5489"/><line style="stroke: #A80036; stroke-width: 0.6000000238418579; stroke-dasharray: 5.0,5.0;" x1="853.8" x2="853.8" y1="82.3723" y2="557.5489"/><text fill="#000000" font-family="sans-serif" font-size="8.4" lengthAdjust="spacingAndGlyphs" textLength="58.8" x="52.8" y="80.6004">Hub Employee</text><ellipse cx="84" cy="38.2793" fill="#FEFECE" filter="url(#fdu5jas4n4zoq)" rx="4.8" ry="4.8" style="stroke: #A80036; stroke-width: 1.2000000476837158;"/><path d="M84,43.0793 L84,59.2793 M76.2,47.8793 L91.8,47.8793 M84,59.2793 L76.2,68.2793 M84,59.2793 L91.8,68.2793 " fill="none" filter="url(#fdu5jas4n4zoq)" style="stroke: #A80036; stroke-width: 1.2000000476837158;"/><text fill="#000000" font-family="sans-serif" font-size="8.4" lengthAdjust="spacingAndGlyphs" textLength="58.8" x="52.8" y="565.0699">Hub Employee</text><ellipse cx="84" cy="572.8418" fill="#FEFECE" filter="url(#fdu5jas4n4zoq)" rx="4.8" ry="4.8" style="stroke: #A80036; stroke-width: 1.2000000476837158;"/><path d="M84,577.6418 L84,593.8418 M76.2,582.4418 L91.8,582.4418 M84,593.8418 L76.2,602.8418 M84,593.8418 L91.8,602.8418 " fill="none" filter="url(#fdu5jas4n4zoq)" style="stroke: #A80036; stroke-width: 1.2000000476837158;"/><text fill="#000000" font-family="sans-serif" font-size="8.4" lengthAdjust="spacingAndGlyphs" textLength="90.6" x="279.9" y="80.6004">Settlement Service API</text><path d="M314.7,55.6793 L314.7,70.0793 M314.7,62.8793 L324.9,62.8793 " fill="none" filter="url(#fdu5jas4n4zoq)" style="stroke: #A80036; stroke-width: 1.2000000476837158;"/><ellipse cx="332.1" cy="62.8793" fill="#FEFECE" filter="url(#fdu5jas4n4zoq)" rx="7.2" ry="7.2" style="stroke: #A80036; stroke-width: 1.2000000476837158;"/><text fill="#000000" font-family="sans-serif" font-size="8.4" lengthAdjust="spacingAndGlyphs" textLength="90.6" x="279.9" y="565.0699">Settlement Service API</text><path d="M314.7,569.2418 L314.7,583.6418 M314.7,576.4418 L324.9,576.4418 " fill="none" filter="url(#fdu5jas4n4zoq)" style="stroke: #A80036; stroke-width: 1.2000000476837158;"/><ellipse cx="332.1" cy="576.4418" fill="#FEFECE" filter="url(#fdu5jas4n4zoq)" rx="7.2" ry="7.2" style="stroke: #A80036; stroke-width: 1.2000000476837158;"/><text fill="#000000" font-family="sans-serif" font-size="8.4" lengthAdjust="spacingAndGlyphs" textLength="78.6" x="439.5" y="80.6004">Settlement Window</text><ellipse cx="480.6" cy="62.8793" fill="#FEFECE" filter="url(#fdu5jas4n4zoq)" rx="7.2" ry="7.2" style="stroke: #A80036; stroke-width: 1.2000000476837158;"/><polygon fill="#A80036" points="478.2,55.6793,481.8,52.6793,480.6,55.6793,481.8,58.6793,478.2,55.6793" style="stroke: #A80036; stroke-width: 0.6000000238418579;"/><text fill="#000000" font-family="sans-serif" font-size="8.4" lengthAdjust="spacingAndGlyphs" textLength="78.6" x="439.5" y="565.0699">Settlement Window</text><ellipse cx="480.6" cy="576.4418" fill="#FEFECE" filter="url(#fdu5jas4n4zoq)" rx="7.2" ry="7.2" style="stroke: #A80036; stroke-width: 1.2000000476837158;"/><polygon fill="#A80036" points="478.2,569.2418,481.8,566.2418,480.6,569.2418,481.8,572.2418,478.2,569.2418" style="stroke: #A80036; stroke-width: 0.6000000238418579;"/><text fill="#000000" font-family="sans-serif" font-size="8.4" lengthAdjust="spacingAndGlyphs" textLength="64.8" x="618.6" y="80.6004">Settlement DAO</text><ellipse cx="652.8" cy="62.8793" fill="#FEFECE" filter="url(#fdu5jas4n4zoq)" rx="7.2" ry="7.2" style="stroke: #A80036; stroke-width: 1.2000000476837158;"/><line style="stroke: #A80036; stroke-width: 1.2000000476837158;" x1="645.6" x2="660" y1="71.2793" y2="71.2793"/><text fill="#000000" font-family="sans-serif" font-size="8.4" lengthAdjust="spacingAndGlyphs" textLength="64.8" x="618.6" y="565.0699">Settlement DAO</text><ellipse cx="652.8" cy="576.4418" fill="#FEFECE" filter="url(#fdu5jas4n4zoq)" rx="7.2" ry="7.2" style="stroke: #A80036; stroke-width: 1.2000000476837158;"/><line style="stroke: #A80036; stroke-width: 1.2000000476837158;" x1="645.6" x2="660" y1="584.8418" y2="584.8418"/><text fill="#000000" font-family="sans-serif" font-size="8.4" lengthAdjust="spacingAndGlyphs" textLength="54" x="825" y="80.6004">Central Store</text><path d="M843,50.8793 C843,44.8793 853.8,44.8793 853.8,44.8793 C853.8,44.8793 864.6,44.8793 864.6,50.8793 L864.6,66.4793 C864.6,72.4793 853.8,72.4793 853.8,72.4793 C853.8,72.4793 843,72.4793 843,66.4793 L843,50.8793 " fill="#FEFECE" filter="url(#fdu5jas4n4zoq)" style="stroke: #000000; stroke-width: 0.9000000357627869;"/><path d="M843,50.8793 C843,56.8793 853.8,56.8793 853.8,56.8793 C853.8,56.8793 864.6,56.8793 864.6,50.8793 " fill="none" style="stroke: #000000; stroke-width: 0.9000000357627869;"/><text fill="#000000" font-family="sans-serif" font-size="8.4" lengthAdjust="spacingAndGlyphs" textLength="54" x="825" y="565.0699">Central Store</text><path d="M843,572.8418 C843,566.8418 853.8,566.8418 853.8,566.8418 C853.8,566.8418 864.6,566.8418 864.6,572.8418 L864.6,588.4418 C864.6,594.4418 853.8,594.4418 853.8,594.4418 C853.8,594.4418 843,594.4418 843,588.4418 L843,572.8418 " fill="#FEFECE" filter="url(#fdu5jas4n4zoq)" style="stroke: #000000; stroke-width: 0.9000000357627869;"/><path d="M843,572.8418 C843,578.8418 853.8,578.8418 853.8,578.8418 C853.8,578.8418 864.6,578.8418 864.6,572.8418 " fill="none" style="stroke: #000000; stroke-width: 0.9000000357627869;"/><rect fill="#FFFFFF" filter="url(#fdu5jas4n4zoq)" height="17.5863" style="stroke: #A80036; stroke-width: 0.6000000238418579;" width="6" x="324" y="139.1449"/><rect fill="#FFFFFF" filter="url(#fdu5jas4n4zoq)" height="77.918" style="stroke: #A80036; stroke-width: 0.6000000238418579;" width="6" x="324" y="297.6082"/><rect fill="#FFFFFF" filter="url(#fdu5jas4n4zoq)" height="136.077" style="stroke: #A80036; stroke-width: 0.6000000238418579;" width="6" x="324" y="402.0856"/><rect fill="#FFFFFF" filter="url(#fdu5jas4n4zoq)" height="140.877" style="stroke: #A80036; stroke-width: 0.6000000238418579;" width="6" x="477.6" y="156.7313"/><rect fill="#FFFFFF" filter="url(#fdu5jas4n4zoq)" height="227.768" style="stroke: #A80036; stroke-width: 0.6000000238418579;" width="6" x="649.8" y="174.3176"/><rect fill="#FFFFFF" filter="url(#fdu5jas4n4zoq)" height="46.9453" style="stroke: #A80036; stroke-width: 0.6000000238418579;" width="6" x="850.8" y="200.9039"/><path d="M7.8,92.5723 L192,92.5723 L192,96.7723 L186,102.7723 L7.8,102.7723 L7.8,92.5723 " fill="#EEEEEE" style="stroke: #000000; stroke-width: 0.6000000238418579;"/><rect fill="none" height="454.7766" style="stroke: #000000; stroke-width: 1.2000000476837158;" width="917.4" x="7.8" y="92.5723"/><text fill="#000000" font-family="sans-serif" font-size="7.8" font-weight="bold" lengthAdjust="spacingAndGlyphs" textLength="157.2" x="16.8" y="100.7133">Request Settlement Window properties</text><path d="M87,105.9586 L87,120.9586 L219,120.9586 L219,111.9586 L213,105.9586 L87,105.9586 " fill="#FFFF00" filter="url(#fdu5jas4n4zoq)" style="stroke: #A80036; stroke-width: 0.6000000238418579;"/><path d="M213,105.9586 L213,111.9586 L219,111.9586 L213,105.9586 " fill="#FFFF00" style="stroke: #A80036; stroke-width: 0.6000000238418579;"/><text fill="#000000" font-family="sans-serif" font-size="7.8" lengthAdjust="spacingAndGlyphs" textLength="119.4" x="90.6" y="116.4996">GET:: '/settlementWindows/{id}'</text><polygon fill="#A80036" points="316.8,136.7449,322.8,139.1449,316.8,141.5449,319.2,139.1449" style="stroke: #A80036; stroke-width: 0.6000000238418579;"/><line style="stroke: #A80036; stroke-width: 0.6000000238418579;" x1="84" x2="320.4" y1="139.1449" y2="139.1449"/><text fill="#000000" font-family="sans-serif" font-size="7.8" font-weight="bold" lengthAdjust="spacingAndGlyphs" textLength="5.4" x="88.2" y="136.4859">1</text><text fill="#000000" font-family="sans-serif" font-size="7.8" lengthAdjust="spacingAndGlyphs" textLength="220.8" x="96" y="136.4859">API call Settlement Service to get settlement window detail</text><polygon fill="#A80036" points="470.4,154.3313,476.4,156.7313,470.4,159.1313,472.8,156.7313" style="stroke: #A80036; stroke-width: 0.6000000238418579;"/><line style="stroke: #A80036; stroke-width: 0.6000000238418579;" x1="327" x2="474" y1="156.7313" y2="156.7313"/><text fill="#000000" font-family="sans-serif" font-size="7.8" font-weight="bold" lengthAdjust="spacingAndGlyphs" textLength="5.4" x="331.2" y="154.0723">2</text><text fill="#000000" font-family="sans-serif" font-size="7.8" lengthAdjust="spacingAndGlyphs" textLength="86.4" x="339" y="154.0723">Get settlement window</text><polygon fill="#A80036" points="642.6,171.9176,648.6,174.3176,642.6,176.7176,645,174.3176" style="stroke: #A80036; stroke-width: 0.6000000238418579;"/><line style="stroke: #A80036; stroke-width: 0.6000000238418579;" x1="483.6" x2="646.2" y1="174.3176" y2="174.3176"/><text fill="#000000" font-family="sans-serif" font-size="7.8" font-weight="bold" lengthAdjust="spacingAndGlyphs" textLength="5.4" x="487.8" y="171.6586">3</text><text fill="#000000" font-family="sans-serif" font-size="7.8" lengthAdjust="spacingAndGlyphs" textLength="144.6" x="495.6" y="171.6586">Get settlementWindow&lt;id&gt; properties</text><polygon fill="#A80036" points="843.6,198.5039,849.6,200.9039,843.6,203.3039,846,200.9039" style="stroke: #A80036; stroke-width: 0.6000000238418579;"/><line style="stroke: #A80036; stroke-width: 0.6000000238418579;" x1="655.8" x2="847.2" y1="200.9039" y2="200.9039"/><text fill="#000000" font-family="sans-serif" font-size="7.8" font-weight="bold" lengthAdjust="spacingAndGlyphs" textLength="5.4" x="660" y="193.8381">4</text><text fill="#000000" font-family="sans-serif" font-size="7.8" lengthAdjust="spacingAndGlyphs" textLength="164.4" x="667.8" y="189.2449">Get settlementWindow&lt; properties from DB</text><text fill="#FF0000" font-family="sans-serif" font-size="7.8" font-weight="bold" lengthAdjust="spacingAndGlyphs" textLength="43.8" x="667.8" y="198.4313">Error code:</text><text fill="#FF0000" font-family="sans-serif" font-size="7.8" lengthAdjust="spacingAndGlyphs" textLength="19.2" x="714" y="198.4313">2001</text><polygon fill="#FFFFE0" filter="url(#fdu5jas4n4zoq)" points="794.4,209.0766,913.2,209.0766,919.2,220.4766,913.2,231.8766,794.4,231.8766,788.4,220.4766,794.4,209.0766" style="stroke: #A80036; stroke-width: 0.6000000238418579;"/><text fill="#000000" font-family="sans-serif" font-size="7.8" lengthAdjust="spacingAndGlyphs" textLength="69.6" x="795.6" y="219.0176">settlementWindow</text><text fill="#000000" font-family="sans-serif" font-size="7.8" lengthAdjust="spacingAndGlyphs" textLength="116.4" x="795.6" y="228.2039">settlementWindowStateChange</text><polygon fill="#A80036" points="662.4,245.4492,656.4,247.8492,662.4,250.2492,660,247.8492" style="stroke: #A80036; stroke-width: 0.6000000238418579;"/><line style="stroke: #A80036; stroke-width: 0.6000000238418579;" x1="658.8" x2="853.2" y1="247.8492" y2="247.8492"/><text fill="#000000" font-family="sans-serif" font-size="7.8" font-weight="bold" lengthAdjust="spacingAndGlyphs" textLength="5.4" x="666" y="245.1902">5</text><text fill="#000000" font-family="sans-serif" font-size="7.8" lengthAdjust="spacingAndGlyphs" textLength="169.8" x="673.8" y="245.1902">Return properties for settlementWindow&lt;id&gt;</text><path d="M13.8,257.0356 L51,257.0356 L51,261.2356 L45,267.2356 L13.8,267.2356 L13.8,257.0356 " fill="#EEEEEE" style="stroke: #000000; stroke-width: 0.6000000238418579;"/><rect fill="none" height="286.1133" style="stroke: #000000; stroke-width: 1.2000000476837158;" width="679.2" x="13.8" y="257.0356"/><text fill="#000000" font-family="sans-serif" font-size="7.8" font-weight="bold" lengthAdjust="spacingAndGlyphs" textLength="10.2" x="22.8" y="265.1766">alt</text><text fill="#000000" font-family="sans-serif" font-size="6.6" font-weight="bold" lengthAdjust="spacingAndGlyphs" textLength="105" x="60" y="264.6164">[Settlement Window properties]</text><polygon fill="#A80036" points="490.2,277.6219,484.2,280.0219,490.2,282.4219,487.8,280.0219" style="stroke: #A80036; stroke-width: 0.6000000238418579;"/><line style="stroke: #A80036; stroke-width: 0.6000000238418579;" x1="486.6" x2="649.2" y1="280.0219" y2="280.0219"/><text fill="#000000" font-family="sans-serif" font-size="7.8" font-weight="bold" lengthAdjust="spacingAndGlyphs" textLength="5.4" x="493.8" y="277.3629">6</text><text fill="#000000" font-family="sans-serif" font-size="7.8" lengthAdjust="spacingAndGlyphs" textLength="144" x="501.6" y="277.3629">Successful - settlementWindow found</text><polygon fill="#A80036" points="336.6,295.2082,330.6,297.6082,336.6,300.0082,334.2,297.6082" style="stroke: #A80036; stroke-width: 0.6000000238418579;"/><line style="stroke: #A80036; stroke-width: 0.6000000238418579;" x1="333" x2="480" y1="297.6082" y2="297.6082"/><text fill="#000000" font-family="sans-serif" font-size="7.8" font-weight="bold" lengthAdjust="spacingAndGlyphs" textLength="5.4" x="340.2" y="294.9492">7</text><text fill="#000000" font-family="sans-serif" font-size="7.8" lengthAdjust="spacingAndGlyphs" textLength="128.4" x="348" y="294.9492">Operation successfully completed</text><path d="M186,305.5945 L186,357.1945 L318.6,357.1945 L318.6,311.5945 L312.6,305.5945 L186,305.5945 " fill="#FFFF00" filter="url(#fdu5jas4n4zoq)" style="stroke: #A80036; stroke-width: 0.6000000238418579;"/><path d="M312.6,305.5945 L312.6,311.5945 L318.6,311.5945 L312.6,305.5945 " fill="#FFFF00" style="stroke: #A80036; stroke-width: 0.6000000238418579;"/><text fill="#000000" font-family="sans-serif" font-size="7.8" lengthAdjust="spacingAndGlyphs" textLength="2.4" x="189.6" y="316.1356">{</text><text fill="#000000" font-family="sans-serif" font-size="7.8" lengthAdjust="spacingAndGlyphs" textLength="25.2" x="194.4" y="325.3219">"id": 0,</text><text fill="#000000" font-family="sans-serif" font-size="7.8" lengthAdjust="spacingAndGlyphs" textLength="66.6" x="194.4" y="334.5082">"reason": "string",</text><text fill="#000000" font-family="sans-serif" font-size="7.8" lengthAdjust="spacingAndGlyphs" textLength="60" x="194.4" y="343.6945">"state": "string",</text><text fill="#000000" font-family="sans-serif" font-size="7.8" lengthAdjust="spacingAndGlyphs" textLength="115.2" x="194.4" y="352.8809">"createdDate": "string"            }</text><polygon fill="#A80036" points="90.6,373.1262,84.6,375.5262,90.6,377.9262,88.2,375.5262" style="stroke: #A80036; stroke-width: 0.6000000238418579;"/><line style="stroke: #A80036; stroke-width: 0.6000000238418579;" x1="87" x2="326.4" y1="375.5262" y2="375.5262"/><text fill="#000000" font-family="sans-serif" font-size="7.8" font-weight="bold" lengthAdjust="spacingAndGlyphs" textLength="5.4" x="94.2" y="372.8672">8</text><text fill="#000000" font-family="sans-serif" font-size="7.8" lengthAdjust="spacingAndGlyphs" textLength="52.8" x="102" y="372.8672">Return results</text><line style="stroke: #000000; stroke-width: 0.6000000238418579; stroke-dasharray: 2.0,2.0;" x1="13.8" x2="693" y1="381.1125" y2="381.1125"/><text fill="#000000" font-family="sans-serif" font-size="6.6" font-weight="bold" lengthAdjust="spacingAndGlyphs" textLength="2.4" x="16.8" y="387.4934">[</text><text fill="#FF0000" font-family="sans-serif" font-size="6.6" font-weight="bold" lengthAdjust="spacingAndGlyphs" textLength="99" x="19.2" y="387.4934">Settlement Window not found</text><text fill="#000000" font-family="sans-serif" font-size="6.6" font-weight="bold" lengthAdjust="spacingAndGlyphs" textLength="2.4" x="118.2" y="387.4934">]</text><polygon fill="#A80036" points="336.6,399.6856,330.6,402.0856,336.6,404.4856,334.2,402.0856" style="stroke: #A80036; stroke-width: 0.6000000238418579;"/><line style="stroke: #A80036; stroke-width: 0.6000000238418579;" x1="333" x2="652.2" y1="402.0856" y2="402.0856"/><text fill="#000000" font-family="sans-serif" font-size="7.8" font-weight="bold" lengthAdjust="spacingAndGlyphs" textLength="5.4" x="340.2" y="399.4266">9</text><text fill="#000000" font-family="sans-serif" font-size="7.8" lengthAdjust="spacingAndGlyphs" textLength="172.2" x="348" y="399.4266">settlement window not found - Return ERROR</text><line style="stroke: #A80036; stroke-width: 0.6000000238418579;" x1="330" x2="355.2" y1="419.8582" y2="419.8582"/><line style="stroke: #A80036; stroke-width: 0.6000000238418579;" x1="355.2" x2="355.2" y1="419.8582" y2="427.6582"/><line style="stroke: #A80036; stroke-width: 0.6000000238418579;" x1="330.6" x2="355.2" y1="427.6582" y2="427.6582"/><polygon fill="#A80036" points="336.6,425.2582,330.6,427.6582,336.6,430.0582,334.2,427.6582" style="stroke: #A80036; stroke-width: 0.6000000238418579;"/><text fill="#000000" font-family="sans-serif" font-size="7.8" font-weight="bold" lengthAdjust="spacingAndGlyphs" textLength="10.8" x="334.2" y="417.0129">10</text><text fill="#000000" font-family="sans-serif" font-size="7.8" lengthAdjust="spacingAndGlyphs" textLength="63.6" x="347.4" y="417.0129">Update Event log</text><path d="M333,435.4582 L333,459.4582 L457.2,459.4582 L457.2,441.4582 L451.2,435.4582 L333,435.4582 " fill="#ADD8E6" filter="url(#fdu5jas4n4zoq)" style="stroke: #A80036; stroke-width: 0.6000000238418579;"/><path d="M451.2,435.4582 L451.2,441.4582 L457.2,441.4582 L451.2,435.4582 " fill="#ADD8E6" style="stroke: #A80036; stroke-width: 0.6000000238418579;"/><text fill="#000000" font-family="sans-serif" font-size="7.8" lengthAdjust="spacingAndGlyphs" textLength="82.2" x="336.6" y="445.9992">Log ERROR Messages.</text><text fill="#000000" font-family="sans-serif" font-size="7.8" lengthAdjust="spacingAndGlyphs" textLength="111.6" x="336.6" y="455.1856">Update Event log with ERROR.</text><path d="M19.8,468.2309 L19.8,519.8309 L318.6,519.8309 L318.6,474.2309 L312.6,468.2309 L19.8,468.2309 " fill="#FFFF00" filter="url(#fdu5jas4n4zoq)" style="stroke: #A80036; stroke-width: 0.6000000238418579;"/><path d="M312.6,468.2309 L312.6,474.2309 L318.6,474.2309 L312.6,468.2309 " fill="#FFFF00" style="stroke: #A80036; stroke-width: 0.6000000238418579;"/><text fill="#000000" font-family="sans-serif" font-size="7.8" lengthAdjust="spacingAndGlyphs" textLength="2.4" x="23.4" y="478.7719">{</text><text fill="#000000" font-family="sans-serif" font-size="7.8" lengthAdjust="spacingAndGlyphs" textLength="41.4" x="28.2" y="487.9582">"status": 0,</text><text fill="#000000" font-family="sans-serif" font-size="7.8" lengthAdjust="spacingAndGlyphs" textLength="281.4" x="28.2" y="497.1446">"code": "(ERROR response code eg. '404' - Defined in swagger definition))",</text><text fill="#000000" font-family="sans-serif" font-size="7.8" lengthAdjust="spacingAndGlyphs" textLength="72" x="28.2" y="506.3309">"message": "string"</text><text fill="#000000" font-family="sans-serif" font-size="7.8" lengthAdjust="spacingAndGlyphs" textLength="2.4" x="23.4" y="515.5172">}</text><polygon fill="#A80036" points="90.6,535.7625,84.6,538.1625,90.6,540.5625,88.2,538.1625" style="stroke: #A80036; stroke-width: 0.6000000238418579;"/><line style="stroke: #A80036; stroke-width: 0.6000000238418579;" x1="87" x2="326.4" y1="538.1625" y2="538.1625"/><text fill="#000000" font-family="sans-serif" font-size="7.8" font-weight="bold" lengthAdjust="spacingAndGlyphs" textLength="10.8" x="94.2" y="535.5035">11</text><text fill="#000000" font-family="sans-serif" font-size="7.8" lengthAdjust="spacingAndGlyphs" textLength="51.6" x="107.4" y="535.5035">Return ERROR</text><!--
@startuml
title 6.1.1. getSettlementWindowById GET: /settlementWindows

autonumber



actor "Hub Employee" as OPERATOR

boundary "Settlement Service API" as SSAPI
control "Settlement Window" as SETTLEWINDOW
entity "Settlement DAO" as SETTLE_DAO

database "Central Store" as DB

box "Central HUB" #LightPink
    participant OPERATOR
end box

box "Settlement Service" #LightGreen
    participant SSAPI
    participant SETTLEWINDOW
    participant SETTLE_DAO
end box

box "Central Services" #LightYellow
    participant DB
end box


group Request Settlement Window properties
    note right of OPERATOR #Yellow
        GET:: '/settlementWindows/{id}'
    end note
    OPERATOR -> SSAPI: API call Settlement Service to get settlement window detail
    activate SSAPI
    SSAPI -> SETTLEWINDOW: Get settlement window
    deactivate SSAPI
    activate SETTLEWINDOW
        SETTLEWINDOW -> SETTLE_DAO: Get settlementWindow<id> properties
        activate SETTLE_DAO
                SETTLE_DAO -> DB: Get settlementWindow< properties from DB \n<color #FF0000><b>Error code:</b> 2001</color>
            activate DB
                hnote over DB #LightYellow
                settlementWindow
                settlementWindowStateChange
                end hnote
                SETTLE_DAO <- DB: Return properties for settlementWindow<id>
            deactivate DB
    alt Settlement Window properties
        SETTLEWINDOW <- SETTLE_DAO: Successful - settlementWindow found
        SSAPI <- SETTLEWINDOW: Operation successfully completed
        deactivate SETTLEWINDOW
        activate SSAPI
        note left of SSAPI #Yellow
            {
              "id": 0,
              "reason": "string",
              "state": "string",
              "createdDate": "string"            }
        end note
        OPERATOR <- SSAPI: Return results
        deactivate SSAPI
    else <color #FF0000><b>Settlement Window not found</b></color>
        SETTLE_DAO -> SSAPI: settlement window not found - Return ERROR
        deactivate SETTLE_DAO
        activate SSAPI
        SSAPI -> SSAPI: Update Event log
        note right of SSAPI #LightBlue
            Log ERROR Messages.
            Update Event log with ERROR.
        end note
        note left of SSAPI #Yellow
            {
              "status": 0,
              "code": "(ERROR response code eg. '404' - Defined in swagger definition))",
              "message": "string"
            }
        end note
        OPERATOR <- SSAPI: Return ERROR
        deactivate SSAPI
    end
end
@enduml

PlantUML version 1.2018.01(Sun Jan 28 20:08:22 SAST 2018)
(GPL source distribution)
Java Runtime: OpenJDK Runtime Environment
JVM: OpenJDK 64-Bit Server VM
Java Version: 1.8.0_152-release-1136-b29
Operating System: Mac OS X
OS Version: 10.13.6
Default Encoding: UTF-8
Language: en
Country: ZA
--></g></svg>