<?xml version="1.0" encoding="UTF-8" standalone="no"?>
<svg
   xmlns:dc="http://purl.org/dc/elements/1.1/"
   xmlns:cc="http://creativecommons.org/ns#"
   xmlns:rdf="http://www.w3.org/1999/02/22-rdf-syntax-ns#"
   xmlns:svg="http://www.w3.org/2000/svg"
   xmlns="http://www.w3.org/2000/svg"
   id="svg12914"
   version="1.1"
   viewBox="0 0 70.757133 72.117859"
   height="72.117859mm"
   width="70.757133mm">
  <defs
     id="defs12908" />
  <metadata
     id="metadata12911">
    <rdf:RDF>
      <cc:Work
         rdf:about="">
        <dc:format>image/svg+xml</dc:format>
        <dc:type
           rdf:resource="http://purl.org/dc/dcmitype/StillImage" />
        <dc:title></dc:title>
      </cc:Work>
    </rdf:RDF>
  </metadata>
  <g
     transform="translate(0.03779287,0.05148672)"
     id="layer1">
    <path
       id="path823"
       d="M -0.03779287,72.066369 H 70.719343 V -0.05148672 H -0.03779287 Z m 0,0"
       style="fill:#AC2641;fill-opacity:1;fill-rule:nonzero;stroke:none;stroke-width:0.31505853" />
    <path
       id="path12875"
       d="m 33.724181,40.038598 c -2.99034,0 -5.4212,-2.425346 -5.4212,-5.404666 0,-2.987586 2.43086,-5.418446 5.4212,-5.418446 2.99034,0 5.4212,2.43086 5.4212,5.418446 0,2.97932 -2.43086,5.404666 -5.4212,5.404666 m 0,-9.274196 c -2.13596,0 -3.87504,1.733572 -3.87504,3.86953 0,2.127692 1.73908,3.858508 3.87504,3.858508 2.13596,0 3.87504,-1.730816 3.87504,-3.858508 0,-2.135958 -1.73908,-3.86953 -3.87504,-3.86953"
       style="fill:#ffffff;fill-opacity:1;fill-rule:nonzero;stroke:none;stroke-width:0.7055555" />
    <path
       id="path12877"
       d="m 33.776541,16.840704 c 0.46302,0 0.93708,0.0192 1.40286,0.05788 l -0.0606,0.719336 c -0.46304,-0.03858 -0.95086,-0.0689 -1.39734,-0.05512 l -0.35002,0.0028 -0.008,-0.722092 0.35828,-0.0028 z m -1.50756,0.05788 0.0606,0.722092 c -0.58704,0.04686 -1.16858,0.12402 -1.73082,0.23151 l -0.1324,-0.711068 c 0.58704,-0.11024 1.19338,-0.19016 1.80248,-0.242534 m 3.9963,0.12402 c 0.59256,0.08544 1.19338,0.20395 1.78594,0.352776 l -0.1764,0.700044 c -0.56774,-0.14332 -1.14376,-0.256314 -1.71428,-0.338998 z m -6.86814,0.352776 0.1764,0.700044 c -0.56776,0.14332 -1.12724,0.31695 -1.66742,0.515386 l -0.25078,-0.677994 c 0.565,-0.209462 1.14928,-0.388606 1.74184,-0.537436 m 9.7069,0.300414 c 0.57602,0.18466 1.14928,0.402386 1.7005,0.644922 l -0.2894,0.661458 c -0.53192,-0.23151 -1.08038,-0.440972 -1.6316,-0.620118 z m -12.46296,0.642166 0.2894,0.664214 c -0.53468,0.234268 -1.0611,0.49885 -1.55994,0.782726 l -0.3583,-0.62563 c 0.52366,-0.300412 1.06936,-0.573264 1.62884,-0.82131 m 15.15016,0.47129 c 0.53468,0.275606 1.06384,0.584288 1.57096,0.917772 l -0.39412,0.603582 c -0.48782,-0.31695 -0.99494,-0.61185 -1.50758,-0.87919 z m -17.71054,0.920528 0.39412,0.600826 c -0.4906,0.32246 -0.96464,0.669726 -1.40836,1.033528 l -0.45752,-0.559482 c 0.46302,-0.38034 0.95912,-0.741386 1.47176,-1.074872 m 20.17722,0.622874 c 0.48508,0.361046 0.95636,0.755166 1.40284,1.163064 l -0.49056,0.531924 c -0.4272,-0.39412 -0.8792,-0.768946 -1.34222,-1.113454 z m -22.4758,1.168576 0.49058,0.529168 c -0.42168,0.391362 -0.83234,0.810286 -1.22094,1.248502 l -0.54294,-0.4768 c 0.40514,-0.45751 0.83234,-0.895726 1.2733,-1.30087 m 24.65862,0.760678 c 0.41616,0.432704 0.8158,0.895724 1.19062,1.375282 l -0.56774,0.446484 c -0.36106,-0.46302 -0.74416,-0.903992 -1.14378,-1.32016 z m -26.6292,1.380794 0.5705,0.440972 c -0.35002,0.451996 -0.68626,0.93431 -1.00046,1.430404 l -0.61184,-0.383094 c 0.32796,-0.518144 0.678,-1.019748 1.0418,-1.488282 m 28.4675,0.876432 c 0.339,0.49885 0.6587,1.019748 0.9481,1.554428 l -0.6339,0.34451 c -0.27836,-0.509876 -0.5843,-1.011482 -0.91226,-1.491038 z m -30.06052,1.55994 0.63666,0.341754 c -0.27838,0.509874 -0.52918,1.041796 -0.75242,1.576474 l -0.66696,-0.272852 c 0.2315,-0.562238 0.49332,-1.113454 0.78272,-1.645376 m 31.50196,0.972894 c 0.2563,0.551216 0.48506,1.121724 0.68074,1.689476 l -0.6835,0.234266 c -0.1874,-0.542946 -0.4079,-1.08865 -0.6532,-1.620572 z m -32.6733,1.689476 0.68352,0.234266 c -0.1874,0.551216 -0.35002,1.113456 -0.47956,1.67845 l -0.7028,-0.15986 c 0.135,-0.5898 0.30316,-1.1796 0.49884,-1.752864 m 33.6765,1.044552 c 0.1598,0.581532 0.2894,1.1796 0.3886,1.77767 l -0.71106,0.11852 c -0.0964,-0.573264 -0.22324,-1.149282 -0.37482,-1.703254 z m -34.38756,1.780426 0.71382,0.11852 c -0.0936,0.570508 -0.1598,1.154796 -0.1956,1.733572 l -0.72208,-0.0441 c 0.0386,-0.603582 0.1074,-1.212674 0.20394,-1.807986 m 34.91948,1.080382 c 0.0634,0.60358 0.0938,1.215428 0.0938,1.81901 l -0.72208,0.0056 v -0.0056 c 0,-0.578776 -0.0276,-1.165822 -0.0882,-1.747352 z m -35.1565,1.819014 h 0.72208 c 0,0.57602 0.0304,1.163064 0.0882,1.747352 l -0.71658,0.07166 c -0.0634,-0.606336 -0.0938,-1.218186 -0.0938,-1.81901 m 34.49504,1.05282 0.7221,0.04686 c -0.0358,0.606338 -0.1074,1.21543 -0.20396,1.807986 l -0.71382,-0.11852 c 0.0964,-0.567752 0.1598,-1.152042 0.1956,-1.736328 m -33.5442,1.73082 c 0.0964,0.578778 0.22048,1.152042 0.37482,1.703256 l -0.6971,0.19292 c -0.1598,-0.576018 -0.28938,-1.174086 -0.39136,-1.777666 z m 33.14458,1.03353 0.70554,0.16536 c -0.1378,0.5898 -0.30592,1.1796 -0.5016,1.747352 l -0.6835,-0.23151 c 0.1874,-0.54846 0.34726,-1.110698 0.47956,-1.681206 m -32.46106,1.670186 c 0.1902,0.553972 0.40788,1.096918 0.65042,1.62333 l -0.65594,0.303168 c -0.2508,-0.548462 -0.47956,-1.116214 -0.678,-1.689478 z m 31.61218,0.986674 0.66698,0.275608 c -0.23428,0.56224 -0.49886,1.113456 -0.78548,1.645378 l -0.6339,-0.344512 c 0.2756,-0.509874 0.52916,-1.03904 0.7524,-1.576476 m -30.49046,1.57372 c 0.2756,0.509874 0.58152,1.008724 0.91226,1.491038 l -0.59808,0.407898 c -0.34174,-0.501606 -0.66146,-1.02526 -0.94808,-1.554426 z m 29.20888,0.90675 0.61186,0.383094 c -0.32246,0.515386 -0.67524,1.016992 -1.0418,1.491038 l -0.5705,-0.44373 c 0.35276,-0.454752 0.69176,-0.937066 1.00044,-1.430402 m -27.67926,1.433158 c 0.36104,0.463022 0.74414,0.90675 1.14376,1.317404 l -0.5209,0.501606 c -0.41616,-0.432702 -0.81854,-0.892968 -1.19338,-1.378036 z m 26.01184,0.80202 0.5402,0.479556 c -0.40516,0.45751 -0.83234,0.892968 -1.27332,1.300868 l -0.49058,-0.531922 c 0.42168,-0.388608 0.83234,-0.810286 1.2237,-1.248502 m -24.12118,1.251258 c 0.4272,0.391362 0.87918,0.766188 1.34496,1.113454 l -0.4327,0.581532 c -0.48506,-0.363802 -0.95636,-0.755164 -1.40008,-1.16582 z m 22.10374,0.683506 0.45474,0.56224 c -0.46302,0.377582 -0.9591,0.741384 -1.46898,1.07487 l -0.39412,-0.60358 c 0.48782,-0.319706 0.96186,-0.666972 1.40836,-1.03353 m -19.90164,1.036282 c 0.48784,0.316948 0.99496,0.61185 1.50758,0.876438 l -0.33072,0.64216 c -0.53468,-0.2756 -1.06386,-0.58428 -1.57096,-0.915018 z m 17.59756,0.545704 0.35828,0.625634 c -0.52366,0.29764 -1.06936,0.57326 -1.62608,0.81854 l -0.29214,-0.66146 c 0.53468,-0.23702 1.06108,-0.49884 1.55994,-0.782714 m -15.14464,0.782714 c 0.53468,0.23704 1.0859,0.44374 1.63158,0.61738 l -0.21772,0.68902 c -0.57326,-0.1846 -1.14652,-0.39964 -1.70326,-0.64494 z m 12.60904,0.39138 0.2508,0.67798 c -0.56498,0.20946 -1.14928,0.38862 -1.74184,0.53744 l -0.1764,-0.70004 c 0.56776,-0.1434 1.12724,-0.3142 1.66744,-0.51538 m -9.96874,0.51538 c 0.56224,0.1406 1.13826,0.25632 1.71428,0.339 l -0.1048,0.71658 c -0.60082,-0.0882 -1.20164,-0.2067 -1.78594,-0.35554 z m 7.27604,0.22324 0.135,0.70832 c -0.58428,0.113 -1.19062,0.193 -1.80522,0.24528 l -0.0578,-0.72208 c 0.5898,-0.0468 1.17132,-0.1268 1.72806,-0.23152 m -4.52272,0.23152 c 0.46302,0.0386 0.92604,0.0578 1.39732,0.0606 l 0.35002,-0.006 0.012,0.72208 -0.36104,0.002 c -0.49058,0 -0.97564,-0.022 -1.4552,-0.0578 z m 0,0"
       style="fill:#ffffff;fill-opacity:1;fill-rule:nonzero;stroke:none;stroke-width:0.7055555" />
    <path
       id="path12879"
       d="m 55.034161,31.27152 c 0.091,0.595312 0.1544,1.209918 0.193,1.827278 l -0.72208,0.04134 c -0.0358,-0.592556 -0.0992,-1.185112 -0.1846,-1.761132 z m 0.23152,2.926952 0.002,0.270096 c 0,0.523654 -0.022,1.044552 -0.0578,1.562696 l -0.71934,-0.05236 c 0.0358,-0.49885 0.0524,-1.003212 0.0524,-1.51033 v -0.259072 z m -0.87644,2.838758 0.71658,0.0882 c -0.0772,0.60358 -0.1764,1.21543 -0.30316,1.807986 l -0.70556,-0.14882 c 0.1212,-0.573264 0.21772,-1.163064 0.29214,-1.747354 m -0.53744,2.783638 0.6973,0.18466 c -0.1544,0.584288 -0.339,1.174088 -0.5457,1.750108 l -0.68076,-0.242536 c 0.2012,-0.559482 0.37758,-1.127234 0.52916,-1.69223 m -0.9095,2.678906 0.66422,0.28112 c -0.23426,0.56224 -0.4961,1.118966 -0.77998,1.656402 l -0.6394,-0.333486 c 0.27286,-0.518142 0.5264,-1.058332 0.75516,-1.604036 m -1.27054,2.532834 0.62012,0.366558 c -0.30868,0.523656 -0.64494,1.041798 -0.99772,1.537892 l -0.58704,-0.416182 c 0.339,-0.482314 0.66698,-0.98392 0.96464,-1.488282 m -1.60404,2.337152 0.56774,0.449242 c -0.37758,0.479558 -0.78272,0.945334 -1.19612,1.389062 l -0.52642,-0.496094 c 0.40238,-0.424436 0.791,-0.876432 1.1548,-1.34221 m -1.90446,2.10013 0.50162,0.51814 c -0.43272,0.42168 -0.89574,0.83234 -1.37254,1.21818 l -0.45474,-0.56224 c 0.46026,-0.37206 0.90674,-0.76894 1.32566,-1.17408 m -2.16902,1.82452 0.42718,0.58154 c -0.49332,0.36104 -1.00596,0.7028 -1.52686,1.01974 l -0.37482,-0.61736 c 0.5016,-0.30592 0.9977,-0.63666 1.4745,-0.98392 m -2.3978,1.51308 0.34176,0.6339 c -0.54294,0.29214 -1.09692,0.56224 -1.64812,0.80202 l -0.2894,-0.66146 c 0.53468,-0.23426 1.07212,-0.49334 1.59576,-0.77446 m -2.58244,1.17134 0.2508,0.68076 c -0.57876,0.21496 -1.16582,0.40238 -1.7446,0.56498 l -0.193,-0.69452 c 0.5595,-0.1572 1.12724,-0.34176 1.68672,-0.55122 m -2.71472,0.81028 0.1544,0.70556 c -0.59532,0.1322 -1.20166,0.23978 -1.80248,0.32246 l -0.0992,-0.71382 c 0.58152,-0.08 1.16858,-0.1874 1.74736,-0.3142 m -2.80294,0.4272 0.0606,0.7221 c -0.6146,0.0496 -1.23196,0.0744 -1.83278,0.0744 v -0.71934 c 0.58152,0 1.17684,-0.0276 1.77214,-0.0772"
       style="fill:#ffffff;fill-opacity:1;fill-rule:nonzero;stroke:none;stroke-width:0.7055555" />
    <path
       id="path12881"
       d="m 24.411401,11.284454 0.2701,0.669726 c -0.5402,0.21773 -1.0859,0.460264 -1.62334,0.722092 l -0.3197,-0.647678 c 0.55674,-0.270096 1.11622,-0.520898 1.67294,-0.74414 m -2.64584,1.251258 0.34452,0.631142 c -0.50988,0.281118 -1.0225,0.587044 -1.52686,0.909504 l -0.39138,-0.606336 c 0.51816,-0.333486 1.04732,-0.647678 1.57372,-0.93431 m -2.48322,1.548914 0.41892,0.589802 c -0.48506,0.34451 -0.96186,0.708312 -1.4111,1.080382 l -0.46026,-0.556728 c 0.46576,-0.38034 0.9536,-0.757922 1.45244,-1.113456 m -2.28202,1.830036 0.4823,0.54019 c -0.43546,0.391364 -0.8654,0.80753 -1.27606,1.237478 l -0.5209,-0.49885 c 0.42168,-0.440972 0.86542,-0.87092 1.31466,-1.278818 m -2.05604,2.08635 0.54294,0.4768 c -0.38584,0.443728 -0.76342,0.903994 -1.12172,1.37804 l -0.57602,-0.435462 c 0.36932,-0.487824 0.75792,-0.964626 1.1548,-1.419378 m -1.79696,2.309592 0.59532,0.410656 c -0.33074,0.4768 -0.6532,0.981162 -0.95636,1.499304 l -0.62288,-0.369314 c 0.3142,-0.529166 0.64492,-1.047308 0.98392,-1.540646 m -1.5186,2.502518 0.6394,0.33624 c -0.27284,0.518142 -0.53192,1.058334 -0.7717,1.601282 l -0.66146,-0.28939 c 0.2453,-0.559482 0.51264,-1.113454 0.79376,-1.648132 m -1.20992,2.665126 0.67248,0.25907 c -0.20946,0.545702 -0.40514,1.1107 -0.57878,1.67845 l -0.68902,-0.209462 c 0.1792,-0.584288 0.3776,-1.16582 0.59532,-1.728058 m -0.89022,2.78088 0.70006,0.17914 c -0.146,0.570506 -0.27286,1.154796 -0.3776,1.736328 l -0.71106,-0.12678 c 0.1074,-0.600824 0.23702,-1.20165 0.3886,-1.788694 m -0.55672,2.874588 0.71382,0.0937 c -0.0772,0.5898 -0.135,1.185112 -0.1682,1.772158 l -0.72208,-0.04408 c 0.0358,-0.60358 0.0938,-1.218186 0.1764,-1.821768 m -0.21772,2.91593 0.72208,0.0138 -0.002,0.405142 c 0,0.460266 0.01,0.917774 0.0386,1.36977 l -0.7221,0.0441 c -0.0248,-0.468556 -0.0386,-0.939846 -0.0386,-1.41389 z m 0.8406,2.852538 c 0.0578,0.587046 0.1378,1.179602 0.23978,1.761134 l -0.71108,0.12678 c -0.1048,-0.603584 -0.1874,-1.212676 -0.24804,-1.816256 z m 0.44648,2.808442 c 0.1268,0.58429 0.27836,1.160308 0.44648,1.719792 l -0.69178,0.206706 c -0.1736,-0.57602 -0.32796,-1.171332 -0.46026,-1.7694 z m 0.7717,2.736784 c 0.1956,0.559484 0.41342,1.113456 0.64768,1.653646 l -0.66146,0.286632 c -0.24254,-0.553972 -0.46578,-1.127236 -0.66696,-1.70601 z m 1.09416,2.623786 c 0.25632,0.529166 0.53744,1.055576 0.8351,1.56545 l -0.62288,0.363802 c -0.30868,-0.52641 -0.5953,-1.069356 -0.86266,-1.61506 z m 1.39182,2.480468 c 0.3142,0.487826 0.65594,0.981162 1.01424,1.457964 l -0.57878,0.432704 c -0.36932,-0.490582 -0.71934,-0.9977 -1.04456,-1.502062 z m 1.67294,2.295806 c 0.37758,0.46026 0.7717,0.9095 1.17684,1.33118 l -0.52364,0.49886 c -0.41618,-0.43546 -0.82408,-0.89572 -1.21268,-1.36978 z m 1.9265,2.08912 c 0.4327,0.4134 0.87642,0.81304 1.32566,1.18234 l -0.46026,0.55674 c -0.46302,-0.3831 -0.92052,-0.791 -1.367,-1.2182 z m 2.158,1.84932 c 0.46302,0.35278 0.95084,0.69728 1.45246,1.0225 l -0.39412,0.60634 c -0.51538,-0.33624 -1.01974,-0.69178 -1.4938,-1.05558 z m 2.3592,1.58474 c 0.48508,0.28664 0.98116,0.55398 1.48554,0.80752 l -0.2453,0.68628 -0.08,-0.0414 c -0.51816,-0.2591 -1.02802,-0.53746 -1.52686,-0.8296 z m 2.52732,1.29812 c 0.54846,0.24252 1.1052,0.46302 1.6509,0.65594 l -0.23978,0.68076 c -0.565,-0.1984 -1.13826,-0.4272 -1.70326,-0.678 z m 2.66238,0.99218 c 0.57602,0.1764 1.15204,0.33074 1.71704,0.4575 l -0.1572,0.70556 c -0.5843,-0.1324 -1.1796,-0.29214 -1.77216,-0.47128 z m 2.76158,0.66972 c 0.57052,0.1048 1.16032,0.1902 1.76114,0.25356 l -0.08,0.71934 c -0.6146,-0.069 -1.2237,-0.1544 -1.81074,-0.26182 z m 2.82222,0.34176 c 0.50712,0.033 1.01976,0.0496 1.53514,0.0496 v 0.71932 c -0.52916,0 -1.05834,-0.014 -1.58198,-0.0496 z m 0,0"
       style="fill:#ffffff;fill-opacity:1;fill-rule:nonzero;stroke:none;stroke-width:0.7055555" />
    <path
       id="path12883"
       d="m 5.479921,25.492028 0.68902,0.220486 c -0.1792,0.562238 -0.34176,1.132748 -0.48508,1.711522 l -0.7028,-0.17364 c 0.1488,-0.595312 0.3142,-1.1796 0.49886,-1.758376 m -0.74414,2.824978 0.7083,0.14882 c -0.124,0.578776 -0.22876,1.163064 -0.31418,1.75562 l -0.71658,-0.10472 c 0.091,-0.606332 0.1984,-1.207156 0.32246,-1.799712 m -0.46028,2.885612 0.71658,0.07716 c -0.066,0.5898 -0.1102,1.182356 -0.1406,1.777668 l -0.7221,-0.03306 c 0.0304,-0.61185 0.0772,-1.220942 0.146,-1.821766 m -0.1764,2.913172 0.7221,0.0082 -0.002,0.341754 c 0,0.482314 0.012,0.964626 0.0358,1.441428 l -0.7221,0.03582 c -0.022,-0.4905 -0.0358,-0.983838 -0.0358,-1.477174 z m 0.82682,2.855294 c 0.0496,0.59807 0.1186,1.185114 0.20396,1.769402 l -0.71384,0.10472 c -0.0882,-0.598056 -0.157,-1.201636 -0.20946,-1.81073 z m 0.3831,2.824978 c 0.1074,0.587046 0.23702,1.168576 0.38034,1.739086 l -0.70004,0.17914 c -0.1488,-0.5898 -0.27836,-1.185112 -0.39138,-1.785938 z m 0.6587,2.772614 c 0.1682,0.573264 0.35278,1.13826 0.55396,1.694986 l -0.68074,0.245294 c -0.2067,-0.573264 -0.39412,-1.149284 -0.565,-1.736328 z m 0.93432,2.695442 c 0.22048,0.551216 0.46026,1.094164 0.71656,1.631598 l -0.65318,0.311434 C 6.703481,46.658694 6.458181,46.09921 6.232181,45.534214 Z m 1.19336,2.587956 c 0.27562,0.529166 0.56776,1.044554 0.87368,1.551672 l -0.61736,0.374822 c -0.31418,-0.520894 -0.61184,-1.052816 -0.89572,-1.593008 z m 1.4442,2.455654 c 0.3252,0.49886 0.66696,0.98668 1.0225,1.46072 l -0.57878,0.43272 c -0.3638,-0.48784 -0.71382,-0.98668 -1.0473,-1.49656 z m 1.67844,2.30684 c 0.37208,0.46026 0.76068,0.91226 1.1603,1.35048 l -0.5319,0.48782 c -0.41066,-0.45198 -0.80754,-0.91226 -1.19064,-1.3863 z m 1.89618,2.12494 c 0.41892,0.42168 0.84888,0.83234 1.28986,1.22922 l -0.48508,0.53742 c -0.44924,-0.40514 -0.89022,-0.82682 -1.3174,-1.26228 z m 2.09462,1.92926 c 0.45752,0.38034 0.92604,0.74688 1.40284,1.09966 l -0.42718,0.58154 c -0.49058,-0.36104 -0.97014,-0.73588 -1.43592,-1.12724 z m 2.27652,1.71702 c 0.49058,0.33074 0.9922,0.6532 1.50206,0.95636 l -0.36932,0.62012 c -0.52364,-0.31142 -1.03628,-0.63664 -1.53788,-0.98116 z m 0,0"
       style="fill:#ffffff;fill-opacity:1;fill-rule:nonzero;stroke:none;stroke-width:0.7055555" />
    <path
       id="path12885"
       d="m 44.175221,0.52473257 c 0.58154,0.17914 1.15756,0.374826 1.7253,0.58153203 l -0.24528,0.677994 c -0.55674,-0.20395 -1.12448,-0.391362 -1.69224,-0.567752 z m 2.74506,0.97289403 c 0.565,0.225998 1.12172,0.465776 1.67294,0.719336 l -0.30318,0.655946 c -0.53744,-0.248046 -1.08588,-0.48507 -1.6371,-0.708312 z m 2.65686,1.190626 c 0.54294,0.27285 1.08038,0.556726 1.60678,0.854384 l -0.35552,0.6283836 c -0.51816,-0.292144 -1.0418,-0.5705076 -1.57648,-0.8378456 z m 2.54936,1.4055976 c 0.51814,0.316948 1.02802,0.644922 1.52962,0.986676 l -0.40514,0.595312 c -0.49334,-0.333486 -0.99218,-0.655946 -1.50206,-0.964626 z m 2.42536,1.61506 c 0.49056,0.355534 0.97288,0.724848 1.44418,1.105188 l -0.452,0.56224 c -0.46302,-0.37207 -0.93706,-0.735874 -1.41662,-1.085896 z m 2.28754,1.80523 c 0.46026,0.39412 0.9095,0.80202 1.35046,1.220942 l -0.49884,0.523656 c -0.42994,-0.410656 -0.87368,-0.810288 -1.32292,-1.196138 z m 2.13044,1.984376 c 0.4272,0.432704 0.84336,0.8736758 1.2485,1.3284278 l -0.53744,0.479558 c -0.39686,-0.443728 -0.80476,-0.876432 -1.22368,-1.300868 z m 1.96508,2.1552518 c 0.38862,0.465776 0.76894,0.939822 1.1355,1.424892 l -0.57602,0.435458 c -0.36104,-0.474044 -0.73036,-0.93982 -1.11344,-1.394574 z m 1.78042,2.306836 c 0.35278,0.496094 0.68904,1.000456 1.017,1.515842 l -0.6091,0.38585 c -0.3197,-0.504362 -0.65318,-0.9977 -0.99768,-1.485526 z m 1.5875,2.447396 c 0.30868,0.520898 0.60634,1.05282 0.88748,1.593012 l -0.63942,0.333484 c -0.27562,-0.52641 -0.56776,-1.047308 -0.86816,-1.559938 z m 1.38356,2.571418 c 0.26458,0.54846 0.51538,1.099674 0.75242,1.661916 l -0.66422,0.281118 c -0.23428,-0.551216 -0.47956,-1.091406 -0.73864,-1.628842 z m 1.16306,2.676152 c 0.2205,0.56775 0.42444,1.141014 0.6146,1.71979 l -0.68624,0.226 c -0.1874,-0.567752 -0.38586,-1.129992 -0.60084,-1.683964 z m 0.93982,2.7671 c 0.1708,0.581532 0.32798,1.168576 0.4713,1.763888 l -0.7028,0.16812 c -0.1406,-0.581534 -0.29216,-1.157552 -0.46026,-1.72806 z m 0.70556,2.83049 c 0.124,0.592556 0.23152,1.190624 0.32522,1.794206 l -0.71658,0.11024 c -0.0882,-0.592554 -0.193,-1.176844 -0.3142,-1.758376 z m 0.4713,2.874588 c 0.0744,0.600824 0.1322,1.204404 0.1764,1.813498 l -0.7221,0.05236 c -0.0414,-0.598068 -0.0964,-1.190624 -0.1708,-1.777668 z m 0.23702,2.904904 c 0.02,0.476802 0.0276,0.953602 0.0276,1.43316 l -0.002,0.388606 -0.7221,-0.0082 0.002,-0.380338 c 0,-0.47129 -0.008,-0.937066 -0.0276,-1.402844 z m -0.72486,2.882856 0.7221,0.03032 c -0.0248,0.611848 -0.0662,1.218186 -0.1212,1.816254 l -0.71934,-0.06338 c 0.055,-0.5898 0.0938,-1.185112 0.1186,-1.78318 m -0.23152,2.847026 0.71384,0.0882 c -0.0744,0.606338 -0.1626,1.204406 -0.26736,1.802474 l -0.71106,-0.12402 c 0.102,-0.584288 0.1902,-1.17409 0.26458,-1.766646 m -0.46578,2.813954 0.70556,0.14882 c -0.124,0.595312 -0.26182,1.18787 -0.41616,1.774914 l -0.69728,-0.18466 c 0.1516,-0.573264 0.28662,-1.15204 0.40788,-1.739084 m -0.69728,2.769858 0.69178,0.206704 c -0.1736,0.58429 -0.35828,1.160308 -0.55948,1.733572 l -0.68076,-0.239778 c 0.1956,-0.56224 0.38034,-1.127236 0.54846,-1.700498 m -0.92052,2.70371 0.67248,0.259072 c -0.21774,0.56775 -0.452,1.127234 -0.70004,1.67845 l -0.6587,-0.2949 c 0.24252,-0.540192 0.47128,-1.088652 0.68626,-1.642622 m -1.14102,2.610002 0.65044,0.3142 c -0.2646,0.54846 -0.54572,1.08588 -0.83786,1.61506 l -0.63114,-0.34728 c 0.28388,-0.51814 0.55948,-1.0473 0.81856,-1.58198 m -1.35048,2.51078 0.62012,0.36932 c -0.30868,0.5209 -0.63114,1.03628 -0.96462,1.54064 l -0.6036,-0.39962 c 0.32798,-0.49334 0.64494,-0.9977 0.9481,-1.51034 m -1.55168,2.38952 0.58706,0.41892 c -0.35004,0.49334 -0.71382,0.98116 -1.08866,1.45798 l -0.56776,-0.4465 c 0.36656,-0.46578 0.72484,-0.94258 1.06936,-1.4304 m -1.74736,2.25998 0.55398,0.46578 c -0.3886,0.46576 -0.791,0.92052 -1.2044,1.36426 l -0.52918,-0.4906 c 0.40516,-0.43544 0.79926,-0.88194 1.1796,-1.33944 m -1.92098,2.1084 0.51538,0.50986 c -0.42718,0.43272 -0.8654,0.85164 -1.31464,1.2623 l -0.48782,-0.53468 c 0.44096,-0.39964 0.86816,-0.8103 1.28708,-1.23748 m -2.0891,1.94854 0.47128,0.5457 c -0.46026,0.39688 -0.93156,0.77998 -1.41386,1.15204 l -0.44098,-0.5705 c 0.4713,-0.3638 0.93156,-0.74138 1.38356,-1.12724 m -2.24346,1.7694 0.42444,0.5843 c -0.49058,0.35828 -0.99218,0.70278 -1.50206,1.03352 l -0.39412,-0.60634 c 0.5016,-0.32246 0.98944,-0.6587 1.47174,-1.01148 m -2.38124,1.58198 0.37758,0.61736 c -0.51814,0.31696 -1.04732,0.61738 -1.58474,0.90676 l -0.34176,-0.63666 c 0.52642,-0.28112 1.0418,-0.57602 1.54892,-0.88746 m -2.50252,1.38356 0.32246,0.64768 c -0.54294,0.2701 -1.09416,0.52916 -1.65364,0.7717 l -0.28664,-0.66146 c 0.5457,-0.23702 1.0859,-0.49334 1.61782,-0.75792 m -2.61,1.16858 0.2701,0.67248 c -0.56226,0.226 -1.13552,0.43546 -1.71154,0.6339 l -0.23426,-0.68352 c 0.565,-0.193 1.12448,-0.39962 1.6757,-0.62286 m -2.6982,0.9536 0.21222,0.68902 c -0.57878,0.1792 -1.16582,0.34176 -1.75562,0.49058 l -0.1764,-0.7028 c 0.57876,-0.1434 1.15204,-0.30316 1.71978,-0.4768 m -2.75882,0.7221 0.1516,0.70554 c -0.59258,0.1268 -1.18788,0.24254 -1.79146,0.339 l -0.1158,-0.71106 c 0.5898,-0.0964 1.17408,-0.20946 1.75562,-0.33348 m -2.81672,0.49332 0.0964,0.71384 c -0.59806,0.08 -1.20164,0.146 -1.81074,0.1956 l -0.0606,-0.7221 c 0.59808,-0.0468 1.19062,-0.1102 1.77492,-0.1874 m -2.84152,0.25908 0.0358,0.72208 -0.4768,0.02 c -0.44648,0.016 -0.89572,0.0276 -1.34496,0.0276 v -0.72208 c 0.44096,0 0.87918,-0.008 1.3174,-0.0248 z m 0,0"
       style="fill:#ffffff;fill-opacity:1;fill-rule:nonzero;stroke:none;stroke-width:0.7055555" />
  </g>
</svg>
