<?xml version="1.0" encoding="UTF-8" standalone="no"?><svg xmlns="http://www.w3.org/2000/svg" xmlns:xlink="http://www.w3.org/1999/xlink" contentScriptType="application/ecmascript" contentStyleType="text/css" height="1147px" preserveAspectRatio="none" style="width:1726px;height:1147px;" version="1.1" viewBox="0 0 1726 1147" width="1726px" zoomAndPan="magnify"><defs><filter height="300%" id="f1xztr81ztb7hj" width="300%" x="-1" y="-1"><feGaussianBlur result="blurOut" stdDeviation="2.0"/><feColorMatrix in="blurOut" result="blurOut2" type="matrix" values="0 0 0 0 0 0 0 0 0 0 0 0 0 0 0 0 0 0 .4 0"/><feOffset dx="4.0" dy="4.0" in="blurOut2" result="blurOut3"/><feBlend in="SourceGraphic" in2="blurOut3" mode="normal"/></filter></defs><g><text fill="#000000" font-family="sans-serif" font-size="14" font-weight="bold" lengthAdjust="spacingAndGlyphs" textLength="173" x="777.5" y="23.5352">7.2.0 Get Parties Details</text><rect fill="#FFFFE0" height="1101.8457" style="stroke: #A80036; stroke-width: 1.0;" width="975.5" x="245.5" y="34.4883"/><text fill="#000000" font-family="sans-serif" font-size="13" font-weight="bold" lengthAdjust="spacingAndGlyphs" textLength="161" x="652.75" y="47.0566">Account Lookup Service</text><rect fill="#ADD8E6" height="1101.8457" style="stroke: #A80036; stroke-width: 1.0;" width="137" x="1223" y="34.4883"/><text fill="#000000" font-family="sans-serif" font-size="13" font-weight="bold" lengthAdjust="spacingAndGlyphs" textLength="124" x="1229.5" y="47.0566">Pathfinder Library</text><rect fill="#FFFFFF" filter="url(#f1xztr81ztb7hj)" height="897.5586" style="stroke: #A80036; stroke-width: 1.0;" width="10" x="33" y="126.9766"/><rect fill="#FFFFFF" filter="url(#f1xztr81ztb7hj)" height="837.248" style="stroke: #A80036; stroke-width: 1.0;" width="10" x="329" y="187.2871"/><rect fill="#FFFFFF" filter="url(#f1xztr81ztb7hj)" height="763.3164" style="stroke: #A80036; stroke-width: 1.0;" width="10" x="581" y="231.9082"/><rect fill="#FFFFFF" filter="url(#f1xztr81ztb7hj)" height="137.1738" style="stroke: #A80036; stroke-width: 1.0;" width="10" x="853" y="333.8398"/><rect fill="#FFFFFF" filter="url(#f1xztr81ztb7hj)" height="136.8633" style="stroke: #A80036; stroke-width: 1.0;" width="10" x="853" y="632.5664"/><rect fill="#FFFFFF" filter="url(#f1xztr81ztb7hj)" height="137.1738" style="stroke: #A80036; stroke-width: 1.0;" width="10" x="853" y="828.7402"/><rect fill="#FFFFFF" filter="url(#f1xztr81ztb7hj)" height="62.9316" style="stroke: #A80036; stroke-width: 1.0;" width="10" x="1125" y="378.7715"/><rect fill="#FFFFFF" filter="url(#f1xztr81ztb7hj)" height="62.9316" style="stroke: #A80036; stroke-width: 1.0;" width="10" x="1125" y="677.1875"/><rect fill="#FFFFFF" filter="url(#f1xztr81ztb7hj)" height="62.9316" style="stroke: #A80036; stroke-width: 1.0;" width="10" x="1125" y="873.6719"/><rect fill="#FFFFFF" filter="url(#f1xztr81ztb7hj)" height="87.9316" style="stroke: #A80036; stroke-width: 1.0;" width="10" x="1286.5" y="500.3242"/><rect fill="#FFFFFF" filter="url(#f1xztr81ztb7hj)" height="29.3105" style="stroke: #A80036; stroke-width: 1.0;" width="10" x="1639.5" y="529.6348"/><rect fill="#FFFFFF" filter="url(#f1xztr81ztb7hj)" height="898.8691" style="stroke: #000000; stroke-width: 2.0;" width="1702" x="13" y="133.9766"/><line style="stroke: #A80036; stroke-width: 1.0; stroke-dasharray: 5.0,5.0;" x1="38" x2="38" y1="116.9766" y2="1049.8457"/><line style="stroke: #A80036; stroke-width: 1.0; stroke-dasharray: 5.0,5.0;" x1="333.5" x2="333.5" y1="116.9766" y2="1049.8457"/><line style="stroke: #A80036; stroke-width: 1.0; stroke-dasharray: 5.0,5.0;" x1="586" x2="586" y1="116.9766" y2="1049.8457"/><line style="stroke: #A80036; stroke-width: 1.0; stroke-dasharray: 5.0,5.0;" x1="858" x2="858" y1="116.9766" y2="1049.8457"/><line style="stroke: #A80036; stroke-width: 1.0; stroke-dasharray: 5.0,5.0;" x1="1130" x2="1130" y1="116.9766" y2="1049.8457"/><line style="stroke: #A80036; stroke-width: 1.0; stroke-dasharray: 5.0,5.0;" x1="1291" x2="1291" y1="116.9766" y2="1049.8457"/><line style="stroke: #A80036; stroke-width: 1.0; stroke-dasharray: 5.0,5.0;" x1="1644" x2="1644" y1="116.9766" y2="1049.8457"/><text fill="#000000" font-family="sans-serif" font-size="14" lengthAdjust="spacingAndGlyphs" textLength="24" x="23" y="114.0234">FSP</text><ellipse cx="38" cy="43.4883" fill="#FEFECE" filter="url(#f1xztr81ztb7hj)" rx="8" ry="8" style="stroke: #A80036; stroke-width: 2.0;"/><path d="M38,51.4883 L38,78.4883 M25,59.4883 L51,59.4883 M38,78.4883 L25,93.4883 M38,78.4883 L51,93.4883 " fill="none" filter="url(#f1xztr81ztb7hj)" style="stroke: #A80036; stroke-width: 2.0;"/><text fill="#000000" font-family="sans-serif" font-size="14" lengthAdjust="spacingAndGlyphs" textLength="24" x="23" y="1062.3809">FSP</text><ellipse cx="38" cy="1075.334" fill="#FEFECE" filter="url(#f1xztr81ztb7hj)" rx="8" ry="8" style="stroke: #A80036; stroke-width: 2.0;"/><path d="M38,1083.334 L38,1110.334 M25,1091.334 L51,1091.334 M38,1110.334 L25,1125.334 M38,1110.334 L51,1125.334 " fill="none" filter="url(#f1xztr81ztb7hj)" style="stroke: #A80036; stroke-width: 2.0;"/><text fill="#000000" font-family="sans-serif" font-size="14" lengthAdjust="spacingAndGlyphs" textLength="163" x="249.5" y="114.0234">Account Lookup Service</text><path d="M313.5,72.4883 L313.5,96.4883 M313.5,84.4883 L330.5,84.4883 " fill="none" filter="url(#f1xztr81ztb7hj)" style="stroke: #A80036; stroke-width: 2.0;"/><ellipse cx="342.5" cy="84.4883" fill="#FEFECE" filter="url(#f1xztr81ztb7hj)" rx="12" ry="12" style="stroke: #A80036; stroke-width: 2.0;"/><text fill="#000000" font-family="sans-serif" font-size="14" lengthAdjust="spacingAndGlyphs" textLength="163" x="249.5" y="1062.3809">Account Lookup Service</text><path d="M313.5,1069.334 L313.5,1093.334 M313.5,1081.334 L330.5,1081.334 " fill="none" filter="url(#f1xztr81ztb7hj)" style="stroke: #A80036; stroke-width: 2.0;"/><ellipse cx="342.5" cy="1081.334" fill="#FEFECE" filter="url(#f1xztr81ztb7hj)" rx="12" ry="12" style="stroke: #A80036; stroke-width: 2.0;"/><text fill="#000000" font-family="sans-serif" font-size="14" lengthAdjust="spacingAndGlyphs" textLength="104" x="531" y="114.0234">Parties Handler</text><ellipse cx="586" cy="84.4883" fill="#FEFECE" filter="url(#f1xztr81ztb7hj)" rx="12" ry="12" style="stroke: #A80036; stroke-width: 2.0;"/><polygon fill="#A80036" points="582,72.4883,588,67.4883,586,72.4883,588,77.4883,582,72.4883" style="stroke: #A80036; stroke-width: 1.0;"/><text fill="#000000" font-family="sans-serif" font-size="14" lengthAdjust="spacingAndGlyphs" textLength="104" x="531" y="1062.3809">Parties Handler</text><ellipse cx="586" cy="1081.334" fill="#FEFECE" filter="url(#f1xztr81ztb7hj)" rx="12" ry="12" style="stroke: #A80036; stroke-width: 2.0;"/><polygon fill="#A80036" points="582,1069.334,588,1064.334,586,1069.334,588,1074.334,582,1069.334" style="stroke: #A80036; stroke-width: 1.0;"/><text fill="#000000" font-family="sans-serif" font-size="14" lengthAdjust="spacingAndGlyphs" textLength="108" x="801" y="114.0234">Participant DAO</text><ellipse cx="858" cy="84.4883" fill="#FEFECE" filter="url(#f1xztr81ztb7hj)" rx="12" ry="12" style="stroke: #A80036; stroke-width: 2.0;"/><line style="stroke: #A80036; stroke-width: 2.0;" x1="846" x2="870" y1="98.4883" y2="98.4883"/><text fill="#000000" font-family="sans-serif" font-size="14" lengthAdjust="spacingAndGlyphs" textLength="108" x="801" y="1062.3809">Participant DAO</text><ellipse cx="858" cy="1081.334" fill="#FEFECE" filter="url(#f1xztr81ztb7hj)" rx="12" ry="12" style="stroke: #A80036; stroke-width: 2.0;"/><line style="stroke: #A80036; stroke-width: 2.0;" x1="846" x2="870" y1="1095.334" y2="1095.334"/><text fill="#000000" font-family="sans-serif" font-size="14" lengthAdjust="spacingAndGlyphs" textLength="168" x="1043" y="114.0234">Central Ledger Database</text><path d="M1112,64.4883 C1112,54.4883 1130,54.4883 1130,54.4883 C1130,54.4883 1148,54.4883 1148,64.4883 L1148,90.4883 C1148,100.4883 1130,100.4883 1130,100.4883 C1130,100.4883 1112,100.4883 1112,90.4883 L1112,64.4883 " fill="#FEFECE" filter="url(#f1xztr81ztb7hj)" style="stroke: #000000; stroke-width: 1.5;"/><path d="M1112,64.4883 C1112,74.4883 1130,74.4883 1130,74.4883 C1130,74.4883 1148,74.4883 1148,64.4883 " fill="none" style="stroke: #000000; stroke-width: 1.5;"/><text fill="#000000" font-family="sans-serif" font-size="14" lengthAdjust="spacingAndGlyphs" textLength="168" x="1043" y="1062.3809">Central Ledger Database</text><path d="M1112,1075.334 C1112,1065.334 1130,1065.334 1130,1065.334 C1130,1065.334 1148,1065.334 1148,1075.334 L1148,1101.334 C1148,1111.334 1130,1111.334 1130,1111.334 C1130,1111.334 1112,1111.334 1112,1101.334 L1112,1075.334 " fill="#FEFECE" filter="url(#f1xztr81ztb7hj)" style="stroke: #000000; stroke-width: 1.5;"/><path d="M1112,1075.334 C1112,1085.334 1130,1085.334 1130,1085.334 C1130,1085.334 1148,1085.334 1148,1075.334 " fill="none" style="stroke: #000000; stroke-width: 1.5;"/><text fill="#000000" font-family="sans-serif" font-size="14" lengthAdjust="spacingAndGlyphs" textLength="123" x="1227" y="114.0234">Pathfinder Service</text><ellipse cx="1291.5" cy="84.4883" fill="#FEFECE" filter="url(#f1xztr81ztb7hj)" rx="12" ry="12" style="stroke: #A80036; stroke-width: 2.0;"/><line style="stroke: #A80036; stroke-width: 2.0;" x1="1279.5" x2="1303.5" y1="98.4883" y2="98.4883"/><text fill="#000000" font-family="sans-serif" font-size="14" lengthAdjust="spacingAndGlyphs" textLength="123" x="1227" y="1062.3809">Pathfinder Service</text><ellipse cx="1291.5" cy="1081.334" fill="#FEFECE" filter="url(#f1xztr81ztb7hj)" rx="12" ry="12" style="stroke: #A80036; stroke-width: 2.0;"/><line style="stroke: #A80036; stroke-width: 2.0;" x1="1279.5" x2="1303.5" y1="1095.334" y2="1095.334"/><text fill="#000000" font-family="sans-serif" font-size="14" lengthAdjust="spacingAndGlyphs" textLength="115" x="1584" y="114.0234">GSMA Pathfinder</text><ellipse cx="1644.5" cy="43.4883" fill="#FEFECE" filter="url(#f1xztr81ztb7hj)" rx="8" ry="8" style="stroke: #A80036; stroke-width: 2.0;"/><path d="M1644.5,51.4883 L1644.5,78.4883 M1631.5,59.4883 L1657.5,59.4883 M1644.5,78.4883 L1631.5,93.4883 M1644.5,78.4883 L1657.5,93.4883 " fill="none" filter="url(#f1xztr81ztb7hj)" style="stroke: #A80036; stroke-width: 2.0;"/><text fill="#000000" font-family="sans-serif" font-size="14" lengthAdjust="spacingAndGlyphs" textLength="115" x="1584" y="1062.3809">GSMA Pathfinder</text><ellipse cx="1644.5" cy="1075.334" fill="#FEFECE" filter="url(#f1xztr81ztb7hj)" rx="8" ry="8" style="stroke: #A80036; stroke-width: 2.0;"/><path d="M1644.5,1083.334 L1644.5,1110.334 M1631.5,1091.334 L1657.5,1091.334 M1644.5,1110.334 L1631.5,1125.334 M1644.5,1110.334 L1657.5,1125.334 " fill="none" filter="url(#f1xztr81ztb7hj)" style="stroke: #A80036; stroke-width: 2.0;"/><rect fill="#FFFFFF" filter="url(#f1xztr81ztb7hj)" height="897.5586" style="stroke: #A80036; stroke-width: 1.0;" width="10" x="33" y="126.9766"/><rect fill="#FFFFFF" filter="url(#f1xztr81ztb7hj)" height="837.248" style="stroke: #A80036; stroke-width: 1.0;" width="10" x="329" y="187.2871"/><rect fill="#FFFFFF" filter="url(#f1xztr81ztb7hj)" height="763.3164" style="stroke: #A80036; stroke-width: 1.0;" width="10" x="581" y="231.9082"/><rect fill="#FFFFFF" filter="url(#f1xztr81ztb7hj)" height="137.1738" style="stroke: #A80036; stroke-width: 1.0;" width="10" x="853" y="333.8398"/><rect fill="#FFFFFF" filter="url(#f1xztr81ztb7hj)" height="136.8633" style="stroke: #A80036; stroke-width: 1.0;" width="10" x="853" y="632.5664"/><rect fill="#FFFFFF" filter="url(#f1xztr81ztb7hj)" height="137.1738" style="stroke: #A80036; stroke-width: 1.0;" width="10" x="853" y="828.7402"/><rect fill="#FFFFFF" filter="url(#f1xztr81ztb7hj)" height="62.9316" style="stroke: #A80036; stroke-width: 1.0;" width="10" x="1125" y="378.7715"/><rect fill="#FFFFFF" filter="url(#f1xztr81ztb7hj)" height="62.9316" style="stroke: #A80036; stroke-width: 1.0;" width="10" x="1125" y="677.1875"/><rect fill="#FFFFFF" filter="url(#f1xztr81ztb7hj)" height="62.9316" style="stroke: #A80036; stroke-width: 1.0;" width="10" x="1125" y="873.6719"/><rect fill="#FFFFFF" filter="url(#f1xztr81ztb7hj)" height="87.9316" style="stroke: #A80036; stroke-width: 1.0;" width="10" x="1286.5" y="500.3242"/><rect fill="#FFFFFF" filter="url(#f1xztr81ztb7hj)" height="29.3105" style="stroke: #A80036; stroke-width: 1.0;" width="10" x="1639.5" y="529.6348"/><path d="M13,133.9766 L180,133.9766 L180,140.9766 L170,150.9766 L13,150.9766 L13,133.9766 " fill="#EEEEEE" style="stroke: #000000; stroke-width: 1.0;"/><rect fill="none" height="898.8691" style="stroke: #000000; stroke-width: 2.0;" width="1702" x="13" y="133.9766"/><text fill="#000000" font-family="sans-serif" font-size="13" font-weight="bold" lengthAdjust="spacingAndGlyphs" textLength="122" x="28" y="147.5449">Get Party's Details</text><polygon fill="#A80036" points="317,183.2871,327,187.2871,317,191.2871,321,187.2871" style="stroke: #A80036; stroke-width: 1.0;"/><line style="stroke: #A80036; stroke-width: 1.0;" x1="43" x2="323" y1="187.2871" y2="187.2871"/><text fill="#000000" font-family="sans-serif" font-size="13" font-weight="bold" lengthAdjust="spacingAndGlyphs" textLength="9" x="50" y="175.5107">1</text><text fill="#000000" font-family="sans-serif" font-size="13" lengthAdjust="spacingAndGlyphs" textLength="183" x="63" y="167.8555">Request to get party's details</text><text fill="#000000" font-family="sans-serif" font-size="13" lengthAdjust="spacingAndGlyphs" textLength="164" x="63" y="183.166">GET - /parties/{Type}/{ID}</text><polygon fill="#A80036" points="569,227.9082,579,231.9082,569,235.9082,573,231.9082" style="stroke: #A80036; stroke-width: 1.0;"/><line style="stroke: #A80036; stroke-width: 1.0;" x1="339" x2="575" y1="231.9082" y2="231.9082"/><text fill="#000000" font-family="sans-serif" font-size="13" font-weight="bold" lengthAdjust="spacingAndGlyphs" textLength="9" x="346" y="220.1318">2</text><text fill="#000000" font-family="sans-serif" font-size="13" lengthAdjust="spacingAndGlyphs" textLength="154" x="359" y="212.4766">Get Party by ID and Type</text><text fill="#000000" font-family="sans-serif" font-size="13" lengthAdjust="spacingAndGlyphs" textLength="133" x="359" y="227.7871">(PartiesByTypeAndID)</text><line style="stroke: #A80036; stroke-width: 1.0;" x1="591" x2="633" y1="261.8398" y2="261.8398"/><line style="stroke: #A80036; stroke-width: 1.0;" x1="633" x2="633" y1="261.8398" y2="274.8398"/><line style="stroke: #A80036; stroke-width: 1.0;" x1="592" x2="633" y1="274.8398" y2="274.8398"/><polygon fill="#A80036" points="602,270.8398,592,274.8398,602,278.8398,598,274.8398" style="stroke: #A80036; stroke-width: 1.0;"/><text fill="#000000" font-family="sans-serif" font-size="13" font-weight="bold" lengthAdjust="spacingAndGlyphs" textLength="9" x="598" y="257.0977">3</text><text fill="#000000" font-family="sans-serif" font-size="13" lengthAdjust="spacingAndGlyphs" textLength="103" x="611" y="257.0977">Validate MSISDN</text><polygon fill="#A80036" points="841,329.8398,851,333.8398,841,337.8398,845,333.8398" style="stroke: #A80036; stroke-width: 1.0;"/><line style="stroke: #A80036; stroke-width: 1.0;" x1="591" x2="847" y1="333.8398" y2="333.8398"/><text fill="#000000" font-family="sans-serif" font-size="13" font-weight="bold" lengthAdjust="spacingAndGlyphs" textLength="9" x="598" y="314.7188">4</text><text fill="#000000" font-family="sans-serif" font-size="13" lengthAdjust="spacingAndGlyphs" textLength="171" x="611" y="299.4082">Fetch Source Party's details</text><text fill="#000000" font-family="sans-serif" font-size="13" lengthAdjust="spacingAndGlyphs" textLength="180" x="611" y="314.7188">(handleMSISDNPartyRequest)</text><text fill="#FF0000" font-family="sans-serif" font-size="13" font-weight="bold" lengthAdjust="spacingAndGlyphs" textLength="73" x="611" y="330.0293">Error code:</text><text fill="#FF0000" font-family="sans-serif" font-size="13" lengthAdjust="spacingAndGlyphs" textLength="32" x="688" y="330.0293">3200</text><polygon fill="#A80036" points="1113,374.7715,1123,378.7715,1113,382.7715,1117,378.7715" style="stroke: #A80036; stroke-width: 1.0;"/><line style="stroke: #A80036; stroke-width: 1.0;" x1="863" x2="1119" y1="378.7715" y2="378.7715"/><text fill="#000000" font-family="sans-serif" font-size="13" font-weight="bold" lengthAdjust="spacingAndGlyphs" textLength="9" x="870" y="366.9951">5</text><text fill="#000000" font-family="sans-serif" font-size="13" lengthAdjust="spacingAndGlyphs" textLength="209" x="883" y="359.3398">Fetch Source Party Error Endpoint</text><text fill="#000000" font-family="sans-serif" font-size="13" lengthAdjust="spacingAndGlyphs" textLength="201" x="883" y="374.6504">(getParticipantEndpointByName)</text><polygon fill="#FFFFE0" filter="url(#f1xztr81ztb7hj)" points="1066,392.3926,1194,392.3926,1204,403.3926,1194,415.3926,1066,415.3926,1056,403.3926,1066,392.3926" style="stroke: #A80036; stroke-width: 1.0;"/><text fill="#000000" font-family="sans-serif" font-size="13" lengthAdjust="spacingAndGlyphs" textLength="124" x="1068" y="408.9609">participantEndpoint</text><polygon fill="#A80036" points="874,437.7031,864,441.7031,874,445.7031,870,441.7031" style="stroke: #A80036; stroke-width: 1.0;"/><line style="stroke: #A80036; stroke-width: 1.0; stroke-dasharray: 2.0,2.0;" x1="868" x2="1129" y1="441.7031" y2="441.7031"/><text fill="#000000" font-family="sans-serif" font-size="13" font-weight="bold" lengthAdjust="spacingAndGlyphs" textLength="9" x="880" y="437.2715">6</text><text fill="#000000" font-family="sans-serif" font-size="13" lengthAdjust="spacingAndGlyphs" textLength="170" x="893" y="437.2715">Return Party Error Endpoint</text><polygon fill="#A80036" points="602,467.0137,592,471.0137,602,475.0137,598,471.0137" style="stroke: #A80036; stroke-width: 1.0;"/><line style="stroke: #A80036; stroke-width: 1.0; stroke-dasharray: 2.0,2.0;" x1="596" x2="857" y1="471.0137" y2="471.0137"/><text fill="#000000" font-family="sans-serif" font-size="13" font-weight="bold" lengthAdjust="spacingAndGlyphs" textLength="9" x="608" y="466.582">7</text><text fill="#000000" font-family="sans-serif" font-size="13" lengthAdjust="spacingAndGlyphs" textLength="170" x="621" y="466.582">Return Party Error Endpoint</text><polygon fill="#A80036" points="1274.5,496.3242,1284.5,500.3242,1274.5,504.3242,1278.5,500.3242" style="stroke: #A80036; stroke-width: 1.0;"/><line style="stroke: #A80036; stroke-width: 1.0;" x1="591" x2="1280.5" y1="500.3242" y2="500.3242"/><text fill="#000000" font-family="sans-serif" font-size="13" font-weight="bold" lengthAdjust="spacingAndGlyphs" textLength="9" x="598" y="495.8926">8</text><text fill="#000000" font-family="sans-serif" font-size="13" lengthAdjust="spacingAndGlyphs" textLength="90" x="611" y="495.8926">Query Party ID</text><polygon fill="#A80036" points="1627.5,525.6348,1637.5,529.6348,1627.5,533.6348,1631.5,529.6348" style="stroke: #A80036; stroke-width: 1.0;"/><line style="stroke: #A80036; stroke-width: 1.0;" x1="1296.5" x2="1633.5" y1="529.6348" y2="529.6348"/><text fill="#000000" font-family="sans-serif" font-size="13" font-weight="bold" lengthAdjust="spacingAndGlyphs" textLength="9" x="1303.5" y="525.2031">9</text><text fill="#000000" font-family="sans-serif" font-size="13" lengthAdjust="spacingAndGlyphs" textLength="72" x="1316.5" y="525.2031">Query Party</text><polygon fill="#A80036" points="1307.5,554.9453,1297.5,558.9453,1307.5,562.9453,1303.5,558.9453" style="stroke: #A80036; stroke-width: 1.0;"/><line style="stroke: #A80036; stroke-width: 1.0;" x1="1301.5" x2="1643.5" y1="558.9453" y2="558.9453"/><text fill="#000000" font-family="sans-serif" font-size="13" font-weight="bold" lengthAdjust="spacingAndGlyphs" textLength="18" x="1313.5" y="554.5137">10</text><text fill="#000000" font-family="sans-serif" font-size="13" lengthAdjust="spacingAndGlyphs" textLength="297" x="1335.5" y="554.5137">Return Mobile Country Code and Network Code</text><polygon fill="#A80036" points="602,584.2559,592,588.2559,602,592.2559,598,588.2559" style="stroke: #A80036; stroke-width: 1.0;"/><line style="stroke: #A80036; stroke-width: 1.0;" x1="596" x2="1290.5" y1="588.2559" y2="588.2559"/><text fill="#000000" font-family="sans-serif" font-size="13" font-weight="bold" lengthAdjust="spacingAndGlyphs" textLength="18" x="608" y="583.8242">11</text><text fill="#000000" font-family="sans-serif" font-size="13" lengthAdjust="spacingAndGlyphs" textLength="121" x="630" y="583.8242">Return MCC &amp; MNC</text><polygon fill="#A80036" points="841,628.5664,851,632.5664,841,636.5664,845,632.5664" style="stroke: #A80036; stroke-width: 1.0;"/><line style="stroke: #A80036; stroke-width: 1.0;" x1="591" x2="847" y1="632.5664" y2="632.5664"/><text fill="#000000" font-family="sans-serif" font-size="13" font-weight="bold" lengthAdjust="spacingAndGlyphs" textLength="18" x="598" y="620.79">12</text><text fill="#000000" font-family="sans-serif" font-size="13" lengthAdjust="spacingAndGlyphs" textLength="145" x="620" y="613.1348">Fetch Participant Name</text><text fill="#FF0000" font-family="sans-serif" font-size="13" font-weight="bold" lengthAdjust="spacingAndGlyphs" textLength="73" x="620" y="628.4453">Error code:</text><text fill="#FF0000" font-family="sans-serif" font-size="13" lengthAdjust="spacingAndGlyphs" textLength="32" x="697" y="628.4453">3200</text><polygon fill="#A80036" points="1113,673.1875,1123,677.1875,1113,681.1875,1117,677.1875" style="stroke: #A80036; stroke-width: 1.0;"/><line style="stroke: #A80036; stroke-width: 1.0;" x1="863" x2="1119" y1="677.1875" y2="677.1875"/><text fill="#000000" font-family="sans-serif" font-size="13" font-weight="bold" lengthAdjust="spacingAndGlyphs" textLength="18" x="870" y="665.4111">13</text><text fill="#000000" font-family="sans-serif" font-size="13" lengthAdjust="spacingAndGlyphs" textLength="145" x="892" y="657.7559">Fetch Participant Name</text><text fill="#000000" font-family="sans-serif" font-size="13" lengthAdjust="spacingAndGlyphs" textLength="214" x="892" y="673.0664">(getParticipantNameFromMccMnc)</text><polygon fill="#FFFFE0" filter="url(#f1xztr81ztb7hj)" points="1080,690.8086,1179,690.8086,1189,701.8086,1179,713.8086,1080,713.8086,1070,701.8086,1080,690.8086" style="stroke: #A80036; stroke-width: 1.0;"/><text fill="#000000" font-family="sans-serif" font-size="13" lengthAdjust="spacingAndGlyphs" textLength="95" x="1082" y="707.377">participantMno</text><polygon fill="#A80036" points="874,736.1191,864,740.1191,874,744.1191,870,740.1191" style="stroke: #A80036; stroke-width: 1.0;"/><line style="stroke: #A80036; stroke-width: 1.0; stroke-dasharray: 2.0,2.0;" x1="868" x2="1129" y1="740.1191" y2="740.1191"/><text fill="#000000" font-family="sans-serif" font-size="13" font-weight="bold" lengthAdjust="spacingAndGlyphs" textLength="18" x="880" y="735.6875">14</text><text fill="#000000" font-family="sans-serif" font-size="13" lengthAdjust="spacingAndGlyphs" textLength="152" x="902" y="735.6875">Return Participant Name</text><polygon fill="#A80036" points="602,765.4297,592,769.4297,602,773.4297,598,769.4297" style="stroke: #A80036; stroke-width: 1.0;"/><line style="stroke: #A80036; stroke-width: 1.0; stroke-dasharray: 2.0,2.0;" x1="596" x2="857" y1="769.4297" y2="769.4297"/><text fill="#000000" font-family="sans-serif" font-size="13" font-weight="bold" lengthAdjust="spacingAndGlyphs" textLength="18" x="608" y="764.998">15</text><text fill="#000000" font-family="sans-serif" font-size="13" lengthAdjust="spacingAndGlyphs" textLength="152" x="630" y="764.998">Return Participant Name</text><polygon fill="#A80036" points="841,824.7402,851,828.7402,841,832.7402,845,828.7402" style="stroke: #A80036; stroke-width: 1.0;"/><line style="stroke: #A80036; stroke-width: 1.0;" x1="591" x2="847" y1="828.7402" y2="828.7402"/><text fill="#000000" font-family="sans-serif" font-size="13" font-weight="bold" lengthAdjust="spacingAndGlyphs" textLength="18" x="598" y="809.6191">16</text><text fill="#000000" font-family="sans-serif" font-size="13" lengthAdjust="spacingAndGlyphs" textLength="205" x="620" y="794.3086">Fetch Target Participant's details</text><text fill="#000000" font-family="sans-serif" font-size="13" lengthAdjust="spacingAndGlyphs" textLength="180" x="620" y="809.6191">(handleMSISDNPartyRequest)</text><text fill="#FF0000" font-family="sans-serif" font-size="13" font-weight="bold" lengthAdjust="spacingAndGlyphs" textLength="73" x="620" y="824.9297">Error code:</text><text fill="#FF0000" font-family="sans-serif" font-size="13" lengthAdjust="spacingAndGlyphs" textLength="32" x="697" y="824.9297">3200</text><polygon fill="#A80036" points="1113,869.6719,1123,873.6719,1113,877.6719,1117,873.6719" style="stroke: #A80036; stroke-width: 1.0;"/><line style="stroke: #A80036; stroke-width: 1.0;" x1="863" x2="1119" y1="873.6719" y2="873.6719"/><text fill="#000000" font-family="sans-serif" font-size="13" font-weight="bold" lengthAdjust="spacingAndGlyphs" textLength="18" x="870" y="861.8955">17</text><text fill="#000000" font-family="sans-serif" font-size="13" lengthAdjust="spacingAndGlyphs" textLength="209" x="892" y="854.2402">Fetch Target Participant Endpoint</text><text fill="#000000" font-family="sans-serif" font-size="13" lengthAdjust="spacingAndGlyphs" textLength="201" x="892" y="869.5508">(getParticipantEndpointByName)</text><polygon fill="#FFFFE0" filter="url(#f1xztr81ztb7hj)" points="1066,887.293,1194,887.293,1204,898.293,1194,910.293,1066,910.293,1056,898.293,1066,887.293" style="stroke: #A80036; stroke-width: 1.0;"/><text fill="#000000" font-family="sans-serif" font-size="13" lengthAdjust="spacingAndGlyphs" textLength="124" x="1068" y="903.8613">participantEndpoint</text><polygon fill="#A80036" points="874,932.6035,864,936.6035,874,940.6035,870,936.6035" style="stroke: #A80036; stroke-width: 1.0;"/><line style="stroke: #A80036; stroke-width: 1.0; stroke-dasharray: 2.0,2.0;" x1="868" x2="1129" y1="936.6035" y2="936.6035"/><text fill="#000000" font-family="sans-serif" font-size="13" font-weight="bold" lengthAdjust="spacingAndGlyphs" textLength="18" x="880" y="932.1719">18</text><text fill="#000000" font-family="sans-serif" font-size="13" lengthAdjust="spacingAndGlyphs" textLength="216" x="902" y="932.1719">Return Target Participant Endpoint</text><polygon fill="#A80036" points="602,961.9141,592,965.9141,602,969.9141,598,965.9141" style="stroke: #A80036; stroke-width: 1.0;"/><line style="stroke: #A80036; stroke-width: 1.0; stroke-dasharray: 2.0,2.0;" x1="596" x2="857" y1="965.9141" y2="965.9141"/><text fill="#000000" font-family="sans-serif" font-size="13" font-weight="bold" lengthAdjust="spacingAndGlyphs" textLength="18" x="608" y="961.4824">19</text><text fill="#000000" font-family="sans-serif" font-size="13" lengthAdjust="spacingAndGlyphs" textLength="216" x="630" y="961.4824">Return Target Participant Endpoint</text><polygon fill="#A80036" points="350,991.2246,340,995.2246,350,999.2246,346,995.2246" style="stroke: #A80036; stroke-width: 1.0;"/><line style="stroke: #A80036; stroke-width: 1.0;" x1="344" x2="585" y1="995.2246" y2="995.2246"/><text fill="#000000" font-family="sans-serif" font-size="13" font-weight="bold" lengthAdjust="spacingAndGlyphs" textLength="18" x="356" y="990.793">20</text><text fill="#000000" font-family="sans-serif" font-size="13" lengthAdjust="spacingAndGlyphs" textLength="196" x="378" y="990.793">Return Target Participant Name</text><polygon fill="#A80036" points="49,1020.5352,39,1024.5352,49,1028.5352,45,1024.5352" style="stroke: #A80036; stroke-width: 1.0;"/><line style="stroke: #A80036; stroke-width: 1.0; stroke-dasharray: 2.0,2.0;" x1="43" x2="333" y1="1024.5352" y2="1024.5352"/><text fill="#000000" font-family="sans-serif" font-size="13" font-weight="bold" lengthAdjust="spacingAndGlyphs" textLength="18" x="55" y="1020.1035">21</text><text fill="#000000" font-family="sans-serif" font-size="13" lengthAdjust="spacingAndGlyphs" textLength="240" x="77" y="1020.1035">Return Result to Target Party Endpoint</text><!--
@startuml
title 7.2.0 Get Parties Details

autonumber

actor "FSP" as FSP
boundary "Account Lookup Service" as ALS
control "Parties Handler" as PARTIES_HANDLER
entity "Account Lookup Service API" as ALS
entity "Participant DAO" as PARTICIPANT_DAO
database "Central Ledger Database" as DB
entity "Pathfinder Service" as PATHFINDER_SERVICE
actor "GSMA Pathfinder" as PATHFINDER

box "Account Lookup Service" #LightYellow
participant ALS
participant PARTIES_HANDLER
participant PARTICIPANT_DAO
participant DB
end box

box "Pathfinder Library" #LightBlue
participant PATHFINDER_SERVICE
end box

participant PATHFINDER


activate FSP
group Get Party's Details
    FSP -> ALS: Request to get party's details \nGET - /parties/{Type}/{ID}
    activate ALS
    ALS -> PARTIES_HANDLER: Get Party by ID and Type \n(PartiesByTypeAndID)
    activate PARTIES_HANDLER
    PARTIES_HANDLER ->PARTIES_HANDLER: Validate MSISDN
    PARTIES_HANDLER ->PARTICIPANT_DAO: Fetch Source Party's details \n(handleMSISDNPartyRequest)\n<color #FF0000><b>Error code:</b> 3200</color>
    activate PARTICIPANT_DAO
    PARTICIPANT_DAO -> DB: Fetch Source Party Error Endpoint \n(getParticipantEndpointByName)
    activate DB
    hnote over DB #lightyellow
        participantEndpoint
    end note
    DB - -> PARTICIPANT_DAO: Return Party Error Endpoint
    deactivate DB
    PARTICIPANT_DAO - -> PARTIES_HANDLER: Return Party Error Endpoint
    deactivate PARTICIPANT_DAO
    PARTIES_HANDLER -> PATHFINDER_SERVICE: Query Party ID
    activate PATHFINDER_SERVICE
    PATHFINDER_SERVICE -> PATHFINDER: Query Party
    activate PATHFINDER
    PATHFINDER -> PATHFINDER_SERVICE: Return Mobile Country Code and Network Code
    deactivate PATHFINDER
    PATHFINDER_SERVICE -> PARTIES_HANDLER: Return MCC & MNC
    deactivate PATHFINDER_SERVICE
    PARTIES_HANDLER ->PARTICIPANT_DAO: Fetch Participant Name\n<color #FF0000><b>Error code:</b> 3200</color>
    activate PARTICIPANT_DAO
    PARTICIPANT_DAO -> DB: Fetch Participant Name \n(getParticipantNameFromMccMnc)
    activate DB
    hnote over DB #lightyellow
        participantMno
    end note
    DB - -> PARTICIPANT_DAO: Return Participant Name
    deactivate DB
    PARTICIPANT_DAO - -> PARTIES_HANDLER: Return Participant Name
    deactivate PARTICIPANT_DAO
    PARTIES_HANDLER ->PARTICIPANT_DAO: Fetch Target Participant's details \n(handleMSISDNPartyRequest)\n<color #FF0000><b>Error code:</b> 3200</color>
    activate PARTICIPANT_DAO
    PARTICIPANT_DAO -> DB: Fetch Target Participant Endpoint \n(getParticipantEndpointByName)
    activate DB
    hnote over DB #lightyellow
        participantEndpoint
    end note
    DB - -> PARTICIPANT_DAO: Return Target Participant Endpoint
    deactivate DB
    PARTICIPANT_DAO - -> PARTIES_HANDLER: Return Target Participant Endpoint
    deactivate PARTICIPANT_DAO
    PARTIES_HANDLER -> ALS: Return Target Participant Name
    deactivate PARTIES_HANDLER
    ALS - ->FSP: Return Result to Target Party Endpoint
    deactivate ALS
    deactivate FSP
end
@enduml

PlantUML version 1.2018.01(Sun Jan 28 20:08:22 SAST 2018)
(GPL source distribution)
Java Runtime: OpenJDK Runtime Environment
JVM: OpenJDK 64-Bit Server VM
Java Version: 1.8.0_152-release-1136-b20
Operating System: Mac OS X
OS Version: 10.14.3
Default Encoding: UTF-8
Language: en
Country: ZA
--></g></svg>