<?xml version="1.0" encoding="UTF-8" standalone="no"?><svg xmlns="http://www.w3.org/2000/svg" xmlns:xlink="http://www.w3.org/1999/xlink" contentScriptType="application/ecmascript" contentStyleType="text/css" height="967px" preserveAspectRatio="none" style="width:1202px;height:967px;" version="1.1" viewBox="0 0 1202 967" width="1202px" zoomAndPan="magnify"><defs><filter height="300%" id="f13jw10cpditu0" width="300%" x="-1" y="-1"><feGaussianBlur result="blurOut" stdDeviation="2.0"/><feColorMatrix in="blurOut" result="blurOut2" type="matrix" values="0 0 0 0 0 0 0 0 0 0 0 0 0 0 0 0 0 0 .4 0"/><feOffset dx="4.0" dy="4.0" in="blurOut2" result="blurOut3"/><feBlend in="SourceGraphic" in2="blurOut3" mode="normal"/></filter></defs><g><text fill="#000000" font-family="sans-serif" font-size="14" font-weight="bold" lengthAdjust="spacingAndGlyphs" textLength="173" x="515.5" y="23.5352">7.2.1 Put Parties Details</text><rect fill="#FFFFE0" height="921.8457" style="stroke: #A80036; stroke-width: 1.0;" width="948.5" x="236.5" y="34.4883"/><text fill="#000000" font-family="sans-serif" font-size="13" font-weight="bold" lengthAdjust="spacingAndGlyphs" textLength="161" x="630.25" y="47.0566">Account Lookup Service</text><rect fill="#FFFFFF" filter="url(#f13jw10cpditu0)" height="717.5586" style="stroke: #A80036; stroke-width: 1.0;" width="10" x="33" y="126.9766"/><rect fill="#FFFFFF" filter="url(#f13jw10cpditu0)" height="657.248" style="stroke: #A80036; stroke-width: 1.0;" width="10" x="320" y="187.2871"/><rect fill="#FFFFFF" filter="url(#f13jw10cpditu0)" height="268.416" style="stroke: #A80036; stroke-width: 1.0;" width="10" x="563" y="546.8086"/><rect fill="#FFFFFF" filter="url(#f13jw10cpditu0)" height="137.1738" style="stroke: #A80036; stroke-width: 1.0;" width="10" x="826" y="648.7402"/><rect fill="#FFFFFF" filter="url(#f13jw10cpditu0)" height="62.9316" style="stroke: #A80036; stroke-width: 1.0;" width="10" x="1089" y="693.6719"/><rect fill="#FFFFFF" filter="url(#f13jw10cpditu0)" height="718.8691" style="stroke: #000000; stroke-width: 2.0;" width="1178" x="13" y="133.9766"/><line style="stroke: #A80036; stroke-width: 1.0; stroke-dasharray: 5.0,5.0;" x1="38" x2="38" y1="116.9766" y2="869.8457"/><line style="stroke: #A80036; stroke-width: 1.0; stroke-dasharray: 5.0,5.0;" x1="324.5" x2="324.5" y1="116.9766" y2="869.8457"/><line style="stroke: #A80036; stroke-width: 1.0; stroke-dasharray: 5.0,5.0;" x1="568" x2="568" y1="116.9766" y2="869.8457"/><line style="stroke: #A80036; stroke-width: 1.0; stroke-dasharray: 5.0,5.0;" x1="831" x2="831" y1="116.9766" y2="869.8457"/><line style="stroke: #A80036; stroke-width: 1.0; stroke-dasharray: 5.0,5.0;" x1="1094" x2="1094" y1="116.9766" y2="869.8457"/><text fill="#000000" font-family="sans-serif" font-size="14" lengthAdjust="spacingAndGlyphs" textLength="24" x="23" y="114.0234">FSP</text><ellipse cx="38" cy="43.4883" fill="#FEFECE" filter="url(#f13jw10cpditu0)" rx="8" ry="8" style="stroke: #A80036; stroke-width: 2.0;"/><path d="M38,51.4883 L38,78.4883 M25,59.4883 L51,59.4883 M38,78.4883 L25,93.4883 M38,78.4883 L51,93.4883 " fill="none" filter="url(#f13jw10cpditu0)" style="stroke: #A80036; stroke-width: 2.0;"/><text fill="#000000" font-family="sans-serif" font-size="14" lengthAdjust="spacingAndGlyphs" textLength="24" x="23" y="882.3809">FSP</text><ellipse cx="38" cy="895.334" fill="#FEFECE" filter="url(#f13jw10cpditu0)" rx="8" ry="8" style="stroke: #A80036; stroke-width: 2.0;"/><path d="M38,903.334 L38,930.334 M25,911.334 L51,911.334 M38,930.334 L25,945.334 M38,930.334 L51,945.334 " fill="none" filter="url(#f13jw10cpditu0)" style="stroke: #A80036; stroke-width: 2.0;"/><text fill="#000000" font-family="sans-serif" font-size="14" lengthAdjust="spacingAndGlyphs" textLength="163" x="240.5" y="114.0234">Account Lookup Service</text><path d="M304.5,72.4883 L304.5,96.4883 M304.5,84.4883 L321.5,84.4883 " fill="none" filter="url(#f13jw10cpditu0)" style="stroke: #A80036; stroke-width: 2.0;"/><ellipse cx="333.5" cy="84.4883" fill="#FEFECE" filter="url(#f13jw10cpditu0)" rx="12" ry="12" style="stroke: #A80036; stroke-width: 2.0;"/><text fill="#000000" font-family="sans-serif" font-size="14" lengthAdjust="spacingAndGlyphs" textLength="163" x="240.5" y="882.3809">Account Lookup Service</text><path d="M304.5,889.334 L304.5,913.334 M304.5,901.334 L321.5,901.334 " fill="none" filter="url(#f13jw10cpditu0)" style="stroke: #A80036; stroke-width: 2.0;"/><ellipse cx="333.5" cy="901.334" fill="#FEFECE" filter="url(#f13jw10cpditu0)" rx="12" ry="12" style="stroke: #A80036; stroke-width: 2.0;"/><text fill="#000000" font-family="sans-serif" font-size="14" lengthAdjust="spacingAndGlyphs" textLength="104" x="513" y="114.0234">Parties Handler</text><ellipse cx="568" cy="84.4883" fill="#FEFECE" filter="url(#f13jw10cpditu0)" rx="12" ry="12" style="stroke: #A80036; stroke-width: 2.0;"/><polygon fill="#A80036" points="564,72.4883,570,67.4883,568,72.4883,570,77.4883,564,72.4883" style="stroke: #A80036; stroke-width: 1.0;"/><text fill="#000000" font-family="sans-serif" font-size="14" lengthAdjust="spacingAndGlyphs" textLength="104" x="513" y="882.3809">Parties Handler</text><ellipse cx="568" cy="901.334" fill="#FEFECE" filter="url(#f13jw10cpditu0)" rx="12" ry="12" style="stroke: #A80036; stroke-width: 2.0;"/><polygon fill="#A80036" points="564,889.334,570,884.334,568,889.334,570,894.334,564,889.334" style="stroke: #A80036; stroke-width: 1.0;"/><text fill="#000000" font-family="sans-serif" font-size="14" lengthAdjust="spacingAndGlyphs" textLength="108" x="774" y="114.0234">Participant DAO</text><ellipse cx="831" cy="84.4883" fill="#FEFECE" filter="url(#f13jw10cpditu0)" rx="12" ry="12" style="stroke: #A80036; stroke-width: 2.0;"/><line style="stroke: #A80036; stroke-width: 2.0;" x1="819" x2="843" y1="98.4883" y2="98.4883"/><text fill="#000000" font-family="sans-serif" font-size="14" lengthAdjust="spacingAndGlyphs" textLength="108" x="774" y="882.3809">Participant DAO</text><ellipse cx="831" cy="901.334" fill="#FEFECE" filter="url(#f13jw10cpditu0)" rx="12" ry="12" style="stroke: #A80036; stroke-width: 2.0;"/><line style="stroke: #A80036; stroke-width: 2.0;" x1="819" x2="843" y1="915.334" y2="915.334"/><text fill="#000000" font-family="sans-serif" font-size="14" lengthAdjust="spacingAndGlyphs" textLength="168" x="1007" y="114.0234">Central Ledger Database</text><path d="M1076,64.4883 C1076,54.4883 1094,54.4883 1094,54.4883 C1094,54.4883 1112,54.4883 1112,64.4883 L1112,90.4883 C1112,100.4883 1094,100.4883 1094,100.4883 C1094,100.4883 1076,100.4883 1076,90.4883 L1076,64.4883 " fill="#FEFECE" filter="url(#f13jw10cpditu0)" style="stroke: #000000; stroke-width: 1.5;"/><path d="M1076,64.4883 C1076,74.4883 1094,74.4883 1094,74.4883 C1094,74.4883 1112,74.4883 1112,64.4883 " fill="none" style="stroke: #000000; stroke-width: 1.5;"/><text fill="#000000" font-family="sans-serif" font-size="14" lengthAdjust="spacingAndGlyphs" textLength="168" x="1007" y="882.3809">Central Ledger Database</text><path d="M1076,895.334 C1076,885.334 1094,885.334 1094,885.334 C1094,885.334 1112,885.334 1112,895.334 L1112,921.334 C1112,931.334 1094,931.334 1094,931.334 C1094,931.334 1076,931.334 1076,921.334 L1076,895.334 " fill="#FEFECE" filter="url(#f13jw10cpditu0)" style="stroke: #000000; stroke-width: 1.5;"/><path d="M1076,895.334 C1076,905.334 1094,905.334 1094,905.334 C1094,905.334 1112,905.334 1112,895.334 " fill="none" style="stroke: #000000; stroke-width: 1.5;"/><rect fill="#FFFFFF" filter="url(#f13jw10cpditu0)" height="717.5586" style="stroke: #A80036; stroke-width: 1.0;" width="10" x="33" y="126.9766"/><rect fill="#FFFFFF" filter="url(#f13jw10cpditu0)" height="657.248" style="stroke: #A80036; stroke-width: 1.0;" width="10" x="320" y="187.2871"/><rect fill="#FFFFFF" filter="url(#f13jw10cpditu0)" height="268.416" style="stroke: #A80036; stroke-width: 1.0;" width="10" x="563" y="546.8086"/><rect fill="#FFFFFF" filter="url(#f13jw10cpditu0)" height="137.1738" style="stroke: #A80036; stroke-width: 1.0;" width="10" x="826" y="648.7402"/><rect fill="#FFFFFF" filter="url(#f13jw10cpditu0)" height="62.9316" style="stroke: #A80036; stroke-width: 1.0;" width="10" x="1089" y="693.6719"/><path d="M13,133.9766 L179,133.9766 L179,140.9766 L169,150.9766 L13,150.9766 L13,133.9766 " fill="#EEEEEE" style="stroke: #000000; stroke-width: 1.0;"/><rect fill="none" height="718.8691" style="stroke: #000000; stroke-width: 2.0;" width="1178" x="13" y="133.9766"/><text fill="#000000" font-family="sans-serif" font-size="13" font-weight="bold" lengthAdjust="spacingAndGlyphs" textLength="121" x="28" y="147.5449">Put Party's Details</text><polygon fill="#A80036" points="308,183.2871,318,187.2871,308,191.2871,312,187.2871" style="stroke: #A80036; stroke-width: 1.0;"/><line style="stroke: #A80036; stroke-width: 1.0;" x1="43" x2="314" y1="187.2871" y2="187.2871"/><text fill="#000000" font-family="sans-serif" font-size="13" font-weight="bold" lengthAdjust="spacingAndGlyphs" textLength="9" x="50" y="175.5107">1</text><text fill="#000000" font-family="sans-serif" font-size="13" lengthAdjust="spacingAndGlyphs" textLength="221" x="63" y="167.8555">Callback for the Get Party's request</text><text fill="#000000" font-family="sans-serif" font-size="13" lengthAdjust="spacingAndGlyphs" textLength="164" x="63" y="183.166">PUT - /parties/{Type}/{ID}</text><path d="M48,200.9082 L48,500.9082 L306,500.9082 L306,210.9082 L296,200.9082 L48,200.9082 " fill="#FFFF00" filter="url(#f13jw10cpditu0)" style="stroke: #A80036; stroke-width: 1.0;"/><path d="M296,200.9082 L296,210.9082 L306,210.9082 L296,200.9082 " fill="#FFFF00" style="stroke: #A80036; stroke-width: 1.0;"/><text fill="#000000" font-family="sans-serif" font-size="13" lengthAdjust="spacingAndGlyphs" textLength="58" x="54" y="218.4766">Message:</text><text fill="#000000" font-family="sans-serif" font-size="13" lengthAdjust="spacingAndGlyphs" textLength="44" x="54" y="233.7871">party: {</text><text fill="#000000" font-family="sans-serif" font-size="13" lengthAdjust="spacingAndGlyphs" textLength="81" x="70" y="249.0977">partyIdInfo: {</text><text fill="#000000" font-family="sans-serif" font-size="13" lengthAdjust="spacingAndGlyphs" textLength="192" x="86" y="264.4082">“partyIdType”: “PERSONAL_ID”,</text><text fill="#000000" font-family="sans-serif" font-size="13" lengthAdjust="spacingAndGlyphs" textLength="177" x="86" y="279.7188">“partyIdentifier”: “1551212”,</text><text fill="#000000" font-family="sans-serif" font-size="13" lengthAdjust="spacingAndGlyphs" textLength="191" x="86" y="295.0293">“partySubIdOrType”: “License”,</text><text fill="#000000" font-family="sans-serif" font-size="13" lengthAdjust="spacingAndGlyphs" textLength="92" x="86" y="310.3398">“fspId”: “1234”</text><text fill="#000000" font-family="sans-serif" font-size="13" lengthAdjust="spacingAndGlyphs" textLength="8" x="70" y="325.6504">},</text><text fill="#000000" font-family="sans-serif" font-size="13" lengthAdjust="spacingAndGlyphs" textLength="221" x="70" y="340.9609">merchantClassificationCode: 4321,</text><text fill="#000000" font-family="sans-serif" font-size="13" lengthAdjust="spacingAndGlyphs" textLength="157" x="70" y="356.2715">“name”: “Justin Trudeau”,</text><text fill="#000000" font-family="sans-serif" font-size="13" lengthAdjust="spacingAndGlyphs" textLength="101" x="70" y="371.582">“personalInfo”: {</text><text fill="#000000" font-family="sans-serif" font-size="13" lengthAdjust="spacingAndGlyphs" textLength="112" x="86" y="386.8926">“complexName”: {</text><text fill="#000000" font-family="sans-serif" font-size="13" lengthAdjust="spacingAndGlyphs" textLength="130" x="102" y="402.2031">“firstName”: “Justin”,</text><text fill="#000000" font-family="sans-serif" font-size="13" lengthAdjust="spacingAndGlyphs" textLength="146" x="102" y="417.5137">“middleName”: “Pierre”,</text><text fill="#000000" font-family="sans-serif" font-size="13" lengthAdjust="spacingAndGlyphs" textLength="138" x="102" y="432.8242">“lastName”: “Trudeau”</text><text fill="#000000" font-family="sans-serif" font-size="13" lengthAdjust="spacingAndGlyphs" textLength="8" x="86" y="448.1348">},</text><text fill="#000000" font-family="sans-serif" font-size="13" lengthAdjust="spacingAndGlyphs" textLength="179" x="86" y="463.4453">“dateOfBirth”: “1971-12-25”</text><text fill="#000000" font-family="sans-serif" font-size="13" lengthAdjust="spacingAndGlyphs" textLength="4" x="70" y="478.7559">}</text><text fill="#000000" font-family="sans-serif" font-size="13" lengthAdjust="spacingAndGlyphs" textLength="4" x="54" y="494.0664">}</text><polygon fill="#A80036" points="551,542.8086,561,546.8086,551,550.8086,555,546.8086" style="stroke: #A80036; stroke-width: 1.0;"/><line style="stroke: #A80036; stroke-width: 1.0;" x1="330" x2="557" y1="546.8086" y2="546.8086"/><text fill="#000000" font-family="sans-serif" font-size="13" font-weight="bold" lengthAdjust="spacingAndGlyphs" textLength="9" x="337" y="535.0322">2</text><text fill="#000000" font-family="sans-serif" font-size="13" lengthAdjust="spacingAndGlyphs" textLength="153" x="350" y="527.377">Put Party by ID and Type</text><text fill="#000000" font-family="sans-serif" font-size="13" lengthAdjust="spacingAndGlyphs" textLength="141" x="350" y="542.6875">(PartiesByTypeAndID2)</text><line style="stroke: #A80036; stroke-width: 1.0;" x1="573" x2="615" y1="576.7402" y2="576.7402"/><line style="stroke: #A80036; stroke-width: 1.0;" x1="615" x2="615" y1="576.7402" y2="589.7402"/><line style="stroke: #A80036; stroke-width: 1.0;" x1="574" x2="615" y1="589.7402" y2="589.7402"/><polygon fill="#A80036" points="584,585.7402,574,589.7402,584,593.7402,580,589.7402" style="stroke: #A80036; stroke-width: 1.0;"/><text fill="#000000" font-family="sans-serif" font-size="13" font-weight="bold" lengthAdjust="spacingAndGlyphs" textLength="9" x="580" y="571.998">3</text><text fill="#000000" font-family="sans-serif" font-size="13" lengthAdjust="spacingAndGlyphs" textLength="103" x="593" y="571.998">Validate MSISDN</text><polygon fill="#A80036" points="814,644.7402,824,648.7402,814,652.7402,818,648.7402" style="stroke: #A80036; stroke-width: 1.0;"/><line style="stroke: #A80036; stroke-width: 1.0;" x1="573" x2="820" y1="648.7402" y2="648.7402"/><text fill="#000000" font-family="sans-serif" font-size="13" font-weight="bold" lengthAdjust="spacingAndGlyphs" textLength="9" x="580" y="629.6191">4</text><text fill="#000000" font-family="sans-serif" font-size="13" lengthAdjust="spacingAndGlyphs" textLength="205" x="593" y="614.3086">Fetch Target Participant's details</text><text fill="#000000" font-family="sans-serif" font-size="13" lengthAdjust="spacingAndGlyphs" textLength="180" x="593" y="629.6191">(handleMSISDNPartyRequest)</text><text fill="#FF0000" font-family="sans-serif" font-size="13" font-weight="bold" lengthAdjust="spacingAndGlyphs" textLength="73" x="593" y="644.9297">Error code:</text><text fill="#FF0000" font-family="sans-serif" font-size="13" lengthAdjust="spacingAndGlyphs" textLength="32" x="670" y="644.9297">3200</text><polygon fill="#A80036" points="1077,689.6719,1087,693.6719,1077,697.6719,1081,693.6719" style="stroke: #A80036; stroke-width: 1.0;"/><line style="stroke: #A80036; stroke-width: 1.0;" x1="836" x2="1083" y1="693.6719" y2="693.6719"/><text fill="#000000" font-family="sans-serif" font-size="13" font-weight="bold" lengthAdjust="spacingAndGlyphs" textLength="9" x="843" y="681.8955">5</text><text fill="#000000" font-family="sans-serif" font-size="13" lengthAdjust="spacingAndGlyphs" textLength="209" x="856" y="674.2402">Fetch Target Participant Endpoint</text><text fill="#000000" font-family="sans-serif" font-size="13" lengthAdjust="spacingAndGlyphs" textLength="201" x="856" y="689.5508">(getParticipantEndpointByName)</text><polygon fill="#FFFFE0" filter="url(#f13jw10cpditu0)" points="1030,707.293,1158,707.293,1168,718.293,1158,730.293,1030,730.293,1020,718.293,1030,707.293" style="stroke: #A80036; stroke-width: 1.0;"/><text fill="#000000" font-family="sans-serif" font-size="13" lengthAdjust="spacingAndGlyphs" textLength="124" x="1032" y="723.8613">participantEndpoint</text><polygon fill="#A80036" points="847,752.6035,837,756.6035,847,760.6035,843,756.6035" style="stroke: #A80036; stroke-width: 1.0;"/><line style="stroke: #A80036; stroke-width: 1.0; stroke-dasharray: 2.0,2.0;" x1="841" x2="1093" y1="756.6035" y2="756.6035"/><text fill="#000000" font-family="sans-serif" font-size="13" font-weight="bold" lengthAdjust="spacingAndGlyphs" textLength="9" x="853" y="752.1719">6</text><text fill="#000000" font-family="sans-serif" font-size="13" lengthAdjust="spacingAndGlyphs" textLength="216" x="866" y="752.1719">Return Target Participant Endpoint</text><polygon fill="#A80036" points="584,781.9141,574,785.9141,584,789.9141,580,785.9141" style="stroke: #A80036; stroke-width: 1.0;"/><line style="stroke: #A80036; stroke-width: 1.0; stroke-dasharray: 2.0,2.0;" x1="578" x2="830" y1="785.9141" y2="785.9141"/><text fill="#000000" font-family="sans-serif" font-size="13" font-weight="bold" lengthAdjust="spacingAndGlyphs" textLength="9" x="590" y="781.4824">7</text><text fill="#000000" font-family="sans-serif" font-size="13" lengthAdjust="spacingAndGlyphs" textLength="216" x="603" y="781.4824">Return Target Participant Endpoint</text><polygon fill="#A80036" points="341,811.2246,331,815.2246,341,819.2246,337,815.2246" style="stroke: #A80036; stroke-width: 1.0;"/><line style="stroke: #A80036; stroke-width: 1.0;" x1="335" x2="567" y1="815.2246" y2="815.2246"/><text fill="#000000" font-family="sans-serif" font-size="13" font-weight="bold" lengthAdjust="spacingAndGlyphs" textLength="9" x="347" y="810.793">8</text><text fill="#000000" font-family="sans-serif" font-size="13" lengthAdjust="spacingAndGlyphs" textLength="196" x="360" y="810.793">Return Target Participant Name</text><polygon fill="#A80036" points="49,840.5352,39,844.5352,49,848.5352,45,844.5352" style="stroke: #A80036; stroke-width: 1.0;"/><line style="stroke: #A80036; stroke-width: 1.0; stroke-dasharray: 2.0,2.0;" x1="43" x2="324" y1="844.5352" y2="844.5352"/><text fill="#000000" font-family="sans-serif" font-size="13" font-weight="bold" lengthAdjust="spacingAndGlyphs" textLength="9" x="55" y="840.1035">9</text><text fill="#000000" font-family="sans-serif" font-size="13" lengthAdjust="spacingAndGlyphs" textLength="240" x="68" y="840.1035">Return Result to Target Party Endpoint</text><!--
@startuml
title 7.2.1 Put Parties Details

autonumber

actor "FSP" as FSP
boundary "Account Lookup Service" as ALS
control "Parties Handler" as PARTIES_HANDLER
entity "Account Lookup Service API" as ALS
entity "Participant DAO" as PARTICIPANT_DAO
database "Central Ledger Database" as DB

box "Account Lookup Service" #LightYellow
participant ALS
participant PARTIES_HANDLER
participant PARTICIPANT_DAO
participant DB
end box


activate FSP
group Put Party's Details
    FSP -> ALS: Callback for the Get Party's request   \nPUT - /parties/{Type}/{ID}
    note right of FSP #yellow
        Message:
        party: {
            partyIdInfo: {
                “partyIdType”: “PERSONAL_ID”,
                “partyIdentifier”: “1551212”,
                “partySubIdOrType”: “License”,
                “fspId”: “1234”
            },
            merchantClassificationCode: 4321,
            “name”: “Justin Trudeau”,
            “personalInfo”: {
                “complexName”: {
                    “firstName”: “Justin”,
                    “middleName”: “Pierre”,
                    “lastName”: “Trudeau”
                },
                “dateOfBirth”: “1971-12-25”
            }
        }
    end note
    activate ALS
    ALS -> PARTIES_HANDLER: Put Party by ID and Type \n(PartiesByTypeAndID2)
    activate PARTIES_HANDLER
    PARTIES_HANDLER ->PARTIES_HANDLER: Validate MSISDN
    PARTIES_HANDLER ->PARTICIPANT_DAO: Fetch Target Participant's details \n(handleMSISDNPartyRequest)\n<color #FF0000><b>Error code:</b> 3200</color>
    activate PARTICIPANT_DAO
    PARTICIPANT_DAO -> DB: Fetch Target Participant Endpoint \n(getParticipantEndpointByName)
    activate DB
    hnote over DB #lightyellow
        participantEndpoint
    end note
    DB - -> PARTICIPANT_DAO: Return Target Participant Endpoint
    deactivate DB
    PARTICIPANT_DAO - -> PARTIES_HANDLER: Return Target Participant Endpoint
    deactivate PARTICIPANT_DAO
    PARTIES_HANDLER -> ALS: Return Target Participant Name
    deactivate PARTIES_HANDLER
    ALS - ->FSP: Return Result to Target Party Endpoint
    deactivate ALS
    deactivate FSP
end
@enduml

PlantUML version 1.2018.01(Sun Jan 28 20:08:22 SAST 2018)
(GPL source distribution)
Java Runtime: OpenJDK Runtime Environment
JVM: OpenJDK 64-Bit Server VM
Java Version: 1.8.0_152-release-1136-b20
Operating System: Mac OS X
OS Version: 10.14.3
Default Encoding: UTF-8
Language: en
Country: ZA
--></g></svg>