<?xml version="1.0" encoding="UTF-8" standalone="no"?><svg xmlns="http://www.w3.org/2000/svg" xmlns:xlink="http://www.w3.org/1999/xlink" contentScriptType="application/ecmascript" contentStyleType="text/css" height="1147px" preserveAspectRatio="none" style="width:1647px;height:1147px;" version="1.1" viewBox="0 0 1647 1147" width="1647px" zoomAndPan="magnify"><defs><filter height="300%" id="fvmrt704z4ck4" width="300%" x="-1" y="-1"><feGaussianBlur result="blurOut" stdDeviation="2.0"/><feColorMatrix in="blurOut" result="blurOut2" type="matrix" values="0 0 0 0 0 0 0 0 0 0 0 0 0 0 0 0 0 0 .4 0"/><feOffset dx="4.0" dy="4.0" in="blurOut2" result="blurOut3"/><feBlend in="SourceGraphic" in2="blurOut3" mode="normal"/></filter></defs><g><text fill="#000000" font-family="sans-serif" font-size="14" font-weight="bold" lengthAdjust="spacingAndGlyphs" textLength="173" x="738" y="23.5352">7.2.0 Get Parties Details</text><rect fill="#FFFFE0" height="1101.8457" style="stroke: #A80036; stroke-width: 1.0;" width="896.5" x="245.5" y="34.4883"/><text fill="#000000" font-family="sans-serif" font-size="13" font-weight="bold" lengthAdjust="spacingAndGlyphs" textLength="161" x="613.25" y="47.0566">Account Lookup Service</text><rect fill="#ADD8E6" height="1101.8457" style="stroke: #A80036; stroke-width: 1.0;" width="137" x="1144" y="34.4883"/><text fill="#000000" font-family="sans-serif" font-size="13" font-weight="bold" lengthAdjust="spacingAndGlyphs" textLength="124" x="1150.5" y="47.0566">Pathfinder Library</text><rect fill="#FFFFFF" filter="url(#fvmrt704z4ck4)" height="897.5586" style="stroke: #A80036; stroke-width: 1.0;" width="10" x="33" y="126.9766"/><rect fill="#FFFFFF" filter="url(#fvmrt704z4ck4)" height="837.248" style="stroke: #A80036; stroke-width: 1.0;" width="10" x="329" y="187.2871"/><rect fill="#FFFFFF" filter="url(#fvmrt704z4ck4)" height="763.3164" style="stroke: #A80036; stroke-width: 1.0;" width="10" x="545" y="231.9082"/><rect fill="#FFFFFF" filter="url(#fvmrt704z4ck4)" height="137.1738" style="stroke: #A80036; stroke-width: 1.0;" width="10" x="781" y="333.8398"/><rect fill="#FFFFFF" filter="url(#fvmrt704z4ck4)" height="136.8633" style="stroke: #A80036; stroke-width: 1.0;" width="10" x="781" y="632.5664"/><rect fill="#FFFFFF" filter="url(#fvmrt704z4ck4)" height="137.1738" style="stroke: #A80036; stroke-width: 1.0;" width="10" x="781" y="828.7402"/><rect fill="#FFFFFF" filter="url(#fvmrt704z4ck4)" height="62.9316" style="stroke: #A80036; stroke-width: 1.0;" width="10" x="1046" y="378.7715"/><rect fill="#FFFFFF" filter="url(#fvmrt704z4ck4)" height="62.9316" style="stroke: #A80036; stroke-width: 1.0;" width="10" x="1046" y="677.1875"/><rect fill="#FFFFFF" filter="url(#fvmrt704z4ck4)" height="62.9316" style="stroke: #A80036; stroke-width: 1.0;" width="10" x="1046" y="873.6719"/><rect fill="#FFFFFF" filter="url(#fvmrt704z4ck4)" height="87.9316" style="stroke: #A80036; stroke-width: 1.0;" width="10" x="1207.5" y="500.3242"/><rect fill="#FFFFFF" filter="url(#fvmrt704z4ck4)" height="29.3105" style="stroke: #A80036; stroke-width: 1.0;" width="10" x="1560.5" y="529.6348"/><rect fill="#FFFFFF" filter="url(#fvmrt704z4ck4)" height="898.8691" style="stroke: #000000; stroke-width: 2.0;" width="1623" x="13" y="133.9766"/><line style="stroke: #A80036; stroke-width: 1.0; stroke-dasharray: 5.0,5.0;" x1="38" x2="38" y1="116.9766" y2="1049.8457"/><line style="stroke: #A80036; stroke-width: 1.0; stroke-dasharray: 5.0,5.0;" x1="333.5" x2="333.5" y1="116.9766" y2="1049.8457"/><line style="stroke: #A80036; stroke-width: 1.0; stroke-dasharray: 5.0,5.0;" x1="550" x2="550" y1="116.9766" y2="1049.8457"/><line style="stroke: #A80036; stroke-width: 1.0; stroke-dasharray: 5.0,5.0;" x1="786" x2="786" y1="116.9766" y2="1049.8457"/><line style="stroke: #A80036; stroke-width: 1.0; stroke-dasharray: 5.0,5.0;" x1="1051" x2="1051" y1="116.9766" y2="1049.8457"/><line style="stroke: #A80036; stroke-width: 1.0; stroke-dasharray: 5.0,5.0;" x1="1212" x2="1212" y1="116.9766" y2="1049.8457"/><line style="stroke: #A80036; stroke-width: 1.0; stroke-dasharray: 5.0,5.0;" x1="1565" x2="1565" y1="116.9766" y2="1049.8457"/><text fill="#000000" font-family="sans-serif" font-size="14" lengthAdjust="spacingAndGlyphs" textLength="24" x="23" y="114.0234">FSP</text><ellipse cx="38" cy="43.4883" fill="#FEFECE" filter="url(#fvmrt704z4ck4)" rx="8" ry="8" style="stroke: #A80036; stroke-width: 2.0;"/><path d="M38,51.4883 L38,78.4883 M25,59.4883 L51,59.4883 M38,78.4883 L25,93.4883 M38,78.4883 L51,93.4883 " fill="none" filter="url(#fvmrt704z4ck4)" style="stroke: #A80036; stroke-width: 2.0;"/><text fill="#000000" font-family="sans-serif" font-size="14" lengthAdjust="spacingAndGlyphs" textLength="24" x="23" y="1062.3809">FSP</text><ellipse cx="38" cy="1075.334" fill="#FEFECE" filter="url(#fvmrt704z4ck4)" rx="8" ry="8" style="stroke: #A80036; stroke-width: 2.0;"/><path d="M38,1083.334 L38,1110.334 M25,1091.334 L51,1091.334 M38,1110.334 L25,1125.334 M38,1110.334 L51,1125.334 " fill="none" filter="url(#fvmrt704z4ck4)" style="stroke: #A80036; stroke-width: 2.0;"/><text fill="#000000" font-family="sans-serif" font-size="14" lengthAdjust="spacingAndGlyphs" textLength="163" x="249.5" y="114.0234">Account Lookup Service</text><path d="M313.5,72.4883 L313.5,96.4883 M313.5,84.4883 L330.5,84.4883 " fill="none" filter="url(#fvmrt704z4ck4)" style="stroke: #A80036; stroke-width: 2.0;"/><ellipse cx="342.5" cy="84.4883" fill="#FEFECE" filter="url(#fvmrt704z4ck4)" rx="12" ry="12" style="stroke: #A80036; stroke-width: 2.0;"/><text fill="#000000" font-family="sans-serif" font-size="14" lengthAdjust="spacingAndGlyphs" textLength="163" x="249.5" y="1062.3809">Account Lookup Service</text><path d="M313.5,1069.334 L313.5,1093.334 M313.5,1081.334 L330.5,1081.334 " fill="none" filter="url(#fvmrt704z4ck4)" style="stroke: #A80036; stroke-width: 2.0;"/><ellipse cx="342.5" cy="1081.334" fill="#FEFECE" filter="url(#fvmrt704z4ck4)" rx="12" ry="12" style="stroke: #A80036; stroke-width: 2.0;"/><text fill="#000000" font-family="sans-serif" font-size="14" lengthAdjust="spacingAndGlyphs" textLength="104" x="495" y="114.0234">Parties Handler</text><ellipse cx="550" cy="84.4883" fill="#FEFECE" filter="url(#fvmrt704z4ck4)" rx="12" ry="12" style="stroke: #A80036; stroke-width: 2.0;"/><polygon fill="#A80036" points="546,72.4883,552,67.4883,550,72.4883,552,77.4883,546,72.4883" style="stroke: #A80036; stroke-width: 1.0;"/><text fill="#000000" font-family="sans-serif" font-size="14" lengthAdjust="spacingAndGlyphs" textLength="104" x="495" y="1062.3809">Parties Handler</text><ellipse cx="550" cy="1081.334" fill="#FEFECE" filter="url(#fvmrt704z4ck4)" rx="12" ry="12" style="stroke: #A80036; stroke-width: 2.0;"/><polygon fill="#A80036" points="546,1069.334,552,1064.334,550,1069.334,552,1074.334,546,1069.334" style="stroke: #A80036; stroke-width: 1.0;"/><text fill="#000000" font-family="sans-serif" font-size="14" lengthAdjust="spacingAndGlyphs" textLength="108" x="729" y="114.0234">Participant DAO</text><ellipse cx="786" cy="84.4883" fill="#FEFECE" filter="url(#fvmrt704z4ck4)" rx="12" ry="12" style="stroke: #A80036; stroke-width: 2.0;"/><line style="stroke: #A80036; stroke-width: 2.0;" x1="774" x2="798" y1="98.4883" y2="98.4883"/><text fill="#000000" font-family="sans-serif" font-size="14" lengthAdjust="spacingAndGlyphs" textLength="108" x="729" y="1062.3809">Participant DAO</text><ellipse cx="786" cy="1081.334" fill="#FEFECE" filter="url(#fvmrt704z4ck4)" rx="12" ry="12" style="stroke: #A80036; stroke-width: 2.0;"/><line style="stroke: #A80036; stroke-width: 2.0;" x1="774" x2="798" y1="1095.334" y2="1095.334"/><text fill="#000000" font-family="sans-serif" font-size="14" lengthAdjust="spacingAndGlyphs" textLength="168" x="964" y="114.0234">Central Ledger Database</text><path d="M1033,64.4883 C1033,54.4883 1051,54.4883 1051,54.4883 C1051,54.4883 1069,54.4883 1069,64.4883 L1069,90.4883 C1069,100.4883 1051,100.4883 1051,100.4883 C1051,100.4883 1033,100.4883 1033,90.4883 L1033,64.4883 " fill="#FEFECE" filter="url(#fvmrt704z4ck4)" style="stroke: #000000; stroke-width: 1.5;"/><path d="M1033,64.4883 C1033,74.4883 1051,74.4883 1051,74.4883 C1051,74.4883 1069,74.4883 1069,64.4883 " fill="none" style="stroke: #000000; stroke-width: 1.5;"/><text fill="#000000" font-family="sans-serif" font-size="14" lengthAdjust="spacingAndGlyphs" textLength="168" x="964" y="1062.3809">Central Ledger Database</text><path d="M1033,1075.334 C1033,1065.334 1051,1065.334 1051,1065.334 C1051,1065.334 1069,1065.334 1069,1075.334 L1069,1101.334 C1069,1111.334 1051,1111.334 1051,1111.334 C1051,1111.334 1033,1111.334 1033,1101.334 L1033,1075.334 " fill="#FEFECE" filter="url(#fvmrt704z4ck4)" style="stroke: #000000; stroke-width: 1.5;"/><path d="M1033,1075.334 C1033,1085.334 1051,1085.334 1051,1085.334 C1051,1085.334 1069,1085.334 1069,1075.334 " fill="none" style="stroke: #000000; stroke-width: 1.5;"/><text fill="#000000" font-family="sans-serif" font-size="14" lengthAdjust="spacingAndGlyphs" textLength="123" x="1148" y="114.0234">Pathfinder Service</text><ellipse cx="1212.5" cy="84.4883" fill="#FEFECE" filter="url(#fvmrt704z4ck4)" rx="12" ry="12" style="stroke: #A80036; stroke-width: 2.0;"/><line style="stroke: #A80036; stroke-width: 2.0;" x1="1200.5" x2="1224.5" y1="98.4883" y2="98.4883"/><text fill="#000000" font-family="sans-serif" font-size="14" lengthAdjust="spacingAndGlyphs" textLength="123" x="1148" y="1062.3809">Pathfinder Service</text><ellipse cx="1212.5" cy="1081.334" fill="#FEFECE" filter="url(#fvmrt704z4ck4)" rx="12" ry="12" style="stroke: #A80036; stroke-width: 2.0;"/><line style="stroke: #A80036; stroke-width: 2.0;" x1="1200.5" x2="1224.5" y1="1095.334" y2="1095.334"/><text fill="#000000" font-family="sans-serif" font-size="14" lengthAdjust="spacingAndGlyphs" textLength="115" x="1505" y="114.0234">GSMA Pathfinder</text><ellipse cx="1565.5" cy="43.4883" fill="#FEFECE" filter="url(#fvmrt704z4ck4)" rx="8" ry="8" style="stroke: #A80036; stroke-width: 2.0;"/><path d="M1565.5,51.4883 L1565.5,78.4883 M1552.5,59.4883 L1578.5,59.4883 M1565.5,78.4883 L1552.5,93.4883 M1565.5,78.4883 L1578.5,93.4883 " fill="none" filter="url(#fvmrt704z4ck4)" style="stroke: #A80036; stroke-width: 2.0;"/><text fill="#000000" font-family="sans-serif" font-size="14" lengthAdjust="spacingAndGlyphs" textLength="115" x="1505" y="1062.3809">GSMA Pathfinder</text><ellipse cx="1565.5" cy="1075.334" fill="#FEFECE" filter="url(#fvmrt704z4ck4)" rx="8" ry="8" style="stroke: #A80036; stroke-width: 2.0;"/><path d="M1565.5,1083.334 L1565.5,1110.334 M1552.5,1091.334 L1578.5,1091.334 M1565.5,1110.334 L1552.5,1125.334 M1565.5,1110.334 L1578.5,1125.334 " fill="none" filter="url(#fvmrt704z4ck4)" style="stroke: #A80036; stroke-width: 2.0;"/><rect fill="#FFFFFF" filter="url(#fvmrt704z4ck4)" height="897.5586" style="stroke: #A80036; stroke-width: 1.0;" width="10" x="33" y="126.9766"/><rect fill="#FFFFFF" filter="url(#fvmrt704z4ck4)" height="837.248" style="stroke: #A80036; stroke-width: 1.0;" width="10" x="329" y="187.2871"/><rect fill="#FFFFFF" filter="url(#fvmrt704z4ck4)" height="763.3164" style="stroke: #A80036; stroke-width: 1.0;" width="10" x="545" y="231.9082"/><rect fill="#FFFFFF" filter="url(#fvmrt704z4ck4)" height="137.1738" style="stroke: #A80036; stroke-width: 1.0;" width="10" x="781" y="333.8398"/><rect fill="#FFFFFF" filter="url(#fvmrt704z4ck4)" height="136.8633" style="stroke: #A80036; stroke-width: 1.0;" width="10" x="781" y="632.5664"/><rect fill="#FFFFFF" filter="url(#fvmrt704z4ck4)" height="137.1738" style="stroke: #A80036; stroke-width: 1.0;" width="10" x="781" y="828.7402"/><rect fill="#FFFFFF" filter="url(#fvmrt704z4ck4)" height="62.9316" style="stroke: #A80036; stroke-width: 1.0;" width="10" x="1046" y="378.7715"/><rect fill="#FFFFFF" filter="url(#fvmrt704z4ck4)" height="62.9316" style="stroke: #A80036; stroke-width: 1.0;" width="10" x="1046" y="677.1875"/><rect fill="#FFFFFF" filter="url(#fvmrt704z4ck4)" height="62.9316" style="stroke: #A80036; stroke-width: 1.0;" width="10" x="1046" y="873.6719"/><rect fill="#FFFFFF" filter="url(#fvmrt704z4ck4)" height="87.9316" style="stroke: #A80036; stroke-width: 1.0;" width="10" x="1207.5" y="500.3242"/><rect fill="#FFFFFF" filter="url(#fvmrt704z4ck4)" height="29.3105" style="stroke: #A80036; stroke-width: 1.0;" width="10" x="1560.5" y="529.6348"/><path d="M13,133.9766 L180,133.9766 L180,140.9766 L170,150.9766 L13,150.9766 L13,133.9766 " fill="#EEEEEE" style="stroke: #000000; stroke-width: 1.0;"/><rect fill="none" height="898.8691" style="stroke: #000000; stroke-width: 2.0;" width="1623" x="13" y="133.9766"/><text fill="#000000" font-family="sans-serif" font-size="13" font-weight="bold" lengthAdjust="spacingAndGlyphs" textLength="122" x="28" y="147.5449">Get Party's Details</text><polygon fill="#A80036" points="317,183.2871,327,187.2871,317,191.2871,321,187.2871" style="stroke: #A80036; stroke-width: 1.0;"/><line style="stroke: #A80036; stroke-width: 1.0;" x1="43" x2="323" y1="187.2871" y2="187.2871"/><text fill="#000000" font-family="sans-serif" font-size="13" font-weight="bold" lengthAdjust="spacingAndGlyphs" textLength="9" x="50" y="175.5107">1</text><text fill="#000000" font-family="sans-serif" font-size="13" lengthAdjust="spacingAndGlyphs" textLength="183" x="63" y="167.8555">Request to get party's details</text><text fill="#000000" font-family="sans-serif" font-size="13" lengthAdjust="spacingAndGlyphs" textLength="164" x="63" y="183.166">GET - /parties/{Type}/{ID}</text><polygon fill="#A80036" points="533,227.9082,543,231.9082,533,235.9082,537,231.9082" style="stroke: #A80036; stroke-width: 1.0;"/><line style="stroke: #A80036; stroke-width: 1.0;" x1="339" x2="539" y1="231.9082" y2="231.9082"/><text fill="#000000" font-family="sans-serif" font-size="13" font-weight="bold" lengthAdjust="spacingAndGlyphs" textLength="9" x="346" y="220.1318">2</text><text fill="#000000" font-family="sans-serif" font-size="13" lengthAdjust="spacingAndGlyphs" textLength="154" x="359" y="212.4766">Get Party by ID and Type</text><text fill="#000000" font-family="sans-serif" font-size="13" lengthAdjust="spacingAndGlyphs" textLength="133" x="359" y="227.7871">(PartiesByTypeAndID)</text><line style="stroke: #A80036; stroke-width: 1.0;" x1="555" x2="597" y1="261.8398" y2="261.8398"/><line style="stroke: #A80036; stroke-width: 1.0;" x1="597" x2="597" y1="261.8398" y2="274.8398"/><line style="stroke: #A80036; stroke-width: 1.0;" x1="556" x2="597" y1="274.8398" y2="274.8398"/><polygon fill="#A80036" points="566,270.8398,556,274.8398,566,278.8398,562,274.8398" style="stroke: #A80036; stroke-width: 1.0;"/><text fill="#000000" font-family="sans-serif" font-size="13" font-weight="bold" lengthAdjust="spacingAndGlyphs" textLength="9" x="562" y="257.0977">3</text><text fill="#000000" font-family="sans-serif" font-size="13" lengthAdjust="spacingAndGlyphs" textLength="103" x="575" y="257.0977">Validate MSISDN</text><polygon fill="#A80036" points="769,329.8398,779,333.8398,769,337.8398,773,333.8398" style="stroke: #A80036; stroke-width: 1.0;"/><line style="stroke: #A80036; stroke-width: 1.0;" x1="555" x2="775" y1="333.8398" y2="333.8398"/><text fill="#000000" font-family="sans-serif" font-size="13" font-weight="bold" lengthAdjust="spacingAndGlyphs" textLength="9" x="562" y="314.7188">4</text><text fill="#000000" font-family="sans-serif" font-size="13" lengthAdjust="spacingAndGlyphs" textLength="171" x="575" y="299.4082">Fetch Source Party's details</text><text fill="#000000" font-family="sans-serif" font-size="13" lengthAdjust="spacingAndGlyphs" textLength="180" x="575" y="314.7188">(handleMSISDNPartyRequest)</text><text fill="#FF0000" font-family="sans-serif" font-size="13" font-weight="bold" lengthAdjust="spacingAndGlyphs" textLength="73" x="575" y="330.0293">Error code:</text><text fill="#FF0000" font-family="sans-serif" font-size="13" lengthAdjust="spacingAndGlyphs" textLength="32" x="652" y="330.0293">3200</text><polygon fill="#A80036" points="1034,374.7715,1044,378.7715,1034,382.7715,1038,378.7715" style="stroke: #A80036; stroke-width: 1.0;"/><line style="stroke: #A80036; stroke-width: 1.0;" x1="791" x2="1040" y1="378.7715" y2="378.7715"/><text fill="#000000" font-family="sans-serif" font-size="13" font-weight="bold" lengthAdjust="spacingAndGlyphs" textLength="9" x="798" y="366.9951">5</text><text fill="#000000" font-family="sans-serif" font-size="13" lengthAdjust="spacingAndGlyphs" textLength="209" x="811" y="359.3398">Fetch Source Party Error Endpoint</text><text fill="#000000" font-family="sans-serif" font-size="13" lengthAdjust="spacingAndGlyphs" textLength="201" x="811" y="374.6504">(getParticipantEndpointByName)</text><polygon fill="#FFFFE0" filter="url(#fvmrt704z4ck4)" points="987,392.3926,1115,392.3926,1125,403.3926,1115,415.3926,987,415.3926,977,403.3926,987,392.3926" style="stroke: #A80036; stroke-width: 1.0;"/><text fill="#000000" font-family="sans-serif" font-size="13" lengthAdjust="spacingAndGlyphs" textLength="124" x="989" y="408.9609">participantEndpoint</text><polygon fill="#A80036" points="802,437.7031,792,441.7031,802,445.7031,798,441.7031" style="stroke: #A80036; stroke-width: 1.0;"/><line style="stroke: #A80036; stroke-width: 1.0; stroke-dasharray: 2.0,2.0;" x1="796" x2="1050" y1="441.7031" y2="441.7031"/><text fill="#000000" font-family="sans-serif" font-size="13" font-weight="bold" lengthAdjust="spacingAndGlyphs" textLength="9" x="808" y="437.2715">6</text><text fill="#000000" font-family="sans-serif" font-size="13" lengthAdjust="spacingAndGlyphs" textLength="170" x="821" y="437.2715">Return Party Error Endpoint</text><polygon fill="#A80036" points="566,467.0137,556,471.0137,566,475.0137,562,471.0137" style="stroke: #A80036; stroke-width: 1.0;"/><line style="stroke: #A80036; stroke-width: 1.0; stroke-dasharray: 2.0,2.0;" x1="560" x2="785" y1="471.0137" y2="471.0137"/><text fill="#000000" font-family="sans-serif" font-size="13" font-weight="bold" lengthAdjust="spacingAndGlyphs" textLength="9" x="572" y="466.582">7</text><text fill="#000000" font-family="sans-serif" font-size="13" lengthAdjust="spacingAndGlyphs" textLength="170" x="585" y="466.582">Return Party Error Endpoint</text><polygon fill="#A80036" points="1195.5,496.3242,1205.5,500.3242,1195.5,504.3242,1199.5,500.3242" style="stroke: #A80036; stroke-width: 1.0;"/><line style="stroke: #A80036; stroke-width: 1.0;" x1="555" x2="1201.5" y1="500.3242" y2="500.3242"/><text fill="#000000" font-family="sans-serif" font-size="13" font-weight="bold" lengthAdjust="spacingAndGlyphs" textLength="9" x="562" y="495.8926">8</text><text fill="#000000" font-family="sans-serif" font-size="13" lengthAdjust="spacingAndGlyphs" textLength="90" x="575" y="495.8926">Query Party ID</text><polygon fill="#A80036" points="1548.5,525.6348,1558.5,529.6348,1548.5,533.6348,1552.5,529.6348" style="stroke: #A80036; stroke-width: 1.0;"/><line style="stroke: #A80036; stroke-width: 1.0;" x1="1217.5" x2="1554.5" y1="529.6348" y2="529.6348"/><text fill="#000000" font-family="sans-serif" font-size="13" font-weight="bold" lengthAdjust="spacingAndGlyphs" textLength="9" x="1224.5" y="525.2031">9</text><text fill="#000000" font-family="sans-serif" font-size="13" lengthAdjust="spacingAndGlyphs" textLength="72" x="1237.5" y="525.2031">Query Party</text><polygon fill="#A80036" points="1228.5,554.9453,1218.5,558.9453,1228.5,562.9453,1224.5,558.9453" style="stroke: #A80036; stroke-width: 1.0;"/><line style="stroke: #A80036; stroke-width: 1.0;" x1="1222.5" x2="1564.5" y1="558.9453" y2="558.9453"/><text fill="#000000" font-family="sans-serif" font-size="13" font-weight="bold" lengthAdjust="spacingAndGlyphs" textLength="18" x="1234.5" y="554.5137">10</text><text fill="#000000" font-family="sans-serif" font-size="13" lengthAdjust="spacingAndGlyphs" textLength="297" x="1256.5" y="554.5137">Return Mobile Country Code and Network Code</text><polygon fill="#A80036" points="566,584.2559,556,588.2559,566,592.2559,562,588.2559" style="stroke: #A80036; stroke-width: 1.0;"/><line style="stroke: #A80036; stroke-width: 1.0;" x1="560" x2="1211.5" y1="588.2559" y2="588.2559"/><text fill="#000000" font-family="sans-serif" font-size="13" font-weight="bold" lengthAdjust="spacingAndGlyphs" textLength="18" x="572" y="583.8242">11</text><text fill="#000000" font-family="sans-serif" font-size="13" lengthAdjust="spacingAndGlyphs" textLength="121" x="594" y="583.8242">Return MCC &amp; MNC</text><polygon fill="#A80036" points="769,628.5664,779,632.5664,769,636.5664,773,632.5664" style="stroke: #A80036; stroke-width: 1.0;"/><line style="stroke: #A80036; stroke-width: 1.0;" x1="555" x2="775" y1="632.5664" y2="632.5664"/><text fill="#000000" font-family="sans-serif" font-size="13" font-weight="bold" lengthAdjust="spacingAndGlyphs" textLength="18" x="562" y="620.79">12</text><text fill="#000000" font-family="sans-serif" font-size="13" lengthAdjust="spacingAndGlyphs" textLength="109" x="584" y="613.1348">Fetch Party Name</text><text fill="#FF0000" font-family="sans-serif" font-size="13" font-weight="bold" lengthAdjust="spacingAndGlyphs" textLength="73" x="584" y="628.4453">Error code:</text><text fill="#FF0000" font-family="sans-serif" font-size="13" lengthAdjust="spacingAndGlyphs" textLength="32" x="661" y="628.4453">3200</text><polygon fill="#A80036" points="1034,673.1875,1044,677.1875,1034,681.1875,1038,677.1875" style="stroke: #A80036; stroke-width: 1.0;"/><line style="stroke: #A80036; stroke-width: 1.0;" x1="791" x2="1040" y1="677.1875" y2="677.1875"/><text fill="#000000" font-family="sans-serif" font-size="13" font-weight="bold" lengthAdjust="spacingAndGlyphs" textLength="18" x="798" y="665.4111">13</text><text fill="#000000" font-family="sans-serif" font-size="13" lengthAdjust="spacingAndGlyphs" textLength="109" x="820" y="657.7559">Fetch Party Name</text><text fill="#000000" font-family="sans-serif" font-size="13" lengthAdjust="spacingAndGlyphs" textLength="214" x="820" y="673.0664">(getParticipantNameFromMccMnc)</text><polygon fill="#FFFFE0" filter="url(#fvmrt704z4ck4)" points="1001,690.8086,1100,690.8086,1110,701.8086,1100,713.8086,1001,713.8086,991,701.8086,1001,690.8086" style="stroke: #A80036; stroke-width: 1.0;"/><text fill="#000000" font-family="sans-serif" font-size="13" lengthAdjust="spacingAndGlyphs" textLength="95" x="1003" y="707.377">participantMno</text><polygon fill="#A80036" points="802,736.1191,792,740.1191,802,744.1191,798,740.1191" style="stroke: #A80036; stroke-width: 1.0;"/><line style="stroke: #A80036; stroke-width: 1.0; stroke-dasharray: 2.0,2.0;" x1="796" x2="1050" y1="740.1191" y2="740.1191"/><text fill="#000000" font-family="sans-serif" font-size="13" font-weight="bold" lengthAdjust="spacingAndGlyphs" textLength="18" x="808" y="735.6875">14</text><text fill="#000000" font-family="sans-serif" font-size="13" lengthAdjust="spacingAndGlyphs" textLength="116" x="830" y="735.6875">Return Party Name</text><polygon fill="#A80036" points="566,765.4297,556,769.4297,566,773.4297,562,769.4297" style="stroke: #A80036; stroke-width: 1.0;"/><line style="stroke: #A80036; stroke-width: 1.0; stroke-dasharray: 2.0,2.0;" x1="560" x2="785" y1="769.4297" y2="769.4297"/><text fill="#000000" font-family="sans-serif" font-size="13" font-weight="bold" lengthAdjust="spacingAndGlyphs" textLength="18" x="572" y="764.998">15</text><text fill="#000000" font-family="sans-serif" font-size="13" lengthAdjust="spacingAndGlyphs" textLength="116" x="594" y="764.998">Return Party Name</text><polygon fill="#A80036" points="769,824.7402,779,828.7402,769,832.7402,773,828.7402" style="stroke: #A80036; stroke-width: 1.0;"/><line style="stroke: #A80036; stroke-width: 1.0;" x1="555" x2="775" y1="828.7402" y2="828.7402"/><text fill="#000000" font-family="sans-serif" font-size="13" font-weight="bold" lengthAdjust="spacingAndGlyphs" textLength="18" x="562" y="809.6191">16</text><text fill="#000000" font-family="sans-serif" font-size="13" lengthAdjust="spacingAndGlyphs" textLength="169" x="584" y="794.3086">Fetch Target Party's details</text><text fill="#000000" font-family="sans-serif" font-size="13" lengthAdjust="spacingAndGlyphs" textLength="180" x="584" y="809.6191">(handleMSISDNPartyRequest)</text><text fill="#FF0000" font-family="sans-serif" font-size="13" font-weight="bold" lengthAdjust="spacingAndGlyphs" textLength="73" x="584" y="824.9297">Error code:</text><text fill="#FF0000" font-family="sans-serif" font-size="13" lengthAdjust="spacingAndGlyphs" textLength="32" x="661" y="824.9297">3200</text><polygon fill="#A80036" points="1034,869.6719,1044,873.6719,1034,877.6719,1038,873.6719" style="stroke: #A80036; stroke-width: 1.0;"/><line style="stroke: #A80036; stroke-width: 1.0;" x1="791" x2="1040" y1="873.6719" y2="873.6719"/><text fill="#000000" font-family="sans-serif" font-size="13" font-weight="bold" lengthAdjust="spacingAndGlyphs" textLength="18" x="798" y="861.8955">17</text><text fill="#000000" font-family="sans-serif" font-size="13" lengthAdjust="spacingAndGlyphs" textLength="173" x="820" y="854.2402">Fetch Target Party Endpoint</text><text fill="#000000" font-family="sans-serif" font-size="13" lengthAdjust="spacingAndGlyphs" textLength="201" x="820" y="869.5508">(getParticipantEndpointByName)</text><polygon fill="#FFFFE0" filter="url(#fvmrt704z4ck4)" points="987,887.293,1115,887.293,1125,898.293,1115,910.293,987,910.293,977,898.293,987,887.293" style="stroke: #A80036; stroke-width: 1.0;"/><text fill="#000000" font-family="sans-serif" font-size="13" lengthAdjust="spacingAndGlyphs" textLength="124" x="989" y="903.8613">participantEndpoint</text><polygon fill="#A80036" points="802,932.6035,792,936.6035,802,940.6035,798,936.6035" style="stroke: #A80036; stroke-width: 1.0;"/><line style="stroke: #A80036; stroke-width: 1.0; stroke-dasharray: 2.0,2.0;" x1="796" x2="1050" y1="936.6035" y2="936.6035"/><text fill="#000000" font-family="sans-serif" font-size="13" font-weight="bold" lengthAdjust="spacingAndGlyphs" textLength="18" x="808" y="932.1719">18</text><text fill="#000000" font-family="sans-serif" font-size="13" lengthAdjust="spacingAndGlyphs" textLength="180" x="830" y="932.1719">Return Target Party Endpoint</text><polygon fill="#A80036" points="566,961.9141,556,965.9141,566,969.9141,562,965.9141" style="stroke: #A80036; stroke-width: 1.0;"/><line style="stroke: #A80036; stroke-width: 1.0; stroke-dasharray: 2.0,2.0;" x1="560" x2="785" y1="965.9141" y2="965.9141"/><text fill="#000000" font-family="sans-serif" font-size="13" font-weight="bold" lengthAdjust="spacingAndGlyphs" textLength="18" x="572" y="961.4824">19</text><text fill="#000000" font-family="sans-serif" font-size="13" lengthAdjust="spacingAndGlyphs" textLength="180" x="594" y="961.4824">Return Target Party Endpoint</text><polygon fill="#A80036" points="350,991.2246,340,995.2246,350,999.2246,346,995.2246" style="stroke: #A80036; stroke-width: 1.0;"/><line style="stroke: #A80036; stroke-width: 1.0;" x1="344" x2="549" y1="995.2246" y2="995.2246"/><text fill="#000000" font-family="sans-serif" font-size="13" font-weight="bold" lengthAdjust="spacingAndGlyphs" textLength="18" x="356" y="990.793">20</text><text fill="#000000" font-family="sans-serif" font-size="13" lengthAdjust="spacingAndGlyphs" textLength="160" x="378" y="990.793">Return Target Party Name</text><polygon fill="#A80036" points="49,1020.5352,39,1024.5352,49,1028.5352,45,1024.5352" style="stroke: #A80036; stroke-width: 1.0;"/><line style="stroke: #A80036; stroke-width: 1.0; stroke-dasharray: 2.0,2.0;" x1="43" x2="333" y1="1024.5352" y2="1024.5352"/><text fill="#000000" font-family="sans-serif" font-size="13" font-weight="bold" lengthAdjust="spacingAndGlyphs" textLength="18" x="55" y="1020.1035">21</text><text fill="#000000" font-family="sans-serif" font-size="13" lengthAdjust="spacingAndGlyphs" textLength="240" x="77" y="1020.1035">Return Result to Target Party Endpoint</text><!--
@startuml
title 7.2.0 Get Parties Details

autonumber

actor "FSP" as FSP
boundary "Account Lookup Service" as ALS
control "Parties Handler" as PARTIES_HANDLER
entity "Account Lookup Service API" as ALS
entity "Participant DAO" as PARTICIPANT_DAO
database "Central Ledger Database" as DB
entity "Pathfinder Service" as PATHFINDER_SERVICE
actor "GSMA Pathfinder" as PATHFINDER

box "Account Lookup Service" #LightYellow
participant ALS
participant PARTIES_HANDLER
participant PARTICIPANT_DAO
participant DB
end box

box "Pathfinder Library" #LightBlue
participant PATHFINDER_SERVICE
end box

participant PATHFINDER


activate FSP
group Get Party's Details
    FSP -> ALS: Request to get party's details \nGET - /parties/{Type}/{ID}
    activate ALS
    ALS -> PARTIES_HANDLER: Get Party by ID and Type \n(PartiesByTypeAndID)
    activate PARTIES_HANDLER
    PARTIES_HANDLER ->PARTIES_HANDLER: Validate MSISDN
    PARTIES_HANDLER ->PARTICIPANT_DAO: Fetch Source Party's details \n(handleMSISDNPartyRequest)\n<color #FF0000><b>Error code:</b> 3200</color>
    activate PARTICIPANT_DAO
    PARTICIPANT_DAO -> DB: Fetch Source Party Error Endpoint \n(getParticipantEndpointByName)
    activate DB
    hnote over DB #lightyellow
        participantEndpoint
    end note
    DB - -> PARTICIPANT_DAO: Return Party Error Endpoint
    deactivate DB
    PARTICIPANT_DAO - -> PARTIES_HANDLER: Return Party Error Endpoint
    deactivate PARTICIPANT_DAO
    PARTIES_HANDLER -> PATHFINDER_SERVICE: Query Party ID
    activate PATHFINDER_SERVICE
    PATHFINDER_SERVICE -> PATHFINDER: Query Party
    activate PATHFINDER
    PATHFINDER -> PATHFINDER_SERVICE: Return Mobile Country Code and Network Code
    deactivate PATHFINDER
    PATHFINDER_SERVICE -> PARTIES_HANDLER: Return MCC & MNC
    deactivate PATHFINDER_SERVICE
    PARTIES_HANDLER ->PARTICIPANT_DAO: Fetch Party Name\n<color #FF0000><b>Error code:</b> 3200</color>
    activate PARTICIPANT_DAO
    PARTICIPANT_DAO -> DB: Fetch Party Name \n(getParticipantNameFromMccMnc)
    activate DB
    hnote over DB #lightyellow
        participantMno
    end note
    DB - -> PARTICIPANT_DAO: Return Party Name
    deactivate DB
    PARTICIPANT_DAO - -> PARTIES_HANDLER: Return Party Name
    deactivate PARTICIPANT_DAO
    PARTIES_HANDLER ->PARTICIPANT_DAO: Fetch Target Party's details \n(handleMSISDNPartyRequest)\n<color #FF0000><b>Error code:</b> 3200</color>
    activate PARTICIPANT_DAO
    PARTICIPANT_DAO -> DB: Fetch Target Party Endpoint \n(getParticipantEndpointByName)
    activate DB
    hnote over DB #lightyellow
        participantEndpoint
    end note
    DB - -> PARTICIPANT_DAO: Return Target Party Endpoint
    deactivate DB
    PARTICIPANT_DAO - -> PARTIES_HANDLER: Return Target Party Endpoint
    deactivate PARTICIPANT_DAO
    PARTIES_HANDLER -> ALS: Return Target Party Name
    deactivate PARTIES_HANDLER
    ALS - ->FSP: Return Result to Target Party Endpoint
    deactivate ALS
    deactivate FSP
end
@enduml

PlantUML version 1.2018.01(Sun Jan 28 20:08:22 SAST 2018)
(GPL source distribution)
Java Runtime: OpenJDK Runtime Environment
JVM: OpenJDK 64-Bit Server VM
Java Version: 1.8.0_152-release-1136-b20
Operating System: Mac OS X
OS Version: 10.14.3
Default Encoding: UTF-8
Language: en
Country: ZA
--></g></svg>