<?xml version="1.0" encoding="UTF-8" standalone="no"?><svg xmlns="http://www.w3.org/2000/svg" xmlns:xlink="http://www.w3.org/1999/xlink" contentScriptType="application/ecmascript" contentStyleType="text/css" height="1191px" preserveAspectRatio="none" style="width:1594px;height:1191px;" version="1.1" viewBox="0 0 1594 1191" width="1594px" zoomAndPan="magnify"><defs><filter height="300%" id="f1dqpqvxu5u3m5" width="300%" x="-1" y="-1"><feGaussianBlur result="blurOut" stdDeviation="2.0"/><feColorMatrix in="blurOut" result="blurOut2" type="matrix" values="0 0 0 0 0 0 0 0 0 0 0 0 0 0 0 0 0 0 .4 0"/><feOffset dx="4.0" dy="4.0" in="blurOut2" result="blurOut3"/><feBlend in="SourceGraphic" in2="blurOut3" mode="normal"/></filter></defs><g><text fill="#000000" font-family="sans-serif" font-size="14" font-weight="bold" lengthAdjust="spacingAndGlyphs" textLength="173" x="711.75" y="23.5352">7.2.0 Get Parties Details</text><rect fill="#FFFFE0" height="1146.4668" style="stroke: #A80036; stroke-width: 1.0;" width="923.5" x="199" y="34.4883"/><text fill="#000000" font-family="sans-serif" font-size="13" font-weight="bold" lengthAdjust="spacingAndGlyphs" textLength="161" x="580.25" y="47.0566">Account Lookup Service</text><rect fill="#ADD8E6" height="1146.4668" style="stroke: #A80036; stroke-width: 1.0;" width="137" x="1124.5" y="34.4883"/><text fill="#000000" font-family="sans-serif" font-size="13" font-weight="bold" lengthAdjust="spacingAndGlyphs" textLength="124" x="1131" y="47.0566">Pathfinder Library</text><rect fill="#FFFFFF" filter="url(#f1dqpqvxu5u3m5)" height="942.1797" style="stroke: #A80036; stroke-width: 1.0;" width="10" x="53.5" y="126.9766"/><rect fill="#FFFFFF" filter="url(#f1dqpqvxu5u3m5)" height="881.8691" style="stroke: #A80036; stroke-width: 1.0;" width="10" x="282.5" y="187.2871"/><rect fill="#FFFFFF" filter="url(#f1dqpqvxu5u3m5)" height="807.9375" style="stroke: #A80036; stroke-width: 1.0;" width="10" x="482.5" y="231.9082"/><rect fill="#FFFFFF" filter="url(#f1dqpqvxu5u3m5)" height="137.1738" style="stroke: #A80036; stroke-width: 1.0;" width="10" x="754.5" y="333.8398"/><rect fill="#FFFFFF" filter="url(#f1dqpqvxu5u3m5)" height="136.8633" style="stroke: #A80036; stroke-width: 1.0;" width="10" x="754.5" y="647.877"/><rect fill="#FFFFFF" filter="url(#f1dqpqvxu5u3m5)" height="137.1738" style="stroke: #A80036; stroke-width: 1.0;" width="10" x="754.5" y="844.0508"/><rect fill="#FFFFFF" filter="url(#f1dqpqvxu5u3m5)" height="62.9316" style="stroke: #A80036; stroke-width: 1.0;" width="10" x="1026.5" y="378.7715"/><rect fill="#FFFFFF" filter="url(#f1dqpqvxu5u3m5)" height="62.9316" style="stroke: #A80036; stroke-width: 1.0;" width="10" x="1026.5" y="692.498"/><rect fill="#FFFFFF" filter="url(#f1dqpqvxu5u3m5)" height="62.9316" style="stroke: #A80036; stroke-width: 1.0;" width="10" x="1026.5" y="888.9824"/><rect fill="#FFFFFF" filter="url(#f1dqpqvxu5u3m5)" height="103.2422" style="stroke: #A80036; stroke-width: 1.0;" width="10" x="1188" y="500.3242"/><rect fill="#FFFFFF" filter="url(#f1dqpqvxu5u3m5)" height="44.3105" style="stroke: #A80036; stroke-width: 1.0;" width="10" x="1425" y="529.6348"/><rect fill="#FFFFFF" filter="url(#f1dqpqvxu5u3m5)" height="943.4902" style="stroke: #000000; stroke-width: 2.0;" width="1570.5" x="13" y="133.9766"/><line style="stroke: #A80036; stroke-width: 1.0; stroke-dasharray: 5.0,5.0;" x1="58" x2="58" y1="116.9766" y2="1094.4668"/><line style="stroke: #A80036; stroke-width: 1.0; stroke-dasharray: 5.0,5.0;" x1="287" x2="287" y1="116.9766" y2="1094.4668"/><line style="stroke: #A80036; stroke-width: 1.0; stroke-dasharray: 5.0,5.0;" x1="487.5" x2="487.5" y1="116.9766" y2="1094.4668"/><line style="stroke: #A80036; stroke-width: 1.0; stroke-dasharray: 5.0,5.0;" x1="759.5" x2="759.5" y1="116.9766" y2="1094.4668"/><line style="stroke: #A80036; stroke-width: 1.0; stroke-dasharray: 5.0,5.0;" x1="1031.5" x2="1031.5" y1="116.9766" y2="1094.4668"/><line style="stroke: #A80036; stroke-width: 1.0; stroke-dasharray: 5.0,5.0;" x1="1192.5" x2="1192.5" y1="116.9766" y2="1094.4668"/><line style="stroke: #A80036; stroke-width: 1.0; stroke-dasharray: 5.0,5.0;" x1="1429.5" x2="1429.5" y1="116.9766" y2="1094.4668"/><line style="stroke: #A80036; stroke-width: 1.0; stroke-dasharray: 5.0,5.0;" x1="1536.5" x2="1536.5" y1="116.9766" y2="1094.4668"/><text fill="#000000" font-family="sans-serif" font-size="14" lengthAdjust="spacingAndGlyphs" textLength="65" x="23" y="114.0234">Payer FSP</text><ellipse cx="58.5" cy="43.4883" fill="#FEFECE" filter="url(#f1dqpqvxu5u3m5)" rx="8" ry="8" style="stroke: #A80036; stroke-width: 2.0;"/><path d="M58.5,51.4883 L58.5,78.4883 M45.5,59.4883 L71.5,59.4883 M58.5,78.4883 L45.5,93.4883 M58.5,78.4883 L71.5,93.4883 " fill="none" filter="url(#f1dqpqvxu5u3m5)" style="stroke: #A80036; stroke-width: 2.0;"/><text fill="#000000" font-family="sans-serif" font-size="14" lengthAdjust="spacingAndGlyphs" textLength="65" x="23" y="1107.002">Payer FSP</text><ellipse cx="58.5" cy="1119.9551" fill="#FEFECE" filter="url(#f1dqpqvxu5u3m5)" rx="8" ry="8" style="stroke: #A80036; stroke-width: 2.0;"/><path d="M58.5,1127.9551 L58.5,1154.9551 M45.5,1135.9551 L71.5,1135.9551 M58.5,1154.9551 L45.5,1169.9551 M58.5,1154.9551 L71.5,1169.9551 " fill="none" filter="url(#f1dqpqvxu5u3m5)" style="stroke: #A80036; stroke-width: 2.0;"/><text fill="#000000" font-family="sans-serif" font-size="14" lengthAdjust="spacingAndGlyphs" textLength="163" x="203" y="114.0234">Account Lookup Service</text><path d="M267,72.4883 L267,96.4883 M267,84.4883 L284,84.4883 " fill="none" filter="url(#f1dqpqvxu5u3m5)" style="stroke: #A80036; stroke-width: 2.0;"/><ellipse cx="296" cy="84.4883" fill="#FEFECE" filter="url(#f1dqpqvxu5u3m5)" rx="12" ry="12" style="stroke: #A80036; stroke-width: 2.0;"/><text fill="#000000" font-family="sans-serif" font-size="14" lengthAdjust="spacingAndGlyphs" textLength="163" x="203" y="1107.002">Account Lookup Service</text><path d="M267,1113.9551 L267,1137.9551 M267,1125.9551 L284,1125.9551 " fill="none" filter="url(#f1dqpqvxu5u3m5)" style="stroke: #A80036; stroke-width: 2.0;"/><ellipse cx="296" cy="1125.9551" fill="#FEFECE" filter="url(#f1dqpqvxu5u3m5)" rx="12" ry="12" style="stroke: #A80036; stroke-width: 2.0;"/><text fill="#000000" font-family="sans-serif" font-size="14" lengthAdjust="spacingAndGlyphs" textLength="104" x="432.5" y="114.0234">Parties Handler</text><ellipse cx="487.5" cy="84.4883" fill="#FEFECE" filter="url(#f1dqpqvxu5u3m5)" rx="12" ry="12" style="stroke: #A80036; stroke-width: 2.0;"/><polygon fill="#A80036" points="483.5,72.4883,489.5,67.4883,487.5,72.4883,489.5,77.4883,483.5,72.4883" style="stroke: #A80036; stroke-width: 1.0;"/><text fill="#000000" font-family="sans-serif" font-size="14" lengthAdjust="spacingAndGlyphs" textLength="104" x="432.5" y="1107.002">Parties Handler</text><ellipse cx="487.5" cy="1125.9551" fill="#FEFECE" filter="url(#f1dqpqvxu5u3m5)" rx="12" ry="12" style="stroke: #A80036; stroke-width: 2.0;"/><polygon fill="#A80036" points="483.5,1113.9551,489.5,1108.9551,487.5,1113.9551,489.5,1118.9551,483.5,1113.9551" style="stroke: #A80036; stroke-width: 1.0;"/><text fill="#000000" font-family="sans-serif" font-size="14" lengthAdjust="spacingAndGlyphs" textLength="108" x="702.5" y="114.0234">Participant DAO</text><ellipse cx="759.5" cy="84.4883" fill="#FEFECE" filter="url(#f1dqpqvxu5u3m5)" rx="12" ry="12" style="stroke: #A80036; stroke-width: 2.0;"/><line style="stroke: #A80036; stroke-width: 2.0;" x1="747.5" x2="771.5" y1="98.4883" y2="98.4883"/><text fill="#000000" font-family="sans-serif" font-size="14" lengthAdjust="spacingAndGlyphs" textLength="108" x="702.5" y="1107.002">Participant DAO</text><ellipse cx="759.5" cy="1125.9551" fill="#FEFECE" filter="url(#f1dqpqvxu5u3m5)" rx="12" ry="12" style="stroke: #A80036; stroke-width: 2.0;"/><line style="stroke: #A80036; stroke-width: 2.0;" x1="747.5" x2="771.5" y1="1139.9551" y2="1139.9551"/><text fill="#000000" font-family="sans-serif" font-size="14" lengthAdjust="spacingAndGlyphs" textLength="168" x="944.5" y="114.0234">Central Ledger Database</text><path d="M1013.5,64.4883 C1013.5,54.4883 1031.5,54.4883 1031.5,54.4883 C1031.5,54.4883 1049.5,54.4883 1049.5,64.4883 L1049.5,90.4883 C1049.5,100.4883 1031.5,100.4883 1031.5,100.4883 C1031.5,100.4883 1013.5,100.4883 1013.5,90.4883 L1013.5,64.4883 " fill="#FEFECE" filter="url(#f1dqpqvxu5u3m5)" style="stroke: #000000; stroke-width: 1.5;"/><path d="M1013.5,64.4883 C1013.5,74.4883 1031.5,74.4883 1031.5,74.4883 C1031.5,74.4883 1049.5,74.4883 1049.5,64.4883 " fill="none" style="stroke: #000000; stroke-width: 1.5;"/><text fill="#000000" font-family="sans-serif" font-size="14" lengthAdjust="spacingAndGlyphs" textLength="168" x="944.5" y="1107.002">Central Ledger Database</text><path d="M1013.5,1119.9551 C1013.5,1109.9551 1031.5,1109.9551 1031.5,1109.9551 C1031.5,1109.9551 1049.5,1109.9551 1049.5,1119.9551 L1049.5,1145.9551 C1049.5,1155.9551 1031.5,1155.9551 1031.5,1155.9551 C1031.5,1155.9551 1013.5,1155.9551 1013.5,1145.9551 L1013.5,1119.9551 " fill="#FEFECE" filter="url(#f1dqpqvxu5u3m5)" style="stroke: #000000; stroke-width: 1.5;"/><path d="M1013.5,1119.9551 C1013.5,1129.9551 1031.5,1129.9551 1031.5,1129.9551 C1031.5,1129.9551 1049.5,1129.9551 1049.5,1119.9551 " fill="none" style="stroke: #000000; stroke-width: 1.5;"/><text fill="#000000" font-family="sans-serif" font-size="14" lengthAdjust="spacingAndGlyphs" textLength="123" x="1128.5" y="114.0234">Pathfinder Service</text><ellipse cx="1193" cy="84.4883" fill="#FEFECE" filter="url(#f1dqpqvxu5u3m5)" rx="12" ry="12" style="stroke: #A80036; stroke-width: 2.0;"/><line style="stroke: #A80036; stroke-width: 2.0;" x1="1181" x2="1205" y1="98.4883" y2="98.4883"/><text fill="#000000" font-family="sans-serif" font-size="14" lengthAdjust="spacingAndGlyphs" textLength="123" x="1128.5" y="1107.002">Pathfinder Service</text><ellipse cx="1193" cy="1125.9551" fill="#FEFECE" filter="url(#f1dqpqvxu5u3m5)" rx="12" ry="12" style="stroke: #A80036; stroke-width: 2.0;"/><line style="stroke: #A80036; stroke-width: 2.0;" x1="1181" x2="1205" y1="1139.9551" y2="1139.9551"/><text fill="#000000" font-family="sans-serif" font-size="14" lengthAdjust="spacingAndGlyphs" textLength="115" x="1369.5" y="114.0234">GSMA Pathfinder</text><ellipse cx="1430" cy="43.4883" fill="#FEFECE" filter="url(#f1dqpqvxu5u3m5)" rx="8" ry="8" style="stroke: #A80036; stroke-width: 2.0;"/><path d="M1430,51.4883 L1430,78.4883 M1417,59.4883 L1443,59.4883 M1430,78.4883 L1417,93.4883 M1430,78.4883 L1443,93.4883 " fill="none" filter="url(#f1dqpqvxu5u3m5)" style="stroke: #A80036; stroke-width: 2.0;"/><text fill="#000000" font-family="sans-serif" font-size="14" lengthAdjust="spacingAndGlyphs" textLength="115" x="1369.5" y="1107.002">GSMA Pathfinder</text><ellipse cx="1430" cy="1119.9551" fill="#FEFECE" filter="url(#f1dqpqvxu5u3m5)" rx="8" ry="8" style="stroke: #A80036; stroke-width: 2.0;"/><path d="M1430,1127.9551 L1430,1154.9551 M1417,1135.9551 L1443,1135.9551 M1430,1154.9551 L1417,1169.9551 M1430,1154.9551 L1443,1169.9551 " fill="none" filter="url(#f1dqpqvxu5u3m5)" style="stroke: #A80036; stroke-width: 2.0;"/><text fill="#000000" font-family="sans-serif" font-size="14" lengthAdjust="spacingAndGlyphs" textLength="67" x="1500.5" y="114.0234">Payee FSP</text><ellipse cx="1537" cy="43.4883" fill="#FEFECE" filter="url(#f1dqpqvxu5u3m5)" rx="8" ry="8" style="stroke: #A80036; stroke-width: 2.0;"/><path d="M1537,51.4883 L1537,78.4883 M1524,59.4883 L1550,59.4883 M1537,78.4883 L1524,93.4883 M1537,78.4883 L1550,93.4883 " fill="none" filter="url(#f1dqpqvxu5u3m5)" style="stroke: #A80036; stroke-width: 2.0;"/><text fill="#000000" font-family="sans-serif" font-size="14" lengthAdjust="spacingAndGlyphs" textLength="67" x="1500.5" y="1107.002">Payee FSP</text><ellipse cx="1537" cy="1119.9551" fill="#FEFECE" filter="url(#f1dqpqvxu5u3m5)" rx="8" ry="8" style="stroke: #A80036; stroke-width: 2.0;"/><path d="M1537,1127.9551 L1537,1154.9551 M1524,1135.9551 L1550,1135.9551 M1537,1154.9551 L1524,1169.9551 M1537,1154.9551 L1550,1169.9551 " fill="none" filter="url(#f1dqpqvxu5u3m5)" style="stroke: #A80036; stroke-width: 2.0;"/><rect fill="#FFFFFF" filter="url(#f1dqpqvxu5u3m5)" height="942.1797" style="stroke: #A80036; stroke-width: 1.0;" width="10" x="53.5" y="126.9766"/><rect fill="#FFFFFF" filter="url(#f1dqpqvxu5u3m5)" height="881.8691" style="stroke: #A80036; stroke-width: 1.0;" width="10" x="282.5" y="187.2871"/><rect fill="#FFFFFF" filter="url(#f1dqpqvxu5u3m5)" height="807.9375" style="stroke: #A80036; stroke-width: 1.0;" width="10" x="482.5" y="231.9082"/><rect fill="#FFFFFF" filter="url(#f1dqpqvxu5u3m5)" height="137.1738" style="stroke: #A80036; stroke-width: 1.0;" width="10" x="754.5" y="333.8398"/><rect fill="#FFFFFF" filter="url(#f1dqpqvxu5u3m5)" height="136.8633" style="stroke: #A80036; stroke-width: 1.0;" width="10" x="754.5" y="647.877"/><rect fill="#FFFFFF" filter="url(#f1dqpqvxu5u3m5)" height="137.1738" style="stroke: #A80036; stroke-width: 1.0;" width="10" x="754.5" y="844.0508"/><rect fill="#FFFFFF" filter="url(#f1dqpqvxu5u3m5)" height="62.9316" style="stroke: #A80036; stroke-width: 1.0;" width="10" x="1026.5" y="378.7715"/><rect fill="#FFFFFF" filter="url(#f1dqpqvxu5u3m5)" height="62.9316" style="stroke: #A80036; stroke-width: 1.0;" width="10" x="1026.5" y="692.498"/><rect fill="#FFFFFF" filter="url(#f1dqpqvxu5u3m5)" height="62.9316" style="stroke: #A80036; stroke-width: 1.0;" width="10" x="1026.5" y="888.9824"/><rect fill="#FFFFFF" filter="url(#f1dqpqvxu5u3m5)" height="103.2422" style="stroke: #A80036; stroke-width: 1.0;" width="10" x="1188" y="500.3242"/><rect fill="#FFFFFF" filter="url(#f1dqpqvxu5u3m5)" height="44.3105" style="stroke: #A80036; stroke-width: 1.0;" width="10" x="1425" y="529.6348"/><path d="M13,133.9766 L180,133.9766 L180,140.9766 L170,150.9766 L13,150.9766 L13,133.9766 " fill="#EEEEEE" style="stroke: #000000; stroke-width: 1.0;"/><rect fill="none" height="943.4902" style="stroke: #000000; stroke-width: 2.0;" width="1570.5" x="13" y="133.9766"/><text fill="#000000" font-family="sans-serif" font-size="13" font-weight="bold" lengthAdjust="spacingAndGlyphs" textLength="122" x="28" y="147.5449">Get Party's Details</text><polygon fill="#A80036" points="270.5,183.2871,280.5,187.2871,270.5,191.2871,274.5,187.2871" style="stroke: #A80036; stroke-width: 1.0;"/><line style="stroke: #A80036; stroke-width: 1.0;" x1="63.5" x2="276.5" y1="187.2871" y2="187.2871"/><text fill="#000000" font-family="sans-serif" font-size="13" font-weight="bold" lengthAdjust="spacingAndGlyphs" textLength="9" x="70.5" y="175.5107">1</text><text fill="#000000" font-family="sans-serif" font-size="13" lengthAdjust="spacingAndGlyphs" textLength="183" x="83.5" y="167.8555">Request to get party's details</text><text fill="#000000" font-family="sans-serif" font-size="13" lengthAdjust="spacingAndGlyphs" textLength="164" x="83.5" y="183.166">GET - /parties/{Type}/{ID}</text><polygon fill="#A80036" points="470.5,227.9082,480.5,231.9082,470.5,235.9082,474.5,231.9082" style="stroke: #A80036; stroke-width: 1.0;"/><line style="stroke: #A80036; stroke-width: 1.0;" x1="292.5" x2="476.5" y1="231.9082" y2="231.9082"/><text fill="#000000" font-family="sans-serif" font-size="13" font-weight="bold" lengthAdjust="spacingAndGlyphs" textLength="9" x="299.5" y="220.1318">2</text><text fill="#000000" font-family="sans-serif" font-size="13" lengthAdjust="spacingAndGlyphs" textLength="154" x="312.5" y="212.4766">Get Party by ID and Type</text><text fill="#000000" font-family="sans-serif" font-size="13" lengthAdjust="spacingAndGlyphs" textLength="133" x="312.5" y="227.7871">(PartiesByTypeAndID)</text><line style="stroke: #A80036; stroke-width: 1.0;" x1="492.5" x2="534.5" y1="261.8398" y2="261.8398"/><line style="stroke: #A80036; stroke-width: 1.0;" x1="534.5" x2="534.5" y1="261.8398" y2="274.8398"/><line style="stroke: #A80036; stroke-width: 1.0;" x1="493.5" x2="534.5" y1="274.8398" y2="274.8398"/><polygon fill="#A80036" points="503.5,270.8398,493.5,274.8398,503.5,278.8398,499.5,274.8398" style="stroke: #A80036; stroke-width: 1.0;"/><text fill="#000000" font-family="sans-serif" font-size="13" font-weight="bold" lengthAdjust="spacingAndGlyphs" textLength="9" x="499.5" y="257.0977">3</text><text fill="#000000" font-family="sans-serif" font-size="13" lengthAdjust="spacingAndGlyphs" textLength="103" x="512.5" y="257.0977">Validate MSISDN</text><polygon fill="#A80036" points="742.5,329.8398,752.5,333.8398,742.5,337.8398,746.5,333.8398" style="stroke: #A80036; stroke-width: 1.0;"/><line style="stroke: #A80036; stroke-width: 1.0;" x1="492.5" x2="748.5" y1="333.8398" y2="333.8398"/><text fill="#000000" font-family="sans-serif" font-size="13" font-weight="bold" lengthAdjust="spacingAndGlyphs" textLength="9" x="499.5" y="314.7188">4</text><text fill="#000000" font-family="sans-serif" font-size="13" lengthAdjust="spacingAndGlyphs" textLength="171" x="512.5" y="299.4082">Fetch Source Party's details</text><text fill="#000000" font-family="sans-serif" font-size="13" lengthAdjust="spacingAndGlyphs" textLength="180" x="512.5" y="314.7188">(handleMSISDNPartyRequest)</text><text fill="#FF0000" font-family="sans-serif" font-size="13" font-weight="bold" lengthAdjust="spacingAndGlyphs" textLength="73" x="512.5" y="330.0293">Error code:</text><text fill="#FF0000" font-family="sans-serif" font-size="13" lengthAdjust="spacingAndGlyphs" textLength="32" x="589.5" y="330.0293">3200</text><polygon fill="#A80036" points="1014.5,374.7715,1024.5,378.7715,1014.5,382.7715,1018.5,378.7715" style="stroke: #A80036; stroke-width: 1.0;"/><line style="stroke: #A80036; stroke-width: 1.0;" x1="764.5" x2="1020.5" y1="378.7715" y2="378.7715"/><text fill="#000000" font-family="sans-serif" font-size="13" font-weight="bold" lengthAdjust="spacingAndGlyphs" textLength="9" x="771.5" y="366.9951">5</text><text fill="#000000" font-family="sans-serif" font-size="13" lengthAdjust="spacingAndGlyphs" textLength="209" x="784.5" y="359.3398">Fetch Source Party Error Endpoint</text><text fill="#000000" font-family="sans-serif" font-size="13" lengthAdjust="spacingAndGlyphs" textLength="201" x="784.5" y="374.6504">(getParticipantEndpointByName)</text><polygon fill="#FFFFE0" filter="url(#f1dqpqvxu5u3m5)" points="967,392.3926,1095,392.3926,1105,403.3926,1095,415.3926,967,415.3926,957,403.3926,967,392.3926" style="stroke: #A80036; stroke-width: 1.0;"/><text fill="#000000" font-family="sans-serif" font-size="13" lengthAdjust="spacingAndGlyphs" textLength="124" x="969" y="408.9609">participantEndpoint</text><polygon fill="#A80036" points="775.5,437.7031,765.5,441.7031,775.5,445.7031,771.5,441.7031" style="stroke: #A80036; stroke-width: 1.0;"/><line style="stroke: #A80036; stroke-width: 1.0; stroke-dasharray: 2.0,2.0;" x1="769.5" x2="1030.5" y1="441.7031" y2="441.7031"/><text fill="#000000" font-family="sans-serif" font-size="13" font-weight="bold" lengthAdjust="spacingAndGlyphs" textLength="9" x="781.5" y="437.2715">6</text><text fill="#000000" font-family="sans-serif" font-size="13" lengthAdjust="spacingAndGlyphs" textLength="170" x="794.5" y="437.2715">Return Party Error Endpoint</text><polygon fill="#A80036" points="503.5,467.0137,493.5,471.0137,503.5,475.0137,499.5,471.0137" style="stroke: #A80036; stroke-width: 1.0;"/><line style="stroke: #A80036; stroke-width: 1.0; stroke-dasharray: 2.0,2.0;" x1="497.5" x2="758.5" y1="471.0137" y2="471.0137"/><text fill="#000000" font-family="sans-serif" font-size="13" font-weight="bold" lengthAdjust="spacingAndGlyphs" textLength="9" x="509.5" y="466.582">7</text><text fill="#000000" font-family="sans-serif" font-size="13" lengthAdjust="spacingAndGlyphs" textLength="170" x="522.5" y="466.582">Return Party Error Endpoint</text><polygon fill="#A80036" points="1176,496.3242,1186,500.3242,1176,504.3242,1180,500.3242" style="stroke: #A80036; stroke-width: 1.0;"/><line style="stroke: #A80036; stroke-width: 1.0;" x1="492.5" x2="1182" y1="500.3242" y2="500.3242"/><text fill="#000000" font-family="sans-serif" font-size="13" font-weight="bold" lengthAdjust="spacingAndGlyphs" textLength="9" x="499.5" y="495.8926">8</text><text fill="#000000" font-family="sans-serif" font-size="13" lengthAdjust="spacingAndGlyphs" textLength="90" x="512.5" y="495.8926">Query Party ID</text><polygon fill="#A80036" points="1413,525.6348,1423,529.6348,1413,533.6348,1417,529.6348" style="stroke: #A80036; stroke-width: 1.0;"/><line style="stroke: #A80036; stroke-width: 1.0;" x1="1198" x2="1419" y1="529.6348" y2="529.6348"/><text fill="#000000" font-family="sans-serif" font-size="13" font-weight="bold" lengthAdjust="spacingAndGlyphs" textLength="9" x="1205" y="525.2031">9</text><text fill="#000000" font-family="sans-serif" font-size="13" lengthAdjust="spacingAndGlyphs" textLength="72" x="1218" y="525.2031">Query Party</text><polygon fill="#A80036" points="1209,569.9453,1199,573.9453,1209,577.9453,1205,573.9453" style="stroke: #A80036; stroke-width: 1.0;"/><line style="stroke: #A80036; stroke-width: 1.0;" x1="1203" x2="1429" y1="573.9453" y2="573.9453"/><text fill="#000000" font-family="sans-serif" font-size="13" font-weight="bold" lengthAdjust="spacingAndGlyphs" textLength="18" x="1215" y="562.1689">10</text><text fill="#000000" font-family="sans-serif" font-size="13" lengthAdjust="spacingAndGlyphs" textLength="177" x="1237" y="554.5137">Return Mobile Country Code</text><text fill="#000000" font-family="sans-serif" font-size="13" lengthAdjust="spacingAndGlyphs" textLength="116" x="1237" y="569.8242">and Network Code</text><polygon fill="#A80036" points="503.5,599.5664,493.5,603.5664,503.5,607.5664,499.5,603.5664" style="stroke: #A80036; stroke-width: 1.0;"/><line style="stroke: #A80036; stroke-width: 1.0;" x1="497.5" x2="1192" y1="603.5664" y2="603.5664"/><text fill="#000000" font-family="sans-serif" font-size="13" font-weight="bold" lengthAdjust="spacingAndGlyphs" textLength="18" x="509.5" y="599.1348">11</text><text fill="#000000" font-family="sans-serif" font-size="13" lengthAdjust="spacingAndGlyphs" textLength="121" x="531.5" y="599.1348">Return MCC &amp; MNC</text><polygon fill="#A80036" points="742.5,643.877,752.5,647.877,742.5,651.877,746.5,647.877" style="stroke: #A80036; stroke-width: 1.0;"/><line style="stroke: #A80036; stroke-width: 1.0;" x1="492.5" x2="748.5" y1="647.877" y2="647.877"/><text fill="#000000" font-family="sans-serif" font-size="13" font-weight="bold" lengthAdjust="spacingAndGlyphs" textLength="18" x="499.5" y="636.1006">12</text><text fill="#000000" font-family="sans-serif" font-size="13" lengthAdjust="spacingAndGlyphs" textLength="145" x="521.5" y="628.4453">Fetch Participant Name</text><text fill="#FF0000" font-family="sans-serif" font-size="13" font-weight="bold" lengthAdjust="spacingAndGlyphs" textLength="73" x="521.5" y="643.7559">Error code:</text><text fill="#FF0000" font-family="sans-serif" font-size="13" lengthAdjust="spacingAndGlyphs" textLength="32" x="598.5" y="643.7559">3200</text><polygon fill="#A80036" points="1014.5,688.498,1024.5,692.498,1014.5,696.498,1018.5,692.498" style="stroke: #A80036; stroke-width: 1.0;"/><line style="stroke: #A80036; stroke-width: 1.0;" x1="764.5" x2="1020.5" y1="692.498" y2="692.498"/><text fill="#000000" font-family="sans-serif" font-size="13" font-weight="bold" lengthAdjust="spacingAndGlyphs" textLength="18" x="771.5" y="680.7217">13</text><text fill="#000000" font-family="sans-serif" font-size="13" lengthAdjust="spacingAndGlyphs" textLength="145" x="793.5" y="673.0664">Fetch Participant Name</text><text fill="#000000" font-family="sans-serif" font-size="13" lengthAdjust="spacingAndGlyphs" textLength="214" x="793.5" y="688.377">(getParticipantNameFromMccMnc)</text><polygon fill="#FFFFE0" filter="url(#f1dqpqvxu5u3m5)" points="982,706.1191,1081,706.1191,1091,717.1191,1081,729.1191,982,729.1191,972,717.1191,982,706.1191" style="stroke: #A80036; stroke-width: 1.0;"/><text fill="#000000" font-family="sans-serif" font-size="13" lengthAdjust="spacingAndGlyphs" textLength="95" x="984" y="722.6875">participantMno</text><polygon fill="#A80036" points="775.5,751.4297,765.5,755.4297,775.5,759.4297,771.5,755.4297" style="stroke: #A80036; stroke-width: 1.0;"/><line style="stroke: #A80036; stroke-width: 1.0; stroke-dasharray: 2.0,2.0;" x1="769.5" x2="1030.5" y1="755.4297" y2="755.4297"/><text fill="#000000" font-family="sans-serif" font-size="13" font-weight="bold" lengthAdjust="spacingAndGlyphs" textLength="18" x="781.5" y="750.998">14</text><text fill="#000000" font-family="sans-serif" font-size="13" lengthAdjust="spacingAndGlyphs" textLength="152" x="803.5" y="750.998">Return Participant Name</text><polygon fill="#A80036" points="503.5,780.7402,493.5,784.7402,503.5,788.7402,499.5,784.7402" style="stroke: #A80036; stroke-width: 1.0;"/><line style="stroke: #A80036; stroke-width: 1.0; stroke-dasharray: 2.0,2.0;" x1="497.5" x2="758.5" y1="784.7402" y2="784.7402"/><text fill="#000000" font-family="sans-serif" font-size="13" font-weight="bold" lengthAdjust="spacingAndGlyphs" textLength="18" x="509.5" y="780.3086">15</text><text fill="#000000" font-family="sans-serif" font-size="13" lengthAdjust="spacingAndGlyphs" textLength="152" x="531.5" y="780.3086">Return Participant Name</text><polygon fill="#A80036" points="742.5,840.0508,752.5,844.0508,742.5,848.0508,746.5,844.0508" style="stroke: #A80036; stroke-width: 1.0;"/><line style="stroke: #A80036; stroke-width: 1.0;" x1="492.5" x2="748.5" y1="844.0508" y2="844.0508"/><text fill="#000000" font-family="sans-serif" font-size="13" font-weight="bold" lengthAdjust="spacingAndGlyphs" textLength="18" x="499.5" y="824.9297">16</text><text fill="#000000" font-family="sans-serif" font-size="13" lengthAdjust="spacingAndGlyphs" textLength="205" x="521.5" y="809.6191">Fetch Target Participant's details</text><text fill="#000000" font-family="sans-serif" font-size="13" lengthAdjust="spacingAndGlyphs" textLength="180" x="521.5" y="824.9297">(handleMSISDNPartyRequest)</text><text fill="#FF0000" font-family="sans-serif" font-size="13" font-weight="bold" lengthAdjust="spacingAndGlyphs" textLength="73" x="521.5" y="840.2402">Error code:</text><text fill="#FF0000" font-family="sans-serif" font-size="13" lengthAdjust="spacingAndGlyphs" textLength="32" x="598.5" y="840.2402">3200</text><polygon fill="#A80036" points="1014.5,884.9824,1024.5,888.9824,1014.5,892.9824,1018.5,888.9824" style="stroke: #A80036; stroke-width: 1.0;"/><line style="stroke: #A80036; stroke-width: 1.0;" x1="764.5" x2="1020.5" y1="888.9824" y2="888.9824"/><text fill="#000000" font-family="sans-serif" font-size="13" font-weight="bold" lengthAdjust="spacingAndGlyphs" textLength="18" x="771.5" y="877.2061">17</text><text fill="#000000" font-family="sans-serif" font-size="13" lengthAdjust="spacingAndGlyphs" textLength="209" x="793.5" y="869.5508">Fetch Target Participant Endpoint</text><text fill="#000000" font-family="sans-serif" font-size="13" lengthAdjust="spacingAndGlyphs" textLength="201" x="793.5" y="884.8613">(getParticipantEndpointByName)</text><polygon fill="#FFFFE0" filter="url(#f1dqpqvxu5u3m5)" points="967,902.6035,1095,902.6035,1105,913.6035,1095,925.6035,967,925.6035,957,913.6035,967,902.6035" style="stroke: #A80036; stroke-width: 1.0;"/><text fill="#000000" font-family="sans-serif" font-size="13" lengthAdjust="spacingAndGlyphs" textLength="124" x="969" y="919.1719">participantEndpoint</text><polygon fill="#A80036" points="775.5,947.9141,765.5,951.9141,775.5,955.9141,771.5,951.9141" style="stroke: #A80036; stroke-width: 1.0;"/><line style="stroke: #A80036; stroke-width: 1.0; stroke-dasharray: 2.0,2.0;" x1="769.5" x2="1030.5" y1="951.9141" y2="951.9141"/><text fill="#000000" font-family="sans-serif" font-size="13" font-weight="bold" lengthAdjust="spacingAndGlyphs" textLength="18" x="781.5" y="947.4824">18</text><text fill="#000000" font-family="sans-serif" font-size="13" lengthAdjust="spacingAndGlyphs" textLength="216" x="803.5" y="947.4824">Return Target Participant Endpoint</text><polygon fill="#A80036" points="503.5,977.2246,493.5,981.2246,503.5,985.2246,499.5,981.2246" style="stroke: #A80036; stroke-width: 1.0;"/><line style="stroke: #A80036; stroke-width: 1.0; stroke-dasharray: 2.0,2.0;" x1="497.5" x2="758.5" y1="981.2246" y2="981.2246"/><text fill="#000000" font-family="sans-serif" font-size="13" font-weight="bold" lengthAdjust="spacingAndGlyphs" textLength="18" x="509.5" y="976.793">19</text><text fill="#000000" font-family="sans-serif" font-size="13" lengthAdjust="spacingAndGlyphs" textLength="216" x="531.5" y="976.793">Return Target Participant Endpoint</text><polygon fill="#A80036" points="303.5,1006.5352,293.5,1010.5352,303.5,1014.5352,299.5,1010.5352" style="stroke: #A80036; stroke-width: 1.0;"/><line style="stroke: #A80036; stroke-width: 1.0;" x1="297.5" x2="481.5" y1="1010.5352" y2="1010.5352"/><text fill="#000000" font-family="sans-serif" font-size="13" font-weight="bold" lengthAdjust="spacingAndGlyphs" textLength="18" x="309.5" y="1006.1035">20</text><text fill="#000000" font-family="sans-serif" font-size="13" lengthAdjust="spacingAndGlyphs" textLength="95" x="331.5" y="1006.1035">Return Success</text><polygon fill="#A80036" points="1525,1035.8457,1535,1039.8457,1525,1043.8457,1529,1039.8457" style="stroke: #A80036; stroke-width: 1.0;"/><line style="stroke: #A80036; stroke-width: 1.0;" x1="487.5" x2="1531" y1="1039.8457" y2="1039.8457"/><text fill="#000000" font-family="sans-serif" font-size="13" font-weight="bold" lengthAdjust="spacingAndGlyphs" textLength="18" x="494.5" y="1035.4141">21</text><text fill="#000000" font-family="sans-serif" font-size="13" lengthAdjust="spacingAndGlyphs" textLength="378" x="516.5" y="1035.4141">Forward Request to Target Participant with Updated Headers</text><polygon fill="#A80036" points="69.5,1065.1563,59.5,1069.1563,69.5,1073.1563,65.5,1069.1563" style="stroke: #A80036; stroke-width: 1.0;"/><line style="stroke: #A80036; stroke-width: 1.0; stroke-dasharray: 2.0,2.0;" x1="63.5" x2="286.5" y1="1069.1563" y2="1069.1563"/><text fill="#000000" font-family="sans-serif" font-size="13" font-weight="bold" lengthAdjust="spacingAndGlyphs" textLength="18" x="75.5" y="1064.7246">22</text><text fill="#000000" font-family="sans-serif" font-size="13" lengthAdjust="spacingAndGlyphs" textLength="123" x="97.5" y="1064.7246">Return Success 202</text><!--
@startuml
title 7.2.0 Get Parties Details

autonumber

actor "Payer FSP" as PAYER_FSP
boundary "Account Lookup Service" as ALS
control "Parties Handler" as PARTIES_HANDLER
entity "Account Lookup Service API" as ALS
entity "Participant DAO" as PARTICIPANT_DAO
database "Central Ledger Database" as DB
entity "Pathfinder Service" as PATHFINDER_SERVICE
actor "GSMA Pathfinder" as PATHFINDER
actor "Payee FSP" as PAYEE_FSP

box "Account Lookup Service" #LightYellow
participant ALS
participant PARTIES_HANDLER
participant PARTICIPANT_DAO
participant DB
end box

box "Pathfinder Library" #LightBlue
participant PATHFINDER_SERVICE
end box

participant PATHFINDER
participant PAYEE_FSP


activate PAYER_FSP
group Get Party's Details
    PAYER_FSP -> ALS: Request to get party's details \nGET - /parties/{Type}/{ID}
    activate ALS
    ALS -> PARTIES_HANDLER: Get Party by ID and Type \n(PartiesByTypeAndID)
    activate PARTIES_HANDLER
    PARTIES_HANDLER ->PARTIES_HANDLER: Validate MSISDN
    PARTIES_HANDLER ->PARTICIPANT_DAO: Fetch Source Party's details \n(handleMSISDNPartyRequest)\n<color #FF0000><b>Error code:</b> 3200</color>
    activate PARTICIPANT_DAO
    PARTICIPANT_DAO -> DB: Fetch Source Party Error Endpoint \n(getParticipantEndpointByName)
    activate DB
    hnote over DB #lightyellow
        participantEndpoint
    end note
    DB - -> PARTICIPANT_DAO: Return Party Error Endpoint
    deactivate DB
    PARTICIPANT_DAO - -> PARTIES_HANDLER: Return Party Error Endpoint
    deactivate PARTICIPANT_DAO
    PARTIES_HANDLER -> PATHFINDER_SERVICE: Query Party ID
    activate PATHFINDER_SERVICE
    PATHFINDER_SERVICE -> PATHFINDER: Query Party
    activate PATHFINDER
    PATHFINDER -> PATHFINDER_SERVICE: Return Mobile Country Code \nand Network Code
    deactivate PATHFINDER
    PATHFINDER_SERVICE -> PARTIES_HANDLER: Return MCC & MNC
    deactivate PATHFINDER_SERVICE
    PARTIES_HANDLER ->PARTICIPANT_DAO: Fetch Participant Name\n<color #FF0000><b>Error code:</b> 3200</color>
    activate PARTICIPANT_DAO
    PARTICIPANT_DAO -> DB: Fetch Participant Name \n(getParticipantNameFromMccMnc)
    activate DB
    hnote over DB #lightyellow
        participantMno
    end note
    DB - -> PARTICIPANT_DAO: Return Participant Name
    deactivate DB
    PARTICIPANT_DAO - -> PARTIES_HANDLER: Return Participant Name
    deactivate PARTICIPANT_DAO
    PARTIES_HANDLER ->PARTICIPANT_DAO: Fetch Target Participant's details \n(handleMSISDNPartyRequest)\n<color #FF0000><b>Error code:</b> 3200</color>
    activate PARTICIPANT_DAO
    PARTICIPANT_DAO -> DB: Fetch Target Participant Endpoint \n(getParticipantEndpointByName)
    activate DB
    hnote over DB #lightyellow
        participantEndpoint
    end note
    DB - -> PARTICIPANT_DAO: Return Target Participant Endpoint
    deactivate DB
    PARTICIPANT_DAO - -> PARTIES_HANDLER: Return Target Participant Endpoint
    deactivate PARTICIPANT_DAO
    PARTIES_HANDLER -> ALS: Return Success
    PARTIES_HANDLER -> PAYEE_FSP: Forward Request to Target Participant with Updated Headers
    deactivate PARTIES_HANDLER
    ALS - ->PAYER_FSP: Return Success 202
    deactivate ALS
    deactivate PAYER_FSP
end
@enduml

PlantUML version 1.2018.01(Sun Jan 28 20:08:22 SAST 2018)
(GPL source distribution)
Java Runtime: OpenJDK Runtime Environment
JVM: OpenJDK 64-Bit Server VM
Java Version: 1.8.0_152-release-1136-b20
Operating System: Mac OS X
OS Version: 10.14.3
Default Encoding: UTF-8
Language: en
Country: ZA
--></g></svg>