<?xml version="1.0" encoding="UTF-8" standalone="no"?><svg xmlns="http://www.w3.org/2000/svg" xmlns:xlink="http://www.w3.org/1999/xlink" contentScriptType="application/ecmascript" contentStyleType="text/css" height="950px" preserveAspectRatio="none" style="width:1683px;height:950px;" version="1.1" viewBox="0 0 1683 950" width="1683px" zoomAndPan="magnify"><defs><filter height="300%" id="f1mntqp3ehi4d8" width="300%" x="-1" y="-1"><feGaussianBlur result="blurOut" stdDeviation="2.0"/><feColorMatrix in="blurOut" result="blurOut2" type="matrix" values="0 0 0 0 0 0 0 0 0 0 0 0 0 0 0 0 0 0 .4 0"/><feOffset dx="4.0" dy="4.0" in="blurOut2" result="blurOut3"/><feBlend in="SourceGraphic" in2="blurOut3" mode="normal"/></filter></defs><g><text fill="#000000" font-family="sans-serif" font-size="14" font-weight="bold" lengthAdjust="spacingAndGlyphs" textLength="201" x="742" y="23.5352">7.1.0 Get Participant Details</text><rect fill="#FFFFE0" height="905.3613" style="stroke: #A80036; stroke-width: 1.0;" width="938.5" x="239.5" y="34.4883"/><text fill="#000000" font-family="sans-serif" font-size="13" font-weight="bold" lengthAdjust="spacingAndGlyphs" textLength="161" x="628.25" y="47.0566">Account Lookup Service</text><rect fill="#ADD8E6" height="905.3613" style="stroke: #A80036; stroke-width: 1.0;" width="137" x="1180" y="34.4883"/><text fill="#000000" font-family="sans-serif" font-size="13" font-weight="bold" lengthAdjust="spacingAndGlyphs" textLength="124" x="1186.5" y="47.0566">Pathfinder Library</text><rect fill="#FFFFFF" filter="url(#f1mntqp3ehi4d8)" height="701.0742" style="stroke: #A80036; stroke-width: 1.0;" width="10" x="33" y="126.9766"/><rect fill="#FFFFFF" filter="url(#f1mntqp3ehi4d8)" height="640.7637" style="stroke: #A80036; stroke-width: 1.0;" width="10" x="323" y="187.2871"/><rect fill="#FFFFFF" filter="url(#f1mntqp3ehi4d8)" height="566.832" style="stroke: #A80036; stroke-width: 1.0;" width="10" x="559" y="231.9082"/><rect fill="#FFFFFF" filter="url(#f1mntqp3ehi4d8)" height="137.1738" style="stroke: #A80036; stroke-width: 1.0;" width="10" x="817" y="333.8398"/><rect fill="#FFFFFF" filter="url(#f1mntqp3ehi4d8)" height="136.8633" style="stroke: #A80036; stroke-width: 1.0;" width="10" x="817" y="632.5664"/><rect fill="#FFFFFF" filter="url(#f1mntqp3ehi4d8)" height="62.9316" style="stroke: #A80036; stroke-width: 1.0;" width="10" x="1082" y="378.7715"/><rect fill="#FFFFFF" filter="url(#f1mntqp3ehi4d8)" height="62.9316" style="stroke: #A80036; stroke-width: 1.0;" width="10" x="1082" y="677.1875"/><rect fill="#FFFFFF" filter="url(#f1mntqp3ehi4d8)" height="87.9316" style="stroke: #A80036; stroke-width: 1.0;" width="10" x="1243.5" y="500.3242"/><rect fill="#FFFFFF" filter="url(#f1mntqp3ehi4d8)" height="29.3105" style="stroke: #A80036; stroke-width: 1.0;" width="10" x="1596.5" y="529.6348"/><rect fill="#FFFFFF" filter="url(#f1mntqp3ehi4d8)" height="702.3848" style="stroke: #000000; stroke-width: 2.0;" width="1659" x="13" y="133.9766"/><line style="stroke: #A80036; stroke-width: 1.0; stroke-dasharray: 5.0,5.0;" x1="38" x2="38" y1="116.9766" y2="853.3613"/><line style="stroke: #A80036; stroke-width: 1.0; stroke-dasharray: 5.0,5.0;" x1="327.5" x2="327.5" y1="116.9766" y2="853.3613"/><line style="stroke: #A80036; stroke-width: 1.0; stroke-dasharray: 5.0,5.0;" x1="564" x2="564" y1="116.9766" y2="853.3613"/><line style="stroke: #A80036; stroke-width: 1.0; stroke-dasharray: 5.0,5.0;" x1="822" x2="822" y1="116.9766" y2="853.3613"/><line style="stroke: #A80036; stroke-width: 1.0; stroke-dasharray: 5.0,5.0;" x1="1087" x2="1087" y1="116.9766" y2="853.3613"/><line style="stroke: #A80036; stroke-width: 1.0; stroke-dasharray: 5.0,5.0;" x1="1248" x2="1248" y1="116.9766" y2="853.3613"/><line style="stroke: #A80036; stroke-width: 1.0; stroke-dasharray: 5.0,5.0;" x1="1601" x2="1601" y1="116.9766" y2="853.3613"/><text fill="#000000" font-family="sans-serif" font-size="14" lengthAdjust="spacingAndGlyphs" textLength="24" x="23" y="114.0234">FSP</text><ellipse cx="38" cy="43.4883" fill="#FEFECE" filter="url(#f1mntqp3ehi4d8)" rx="8" ry="8" style="stroke: #A80036; stroke-width: 2.0;"/><path d="M38,51.4883 L38,78.4883 M25,59.4883 L51,59.4883 M38,78.4883 L25,93.4883 M38,78.4883 L51,93.4883 " fill="none" filter="url(#f1mntqp3ehi4d8)" style="stroke: #A80036; stroke-width: 2.0;"/><text fill="#000000" font-family="sans-serif" font-size="14" lengthAdjust="spacingAndGlyphs" textLength="24" x="23" y="865.8965">FSP</text><ellipse cx="38" cy="878.8496" fill="#FEFECE" filter="url(#f1mntqp3ehi4d8)" rx="8" ry="8" style="stroke: #A80036; stroke-width: 2.0;"/><path d="M38,886.8496 L38,913.8496 M25,894.8496 L51,894.8496 M38,913.8496 L25,928.8496 M38,913.8496 L51,928.8496 " fill="none" filter="url(#f1mntqp3ehi4d8)" style="stroke: #A80036; stroke-width: 2.0;"/><text fill="#000000" font-family="sans-serif" font-size="14" lengthAdjust="spacingAndGlyphs" textLength="163" x="243.5" y="114.0234">Account Lookup Service</text><path d="M307.5,72.4883 L307.5,96.4883 M307.5,84.4883 L324.5,84.4883 " fill="none" filter="url(#f1mntqp3ehi4d8)" style="stroke: #A80036; stroke-width: 2.0;"/><ellipse cx="336.5" cy="84.4883" fill="#FEFECE" filter="url(#f1mntqp3ehi4d8)" rx="12" ry="12" style="stroke: #A80036; stroke-width: 2.0;"/><text fill="#000000" font-family="sans-serif" font-size="14" lengthAdjust="spacingAndGlyphs" textLength="163" x="243.5" y="865.8965">Account Lookup Service</text><path d="M307.5,872.8496 L307.5,896.8496 M307.5,884.8496 L324.5,884.8496 " fill="none" filter="url(#f1mntqp3ehi4d8)" style="stroke: #A80036; stroke-width: 2.0;"/><ellipse cx="336.5" cy="884.8496" fill="#FEFECE" filter="url(#f1mntqp3ehi4d8)" rx="12" ry="12" style="stroke: #A80036; stroke-width: 2.0;"/><text fill="#000000" font-family="sans-serif" font-size="14" lengthAdjust="spacingAndGlyphs" textLength="138" x="492" y="114.0234">Participants Handler</text><ellipse cx="564" cy="84.4883" fill="#FEFECE" filter="url(#f1mntqp3ehi4d8)" rx="12" ry="12" style="stroke: #A80036; stroke-width: 2.0;"/><polygon fill="#A80036" points="560,72.4883,566,67.4883,564,72.4883,566,77.4883,560,72.4883" style="stroke: #A80036; stroke-width: 1.0;"/><text fill="#000000" font-family="sans-serif" font-size="14" lengthAdjust="spacingAndGlyphs" textLength="138" x="492" y="865.8965">Participants Handler</text><ellipse cx="564" cy="884.8496" fill="#FEFECE" filter="url(#f1mntqp3ehi4d8)" rx="12" ry="12" style="stroke: #A80036; stroke-width: 2.0;"/><polygon fill="#A80036" points="560,872.8496,566,867.8496,564,872.8496,566,877.8496,560,872.8496" style="stroke: #A80036; stroke-width: 1.0;"/><text fill="#000000" font-family="sans-serif" font-size="14" lengthAdjust="spacingAndGlyphs" textLength="108" x="765" y="114.0234">Participant DAO</text><ellipse cx="822" cy="84.4883" fill="#FEFECE" filter="url(#f1mntqp3ehi4d8)" rx="12" ry="12" style="stroke: #A80036; stroke-width: 2.0;"/><line style="stroke: #A80036; stroke-width: 2.0;" x1="810" x2="834" y1="98.4883" y2="98.4883"/><text fill="#000000" font-family="sans-serif" font-size="14" lengthAdjust="spacingAndGlyphs" textLength="108" x="765" y="865.8965">Participant DAO</text><ellipse cx="822" cy="884.8496" fill="#FEFECE" filter="url(#f1mntqp3ehi4d8)" rx="12" ry="12" style="stroke: #A80036; stroke-width: 2.0;"/><line style="stroke: #A80036; stroke-width: 2.0;" x1="810" x2="834" y1="898.8496" y2="898.8496"/><text fill="#000000" font-family="sans-serif" font-size="14" lengthAdjust="spacingAndGlyphs" textLength="168" x="1000" y="114.0234">Central Ledger Database</text><path d="M1069,64.4883 C1069,54.4883 1087,54.4883 1087,54.4883 C1087,54.4883 1105,54.4883 1105,64.4883 L1105,90.4883 C1105,100.4883 1087,100.4883 1087,100.4883 C1087,100.4883 1069,100.4883 1069,90.4883 L1069,64.4883 " fill="#FEFECE" filter="url(#f1mntqp3ehi4d8)" style="stroke: #000000; stroke-width: 1.5;"/><path d="M1069,64.4883 C1069,74.4883 1087,74.4883 1087,74.4883 C1087,74.4883 1105,74.4883 1105,64.4883 " fill="none" style="stroke: #000000; stroke-width: 1.5;"/><text fill="#000000" font-family="sans-serif" font-size="14" lengthAdjust="spacingAndGlyphs" textLength="168" x="1000" y="865.8965">Central Ledger Database</text><path d="M1069,878.8496 C1069,868.8496 1087,868.8496 1087,868.8496 C1087,868.8496 1105,868.8496 1105,878.8496 L1105,904.8496 C1105,914.8496 1087,914.8496 1087,914.8496 C1087,914.8496 1069,914.8496 1069,904.8496 L1069,878.8496 " fill="#FEFECE" filter="url(#f1mntqp3ehi4d8)" style="stroke: #000000; stroke-width: 1.5;"/><path d="M1069,878.8496 C1069,888.8496 1087,888.8496 1087,888.8496 C1087,888.8496 1105,888.8496 1105,878.8496 " fill="none" style="stroke: #000000; stroke-width: 1.5;"/><text fill="#000000" font-family="sans-serif" font-size="14" lengthAdjust="spacingAndGlyphs" textLength="123" x="1184" y="114.0234">Pathfinder Service</text><ellipse cx="1248.5" cy="84.4883" fill="#FEFECE" filter="url(#f1mntqp3ehi4d8)" rx="12" ry="12" style="stroke: #A80036; stroke-width: 2.0;"/><line style="stroke: #A80036; stroke-width: 2.0;" x1="1236.5" x2="1260.5" y1="98.4883" y2="98.4883"/><text fill="#000000" font-family="sans-serif" font-size="14" lengthAdjust="spacingAndGlyphs" textLength="123" x="1184" y="865.8965">Pathfinder Service</text><ellipse cx="1248.5" cy="884.8496" fill="#FEFECE" filter="url(#f1mntqp3ehi4d8)" rx="12" ry="12" style="stroke: #A80036; stroke-width: 2.0;"/><line style="stroke: #A80036; stroke-width: 2.0;" x1="1236.5" x2="1260.5" y1="898.8496" y2="898.8496"/><text fill="#000000" font-family="sans-serif" font-size="14" lengthAdjust="spacingAndGlyphs" textLength="115" x="1541" y="114.0234">GSMA Pathfinder</text><ellipse cx="1601.5" cy="43.4883" fill="#FEFECE" filter="url(#f1mntqp3ehi4d8)" rx="8" ry="8" style="stroke: #A80036; stroke-width: 2.0;"/><path d="M1601.5,51.4883 L1601.5,78.4883 M1588.5,59.4883 L1614.5,59.4883 M1601.5,78.4883 L1588.5,93.4883 M1601.5,78.4883 L1614.5,93.4883 " fill="none" filter="url(#f1mntqp3ehi4d8)" style="stroke: #A80036; stroke-width: 2.0;"/><text fill="#000000" font-family="sans-serif" font-size="14" lengthAdjust="spacingAndGlyphs" textLength="115" x="1541" y="865.8965">GSMA Pathfinder</text><ellipse cx="1601.5" cy="878.8496" fill="#FEFECE" filter="url(#f1mntqp3ehi4d8)" rx="8" ry="8" style="stroke: #A80036; stroke-width: 2.0;"/><path d="M1601.5,886.8496 L1601.5,913.8496 M1588.5,894.8496 L1614.5,894.8496 M1601.5,913.8496 L1588.5,928.8496 M1601.5,913.8496 L1614.5,928.8496 " fill="none" filter="url(#f1mntqp3ehi4d8)" style="stroke: #A80036; stroke-width: 2.0;"/><rect fill="#FFFFFF" filter="url(#f1mntqp3ehi4d8)" height="701.0742" style="stroke: #A80036; stroke-width: 1.0;" width="10" x="33" y="126.9766"/><rect fill="#FFFFFF" filter="url(#f1mntqp3ehi4d8)" height="640.7637" style="stroke: #A80036; stroke-width: 1.0;" width="10" x="323" y="187.2871"/><rect fill="#FFFFFF" filter="url(#f1mntqp3ehi4d8)" height="566.832" style="stroke: #A80036; stroke-width: 1.0;" width="10" x="559" y="231.9082"/><rect fill="#FFFFFF" filter="url(#f1mntqp3ehi4d8)" height="137.1738" style="stroke: #A80036; stroke-width: 1.0;" width="10" x="817" y="333.8398"/><rect fill="#FFFFFF" filter="url(#f1mntqp3ehi4d8)" height="136.8633" style="stroke: #A80036; stroke-width: 1.0;" width="10" x="817" y="632.5664"/><rect fill="#FFFFFF" filter="url(#f1mntqp3ehi4d8)" height="62.9316" style="stroke: #A80036; stroke-width: 1.0;" width="10" x="1082" y="378.7715"/><rect fill="#FFFFFF" filter="url(#f1mntqp3ehi4d8)" height="62.9316" style="stroke: #A80036; stroke-width: 1.0;" width="10" x="1082" y="677.1875"/><rect fill="#FFFFFF" filter="url(#f1mntqp3ehi4d8)" height="87.9316" style="stroke: #A80036; stroke-width: 1.0;" width="10" x="1243.5" y="500.3242"/><rect fill="#FFFFFF" filter="url(#f1mntqp3ehi4d8)" height="29.3105" style="stroke: #A80036; stroke-width: 1.0;" width="10" x="1596.5" y="529.6348"/><path d="M13,133.9766 L244,133.9766 L244,140.9766 L234,150.9766 L13,150.9766 L13,133.9766 " fill="#EEEEEE" style="stroke: #000000; stroke-width: 1.0;"/><rect fill="none" height="702.3848" style="stroke: #000000; stroke-width: 2.0;" width="1659" x="13" y="133.9766"/><text fill="#000000" font-family="sans-serif" font-size="13" font-weight="bold" lengthAdjust="spacingAndGlyphs" textLength="186" x="28" y="147.5449">Get Participant's FSP Details</text><polygon fill="#A80036" points="311,183.2871,321,187.2871,311,191.2871,315,187.2871" style="stroke: #A80036; stroke-width: 1.0;"/><line style="stroke: #A80036; stroke-width: 1.0;" x1="43" x2="317" y1="187.2871" y2="187.2871"/><text fill="#000000" font-family="sans-serif" font-size="13" font-weight="bold" lengthAdjust="spacingAndGlyphs" textLength="9" x="50" y="175.5107">1</text><text fill="#000000" font-family="sans-serif" font-size="13" lengthAdjust="spacingAndGlyphs" textLength="244" x="63" y="167.8555">Request to get participant's FSP details</text><text fill="#000000" font-family="sans-serif" font-size="13" lengthAdjust="spacingAndGlyphs" textLength="196" x="63" y="183.166">GET - /participants/{Type}/{ID}</text><polygon fill="#A80036" points="547,227.9082,557,231.9082,547,235.9082,551,231.9082" style="stroke: #A80036; stroke-width: 1.0;"/><line style="stroke: #A80036; stroke-width: 1.0;" x1="333" x2="553" y1="231.9082" y2="231.9082"/><text fill="#000000" font-family="sans-serif" font-size="13" font-weight="bold" lengthAdjust="spacingAndGlyphs" textLength="9" x="340" y="220.1318">2</text><text fill="#000000" font-family="sans-serif" font-size="13" lengthAdjust="spacingAndGlyphs" textLength="190" x="353" y="212.4766">Get Participant by ID and Type</text><text fill="#000000" font-family="sans-serif" font-size="13" lengthAdjust="spacingAndGlyphs" textLength="165" x="353" y="227.7871">(ParticipantsByTypeAndID)</text><line style="stroke: #A80036; stroke-width: 1.0;" x1="569" x2="611" y1="261.8398" y2="261.8398"/><line style="stroke: #A80036; stroke-width: 1.0;" x1="611" x2="611" y1="261.8398" y2="274.8398"/><line style="stroke: #A80036; stroke-width: 1.0;" x1="570" x2="611" y1="274.8398" y2="274.8398"/><polygon fill="#A80036" points="580,270.8398,570,274.8398,580,278.8398,576,274.8398" style="stroke: #A80036; stroke-width: 1.0;"/><text fill="#000000" font-family="sans-serif" font-size="13" font-weight="bold" lengthAdjust="spacingAndGlyphs" textLength="9" x="576" y="257.0977">3</text><text fill="#000000" font-family="sans-serif" font-size="13" lengthAdjust="spacingAndGlyphs" textLength="103" x="589" y="257.0977">Validate MSISDN</text><polygon fill="#A80036" points="805,329.8398,815,333.8398,805,337.8398,809,333.8398" style="stroke: #A80036; stroke-width: 1.0;"/><line style="stroke: #A80036; stroke-width: 1.0;" x1="569" x2="811" y1="333.8398" y2="333.8398"/><text fill="#000000" font-family="sans-serif" font-size="13" font-weight="bold" lengthAdjust="spacingAndGlyphs" textLength="9" x="576" y="314.7188">4</text><text fill="#000000" font-family="sans-serif" font-size="13" lengthAdjust="spacingAndGlyphs" textLength="197" x="589" y="299.4082">Fetch Source Participant details</text><text fill="#000000" font-family="sans-serif" font-size="13" lengthAdjust="spacingAndGlyphs" textLength="216" x="589" y="314.7188">(handleMSISDNParticipantRequest)</text><text fill="#FF0000" font-family="sans-serif" font-size="13" font-weight="bold" lengthAdjust="spacingAndGlyphs" textLength="73" x="589" y="330.0293">Error code:</text><text fill="#FF0000" font-family="sans-serif" font-size="13" lengthAdjust="spacingAndGlyphs" textLength="32" x="666" y="330.0293">3200</text><polygon fill="#A80036" points="1070,374.7715,1080,378.7715,1070,382.7715,1074,378.7715" style="stroke: #A80036; stroke-width: 1.0;"/><line style="stroke: #A80036; stroke-width: 1.0;" x1="827" x2="1076" y1="378.7715" y2="378.7715"/><text fill="#000000" font-family="sans-serif" font-size="13" font-weight="bold" lengthAdjust="spacingAndGlyphs" textLength="9" x="834" y="366.9951">5</text><text fill="#000000" font-family="sans-serif" font-size="13" lengthAdjust="spacingAndGlyphs" textLength="211" x="847" y="359.3398">Fetch Source Participant Endpoint</text><text fill="#000000" font-family="sans-serif" font-size="13" lengthAdjust="spacingAndGlyphs" textLength="201" x="847" y="374.6504">(getParticipantEndpointByName)</text><polygon fill="#FFFFE0" filter="url(#f1mntqp3ehi4d8)" points="1023,392.3926,1151,392.3926,1161,403.3926,1151,415.3926,1023,415.3926,1013,403.3926,1023,392.3926" style="stroke: #A80036; stroke-width: 1.0;"/><text fill="#000000" font-family="sans-serif" font-size="13" lengthAdjust="spacingAndGlyphs" textLength="124" x="1025" y="408.9609">participantEndpoint</text><polygon fill="#A80036" points="838,437.7031,828,441.7031,838,445.7031,834,441.7031" style="stroke: #A80036; stroke-width: 1.0;"/><line style="stroke: #A80036; stroke-width: 1.0; stroke-dasharray: 2.0,2.0;" x1="832" x2="1086" y1="441.7031" y2="441.7031"/><text fill="#000000" font-family="sans-serif" font-size="13" font-weight="bold" lengthAdjust="spacingAndGlyphs" textLength="9" x="844" y="437.2715">6</text><text fill="#000000" font-family="sans-serif" font-size="13" lengthAdjust="spacingAndGlyphs" textLength="172" x="857" y="437.2715">Return Participant Endpoint</text><polygon fill="#A80036" points="580,467.0137,570,471.0137,580,475.0137,576,471.0137" style="stroke: #A80036; stroke-width: 1.0;"/><line style="stroke: #A80036; stroke-width: 1.0; stroke-dasharray: 2.0,2.0;" x1="574" x2="821" y1="471.0137" y2="471.0137"/><text fill="#000000" font-family="sans-serif" font-size="13" font-weight="bold" lengthAdjust="spacingAndGlyphs" textLength="9" x="586" y="466.582">7</text><text fill="#000000" font-family="sans-serif" font-size="13" lengthAdjust="spacingAndGlyphs" textLength="172" x="599" y="466.582">Return Participant Endpoint</text><polygon fill="#A80036" points="1231.5,496.3242,1241.5,500.3242,1231.5,504.3242,1235.5,500.3242" style="stroke: #A80036; stroke-width: 1.0;"/><line style="stroke: #A80036; stroke-width: 1.0;" x1="569" x2="1237.5" y1="500.3242" y2="500.3242"/><text fill="#000000" font-family="sans-serif" font-size="13" font-weight="bold" lengthAdjust="spacingAndGlyphs" textLength="9" x="576" y="495.8926">8</text><text fill="#000000" font-family="sans-serif" font-size="13" lengthAdjust="spacingAndGlyphs" textLength="126" x="589" y="495.8926">Query Participant ID</text><polygon fill="#A80036" points="1584.5,525.6348,1594.5,529.6348,1584.5,533.6348,1588.5,529.6348" style="stroke: #A80036; stroke-width: 1.0;"/><line style="stroke: #A80036; stroke-width: 1.0;" x1="1253.5" x2="1590.5" y1="529.6348" y2="529.6348"/><text fill="#000000" font-family="sans-serif" font-size="13" font-weight="bold" lengthAdjust="spacingAndGlyphs" textLength="9" x="1260.5" y="525.2031">9</text><text fill="#000000" font-family="sans-serif" font-size="13" lengthAdjust="spacingAndGlyphs" textLength="108" x="1273.5" y="525.2031">Query Participant</text><polygon fill="#A80036" points="1264.5,554.9453,1254.5,558.9453,1264.5,562.9453,1260.5,558.9453" style="stroke: #A80036; stroke-width: 1.0;"/><line style="stroke: #A80036; stroke-width: 1.0;" x1="1258.5" x2="1600.5" y1="558.9453" y2="558.9453"/><text fill="#000000" font-family="sans-serif" font-size="13" font-weight="bold" lengthAdjust="spacingAndGlyphs" textLength="18" x="1270.5" y="554.5137">10</text><text fill="#000000" font-family="sans-serif" font-size="13" lengthAdjust="spacingAndGlyphs" textLength="297" x="1292.5" y="554.5137">Return Mobile Country Code and Network Code</text><polygon fill="#A80036" points="580,584.2559,570,588.2559,580,592.2559,576,588.2559" style="stroke: #A80036; stroke-width: 1.0;"/><line style="stroke: #A80036; stroke-width: 1.0;" x1="574" x2="1247.5" y1="588.2559" y2="588.2559"/><text fill="#000000" font-family="sans-serif" font-size="13" font-weight="bold" lengthAdjust="spacingAndGlyphs" textLength="18" x="586" y="583.8242">11</text><text fill="#000000" font-family="sans-serif" font-size="13" lengthAdjust="spacingAndGlyphs" textLength="121" x="608" y="583.8242">Return MCC &amp; MNC</text><polygon fill="#A80036" points="805,628.5664,815,632.5664,805,636.5664,809,632.5664" style="stroke: #A80036; stroke-width: 1.0;"/><line style="stroke: #A80036; stroke-width: 1.0;" x1="569" x2="811" y1="632.5664" y2="632.5664"/><text fill="#000000" font-family="sans-serif" font-size="13" font-weight="bold" lengthAdjust="spacingAndGlyphs" textLength="18" x="576" y="620.79">12</text><text fill="#000000" font-family="sans-serif" font-size="13" lengthAdjust="spacingAndGlyphs" textLength="145" x="598" y="613.1348">Fetch Participant Name</text><text fill="#FF0000" font-family="sans-serif" font-size="13" font-weight="bold" lengthAdjust="spacingAndGlyphs" textLength="73" x="598" y="628.4453">Error code:</text><text fill="#FF0000" font-family="sans-serif" font-size="13" lengthAdjust="spacingAndGlyphs" textLength="32" x="675" y="628.4453">3200</text><polygon fill="#A80036" points="1070,673.1875,1080,677.1875,1070,681.1875,1074,677.1875" style="stroke: #A80036; stroke-width: 1.0;"/><line style="stroke: #A80036; stroke-width: 1.0;" x1="827" x2="1076" y1="677.1875" y2="677.1875"/><text fill="#000000" font-family="sans-serif" font-size="13" font-weight="bold" lengthAdjust="spacingAndGlyphs" textLength="18" x="834" y="665.4111">13</text><text fill="#000000" font-family="sans-serif" font-size="13" lengthAdjust="spacingAndGlyphs" textLength="145" x="856" y="657.7559">Fetch Participant Name</text><text fill="#000000" font-family="sans-serif" font-size="13" lengthAdjust="spacingAndGlyphs" textLength="214" x="856" y="673.0664">(getParticipantNameFromMccMnc)</text><polygon fill="#FFFFE0" filter="url(#f1mntqp3ehi4d8)" points="1037,690.8086,1136,690.8086,1146,701.8086,1136,713.8086,1037,713.8086,1027,701.8086,1037,690.8086" style="stroke: #A80036; stroke-width: 1.0;"/><text fill="#000000" font-family="sans-serif" font-size="13" lengthAdjust="spacingAndGlyphs" textLength="95" x="1039" y="707.377">participantMno</text><polygon fill="#A80036" points="838,736.1191,828,740.1191,838,744.1191,834,740.1191" style="stroke: #A80036; stroke-width: 1.0;"/><line style="stroke: #A80036; stroke-width: 1.0; stroke-dasharray: 2.0,2.0;" x1="832" x2="1086" y1="740.1191" y2="740.1191"/><text fill="#000000" font-family="sans-serif" font-size="13" font-weight="bold" lengthAdjust="spacingAndGlyphs" textLength="18" x="844" y="735.6875">14</text><text fill="#000000" font-family="sans-serif" font-size="13" lengthAdjust="spacingAndGlyphs" textLength="152" x="866" y="735.6875">Return Participant Name</text><polygon fill="#A80036" points="580,765.4297,570,769.4297,580,773.4297,576,769.4297" style="stroke: #A80036; stroke-width: 1.0;"/><line style="stroke: #A80036; stroke-width: 1.0; stroke-dasharray: 2.0,2.0;" x1="574" x2="821" y1="769.4297" y2="769.4297"/><text fill="#000000" font-family="sans-serif" font-size="13" font-weight="bold" lengthAdjust="spacingAndGlyphs" textLength="18" x="586" y="764.998">15</text><text fill="#000000" font-family="sans-serif" font-size="13" lengthAdjust="spacingAndGlyphs" textLength="152" x="608" y="764.998">Return Participant Name</text><polygon fill="#A80036" points="344,794.7402,334,798.7402,344,802.7402,340,798.7402" style="stroke: #A80036; stroke-width: 1.0;"/><line style="stroke: #A80036; stroke-width: 1.0;" x1="338" x2="563" y1="798.7402" y2="798.7402"/><text fill="#000000" font-family="sans-serif" font-size="13" font-weight="bold" lengthAdjust="spacingAndGlyphs" textLength="18" x="350" y="794.3086">16</text><text fill="#000000" font-family="sans-serif" font-size="13" lengthAdjust="spacingAndGlyphs" textLength="152" x="372" y="794.3086">Return Participant Name</text><polygon fill="#A80036" points="49,824.0508,39,828.0508,49,832.0508,45,828.0508" style="stroke: #A80036; stroke-width: 1.0;"/><line style="stroke: #A80036; stroke-width: 1.0; stroke-dasharray: 2.0,2.0;" x1="43" x2="327" y1="828.0508" y2="828.0508"/><text fill="#000000" font-family="sans-serif" font-size="13" font-weight="bold" lengthAdjust="spacingAndGlyphs" textLength="18" x="55" y="823.6191">17</text><text fill="#000000" font-family="sans-serif" font-size="13" lengthAdjust="spacingAndGlyphs" textLength="232" x="77" y="823.6191">Return Result to Participant Endpoint</text><!--
@startuml
title 7.1.0 Get Participant Details

autonumber

actor "FSP" as FSP
boundary "Account Lookup Service" as ALS
control "Participants Handler" as PARTICIPANT_HANDLER
entity "Account Lookup Service API" as ALS
entity "Participant DAO" as PARTICIPANT_DAO
database "Central Ledger Database" as DB
entity "Pathfinder Service" as PATHFINDER_SERVICE
actor "GSMA Pathfinder" as PATHFINDER

box "Account Lookup Service" #LightYellow
participant ALS
participant PARTICIPANT_HANDLER
participant PARTICIPANT_DAO
participant DB
end box

box "Pathfinder Library" #LightBlue
participant PATHFINDER_SERVICE
end box

participant PATHFINDER


activate FSP
group Get Participant's FSP Details
    FSP -> ALS: Request to get participant's FSP details \nGET - /participants/{Type}/{ID}
    activate ALS
    ALS -> PARTICIPANT_HANDLER: Get Participant by ID and Type \n(ParticipantsByTypeAndID)
    activate PARTICIPANT_HANDLER
    PARTICIPANT_HANDLER ->PARTICIPANT_HANDLER: Validate MSISDN
    PARTICIPANT_HANDLER ->PARTICIPANT_DAO: Fetch Source Participant details \n(handleMSISDNParticipantRequest)\n<color #FF0000><b>Error code:</b> 3200</color>

    activate PARTICIPANT_DAO
    PARTICIPANT_DAO -> DB: Fetch Source Participant Endpoint \n(getParticipantEndpointByName)
    activate DB
    hnote over DB #lightyellow
        participantEndpoint
    end note
    DB - -> PARTICIPANT_DAO: Return Participant Endpoint
    deactivate DB
    PARTICIPANT_DAO - -> PARTICIPANT_HANDLER: Return Participant Endpoint
    deactivate PARTICIPANT_DAO
    PARTICIPANT_HANDLER -> PATHFINDER_SERVICE: Query Participant ID
    activate PATHFINDER_SERVICE
    PATHFINDER_SERVICE -> PATHFINDER: Query Participant
    activate PATHFINDER
    PATHFINDER -> PATHFINDER_SERVICE: Return Mobile Country Code and Network Code
    deactivate PATHFINDER
    PATHFINDER_SERVICE -> PARTICIPANT_HANDLER: Return MCC & MNC
    deactivate PATHFINDER_SERVICE

    PARTICIPANT_HANDLER ->PARTICIPANT_DAO: Fetch Participant Name\n<color #FF0000><b>Error code:</b> 3200</color>
    activate PARTICIPANT_DAO
    PARTICIPANT_DAO -> DB: Fetch Participant Name \n(getParticipantNameFromMccMnc)
    activate DB
    hnote over DB #lightyellow
        participantMno
    end note
    DB - -> PARTICIPANT_DAO: Return Participant Name
    deactivate DB
    PARTICIPANT_DAO - -> PARTICIPANT_HANDLER: Return Participant Name
    deactivate PARTICIPANT_DAO
    PARTICIPANT_HANDLER -> ALS: Return Participant Name
    deactivate PARTICIPANT_HANDLER
    ALS - ->FSP: Return Result to Participant Endpoint
    deactivate ALS
    deactivate FSP
end
@enduml

PlantUML version 1.2018.01(Sun Jan 28 20:08:22 SAST 2018)
(GPL source distribution)
Java Runtime: OpenJDK Runtime Environment
JVM: OpenJDK 64-Bit Server VM
Java Version: 1.8.0_152-release-1136-b20
Operating System: Mac OS X
OS Version: 10.14.3
Default Encoding: UTF-8
Language: en
Country: ZA
--></g></svg>