<?xml version="1.0" encoding="UTF-8" standalone="no"?><svg xmlns="http://www.w3.org/2000/svg" xmlns:xlink="http://www.w3.org/1999/xlink" contentScriptType="application/ecmascript" contentStyleType="text/css" height="2121px" preserveAspectRatio="none" style="width:1867px;height:2121px;" version="1.1" viewBox="0 0 1867 2121" width="1867px" zoomAndPan="magnify"><defs><filter height="300%" id="ffdzfisa7fzhl" width="300%" x="-1" y="-1"><feGaussianBlur result="blurOut" stdDeviation="2.0"/><feColorMatrix in="blurOut" result="blurOut2" type="matrix" values="0 0 0 0 0 0 0 0 0 0 0 0 0 0 0 0 0 0 .4 0"/><feOffset dx="4.0" dy="4.0" in="blurOut2" result="blurOut3"/><feBlend in="SourceGraphic" in2="blurOut3" mode="normal"/></filter></defs><g><text fill="#000000" font-family="sans-serif" font-size="14" font-weight="bold" lengthAdjust="spacingAndGlyphs" textLength="405" x="732" y="22.9951">1.0.0 Create initial postion and limits for participant</text><rect fill="#FFFFE0" height="2075.7031" style="stroke: #A80036; stroke-width: 1.0;" width="1110" x="697" y="34.2969"/><text fill="#000000" font-family="sans-serif" font-size="13" font-weight="bold" lengthAdjust="spacingAndGlyphs" textLength="119" x="1192.5" y="46.3638">Central Services</text><rect fill="#FFFFFF" filter="url(#ffdzfisa7fzhl)" height="1880.1094" style="stroke: #A80036; stroke-width: 1.0;" width="10" x="107" y="126.5938"/><rect fill="#FFFFFF" filter="url(#ffdzfisa7fzhl)" height="1834.8438" style="stroke: #A80036; stroke-width: 1.0;" width="10" x="763" y="171.8594"/><rect fill="#FFFFFF" filter="url(#ffdzfisa7fzhl)" height="860.9844" style="stroke: #A80036; stroke-width: 1.0;" width="10" x="1098" y="361.1875"/><rect fill="#FFFFFF" filter="url(#ffdzfisa7fzhl)" height="711.2656" style="stroke: #A80036; stroke-width: 1.0;" width="10" x="1098" y="1251.3047"/><rect fill="#FFFFFF" filter="url(#ffdzfisa7fzhl)" height="135.6641" style="stroke: #A80036; stroke-width: 1.0;" width="10" x="1449" y="405.4531"/><rect fill="#FFFFFF" filter="url(#ffdzfisa7fzhl)" height="120.5313" style="stroke: #A80036; stroke-width: 1.0;" width="10" x="1449" y="636.5156"/><rect fill="#FFFFFF" filter="url(#ffdzfisa7fzhl)" height="120.5313" style="stroke: #A80036; stroke-width: 1.0;" width="10" x="1449" y="786.1797"/><rect fill="#FFFFFF" filter="url(#ffdzfisa7fzhl)" height="136.5313" style="stroke: #A80036; stroke-width: 1.0;" width="10" x="1449" y="1032.375"/><rect fill="#FFFFFF" filter="url(#ffdzfisa7fzhl)" height="77.3984" style="stroke: #A80036; stroke-width: 1.0;" width="10" x="1750" y="434.5859"/><rect fill="#FFFFFF" filter="url(#ffdzfisa7fzhl)" height="62.2656" style="stroke: #A80036; stroke-width: 1.0;" width="10" x="1750" y="665.6484"/><rect fill="#FFFFFF" filter="url(#ffdzfisa7fzhl)" height="62.2656" style="stroke: #A80036; stroke-width: 1.0;" width="10" x="1750" y="815.3125"/><rect fill="#FFFFFF" filter="url(#ffdzfisa7fzhl)" height="30" style="stroke: #A80036; stroke-width: 1.0;" width="10" x="1750" y="1061.5078"/><rect fill="#FFFFFF" filter="url(#ffdzfisa7fzhl)" height="1873.1094" style="stroke: #000000; stroke-width: 2.0;" width="1843" x="13" y="133.5938"/><rect fill="#FFFFFF" filter="url(#ffdzfisa7fzhl)" height="1401.4531" style="stroke: #000000; stroke-width: 2.0;" width="1823" x="23" y="598.25"/><rect fill="#FFFFFF" filter="url(#ffdzfisa7fzhl)" height="786.7266" style="stroke: #000000; stroke-width: 2.0;" width="1803" x="33" y="963.8438"/><rect fill="#FFFFFF" filter="url(#ffdzfisa7fzhl)" height="317.5313" style="stroke: #000000; stroke-width: 2.0;" width="1329" x="43" y="1183.9063"/><rect fill="#FFFFFF" height="242.1328" style="stroke: none; stroke-width: 1.0;" width="1329" x="43" y="1259.3047"/><rect fill="#FFFFFF" height="242.1328" style="stroke: none; stroke-width: 1.0;" width="1803" x="33" y="1508.4375"/><rect fill="#FFFFFF" height="242.1328" style="stroke: none; stroke-width: 1.0;" width="1823" x="23" y="1757.5703"/><line style="stroke: #A80036; stroke-width: 1.0; stroke-dasharray: 5.0,5.0;" x1="112" x2="112" y1="116.5938" y2="2023.7031"/><line style="stroke: #A80036; stroke-width: 1.0; stroke-dasharray: 5.0,5.0;" x1="768" x2="768" y1="116.5938" y2="2023.7031"/><line style="stroke: #A80036; stroke-width: 1.0; stroke-dasharray: 5.0,5.0;" x1="1102.5" x2="1102.5" y1="116.5938" y2="2023.7031"/><line style="stroke: #A80036; stroke-width: 1.0; stroke-dasharray: 5.0,5.0;" x1="1454" x2="1454" y1="116.5938" y2="2023.7031"/><line style="stroke: #A80036; stroke-width: 1.0; stroke-dasharray: 5.0,5.0;" x1="1755" x2="1755" y1="116.5938" y2="2023.7031"/><text fill="#000000" font-family="sans-serif" font-size="14" lengthAdjust="spacingAndGlyphs" textLength="112" x="53" y="113.292">HUB OPERATOR</text><ellipse cx="112" cy="43.2969" fill="#FEFECE" filter="url(#ffdzfisa7fzhl)" rx="8" ry="8" style="stroke: #A80036; stroke-width: 2.0;"/><path d="M112,51.2969 L112,78.2969 M99,59.2969 L125,59.2969 M112,78.2969 L99,93.2969 M112,78.2969 L125,93.2969 " fill="none" filter="url(#ffdzfisa7fzhl)" style="stroke: #A80036; stroke-width: 2.0;"/><text fill="#000000" font-family="sans-serif" font-size="14" lengthAdjust="spacingAndGlyphs" textLength="112" x="53" y="2035.6982">HUB OPERATOR</text><ellipse cx="112" cy="2049" fill="#FEFECE" filter="url(#ffdzfisa7fzhl)" rx="8" ry="8" style="stroke: #A80036; stroke-width: 2.0;"/><path d="M112,2057 L112,2084 M99,2065 L125,2065 M112,2084 L99,2099 M112,2084 L125,2099 " fill="none" filter="url(#ffdzfisa7fzhl)" style="stroke: #A80036; stroke-width: 2.0;"/><text fill="#000000" font-family="sans-serif" font-size="14" lengthAdjust="spacingAndGlyphs" textLength="128" x="701" y="113.292">Central Service API</text><path d="M747.5,72.2969 L747.5,96.2969 M747.5,84.2969 L764.5,84.2969 " fill="none" filter="url(#ffdzfisa7fzhl)" style="stroke: #A80036; stroke-width: 2.0;"/><ellipse cx="776.5" cy="84.2969" fill="#FEFECE" filter="url(#ffdzfisa7fzhl)" rx="12" ry="12" style="stroke: #A80036; stroke-width: 2.0;"/><text fill="#000000" font-family="sans-serif" font-size="14" lengthAdjust="spacingAndGlyphs" textLength="128" x="701" y="2035.6982">Central Service API</text><path d="M747.5,2043 L747.5,2067 M747.5,2055 L764.5,2055 " fill="none" filter="url(#ffdzfisa7fzhl)" style="stroke: #A80036; stroke-width: 2.0;"/><ellipse cx="776.5" cy="2055" fill="#FEFECE" filter="url(#ffdzfisa7fzhl)" rx="12" ry="12" style="stroke: #A80036; stroke-width: 2.0;"/><text fill="#000000" font-family="sans-serif" font-size="14" lengthAdjust="spacingAndGlyphs" textLength="129" x="1035.5" y="113.292">Participant Handler</text><ellipse cx="1103" cy="84.2969" fill="#FEFECE" filter="url(#ffdzfisa7fzhl)" rx="12" ry="12" style="stroke: #A80036; stroke-width: 2.0;"/><polygon fill="#A80036" points="1099,72.2969,1105,67.2969,1103,72.2969,1105,77.2969,1099,72.2969" style="stroke: #A80036; stroke-width: 1.0;"/><text fill="#000000" font-family="sans-serif" font-size="14" lengthAdjust="spacingAndGlyphs" textLength="129" x="1035.5" y="2035.6982">Participant Handler</text><ellipse cx="1103" cy="2055" fill="#FEFECE" filter="url(#ffdzfisa7fzhl)" rx="12" ry="12" style="stroke: #A80036; stroke-width: 2.0;"/><polygon fill="#A80036" points="1099,2043,1105,2038,1103,2043,1105,2048,1099,2043" style="stroke: #A80036; stroke-width: 1.0;"/><text fill="#000000" font-family="sans-serif" font-size="14" lengthAdjust="spacingAndGlyphs" textLength="132" x="1385" y="113.292">Participant FACADE</text><ellipse cx="1454" cy="84.2969" fill="#FEFECE" filter="url(#ffdzfisa7fzhl)" rx="12" ry="12" style="stroke: #A80036; stroke-width: 2.0;"/><line style="stroke: #A80036; stroke-width: 2.0;" x1="1442" x2="1466" y1="98.2969" y2="98.2969"/><text fill="#000000" font-family="sans-serif" font-size="14" lengthAdjust="spacingAndGlyphs" textLength="132" x="1385" y="2035.6982">Participant FACADE</text><ellipse cx="1454" cy="2055" fill="#FEFECE" filter="url(#ffdzfisa7fzhl)" rx="12" ry="12" style="stroke: #A80036; stroke-width: 2.0;"/><line style="stroke: #A80036; stroke-width: 2.0;" x1="1442" x2="1466" y1="2069" y2="2069"/><text fill="#000000" font-family="sans-serif" font-size="14" lengthAdjust="spacingAndGlyphs" textLength="90" x="1707" y="113.292">Central Store</text><path d="M1737,64.2969 C1737,54.2969 1755,54.2969 1755,54.2969 C1755,54.2969 1773,54.2969 1773,64.2969 L1773,90.2969 C1773,100.2969 1755,100.2969 1755,100.2969 C1755,100.2969 1737,100.2969 1737,90.2969 L1737,64.2969 " fill="#FEFECE" filter="url(#ffdzfisa7fzhl)" style="stroke: #000000; stroke-width: 1.5;"/><path d="M1737,64.2969 C1737,74.2969 1755,74.2969 1755,74.2969 C1755,74.2969 1773,74.2969 1773,64.2969 " fill="none" style="stroke: #000000; stroke-width: 1.5;"/><text fill="#000000" font-family="sans-serif" font-size="14" lengthAdjust="spacingAndGlyphs" textLength="90" x="1707" y="2035.6982">Central Store</text><path d="M1737,2049 C1737,2039 1755,2039 1755,2039 C1755,2039 1773,2039 1773,2049 L1773,2075 C1773,2085 1755,2085 1755,2085 C1755,2085 1737,2085 1737,2075 L1737,2049 " fill="#FEFECE" filter="url(#ffdzfisa7fzhl)" style="stroke: #000000; stroke-width: 1.5;"/><path d="M1737,2049 C1737,2059 1755,2059 1755,2059 C1755,2059 1773,2059 1773,2049 " fill="none" style="stroke: #000000; stroke-width: 1.5;"/><rect fill="#FFFFFF" filter="url(#ffdzfisa7fzhl)" height="1880.1094" style="stroke: #A80036; stroke-width: 1.0;" width="10" x="107" y="126.5938"/><rect fill="#FFFFFF" filter="url(#ffdzfisa7fzhl)" height="1834.8438" style="stroke: #A80036; stroke-width: 1.0;" width="10" x="763" y="171.8594"/><rect fill="#FFFFFF" filter="url(#ffdzfisa7fzhl)" height="860.9844" style="stroke: #A80036; stroke-width: 1.0;" width="10" x="1098" y="361.1875"/><rect fill="#FFFFFF" filter="url(#ffdzfisa7fzhl)" height="711.2656" style="stroke: #A80036; stroke-width: 1.0;" width="10" x="1098" y="1251.3047"/><rect fill="#FFFFFF" filter="url(#ffdzfisa7fzhl)" height="135.6641" style="stroke: #A80036; stroke-width: 1.0;" width="10" x="1449" y="405.4531"/><rect fill="#FFFFFF" filter="url(#ffdzfisa7fzhl)" height="120.5313" style="stroke: #A80036; stroke-width: 1.0;" width="10" x="1449" y="636.5156"/><rect fill="#FFFFFF" filter="url(#ffdzfisa7fzhl)" height="120.5313" style="stroke: #A80036; stroke-width: 1.0;" width="10" x="1449" y="786.1797"/><rect fill="#FFFFFF" filter="url(#ffdzfisa7fzhl)" height="136.5313" style="stroke: #A80036; stroke-width: 1.0;" width="10" x="1449" y="1032.375"/><rect fill="#FFFFFF" filter="url(#ffdzfisa7fzhl)" height="77.3984" style="stroke: #A80036; stroke-width: 1.0;" width="10" x="1750" y="434.5859"/><rect fill="#FFFFFF" filter="url(#ffdzfisa7fzhl)" height="62.2656" style="stroke: #A80036; stroke-width: 1.0;" width="10" x="1750" y="665.6484"/><rect fill="#FFFFFF" filter="url(#ffdzfisa7fzhl)" height="62.2656" style="stroke: #A80036; stroke-width: 1.0;" width="10" x="1750" y="815.3125"/><rect fill="#FFFFFF" filter="url(#ffdzfisa7fzhl)" height="30" style="stroke: #A80036; stroke-width: 1.0;" width="10" x="1750" y="1061.5078"/><path d="M13,133.5938 L294,133.5938 L294,140.5938 L284,150.5938 L13,150.5938 L13,133.5938 " fill="#EEEEEE" style="stroke: #000000; stroke-width: 1.0;"/><rect fill="none" height="1873.1094" style="stroke: #000000; stroke-width: 2.0;" width="1843" x="13" y="133.5938"/><text fill="#000000" font-family="sans-serif" font-size="13" font-weight="bold" lengthAdjust="spacingAndGlyphs" textLength="236" x="28" y="146.6606">Create initial position and limits</text><polygon fill="#A80036" points="751,167.8594,761,171.8594,751,175.8594,755,171.8594" style="stroke: #A80036; stroke-width: 1.0;"/><line style="stroke: #A80036; stroke-width: 1.0;" x1="117" x2="757" y1="171.8594" y2="171.8594"/><text fill="#000000" font-family="sans-serif" font-size="13" font-weight="bold" lengthAdjust="spacingAndGlyphs" textLength="9" x="124" y="166.7935">1</text><text fill="#000000" font-family="sans-serif" font-size="13" lengthAdjust="spacingAndGlyphs" textLength="614" x="137" y="166.7935">Request to Create initial position and limits - POST - /paticipants/{name}/initialPositionAndLimits</text><path d="M122,184.8594 L122,330.8594 L358,330.8594 L358,194.8594 L348,184.8594 L122,184.8594 " fill="#FFFF00" filter="url(#ffdzfisa7fzhl)" style="stroke: #A80036; stroke-width: 1.0;"/><path d="M348,184.8594 L348,194.8594 L358,194.8594 L348,184.8594 " fill="#FFFF00" style="stroke: #A80036; stroke-width: 1.0;"/><text fill="#000000" font-family="sans-serif" font-size="13" lengthAdjust="spacingAndGlyphs" textLength="61" x="128" y="201.9263">Message:</text><text fill="#000000" font-family="sans-serif" font-size="13" lengthAdjust="spacingAndGlyphs" textLength="8" x="128" y="217.0591">{</text><text fill="#000000" font-family="sans-serif" font-size="13" lengthAdjust="spacingAndGlyphs" textLength="155" x="144" y="232.1919">currency: &lt;currencyId&gt;,</text><text fill="#000000" font-family="sans-serif" font-size="13" lengthAdjust="spacingAndGlyphs" textLength="43" x="144" y="247.3247">limit: {</text><text fill="#000000" font-family="sans-serif" font-size="13" lengthAdjust="spacingAndGlyphs" textLength="119" x="160" y="262.4575">type: &lt;limitType&gt;,</text><text fill="#000000" font-family="sans-serif" font-size="13" lengthAdjust="spacingAndGlyphs" textLength="127" x="160" y="277.5903">value: &lt;limitValue&gt;</text><text fill="#000000" font-family="sans-serif" font-size="13" lengthAdjust="spacingAndGlyphs" textLength="12" x="144" y="292.7231">},</text><text fill="#000000" font-family="sans-serif" font-size="13" lengthAdjust="spacingAndGlyphs" textLength="199" x="144" y="307.856">initialPosition: &lt;positionValue&gt;</text><text fill="#000000" font-family="sans-serif" font-size="13" lengthAdjust="spacingAndGlyphs" textLength="8" x="128" y="322.9888">}</text><polygon fill="#A80036" points="1086,357.1875,1096,361.1875,1086,365.1875,1090,361.1875" style="stroke: #A80036; stroke-width: 1.0;"/><line style="stroke: #A80036; stroke-width: 1.0;" x1="773" x2="1092" y1="361.1875" y2="361.1875"/><text fill="#000000" font-family="sans-serif" font-size="13" font-weight="bold" lengthAdjust="spacingAndGlyphs" textLength="9" x="780" y="356.1216">2</text><text fill="#000000" font-family="sans-serif" font-size="13" lengthAdjust="spacingAndGlyphs" textLength="293" x="793" y="356.1216">Create initial position and limits for Participant</text><polygon fill="#A80036" points="1437,401.4531,1447,405.4531,1437,409.4531,1441,405.4531" style="stroke: #A80036; stroke-width: 1.0;"/><line style="stroke: #A80036; stroke-width: 1.0;" x1="1108" x2="1443" y1="405.4531" y2="405.4531"/><text fill="#000000" font-family="sans-serif" font-size="13" font-weight="bold" lengthAdjust="spacingAndGlyphs" textLength="9" x="1115" y="392.8208">3</text><text fill="#000000" font-family="sans-serif" font-size="13" lengthAdjust="spacingAndGlyphs" textLength="187" x="1128" y="385.2544">Fetch Participant/ Currency Id</text><text fill="#FF0000" font-family="sans-serif" font-size="13" font-weight="bold" lengthAdjust="spacingAndGlyphs" textLength="82" x="1128" y="400.3872">Error code:</text><text fill="#FF0000" font-family="sans-serif" font-size="13" lengthAdjust="spacingAndGlyphs" textLength="32" x="1214" y="400.3872">3200</text><polygon fill="#A80036" points="1738,430.5859,1748,434.5859,1738,438.5859,1742,434.5859" style="stroke: #A80036; stroke-width: 1.0;"/><line style="stroke: #A80036; stroke-width: 1.0;" x1="1459" x2="1744" y1="434.5859" y2="434.5859"/><text fill="#000000" font-family="sans-serif" font-size="13" font-weight="bold" lengthAdjust="spacingAndGlyphs" textLength="9" x="1466" y="429.52">4</text><text fill="#000000" font-family="sans-serif" font-size="13" lengthAdjust="spacingAndGlyphs" textLength="183" x="1479" y="429.52">Fetch Participant/Currency Id</text><polygon fill="#FFFFE0" filter="url(#ffdzfisa7fzhl)" points="1690,447.5859,1819,447.5859,1829,466.5859,1819,485.5859,1690,485.5859,1680,466.5859,1690,447.5859" style="stroke: #A80036; stroke-width: 1.0;"/><text fill="#000000" font-family="sans-serif" font-size="13" lengthAdjust="spacingAndGlyphs" textLength="68" x="1692" y="463.6528">participant</text><text fill="#000000" font-family="sans-serif" font-size="13" lengthAdjust="spacingAndGlyphs" textLength="125" x="1692" y="478.7856">participantCurrency</text><polygon fill="#A80036" points="1470,507.9844,1460,511.9844,1470,515.9844,1466,511.9844" style="stroke: #A80036; stroke-width: 1.0;"/><line style="stroke: #A80036; stroke-width: 1.0; stroke-dasharray: 2.0,2.0;" x1="1464" x2="1754" y1="511.9844" y2="511.9844"/><text fill="#000000" font-family="sans-serif" font-size="13" font-weight="bold" lengthAdjust="spacingAndGlyphs" textLength="9" x="1476" y="506.9185">5</text><text fill="#000000" font-family="sans-serif" font-size="13" lengthAdjust="spacingAndGlyphs" textLength="208" x="1489" y="506.9185">Retrieved Participant/Currency Id</text><polygon fill="#A80036" points="1119,537.1172,1109,541.1172,1119,545.1172,1115,541.1172" style="stroke: #A80036; stroke-width: 1.0;"/><line style="stroke: #A80036; stroke-width: 1.0; stroke-dasharray: 2.0,2.0;" x1="1113" x2="1453" y1="541.1172" y2="541.1172"/><text fill="#000000" font-family="sans-serif" font-size="13" font-weight="bold" lengthAdjust="spacingAndGlyphs" textLength="9" x="1125" y="536.0513">6</text><text fill="#000000" font-family="sans-serif" font-size="13" lengthAdjust="spacingAndGlyphs" textLength="190" x="1138" y="536.0513">Return Participant/Currency Id</text><line style="stroke: #A80036; stroke-width: 1.0;" x1="1108" x2="1150" y1="570.25" y2="570.25"/><line style="stroke: #A80036; stroke-width: 1.0;" x1="1150" x2="1150" y1="570.25" y2="583.25"/><line style="stroke: #A80036; stroke-width: 1.0;" x1="1109" x2="1150" y1="583.25" y2="583.25"/><polygon fill="#A80036" points="1119,579.25,1109,583.25,1119,587.25,1115,583.25" style="stroke: #A80036; stroke-width: 1.0;"/><text fill="#000000" font-family="sans-serif" font-size="13" font-weight="bold" lengthAdjust="spacingAndGlyphs" textLength="9" x="1115" y="565.1841">7</text><text fill="#000000" font-family="sans-serif" font-size="13" lengthAdjust="spacingAndGlyphs" textLength="90" x="1128" y="565.1841">Validate DFSP</text><path d="M23,598.25 L87,598.25 L87,605.25 L77,615.25 L23,615.25 L23,598.25 " fill="#EEEEEE" style="stroke: #000000; stroke-width: 1.0;"/><rect fill="none" height="1401.4531" style="stroke: #000000; stroke-width: 2.0;" width="1823" x="23" y="598.25"/><text fill="#000000" font-family="sans-serif" font-size="13" font-weight="bold" lengthAdjust="spacingAndGlyphs" textLength="19" x="38" y="611.3169">alt</text><text fill="#000000" font-family="sans-serif" font-size="11" font-weight="bold" lengthAdjust="spacingAndGlyphs" textLength="202" x="102" y="610.4604">[Validate participant (success)]</text><polygon fill="#A80036" points="1437,632.5156,1447,636.5156,1437,640.5156,1441,636.5156" style="stroke: #A80036; stroke-width: 1.0;"/><line style="stroke: #A80036; stroke-width: 1.0;" x1="1108" x2="1443" y1="636.5156" y2="636.5156"/><text fill="#000000" font-family="sans-serif" font-size="13" font-weight="bold" lengthAdjust="spacingAndGlyphs" textLength="9" x="1115" y="631.4497">8</text><text fill="#000000" font-family="sans-serif" font-size="13" lengthAdjust="spacingAndGlyphs" textLength="227" x="1128" y="631.4497">Fetch limit for participantCurrencyId</text><polygon fill="#A80036" points="1738,661.6484,1748,665.6484,1738,669.6484,1742,665.6484" style="stroke: #A80036; stroke-width: 1.0;"/><line style="stroke: #A80036; stroke-width: 1.0;" x1="1459" x2="1744" y1="665.6484" y2="665.6484"/><text fill="#000000" font-family="sans-serif" font-size="13" font-weight="bold" lengthAdjust="spacingAndGlyphs" textLength="9" x="1466" y="660.5825">9</text><text fill="#000000" font-family="sans-serif" font-size="13" lengthAdjust="spacingAndGlyphs" textLength="227" x="1479" y="660.5825">Fetch limit for participantCurrencyId</text><polygon fill="#FFFFE0" filter="url(#ffdzfisa7fzhl)" points="1703,678.6484,1806,678.6484,1816,689.6484,1806,701.6484,1703,701.6484,1693,689.6484,1703,678.6484" style="stroke: #A80036; stroke-width: 1.0;"/><text fill="#000000" font-family="sans-serif" font-size="13" lengthAdjust="spacingAndGlyphs" textLength="99" x="1705" y="694.7153">participantLimit</text><polygon fill="#A80036" points="1470,723.9141,1460,727.9141,1470,731.9141,1466,727.9141" style="stroke: #A80036; stroke-width: 1.0;"/><line style="stroke: #A80036; stroke-width: 1.0; stroke-dasharray: 2.0,2.0;" x1="1464" x2="1754" y1="727.9141" y2="727.9141"/><text fill="#000000" font-family="sans-serif" font-size="13" font-weight="bold" lengthAdjust="spacingAndGlyphs" textLength="18" x="1476" y="722.8481">10</text><text fill="#000000" font-family="sans-serif" font-size="13" lengthAdjust="spacingAndGlyphs" textLength="163" x="1498" y="722.8481">Retrieved participant limit</text><polygon fill="#A80036" points="1119,753.0469,1109,757.0469,1119,761.0469,1115,757.0469" style="stroke: #A80036; stroke-width: 1.0;"/><line style="stroke: #A80036; stroke-width: 1.0; stroke-dasharray: 2.0,2.0;" x1="1113" x2="1453" y1="757.0469" y2="757.0469"/><text fill="#000000" font-family="sans-serif" font-size="13" font-weight="bold" lengthAdjust="spacingAndGlyphs" textLength="18" x="1125" y="751.981">11</text><text fill="#000000" font-family="sans-serif" font-size="13" lengthAdjust="spacingAndGlyphs" textLength="145" x="1147" y="751.981">Return participant limit</text><polygon fill="#A80036" points="1437,782.1797,1447,786.1797,1437,790.1797,1441,786.1797" style="stroke: #A80036; stroke-width: 1.0;"/><line style="stroke: #A80036; stroke-width: 1.0;" x1="1108" x2="1443" y1="786.1797" y2="786.1797"/><text fill="#000000" font-family="sans-serif" font-size="13" font-weight="bold" lengthAdjust="spacingAndGlyphs" textLength="18" x="1115" y="781.1138">12</text><text fill="#000000" font-family="sans-serif" font-size="13" lengthAdjust="spacingAndGlyphs" textLength="250" x="1137" y="781.1138">Fetch position for participantCurrencyId</text><polygon fill="#A80036" points="1738,811.3125,1748,815.3125,1738,819.3125,1742,815.3125" style="stroke: #A80036; stroke-width: 1.0;"/><line style="stroke: #A80036; stroke-width: 1.0;" x1="1459" x2="1744" y1="815.3125" y2="815.3125"/><text fill="#000000" font-family="sans-serif" font-size="13" font-weight="bold" lengthAdjust="spacingAndGlyphs" textLength="18" x="1466" y="810.2466">13</text><text fill="#000000" font-family="sans-serif" font-size="13" lengthAdjust="spacingAndGlyphs" textLength="250" x="1488" y="810.2466">Fetch position for participantCurrencyId</text><polygon fill="#FFFFE0" filter="url(#ffdzfisa7fzhl)" points="1694,828.3125,1816,828.3125,1826,839.3125,1816,851.3125,1694,851.3125,1684,839.3125,1694,828.3125" style="stroke: #A80036; stroke-width: 1.0;"/><text fill="#000000" font-family="sans-serif" font-size="13" lengthAdjust="spacingAndGlyphs" textLength="118" x="1696" y="844.3794">participantPosition</text><polygon fill="#A80036" points="1470,873.5781,1460,877.5781,1470,881.5781,1466,877.5781" style="stroke: #A80036; stroke-width: 1.0;"/><line style="stroke: #A80036; stroke-width: 1.0; stroke-dasharray: 2.0,2.0;" x1="1464" x2="1754" y1="877.5781" y2="877.5781"/><text fill="#000000" font-family="sans-serif" font-size="13" font-weight="bold" lengthAdjust="spacingAndGlyphs" textLength="18" x="1476" y="872.5122">14</text><text fill="#000000" font-family="sans-serif" font-size="13" lengthAdjust="spacingAndGlyphs" textLength="186" x="1498" y="872.5122">Retrieved participant position</text><polygon fill="#A80036" points="1119,902.7109,1109,906.7109,1119,910.7109,1115,906.7109" style="stroke: #A80036; stroke-width: 1.0;"/><line style="stroke: #A80036; stroke-width: 1.0; stroke-dasharray: 2.0,2.0;" x1="1113" x2="1453" y1="906.7109" y2="906.7109"/><text fill="#000000" font-family="sans-serif" font-size="13" font-weight="bold" lengthAdjust="spacingAndGlyphs" textLength="18" x="1125" y="901.645">15</text><text fill="#000000" font-family="sans-serif" font-size="13" lengthAdjust="spacingAndGlyphs" textLength="168" x="1147" y="901.645">Return participant position</text><line style="stroke: #A80036; stroke-width: 1.0;" x1="1108" x2="1150" y1="935.8438" y2="935.8438"/><line style="stroke: #A80036; stroke-width: 1.0;" x1="1150" x2="1150" y1="935.8438" y2="948.8438"/><line style="stroke: #A80036; stroke-width: 1.0;" x1="1109" x2="1150" y1="948.8438" y2="948.8438"/><polygon fill="#A80036" points="1119,944.8438,1109,948.8438,1119,952.8438,1115,948.8438" style="stroke: #A80036; stroke-width: 1.0;"/><text fill="#000000" font-family="sans-serif" font-size="13" font-weight="bold" lengthAdjust="spacingAndGlyphs" textLength="18" x="1115" y="930.7778">16</text><text fill="#000000" font-family="sans-serif" font-size="13" lengthAdjust="spacingAndGlyphs" textLength="252" x="1137" y="930.7778">Participant position or limit exists check</text><path d="M33,963.8438 L97,963.8438 L97,970.8438 L87,980.8438 L33,980.8438 L33,963.8438 " fill="#EEEEEE" style="stroke: #000000; stroke-width: 1.0;"/><rect fill="none" height="786.7266" style="stroke: #000000; stroke-width: 2.0;" width="1803" x="33" y="963.8438"/><text fill="#000000" font-family="sans-serif" font-size="13" font-weight="bold" lengthAdjust="spacingAndGlyphs" textLength="19" x="48" y="976.9106">alt</text><text fill="#000000" font-family="sans-serif" font-size="11" font-weight="bold" lengthAdjust="spacingAndGlyphs" textLength="271" x="112" y="976.0542">[position or limit does not exist (success)]</text><polygon fill="#A80036" points="1437,1028.375,1447,1032.375,1437,1036.375,1441,1032.375" style="stroke: #A80036; stroke-width: 1.0;"/><line style="stroke: #A80036; stroke-width: 1.0;" x1="1108" x2="1443" y1="1032.375" y2="1032.375"/><text fill="#000000" font-family="sans-serif" font-size="13" font-weight="bold" lengthAdjust="spacingAndGlyphs" textLength="18" x="1115" y="1012.1763">17</text><text fill="#000000" font-family="sans-serif" font-size="13" lengthAdjust="spacingAndGlyphs" textLength="296" x="1137" y="997.0435">create initial position and limits for Participantt</text><text fill="#FF0000" font-family="sans-serif" font-size="13" font-weight="bold" lengthAdjust="spacingAndGlyphs" textLength="82" x="1137" y="1012.1763">Error code:</text><text fill="#FF0000" font-family="sans-serif" font-size="13" lengthAdjust="spacingAndGlyphs" textLength="36" x="1223" y="1012.1763">2003/</text><text fill="#FF0000" font-family="sans-serif" font-size="13" font-weight="bold" lengthAdjust="spacingAndGlyphs" textLength="36" x="1259" y="1012.1763">Msg:</text><text fill="#FF0000" font-family="sans-serif" font-size="13" lengthAdjust="spacingAndGlyphs" textLength="123" x="1299" y="1012.1763">Service unavailable</text><text fill="#000000" font-family="sans-serif" font-size="13" lengthAdjust="spacingAndGlyphs" textLength="0" x="1430" y="1012.1763"/><text fill="#FF0000" font-family="sans-serif" font-size="13" font-weight="bold" lengthAdjust="spacingAndGlyphs" textLength="82" x="1137" y="1027.3091">Error code:</text><text fill="#FF0000" font-family="sans-serif" font-size="13" lengthAdjust="spacingAndGlyphs" textLength="36" x="1223" y="1027.3091">2001/</text><text fill="#FF0000" font-family="sans-serif" font-size="13" font-weight="bold" lengthAdjust="spacingAndGlyphs" textLength="36" x="1259" y="1027.3091">Msg:</text><text fill="#FF0000" font-family="sans-serif" font-size="13" lengthAdjust="spacingAndGlyphs" textLength="129" x="1299" y="1027.3091">Internal Server Error</text><polygon fill="#A80036" points="1738,1057.5078,1748,1061.5078,1738,1065.5078,1742,1061.5078" style="stroke: #A80036; stroke-width: 1.0;"/><line style="stroke: #A80036; stroke-width: 1.0;" x1="1459" x2="1744" y1="1061.5078" y2="1061.5078"/><text fill="#000000" font-family="sans-serif" font-size="13" font-weight="bold" lengthAdjust="spacingAndGlyphs" textLength="18" x="1466" y="1056.4419">18</text><text fill="#000000" font-family="sans-serif" font-size="13" lengthAdjust="spacingAndGlyphs" textLength="207" x="1488" y="1056.4419">Persist Participant limits/position</text><polygon fill="#FFFFE0" filter="url(#ffdzfisa7fzhl)" points="1694,1104.5078,1816,1104.5078,1826,1123.5078,1816,1142.5078,1694,1142.5078,1684,1123.5078,1694,1104.5078" style="stroke: #A80036; stroke-width: 1.0;"/><text fill="#000000" font-family="sans-serif" font-size="13" lengthAdjust="spacingAndGlyphs" textLength="118" x="1696" y="1120.5747">participantPosition</text><text fill="#000000" font-family="sans-serif" font-size="13" lengthAdjust="spacingAndGlyphs" textLength="99" x="1696" y="1135.7075">participantLimit</text><polygon fill="#A80036" points="1119,1164.9063,1109,1168.9063,1119,1172.9063,1115,1168.9063" style="stroke: #A80036; stroke-width: 1.0;"/><line style="stroke: #A80036; stroke-width: 1.0; stroke-dasharray: 2.0,2.0;" x1="1113" x2="1453" y1="1168.9063" y2="1168.9063"/><text fill="#000000" font-family="sans-serif" font-size="13" font-weight="bold" lengthAdjust="spacingAndGlyphs" textLength="18" x="1125" y="1163.8403">19</text><text fill="#000000" font-family="sans-serif" font-size="13" lengthAdjust="spacingAndGlyphs" textLength="86" x="1147" y="1163.8403">Return status</text><path d="M43,1183.9063 L107,1183.9063 L107,1190.9063 L97,1200.9063 L43,1200.9063 L43,1183.9063 " fill="#EEEEEE" style="stroke: #000000; stroke-width: 1.0;"/><rect fill="none" height="317.5313" style="stroke: #000000; stroke-width: 2.0;" width="1329" x="43" y="1183.9063"/><text fill="#000000" font-family="sans-serif" font-size="13" font-weight="bold" lengthAdjust="spacingAndGlyphs" textLength="19" x="58" y="1196.9731">alt</text><text fill="#000000" font-family="sans-serif" font-size="11" font-weight="bold" lengthAdjust="spacingAndGlyphs" textLength="202" x="122" y="1196.1167">[Details persisted successfully]</text><polygon fill="#A80036" points="784,1218.1719,774,1222.1719,784,1226.1719,780,1222.1719" style="stroke: #A80036; stroke-width: 1.0;"/><line style="stroke: #A80036; stroke-width: 1.0; stroke-dasharray: 2.0,2.0;" x1="778" x2="1102" y1="1222.1719" y2="1222.1719"/><text fill="#000000" font-family="sans-serif" font-size="13" font-weight="bold" lengthAdjust="spacingAndGlyphs" textLength="18" x="790" y="1217.106">20</text><text fill="#000000" font-family="sans-serif" font-size="13" lengthAdjust="spacingAndGlyphs" textLength="153" x="812" y="1217.106">Return Status Code 201</text><polygon fill="#A80036" points="128,1247.3047,118,1251.3047,128,1255.3047,124,1251.3047" style="stroke: #A80036; stroke-width: 1.0;"/><line style="stroke: #A80036; stroke-width: 1.0; stroke-dasharray: 2.0,2.0;" x1="122" x2="762" y1="1251.3047" y2="1251.3047"/><text fill="#000000" font-family="sans-serif" font-size="13" font-weight="bold" lengthAdjust="spacingAndGlyphs" textLength="18" x="134" y="1246.2388">21</text><text fill="#000000" font-family="sans-serif" font-size="13" lengthAdjust="spacingAndGlyphs" textLength="153" x="156" y="1246.2388">Return Status Code 201</text><line style="stroke: #000000; stroke-width: 1.0; stroke-dasharray: 2.0,2.0;" x1="43" x2="1372" y1="1260.3047" y2="1260.3047"/><text fill="#000000" font-family="sans-serif" font-size="11" font-weight="bold" lengthAdjust="spacingAndGlyphs" textLength="179" x="48" y="1270.5151">[Details not persisted/Error]</text><path d="M1113,1279.1094 L1113,1304.1094 L1170,1304.1094 L1170,1289.1094 L1160,1279.1094 L1113,1279.1094 " fill="#FF0000" filter="url(#ffdzfisa7fzhl)" style="stroke: #A80036; stroke-width: 1.0;"/><path d="M1160,1279.1094 L1160,1289.1094 L1170,1289.1094 L1160,1279.1094 " fill="#FF0000" style="stroke: #A80036; stroke-width: 1.0;"/><text fill="#000000" font-family="sans-serif" font-size="13" lengthAdjust="spacingAndGlyphs" textLength="36" x="1119" y="1296.1763">Error!</text><path d="M1113,1318.2422 L1113,1433.2422 L1358,1433.2422 L1358,1328.2422 L1348,1318.2422 L1113,1318.2422 " fill="#FFFF00" filter="url(#ffdzfisa7fzhl)" style="stroke: #A80036; stroke-width: 1.0;"/><path d="M1348,1318.2422 L1348,1328.2422 L1358,1328.2422 L1348,1318.2422 " fill="#FFFF00" style="stroke: #A80036; stroke-width: 1.0;"/><text fill="#000000" font-family="sans-serif" font-size="13" lengthAdjust="spacingAndGlyphs" textLength="61" x="1119" y="1335.3091">Message:</text><text fill="#000000" font-family="sans-serif" font-size="13" lengthAdjust="spacingAndGlyphs" textLength="8" x="1135" y="1350.4419">{</text><text fill="#000000" font-family="sans-serif" font-size="13" lengthAdjust="spacingAndGlyphs" textLength="130" x="1151" y="1365.5747">"errorInformation": {</text><text fill="#000000" font-family="sans-serif" font-size="13" lengthAdjust="spacingAndGlyphs" textLength="176" x="1167" y="1380.7075">"errorCode": &lt;Error Code&gt;,</text><text fill="#000000" font-family="sans-serif" font-size="13" lengthAdjust="spacingAndGlyphs" textLength="173" x="1167" y="1395.8403">"errorDescription": &lt;Msg&gt;,</text><text fill="#000000" font-family="sans-serif" font-size="13" lengthAdjust="spacingAndGlyphs" textLength="8" x="1151" y="1410.9731">}</text><text fill="#000000" font-family="sans-serif" font-size="13" lengthAdjust="spacingAndGlyphs" textLength="8" x="1135" y="1426.106">}</text><polygon fill="#A80036" points="784,1460.3047,774,1464.3047,784,1468.3047,780,1464.3047" style="stroke: #A80036; stroke-width: 1.0;"/><line style="stroke: #A80036; stroke-width: 1.0; stroke-dasharray: 2.0,2.0;" x1="778" x2="1097" y1="1464.3047" y2="1464.3047"/><text fill="#000000" font-family="sans-serif" font-size="13" font-weight="bold" lengthAdjust="spacingAndGlyphs" textLength="18" x="790" y="1459.2388">22</text><text fill="#000000" font-family="sans-serif" font-size="13" lengthAdjust="spacingAndGlyphs" textLength="42" x="812" y="1459.2388">Return</text><text fill="#FF0000" font-family="sans-serif" font-size="13" font-weight="bold" lengthAdjust="spacingAndGlyphs" textLength="77" x="858" y="1459.2388">Error code</text><polygon fill="#A80036" points="128,1489.4375,118,1493.4375,128,1497.4375,124,1493.4375" style="stroke: #A80036; stroke-width: 1.0;"/><line style="stroke: #A80036; stroke-width: 1.0; stroke-dasharray: 2.0,2.0;" x1="122" x2="762" y1="1493.4375" y2="1493.4375"/><text fill="#000000" font-family="sans-serif" font-size="13" font-weight="bold" lengthAdjust="spacingAndGlyphs" textLength="18" x="134" y="1488.3716">23</text><text fill="#000000" font-family="sans-serif" font-size="13" lengthAdjust="spacingAndGlyphs" textLength="42" x="156" y="1488.3716">Return</text><text fill="#FF0000" font-family="sans-serif" font-size="13" font-weight="bold" lengthAdjust="spacingAndGlyphs" textLength="77" x="202" y="1488.3716">Error code</text><line style="stroke: #000000; stroke-width: 1.0; stroke-dasharray: 2.0,2.0;" x1="33" x2="1836" y1="1509.4375" y2="1509.4375"/><text fill="#000000" font-family="sans-serif" font-size="11" font-weight="bold" lengthAdjust="spacingAndGlyphs" textLength="209" x="38" y="1519.6479">[position or limit exists (failure)]</text><path d="M1113,1528.2422 L1113,1553.2422 L1170,1553.2422 L1170,1538.2422 L1160,1528.2422 L1113,1528.2422 " fill="#FF0000" filter="url(#ffdzfisa7fzhl)" style="stroke: #A80036; stroke-width: 1.0;"/><path d="M1160,1528.2422 L1160,1538.2422 L1170,1538.2422 L1160,1528.2422 " fill="#FF0000" style="stroke: #A80036; stroke-width: 1.0;"/><text fill="#000000" font-family="sans-serif" font-size="13" lengthAdjust="spacingAndGlyphs" textLength="36" x="1119" y="1545.3091">Error!</text><path d="M1113,1567.375 L1113,1682.375 L1603,1682.375 L1603,1577.375 L1593,1567.375 L1113,1567.375 " fill="#FFFF00" filter="url(#ffdzfisa7fzhl)" style="stroke: #A80036; stroke-width: 1.0;"/><path d="M1593,1567.375 L1593,1577.375 L1603,1577.375 L1593,1567.375 " fill="#FFFF00" style="stroke: #A80036; stroke-width: 1.0;"/><text fill="#000000" font-family="sans-serif" font-size="13" lengthAdjust="spacingAndGlyphs" textLength="61" x="1119" y="1584.4419">Message:</text><text fill="#000000" font-family="sans-serif" font-size="13" lengthAdjust="spacingAndGlyphs" textLength="8" x="1135" y="1599.5747">{</text><text fill="#000000" font-family="sans-serif" font-size="13" lengthAdjust="spacingAndGlyphs" textLength="130" x="1151" y="1614.7075">"errorInformation": {</text><text fill="#000000" font-family="sans-serif" font-size="13" lengthAdjust="spacingAndGlyphs" textLength="118" x="1167" y="1629.8403">"errorCode": 3200,</text><text fill="#000000" font-family="sans-serif" font-size="13" lengthAdjust="spacingAndGlyphs" textLength="421" x="1167" y="1644.9731">"errorDescription": "Participant Limit or Initial Position already set",</text><text fill="#000000" font-family="sans-serif" font-size="13" lengthAdjust="spacingAndGlyphs" textLength="8" x="1151" y="1660.106">}</text><text fill="#000000" font-family="sans-serif" font-size="13" lengthAdjust="spacingAndGlyphs" textLength="8" x="1135" y="1675.2388">}</text><polygon fill="#A80036" points="784,1709.4375,774,1713.4375,784,1717.4375,780,1713.4375" style="stroke: #A80036; stroke-width: 1.0;"/><line style="stroke: #A80036; stroke-width: 1.0; stroke-dasharray: 2.0,2.0;" x1="778" x2="1097" y1="1713.4375" y2="1713.4375"/><text fill="#000000" font-family="sans-serif" font-size="13" font-weight="bold" lengthAdjust="spacingAndGlyphs" textLength="18" x="790" y="1708.3716">24</text><text fill="#000000" font-family="sans-serif" font-size="13" lengthAdjust="spacingAndGlyphs" textLength="42" x="812" y="1708.3716">Return</text><text fill="#FF0000" font-family="sans-serif" font-size="13" font-weight="bold" lengthAdjust="spacingAndGlyphs" textLength="82" x="858" y="1708.3716">Error code:</text><text fill="#FF0000" font-family="sans-serif" font-size="13" lengthAdjust="spacingAndGlyphs" textLength="32" x="944" y="1708.3716">3200</text><polygon fill="#A80036" points="128,1738.5703,118,1742.5703,128,1746.5703,124,1742.5703" style="stroke: #A80036; stroke-width: 1.0;"/><line style="stroke: #A80036; stroke-width: 1.0; stroke-dasharray: 2.0,2.0;" x1="122" x2="762" y1="1742.5703" y2="1742.5703"/><text fill="#000000" font-family="sans-serif" font-size="13" font-weight="bold" lengthAdjust="spacingAndGlyphs" textLength="18" x="134" y="1737.5044">25</text><text fill="#000000" font-family="sans-serif" font-size="13" lengthAdjust="spacingAndGlyphs" textLength="42" x="156" y="1737.5044">Return</text><text fill="#FF0000" font-family="sans-serif" font-size="13" font-weight="bold" lengthAdjust="spacingAndGlyphs" textLength="82" x="202" y="1737.5044">Error code:</text><text fill="#FF0000" font-family="sans-serif" font-size="13" lengthAdjust="spacingAndGlyphs" textLength="32" x="288" y="1737.5044">3200</text><line style="stroke: #000000; stroke-width: 1.0; stroke-dasharray: 2.0,2.0;" x1="23" x2="1846" y1="1758.5703" y2="1758.5703"/><text fill="#000000" font-family="sans-serif" font-size="11" font-weight="bold" lengthAdjust="spacingAndGlyphs" textLength="193" x="28" y="1768.7808">[Validate participant (failure)]</text><path d="M1113,1777.375 L1113,1802.375 L1245,1802.375 L1245,1787.375 L1235,1777.375 L1113,1777.375 " fill="#FF0000" filter="url(#ffdzfisa7fzhl)" style="stroke: #A80036; stroke-width: 1.0;"/><path d="M1235,1777.375 L1235,1787.375 L1245,1787.375 L1235,1777.375 " fill="#FF0000" style="stroke: #A80036; stroke-width: 1.0;"/><text fill="#000000" font-family="sans-serif" font-size="13" lengthAdjust="spacingAndGlyphs" textLength="111" x="1119" y="1794.4419">Validation failure!</text><path d="M1113,1816.5078 L1113,1931.5078 L1426,1931.5078 L1426,1826.5078 L1416,1816.5078 L1113,1816.5078 " fill="#FFFF00" filter="url(#ffdzfisa7fzhl)" style="stroke: #A80036; stroke-width: 1.0;"/><path d="M1416,1816.5078 L1416,1826.5078 L1426,1826.5078 L1416,1816.5078 " fill="#FFFF00" style="stroke: #A80036; stroke-width: 1.0;"/><text fill="#000000" font-family="sans-serif" font-size="13" lengthAdjust="spacingAndGlyphs" textLength="61" x="1119" y="1833.5747">Message:</text><text fill="#000000" font-family="sans-serif" font-size="13" lengthAdjust="spacingAndGlyphs" textLength="8" x="1135" y="1848.7075">{</text><text fill="#000000" font-family="sans-serif" font-size="13" lengthAdjust="spacingAndGlyphs" textLength="130" x="1151" y="1863.8403">"errorInformation": {</text><text fill="#000000" font-family="sans-serif" font-size="13" lengthAdjust="spacingAndGlyphs" textLength="118" x="1167" y="1878.9731">"errorCode": 3200,</text><text fill="#000000" font-family="sans-serif" font-size="13" lengthAdjust="spacingAndGlyphs" textLength="244" x="1167" y="1894.106">"errorDescription": "FSP id Not Found",</text><text fill="#000000" font-family="sans-serif" font-size="13" lengthAdjust="spacingAndGlyphs" textLength="8" x="1151" y="1909.2388">}</text><text fill="#000000" font-family="sans-serif" font-size="13" lengthAdjust="spacingAndGlyphs" textLength="8" x="1135" y="1924.3716">}</text><polygon fill="#A80036" points="784,1958.5703,774,1962.5703,784,1966.5703,780,1962.5703" style="stroke: #A80036; stroke-width: 1.0;"/><line style="stroke: #A80036; stroke-width: 1.0; stroke-dasharray: 2.0,2.0;" x1="778" x2="1102" y1="1962.5703" y2="1962.5703"/><text fill="#000000" font-family="sans-serif" font-size="13" font-weight="bold" lengthAdjust="spacingAndGlyphs" textLength="18" x="790" y="1957.5044">26</text><text fill="#000000" font-family="sans-serif" font-size="13" lengthAdjust="spacingAndGlyphs" textLength="42" x="812" y="1957.5044">Return</text><text fill="#FF0000" font-family="sans-serif" font-size="13" font-weight="bold" lengthAdjust="spacingAndGlyphs" textLength="82" x="858" y="1957.5044">Error code:</text><text fill="#FF0000" font-family="sans-serif" font-size="13" lengthAdjust="spacingAndGlyphs" textLength="32" x="944" y="1957.5044">3200</text><polygon fill="#A80036" points="128,1987.7031,118,1991.7031,128,1995.7031,124,1991.7031" style="stroke: #A80036; stroke-width: 1.0;"/><line style="stroke: #A80036; stroke-width: 1.0; stroke-dasharray: 2.0,2.0;" x1="122" x2="762" y1="1991.7031" y2="1991.7031"/><text fill="#000000" font-family="sans-serif" font-size="13" font-weight="bold" lengthAdjust="spacingAndGlyphs" textLength="18" x="134" y="1986.6372">27</text><text fill="#000000" font-family="sans-serif" font-size="13" lengthAdjust="spacingAndGlyphs" textLength="42" x="156" y="1986.6372">Return</text><text fill="#FF0000" font-family="sans-serif" font-size="13" font-weight="bold" lengthAdjust="spacingAndGlyphs" textLength="82" x="202" y="1986.6372">Error code:</text><text fill="#FF0000" font-family="sans-serif" font-size="13" lengthAdjust="spacingAndGlyphs" textLength="32" x="288" y="1986.6372">3200</text><!--
@startuml
title 1.0.0 Create initial postion and limits for participant

autonumber



actor "HUB OPERATOR" as OPERATOR
boundary "Central Service API" as CSAPI
control "Participant Handler" as PARTICIPANT_HANDLER
entity "Central Service API" as CSAPI
entity "Participant FACADE" as PARTICIPANT_DAO
database "Central Store" as DB

box "Central Services" #LightYellow
participant CSAPI
participant PARTICIPANT_HANDLER
participant PARTICIPANT_DAO
participant DB
end box


activate OPERATOR
group Create initial position and limits
    OPERATOR -> CSAPI: Request to Create initial position and limits - POST - /paticipants/{name}/initialPositionAndLimits
    note right of OPERATOR #yellow
        Message:
        {
            currency: <currencyId>,
            limit: {
                type: <limitType>,
                value: <limitValue>
            },
            initialPosition: <positionValue>
        }
    end note

    activate CSAPI
    CSAPI -> PARTICIPANT_HANDLER: Create initial position and limits for Participant
    activate PARTICIPANT_HANDLER
    PARTICIPANT_HANDLER ->PARTICIPANT_DAO: Fetch Participant/ Currency Id \n<color #FF0000><b>Error code:</b> 3200</color>

    activate PARTICIPANT_DAO
    PARTICIPANT_DAO -> DB: Fetch Participant/Currency Id
    activate DB
    hnote over DB #lightyellow
        participant
        participantCurrency
    end note
    DB - -> PARTICIPANT_DAO: Retrieved Participant/Currency Id
    deactivate DB
    PARTICIPANT_DAO - -> PARTICIPANT_HANDLER: Return Participant/Currency Id
    deactivate PARTICIPANT_DAO
    PARTICIPANT_HANDLER ->PARTICIPANT_HANDLER: Validate DFSP
    alt Validate participant (success)
        PARTICIPANT_HANDLER ->PARTICIPANT_DAO: Fetch limit for participantCurrencyId
        activate PARTICIPANT_DAO
        PARTICIPANT_DAO -> DB: Fetch limit for participantCurrencyId
        activate DB
        hnote over DB #lightyellow
            participantLimit
        end note
        DB - -> PARTICIPANT_DAO: Retrieved participant limit
        deactivate DB
        PARTICIPANT_DAO - -> PARTICIPANT_HANDLER: Return participant limit
        deactivate PARTICIPANT_DAO

        PARTICIPANT_HANDLER ->PARTICIPANT_DAO: Fetch position for participantCurrencyId
        activate PARTICIPANT_DAO
        PARTICIPANT_DAO -> DB: Fetch position for participantCurrencyId
        activate DB
        hnote over DB #lightyellow
            participantPosition
        end note
        DB - -> PARTICIPANT_DAO: Retrieved participant position
        deactivate DB
        PARTICIPANT_DAO - -> PARTICIPANT_HANDLER: Return participant position
        deactivate PARTICIPANT_DAO
        
        PARTICIPANT_HANDLER ->PARTICIPANT_HANDLER: Participant position or limit exists check

        alt position or limit does not exist (success)


        PARTICIPANT_HANDLER ->PARTICIPANT_DAO: create initial position and limits for Participantt \n<color #FF0000><b>Error code:</b> 2003/<b>Msg:</b> Service unavailable </color> \n<color #FF0000><b>Error code:</b> 2001/<b>Msg:</b> Internal Server Error </color>
        activate PARTICIPANT_DAO
        PARTICIPANT_DAO -> DB: Persist Participant limits/position
        activate DB
        hnote over DB #lightyellow
            participantPosition
            participantLimit
        end note
        deactivate DB
        PARTICIPANT_DAO - -> PARTICIPANT_HANDLER: Return status
        deactivate PARTICIPANT_DAO
        alt Details persisted successfully
            PARTICIPANT_HANDLER - ->CSAPI: Return Status Code 201
            deactivate PARTICIPANT_HANDLER
            CSAPI - ->OPERATOR: Return Status Code 201
        else Details not persisted/Error
            note right of PARTICIPANT_HANDLER #red: Error!
            activate PARTICIPANT_HANDLER
            note right of PARTICIPANT_HANDLER #yellow
            Message:
                {
                    "errorInformation": {
                        "errorCode": <Error Code>,
                        "errorDescription": <Msg>,
                    }
                }
            end note
            PARTICIPANT_HANDLER - ->CSAPI: Return <color #FF0000><b>Error code</b></color>
            CSAPI - ->OPERATOR: Return <color #FF0000><b>Error code</b></color>
            
        end
        
        else position or limit exists (failure)
            note right of PARTICIPANT_HANDLER #red: Error!
            activate PARTICIPANT_HANDLER
            note right of PARTICIPANT_HANDLER #yellow
            Message:
                {
                    "errorInformation": {
                        "errorCode": 3200,
                        "errorDescription": "Participant Limit or Initial Position already set",
                    }
                }
            end note
            PARTICIPANT_HANDLER - ->CSAPI: Return <color #FF0000><b>Error code:</b> 3200</color>
            CSAPI - ->OPERATOR: Return <color #FF0000><b>Error code:</b> 3200</color>
        
        end

    else Validate participant (failure)
        note right of PARTICIPANT_HANDLER #red: Validation failure!
        activate PARTICIPANT_HANDLER
        note right of PARTICIPANT_HANDLER #yellow
            Message:
                {
                    "errorInformation": {
                        "errorCode": 3200,
                        "errorDescription": "FSP id Not Found",
                    }
                }
        end note
        PARTICIPANT_HANDLER - ->CSAPI: Return <color #FF0000><b>Error code:</b> 3200</color>
        deactivate PARTICIPANT_HANDLER
        CSAPI - ->OPERATOR: Return <color #FF0000><b>Error code:</b> 3200</color>

    end
    deactivate CSAPI
    deactivate OPERATOR
end
@enduml

PlantUML version 1.2018.08(Sun Jun 24 12:31:00 UTC 2018)
(GPL source distribution)
Java Runtime: Java(TM) SE Runtime Environment
JVM: Java HotSpot(TM) 64-Bit Server VM
Java Version: 1.7.0_25-b15
Operating System: Linux
Default Encoding: UTF-8
Language: en
Country: US
--></g></svg>