<?xml version="1.0" encoding="UTF-8" standalone="no"?><svg xmlns="http://www.w3.org/2000/svg" xmlns:xlink="http://www.w3.org/1999/xlink" contentScriptType="application/ecmascript" contentStyleType="text/css" height="996px" preserveAspectRatio="none" style="width:1257px;height:996px;" version="1.1" viewBox="0 0 1257 996" width="1257px" zoomAndPan="magnify"><defs><filter height="300%" id="f16a1qkaw3t32e" width="300%" x="-1" y="-1"><feGaussianBlur result="blurOut" stdDeviation="2.0"/><feColorMatrix in="blurOut" result="blurOut2" type="matrix" values="0 0 0 0 0 0 0 0 0 0 0 0 0 0 0 0 0 0 .4 0"/><feOffset dx="4.0" dy="4.0" in="blurOut2" result="blurOut3"/><feBlend in="SourceGraphic" in2="blurOut3" mode="normal"/></filter></defs><g><text fill="#000000" font-family="sans-serif" font-size="14" font-weight="bold" lengthAdjust="spacingAndGlyphs" textLength="173" x="543.25" y="23.5352">7.2.1 Put Parties Details</text><rect fill="#FFFFE0" height="951.1563" style="stroke: #A80036; stroke-width: 1.0;" width="904.5" x="250" y="34.4883"/><text fill="#000000" font-family="sans-serif" font-size="13" font-weight="bold" lengthAdjust="spacingAndGlyphs" textLength="161" x="621.75" y="47.0566">Account Lookup Service</text><rect fill="#FFFFFF" filter="url(#f16a1qkaw3t32e)" height="746.8691" style="stroke: #A80036; stroke-width: 1.0;" width="10" x="58.5" y="126.9766"/><rect fill="#FFFFFF" filter="url(#f16a1qkaw3t32e)" height="686.5586" style="stroke: #A80036; stroke-width: 1.0;" width="10" x="333.5" y="187.2871"/><rect fill="#FFFFFF" filter="url(#f16a1qkaw3t32e)" height="297.7266" style="stroke: #A80036; stroke-width: 1.0;" width="10" x="532.5" y="546.8086"/><rect fill="#FFFFFF" filter="url(#f16a1qkaw3t32e)" height="137.1738" style="stroke: #A80036; stroke-width: 1.0;" width="10" x="795.5" y="648.7402"/><rect fill="#FFFFFF" filter="url(#f16a1qkaw3t32e)" height="62.9316" style="stroke: #A80036; stroke-width: 1.0;" width="10" x="1058.5" y="693.6719"/><rect fill="#FFFFFF" filter="url(#f16a1qkaw3t32e)" height="748.1797" style="stroke: #000000; stroke-width: 2.0;" width="1233.5" x="13" y="133.9766"/><line style="stroke: #A80036; stroke-width: 1.0; stroke-dasharray: 5.0,5.0;" x1="63" x2="63" y1="116.9766" y2="899.1563"/><line style="stroke: #A80036; stroke-width: 1.0; stroke-dasharray: 5.0,5.0;" x1="338" x2="338" y1="116.9766" y2="899.1563"/><line style="stroke: #A80036; stroke-width: 1.0; stroke-dasharray: 5.0,5.0;" x1="537.5" x2="537.5" y1="116.9766" y2="899.1563"/><line style="stroke: #A80036; stroke-width: 1.0; stroke-dasharray: 5.0,5.0;" x1="800.5" x2="800.5" y1="116.9766" y2="899.1563"/><line style="stroke: #A80036; stroke-width: 1.0; stroke-dasharray: 5.0,5.0;" x1="1063.5" x2="1063.5" y1="116.9766" y2="899.1563"/><line style="stroke: #A80036; stroke-width: 1.0; stroke-dasharray: 5.0,5.0;" x1="1198.5" x2="1198.5" y1="116.9766" y2="899.1563"/><text fill="#000000" font-family="sans-serif" font-size="14" lengthAdjust="spacingAndGlyphs" textLength="75" x="23" y="114.0234">PAYER_FSP</text><ellipse cx="63.5" cy="43.4883" fill="#FEFECE" filter="url(#f16a1qkaw3t32e)" rx="8" ry="8" style="stroke: #A80036; stroke-width: 2.0;"/><path d="M63.5,51.4883 L63.5,78.4883 M50.5,59.4883 L76.5,59.4883 M63.5,78.4883 L50.5,93.4883 M63.5,78.4883 L76.5,93.4883 " fill="none" filter="url(#f16a1qkaw3t32e)" style="stroke: #A80036; stroke-width: 2.0;"/><text fill="#000000" font-family="sans-serif" font-size="14" lengthAdjust="spacingAndGlyphs" textLength="75" x="23" y="911.6914">PAYER_FSP</text><ellipse cx="63.5" cy="924.6445" fill="#FEFECE" filter="url(#f16a1qkaw3t32e)" rx="8" ry="8" style="stroke: #A80036; stroke-width: 2.0;"/><path d="M63.5,932.6445 L63.5,959.6445 M50.5,940.6445 L76.5,940.6445 M63.5,959.6445 L50.5,974.6445 M63.5,959.6445 L76.5,974.6445 " fill="none" filter="url(#f16a1qkaw3t32e)" style="stroke: #A80036; stroke-width: 2.0;"/><text fill="#000000" font-family="sans-serif" font-size="14" lengthAdjust="spacingAndGlyphs" textLength="163" x="254" y="114.0234">Account Lookup Service</text><path d="M318,72.4883 L318,96.4883 M318,84.4883 L335,84.4883 " fill="none" filter="url(#f16a1qkaw3t32e)" style="stroke: #A80036; stroke-width: 2.0;"/><ellipse cx="347" cy="84.4883" fill="#FEFECE" filter="url(#f16a1qkaw3t32e)" rx="12" ry="12" style="stroke: #A80036; stroke-width: 2.0;"/><text fill="#000000" font-family="sans-serif" font-size="14" lengthAdjust="spacingAndGlyphs" textLength="163" x="254" y="911.6914">Account Lookup Service</text><path d="M318,918.6445 L318,942.6445 M318,930.6445 L335,930.6445 " fill="none" filter="url(#f16a1qkaw3t32e)" style="stroke: #A80036; stroke-width: 2.0;"/><ellipse cx="347" cy="930.6445" fill="#FEFECE" filter="url(#f16a1qkaw3t32e)" rx="12" ry="12" style="stroke: #A80036; stroke-width: 2.0;"/><text fill="#000000" font-family="sans-serif" font-size="14" lengthAdjust="spacingAndGlyphs" textLength="104" x="482.5" y="114.0234">Parties Handler</text><ellipse cx="537.5" cy="84.4883" fill="#FEFECE" filter="url(#f16a1qkaw3t32e)" rx="12" ry="12" style="stroke: #A80036; stroke-width: 2.0;"/><polygon fill="#A80036" points="533.5,72.4883,539.5,67.4883,537.5,72.4883,539.5,77.4883,533.5,72.4883" style="stroke: #A80036; stroke-width: 1.0;"/><text fill="#000000" font-family="sans-serif" font-size="14" lengthAdjust="spacingAndGlyphs" textLength="104" x="482.5" y="911.6914">Parties Handler</text><ellipse cx="537.5" cy="930.6445" fill="#FEFECE" filter="url(#f16a1qkaw3t32e)" rx="12" ry="12" style="stroke: #A80036; stroke-width: 2.0;"/><polygon fill="#A80036" points="533.5,918.6445,539.5,913.6445,537.5,918.6445,539.5,923.6445,533.5,918.6445" style="stroke: #A80036; stroke-width: 1.0;"/><text fill="#000000" font-family="sans-serif" font-size="14" lengthAdjust="spacingAndGlyphs" textLength="108" x="743.5" y="114.0234">Participant DAO</text><ellipse cx="800.5" cy="84.4883" fill="#FEFECE" filter="url(#f16a1qkaw3t32e)" rx="12" ry="12" style="stroke: #A80036; stroke-width: 2.0;"/><line style="stroke: #A80036; stroke-width: 2.0;" x1="788.5" x2="812.5" y1="98.4883" y2="98.4883"/><text fill="#000000" font-family="sans-serif" font-size="14" lengthAdjust="spacingAndGlyphs" textLength="108" x="743.5" y="911.6914">Participant DAO</text><ellipse cx="800.5" cy="930.6445" fill="#FEFECE" filter="url(#f16a1qkaw3t32e)" rx="12" ry="12" style="stroke: #A80036; stroke-width: 2.0;"/><line style="stroke: #A80036; stroke-width: 2.0;" x1="788.5" x2="812.5" y1="944.6445" y2="944.6445"/><text fill="#000000" font-family="sans-serif" font-size="14" lengthAdjust="spacingAndGlyphs" textLength="168" x="976.5" y="114.0234">Central Ledger Database</text><path d="M1045.5,64.4883 C1045.5,54.4883 1063.5,54.4883 1063.5,54.4883 C1063.5,54.4883 1081.5,54.4883 1081.5,64.4883 L1081.5,90.4883 C1081.5,100.4883 1063.5,100.4883 1063.5,100.4883 C1063.5,100.4883 1045.5,100.4883 1045.5,90.4883 L1045.5,64.4883 " fill="#FEFECE" filter="url(#f16a1qkaw3t32e)" style="stroke: #000000; stroke-width: 1.5;"/><path d="M1045.5,64.4883 C1045.5,74.4883 1063.5,74.4883 1063.5,74.4883 C1063.5,74.4883 1081.5,74.4883 1081.5,64.4883 " fill="none" style="stroke: #000000; stroke-width: 1.5;"/><text fill="#000000" font-family="sans-serif" font-size="14" lengthAdjust="spacingAndGlyphs" textLength="168" x="976.5" y="911.6914">Central Ledger Database</text><path d="M1045.5,924.6445 C1045.5,914.6445 1063.5,914.6445 1063.5,914.6445 C1063.5,914.6445 1081.5,914.6445 1081.5,924.6445 L1081.5,950.6445 C1081.5,960.6445 1063.5,960.6445 1063.5,960.6445 C1063.5,960.6445 1045.5,960.6445 1045.5,950.6445 L1045.5,924.6445 " fill="#FEFECE" filter="url(#f16a1qkaw3t32e)" style="stroke: #000000; stroke-width: 1.5;"/><path d="M1045.5,924.6445 C1045.5,934.6445 1063.5,934.6445 1063.5,934.6445 C1063.5,934.6445 1081.5,934.6445 1081.5,924.6445 " fill="none" style="stroke: #000000; stroke-width: 1.5;"/><text fill="#000000" font-family="sans-serif" font-size="14" lengthAdjust="spacingAndGlyphs" textLength="70" x="1160.5" y="114.0234">Payee_FSP</text><ellipse cx="1198.5" cy="43.4883" fill="#FEFECE" filter="url(#f16a1qkaw3t32e)" rx="8" ry="8" style="stroke: #A80036; stroke-width: 2.0;"/><path d="M1198.5,51.4883 L1198.5,78.4883 M1185.5,59.4883 L1211.5,59.4883 M1198.5,78.4883 L1185.5,93.4883 M1198.5,78.4883 L1211.5,93.4883 " fill="none" filter="url(#f16a1qkaw3t32e)" style="stroke: #A80036; stroke-width: 2.0;"/><text fill="#000000" font-family="sans-serif" font-size="14" lengthAdjust="spacingAndGlyphs" textLength="70" x="1160.5" y="911.6914">Payee_FSP</text><ellipse cx="1198.5" cy="924.6445" fill="#FEFECE" filter="url(#f16a1qkaw3t32e)" rx="8" ry="8" style="stroke: #A80036; stroke-width: 2.0;"/><path d="M1198.5,932.6445 L1198.5,959.6445 M1185.5,940.6445 L1211.5,940.6445 M1198.5,959.6445 L1185.5,974.6445 M1198.5,959.6445 L1211.5,974.6445 " fill="none" filter="url(#f16a1qkaw3t32e)" style="stroke: #A80036; stroke-width: 2.0;"/><rect fill="#FFFFFF" filter="url(#f16a1qkaw3t32e)" height="746.8691" style="stroke: #A80036; stroke-width: 1.0;" width="10" x="58.5" y="126.9766"/><rect fill="#FFFFFF" filter="url(#f16a1qkaw3t32e)" height="686.5586" style="stroke: #A80036; stroke-width: 1.0;" width="10" x="333.5" y="187.2871"/><rect fill="#FFFFFF" filter="url(#f16a1qkaw3t32e)" height="297.7266" style="stroke: #A80036; stroke-width: 1.0;" width="10" x="532.5" y="546.8086"/><rect fill="#FFFFFF" filter="url(#f16a1qkaw3t32e)" height="137.1738" style="stroke: #A80036; stroke-width: 1.0;" width="10" x="795.5" y="648.7402"/><rect fill="#FFFFFF" filter="url(#f16a1qkaw3t32e)" height="62.9316" style="stroke: #A80036; stroke-width: 1.0;" width="10" x="1058.5" y="693.6719"/><path d="M13,133.9766 L179,133.9766 L179,140.9766 L169,150.9766 L13,150.9766 L13,133.9766 " fill="#EEEEEE" style="stroke: #000000; stroke-width: 1.0;"/><rect fill="none" height="748.1797" style="stroke: #000000; stroke-width: 2.0;" width="1233.5" x="13" y="133.9766"/><text fill="#000000" font-family="sans-serif" font-size="13" font-weight="bold" lengthAdjust="spacingAndGlyphs" textLength="121" x="28" y="147.5449">Put Party's Details</text><polygon fill="#A80036" points="321.5,183.2871,331.5,187.2871,321.5,191.2871,325.5,187.2871" style="stroke: #A80036; stroke-width: 1.0;"/><line style="stroke: #A80036; stroke-width: 1.0;" x1="68.5" x2="327.5" y1="187.2871" y2="187.2871"/><text fill="#000000" font-family="sans-serif" font-size="13" font-weight="bold" lengthAdjust="spacingAndGlyphs" textLength="9" x="75.5" y="175.5107">1</text><text fill="#000000" font-family="sans-serif" font-size="13" lengthAdjust="spacingAndGlyphs" textLength="221" x="88.5" y="167.8555">Callback for the Get Party's request</text><text fill="#000000" font-family="sans-serif" font-size="13" lengthAdjust="spacingAndGlyphs" textLength="164" x="88.5" y="183.166">PUT - /parties/{Type}/{ID}</text><path d="M73,200.9082 L73,500.9082 L331,500.9082 L331,210.9082 L321,200.9082 L73,200.9082 " fill="#FFFF00" filter="url(#f16a1qkaw3t32e)" style="stroke: #A80036; stroke-width: 1.0;"/><path d="M321,200.9082 L321,210.9082 L331,210.9082 L321,200.9082 " fill="#FFFF00" style="stroke: #A80036; stroke-width: 1.0;"/><text fill="#000000" font-family="sans-serif" font-size="13" lengthAdjust="spacingAndGlyphs" textLength="58" x="79" y="218.4766">Message:</text><text fill="#000000" font-family="sans-serif" font-size="13" lengthAdjust="spacingAndGlyphs" textLength="44" x="79" y="233.7871">party: {</text><text fill="#000000" font-family="sans-serif" font-size="13" lengthAdjust="spacingAndGlyphs" textLength="81" x="95" y="249.0977">partyIdInfo: {</text><text fill="#000000" font-family="sans-serif" font-size="13" lengthAdjust="spacingAndGlyphs" textLength="192" x="111" y="264.4082">“partyIdType”: “PERSONAL_ID”,</text><text fill="#000000" font-family="sans-serif" font-size="13" lengthAdjust="spacingAndGlyphs" textLength="177" x="111" y="279.7188">“partyIdentifier”: “1551212”,</text><text fill="#000000" font-family="sans-serif" font-size="13" lengthAdjust="spacingAndGlyphs" textLength="191" x="111" y="295.0293">“partySubIdOrType”: “License”,</text><text fill="#000000" font-family="sans-serif" font-size="13" lengthAdjust="spacingAndGlyphs" textLength="92" x="111" y="310.3398">“fspId”: “1234”</text><text fill="#000000" font-family="sans-serif" font-size="13" lengthAdjust="spacingAndGlyphs" textLength="8" x="95" y="325.6504">},</text><text fill="#000000" font-family="sans-serif" font-size="13" lengthAdjust="spacingAndGlyphs" textLength="221" x="95" y="340.9609">merchantClassificationCode: 4321,</text><text fill="#000000" font-family="sans-serif" font-size="13" lengthAdjust="spacingAndGlyphs" textLength="157" x="95" y="356.2715">“name”: “Justin Trudeau”,</text><text fill="#000000" font-family="sans-serif" font-size="13" lengthAdjust="spacingAndGlyphs" textLength="101" x="95" y="371.582">“personalInfo”: {</text><text fill="#000000" font-family="sans-serif" font-size="13" lengthAdjust="spacingAndGlyphs" textLength="112" x="111" y="386.8926">“complexName”: {</text><text fill="#000000" font-family="sans-serif" font-size="13" lengthAdjust="spacingAndGlyphs" textLength="130" x="127" y="402.2031">“firstName”: “Justin”,</text><text fill="#000000" font-family="sans-serif" font-size="13" lengthAdjust="spacingAndGlyphs" textLength="146" x="127" y="417.5137">“middleName”: “Pierre”,</text><text fill="#000000" font-family="sans-serif" font-size="13" lengthAdjust="spacingAndGlyphs" textLength="138" x="127" y="432.8242">“lastName”: “Trudeau”</text><text fill="#000000" font-family="sans-serif" font-size="13" lengthAdjust="spacingAndGlyphs" textLength="8" x="111" y="448.1348">},</text><text fill="#000000" font-family="sans-serif" font-size="13" lengthAdjust="spacingAndGlyphs" textLength="179" x="111" y="463.4453">“dateOfBirth”: “1971-12-25”</text><text fill="#000000" font-family="sans-serif" font-size="13" lengthAdjust="spacingAndGlyphs" textLength="4" x="95" y="478.7559">}</text><text fill="#000000" font-family="sans-serif" font-size="13" lengthAdjust="spacingAndGlyphs" textLength="4" x="79" y="494.0664">}</text><polygon fill="#A80036" points="520.5,542.8086,530.5,546.8086,520.5,550.8086,524.5,546.8086" style="stroke: #A80036; stroke-width: 1.0;"/><line style="stroke: #A80036; stroke-width: 1.0;" x1="343.5" x2="526.5" y1="546.8086" y2="546.8086"/><text fill="#000000" font-family="sans-serif" font-size="13" font-weight="bold" lengthAdjust="spacingAndGlyphs" textLength="9" x="350.5" y="535.0322">2</text><text fill="#000000" font-family="sans-serif" font-size="13" lengthAdjust="spacingAndGlyphs" textLength="153" x="363.5" y="527.377">Put Party by ID and Type</text><text fill="#000000" font-family="sans-serif" font-size="13" lengthAdjust="spacingAndGlyphs" textLength="141" x="363.5" y="542.6875">(PartiesByTypeAndID2)</text><line style="stroke: #A80036; stroke-width: 1.0;" x1="542.5" x2="584.5" y1="576.7402" y2="576.7402"/><line style="stroke: #A80036; stroke-width: 1.0;" x1="584.5" x2="584.5" y1="576.7402" y2="589.7402"/><line style="stroke: #A80036; stroke-width: 1.0;" x1="543.5" x2="584.5" y1="589.7402" y2="589.7402"/><polygon fill="#A80036" points="553.5,585.7402,543.5,589.7402,553.5,593.7402,549.5,589.7402" style="stroke: #A80036; stroke-width: 1.0;"/><text fill="#000000" font-family="sans-serif" font-size="13" font-weight="bold" lengthAdjust="spacingAndGlyphs" textLength="9" x="549.5" y="571.998">3</text><text fill="#000000" font-family="sans-serif" font-size="13" lengthAdjust="spacingAndGlyphs" textLength="103" x="562.5" y="571.998">Validate MSISDN</text><polygon fill="#A80036" points="783.5,644.7402,793.5,648.7402,783.5,652.7402,787.5,648.7402" style="stroke: #A80036; stroke-width: 1.0;"/><line style="stroke: #A80036; stroke-width: 1.0;" x1="542.5" x2="789.5" y1="648.7402" y2="648.7402"/><text fill="#000000" font-family="sans-serif" font-size="13" font-weight="bold" lengthAdjust="spacingAndGlyphs" textLength="9" x="549.5" y="629.6191">4</text><text fill="#000000" font-family="sans-serif" font-size="13" lengthAdjust="spacingAndGlyphs" textLength="205" x="562.5" y="614.3086">Fetch Target Participant's details</text><text fill="#000000" font-family="sans-serif" font-size="13" lengthAdjust="spacingAndGlyphs" textLength="180" x="562.5" y="629.6191">(handleMSISDNPartyRequest)</text><text fill="#FF0000" font-family="sans-serif" font-size="13" font-weight="bold" lengthAdjust="spacingAndGlyphs" textLength="73" x="562.5" y="644.9297">Error code:</text><text fill="#FF0000" font-family="sans-serif" font-size="13" lengthAdjust="spacingAndGlyphs" textLength="32" x="639.5" y="644.9297">3200</text><polygon fill="#A80036" points="1046.5,689.6719,1056.5,693.6719,1046.5,697.6719,1050.5,693.6719" style="stroke: #A80036; stroke-width: 1.0;"/><line style="stroke: #A80036; stroke-width: 1.0;" x1="805.5" x2="1052.5" y1="693.6719" y2="693.6719"/><text fill="#000000" font-family="sans-serif" font-size="13" font-weight="bold" lengthAdjust="spacingAndGlyphs" textLength="9" x="812.5" y="681.8955">5</text><text fill="#000000" font-family="sans-serif" font-size="13" lengthAdjust="spacingAndGlyphs" textLength="209" x="825.5" y="674.2402">Fetch Target Participant Endpoint</text><text fill="#000000" font-family="sans-serif" font-size="13" lengthAdjust="spacingAndGlyphs" textLength="201" x="825.5" y="689.5508">(getParticipantEndpointByName)</text><polygon fill="#FFFFE0" filter="url(#f16a1qkaw3t32e)" points="999,707.293,1127,707.293,1137,718.293,1127,730.293,999,730.293,989,718.293,999,707.293" style="stroke: #A80036; stroke-width: 1.0;"/><text fill="#000000" font-family="sans-serif" font-size="13" lengthAdjust="spacingAndGlyphs" textLength="124" x="1001" y="723.8613">participantEndpoint</text><polygon fill="#A80036" points="816.5,752.6035,806.5,756.6035,816.5,760.6035,812.5,756.6035" style="stroke: #A80036; stroke-width: 1.0;"/><line style="stroke: #A80036; stroke-width: 1.0; stroke-dasharray: 2.0,2.0;" x1="810.5" x2="1062.5" y1="756.6035" y2="756.6035"/><text fill="#000000" font-family="sans-serif" font-size="13" font-weight="bold" lengthAdjust="spacingAndGlyphs" textLength="9" x="822.5" y="752.1719">6</text><text fill="#000000" font-family="sans-serif" font-size="13" lengthAdjust="spacingAndGlyphs" textLength="216" x="835.5" y="752.1719">Return Target Participant Endpoint</text><polygon fill="#A80036" points="553.5,781.9141,543.5,785.9141,553.5,789.9141,549.5,785.9141" style="stroke: #A80036; stroke-width: 1.0;"/><line style="stroke: #A80036; stroke-width: 1.0; stroke-dasharray: 2.0,2.0;" x1="547.5" x2="799.5" y1="785.9141" y2="785.9141"/><text fill="#000000" font-family="sans-serif" font-size="13" font-weight="bold" lengthAdjust="spacingAndGlyphs" textLength="9" x="559.5" y="781.4824">7</text><text fill="#000000" font-family="sans-serif" font-size="13" lengthAdjust="spacingAndGlyphs" textLength="216" x="572.5" y="781.4824">Return Target Participant Endpoint</text><polygon fill="#A80036" points="354.5,811.2246,344.5,815.2246,354.5,819.2246,350.5,815.2246" style="stroke: #A80036; stroke-width: 1.0;"/><line style="stroke: #A80036; stroke-width: 1.0;" x1="348.5" x2="531.5" y1="815.2246" y2="815.2246"/><text fill="#000000" font-family="sans-serif" font-size="13" font-weight="bold" lengthAdjust="spacingAndGlyphs" textLength="9" x="360.5" y="810.793">8</text><text fill="#000000" font-family="sans-serif" font-size="13" lengthAdjust="spacingAndGlyphs" textLength="95" x="373.5" y="810.793">Return Success</text><polygon fill="#A80036" points="1186.5,840.5352,1196.5,844.5352,1186.5,848.5352,1190.5,844.5352" style="stroke: #A80036; stroke-width: 1.0;"/><line style="stroke: #A80036; stroke-width: 1.0;" x1="537.5" x2="1192.5" y1="844.5352" y2="844.5352"/><text fill="#000000" font-family="sans-serif" font-size="13" font-weight="bold" lengthAdjust="spacingAndGlyphs" textLength="9" x="544.5" y="840.1035">9</text><text fill="#000000" font-family="sans-serif" font-size="13" lengthAdjust="spacingAndGlyphs" textLength="236" x="557.5" y="840.1035">Forward Request to Target Participant</text><polygon fill="#A80036" points="74.5,869.8457,64.5,873.8457,74.5,877.8457,70.5,873.8457" style="stroke: #A80036; stroke-width: 1.0;"/><line style="stroke: #A80036; stroke-width: 1.0; stroke-dasharray: 2.0,2.0;" x1="68.5" x2="337.5" y1="873.8457" y2="873.8457"/><text fill="#000000" font-family="sans-serif" font-size="13" font-weight="bold" lengthAdjust="spacingAndGlyphs" textLength="18" x="80.5" y="869.4141">10</text><text fill="#000000" font-family="sans-serif" font-size="13" lengthAdjust="spacingAndGlyphs" textLength="123" x="102.5" y="869.4141">Return Success 200</text><!--
@startuml
title 7.2.1 Put Parties Details

autonumber

actor "PAYER_FSP" as PAYER_FSP
boundary "Account Lookup Service" as ALS
control "Parties Handler" as PARTIES_HANDLER
entity "Account Lookup Service API" as ALS
entity "Participant DAO" as PARTICIPANT_DAO
database "Central Ledger Database" as DB
actor "Payee_FSP" as PAYEE_FSP

box "Account Lookup Service" #LightYellow
participant ALS
participant PARTIES_HANDLER
participant PARTICIPANT_DAO
participant DB
end box

participant PAYEE_FSP


activate PAYER_FSP
group Put Party's Details
    PAYER_FSP -> ALS: Callback for the Get Party's request   \nPUT - /parties/{Type}/{ID}
    note right of PAYER_FSP #yellow
        Message:
        party: {
            partyIdInfo: {
                “partyIdType”: “PERSONAL_ID”,
                “partyIdentifier”: “1551212”,
                “partySubIdOrType”: “License”,
                “fspId”: “1234”
            },
            merchantClassificationCode: 4321,
            “name”: “Justin Trudeau”,
            “personalInfo”: {
                “complexName”: {
                    “firstName”: “Justin”,
                    “middleName”: “Pierre”,
                    “lastName”: “Trudeau”
                },
                “dateOfBirth”: “1971-12-25”
            }
        }
    end note
    activate ALS
    ALS -> PARTIES_HANDLER: Put Party by ID and Type \n(PartiesByTypeAndID2)
    activate PARTIES_HANDLER
    PARTIES_HANDLER ->PARTIES_HANDLER: Validate MSISDN
    PARTIES_HANDLER ->PARTICIPANT_DAO: Fetch Target Participant's details \n(handleMSISDNPartyRequest)\n<color #FF0000><b>Error code:</b> 3200</color>
    activate PARTICIPANT_DAO
    PARTICIPANT_DAO -> DB: Fetch Target Participant Endpoint \n(getParticipantEndpointByName)
    activate DB
    hnote over DB #lightyellow
        participantEndpoint
    end note
    DB - -> PARTICIPANT_DAO: Return Target Participant Endpoint
    deactivate DB
    PARTICIPANT_DAO - -> PARTIES_HANDLER: Return Target Participant Endpoint
    deactivate PARTICIPANT_DAO
    PARTIES_HANDLER -> ALS: Return Success
    PARTIES_HANDLER -> PAYEE_FSP: Forward Request to Target Participant
    deactivate PARTIES_HANDLER
    ALS - ->PAYER_FSP: Return Success 200
    deactivate ALS
    deactivate PAYER_FSP
end
@enduml

PlantUML version 1.2018.01(Sun Jan 28 20:08:22 SAST 2018)
(GPL source distribution)
Java Runtime: OpenJDK Runtime Environment
JVM: OpenJDK 64-Bit Server VM
Java Version: 1.8.0_152-release-1136-b20
Operating System: Mac OS X
OS Version: 10.14.3
Default Encoding: UTF-8
Language: en
Country: ZA
--></g></svg>