<?xml version="1.0" encoding="UTF-8" standalone="no"?><svg xmlns="http://www.w3.org/2000/svg" xmlns:xlink="http://www.w3.org/1999/xlink" contentScriptType="application/ecmascript" contentStyleType="text/css" height="1612px" preserveAspectRatio="none" style="width:3818px;height:1612px;" version="1.1" viewBox="0 0 3818 1612" width="3818px" zoomAndPan="magnify"><defs><filter height="300%" id="f2cju65jgcxc6" width="300%" x="-1" y="-1"><feGaussianBlur result="blurOut" stdDeviation="2.0"/><feColorMatrix in="blurOut" result="blurOut2" type="matrix" values="0 0 0 0 0 0 0 0 0 0 0 0 0 0 0 0 0 0 .4 0"/><feOffset dx="4.0" dy="4.0" in="blurOut2" result="blurOut3"/><feBlend in="SourceGraphic" in2="blurOut3" mode="normal"/></filter></defs><g><text fill="#000000" font-family="sans-serif" font-size="14" font-weight="bold" lengthAdjust="spacingAndGlyphs" textLength="580" x="1619.5" y="23.5352">1.3. DFSP1 sends a Prepare Transfer request to DFSP2 - Prepare Position Failure</text><rect fill="#ADD8E6" height="1566.9883" style="stroke: #A80036; stroke-width: 1.0;" width="186" x="4" y="34.4883"/><text fill="#000000" font-family="sans-serif" font-size="13" font-weight="bold" lengthAdjust="spacingAndGlyphs" textLength="180" x="7" y="47.0566">Financial Service Providers</text><rect fill="#90EE90" height="1566.9883" style="stroke: #A80036; stroke-width: 1.0;" width="361" x="286.5" y="34.4883"/><text fill="#000000" font-family="sans-serif" font-size="13" font-weight="bold" lengthAdjust="spacingAndGlyphs" textLength="157" x="388.5" y="47.0566">ML API Adapter Service</text><rect fill="#FFFFE0" height="1566.9883" style="stroke: #A80036; stroke-width: 1.0;" width="2778" x="987" y="34.4883"/><text fill="#000000" font-family="sans-serif" font-size="13" font-weight="bold" lengthAdjust="spacingAndGlyphs" textLength="101" x="2325.5" y="47.0566">Central Service</text><rect fill="#FFFFFF" filter="url(#f2cju65jgcxc6)" height="1358.7012" style="stroke: #A80036; stroke-width: 1.0;" width="10" x="340.5" y="147.2871"/><rect fill="#FFFFFF" filter="url(#f2cju65jgcxc6)" height="162.8633" style="stroke: #A80036; stroke-width: 1.0;" width="10" x="522" y="1343.125"/><rect fill="#FFFFFF" filter="url(#f2cju65jgcxc6)" height="377.9688" style="stroke: #A80036; stroke-width: 1.0;" width="10" x="1628.5" y="515.2559"/><rect fill="#FFFFFF" filter="url(#f2cju65jgcxc6)" height="449.9004" style="stroke: #A80036; stroke-width: 1.0;" width="10" x="2291.5" y="893.2246"/><rect fill="#FFFFFF" filter="url(#f2cju65jgcxc6)" height="1343.7012" style="stroke: #000000; stroke-width: 2.0;" width="3738" x="33" y="154.2871"/><line style="stroke: #A80036; stroke-width: 1.0; stroke-dasharray: 5.0,5.0;" x1="67" x2="67" y1="137.2871" y2="1514.9883"/><line style="stroke: #A80036; stroke-width: 1.0; stroke-dasharray: 5.0,5.0;" x1="126" x2="126" y1="137.2871" y2="1514.9883"/><line style="stroke: #A80036; stroke-width: 1.0; stroke-dasharray: 5.0,5.0;" x1="345.5" x2="345.5" y1="137.2871" y2="1514.9883"/><line style="stroke: #A80036; stroke-width: 1.0; stroke-dasharray: 5.0,5.0;" x1="526.5" x2="526.5" y1="137.2871" y2="1514.9883"/><line style="stroke: #A80036; stroke-width: 1.0; stroke-dasharray: 5.0,5.0;" x1="1058" x2="1058" y1="137.2871" y2="1514.9883"/><line style="stroke: #A80036; stroke-width: 1.0; stroke-dasharray: 5.0,5.0;" x1="1249" x2="1249" y1="137.2871" y2="1514.9883"/><line style="stroke: #A80036; stroke-width: 1.0; stroke-dasharray: 5.0,5.0;" x1="1633.5" x2="1633.5" y1="137.2871" y2="1514.9883"/><line style="stroke: #A80036; stroke-width: 1.0; stroke-dasharray: 5.0,5.0;" x1="1962" x2="1962" y1="137.2871" y2="1514.9883"/><line style="stroke: #A80036; stroke-width: 1.0; stroke-dasharray: 5.0,5.0;" x1="2296.5" x2="2296.5" y1="137.2871" y2="1514.9883"/><line style="stroke: #A80036; stroke-width: 1.0; stroke-dasharray: 5.0,5.0;" x1="2737" x2="2737" y1="137.2871" y2="1514.9883"/><line style="stroke: #A80036; stroke-width: 1.0; stroke-dasharray: 5.0,5.0;" x1="2922" x2="2922" y1="137.2871" y2="1514.9883"/><line style="stroke: #A80036; stroke-width: 1.0; stroke-dasharray: 5.0,5.0;" x1="3118" x2="3118" y1="137.2871" y2="1514.9883"/><line style="stroke: #A80036; stroke-width: 1.0; stroke-dasharray: 5.0,5.0;" x1="3280" x2="3280" y1="137.2871" y2="1514.9883"/><line style="stroke: #A80036; stroke-width: 1.0; stroke-dasharray: 5.0,5.0;" x1="3377" x2="3377" y1="137.2871" y2="1514.9883"/><line style="stroke: #A80036; stroke-width: 1.0; stroke-dasharray: 5.0,5.0;" x1="3475" x2="3475" y1="137.2871" y2="1514.9883"/><line style="stroke: #A80036; stroke-width: 1.0; stroke-dasharray: 5.0,5.0;" x1="3595" x2="3595" y1="137.2871" y2="1514.9883"/><line style="stroke: #A80036; stroke-width: 1.0; stroke-dasharray: 5.0,5.0;" x1="3713" x2="3713" y1="137.2871" y2="1514.9883"/><line style="stroke: #A80036; stroke-width: 1.0; stroke-dasharray: 5.0,5.0;" x1="3791" x2="3791" y1="137.2871" y2="1514.9883"/><text fill="#000000" font-family="sans-serif" font-size="14" lengthAdjust="spacingAndGlyphs" textLength="43" x="43" y="134.334">DFSP1</text><ellipse cx="67.5" cy="63.7988" fill="#FEFECE" filter="url(#f2cju65jgcxc6)" rx="8" ry="8" style="stroke: #A80036; stroke-width: 2.0;"/><path d="M67.5,71.7988 L67.5,98.7988 M54.5,79.7988 L80.5,79.7988 M67.5,98.7988 L54.5,113.7988 M67.5,98.7988 L80.5,113.7988 " fill="#FEFECE" filter="url(#f2cju65jgcxc6)" style="stroke: #A80036; stroke-width: 2.0;"/><text fill="#000000" font-family="sans-serif" font-size="14" lengthAdjust="spacingAndGlyphs" textLength="43" x="43" y="1527.5234">DFSP1</text><ellipse cx="67.5" cy="1540.4766" fill="#FEFECE" filter="url(#f2cju65jgcxc6)" rx="8" ry="8" style="stroke: #A80036; stroke-width: 2.0;"/><path d="M67.5,1548.4766 L67.5,1575.4766 M54.5,1556.4766 L80.5,1556.4766 M67.5,1575.4766 L54.5,1590.4766 M67.5,1575.4766 L80.5,1590.4766 " fill="#FEFECE" filter="url(#f2cju65jgcxc6)" style="stroke: #A80036; stroke-width: 2.0;"/><text fill="#000000" font-family="sans-serif" font-size="14" lengthAdjust="spacingAndGlyphs" textLength="43" x="102" y="134.334">DFSP2</text><ellipse cx="126.5" cy="63.7988" fill="#FEFECE" filter="url(#f2cju65jgcxc6)" rx="8" ry="8" style="stroke: #A80036; stroke-width: 2.0;"/><path d="M126.5,71.7988 L126.5,98.7988 M113.5,79.7988 L139.5,79.7988 M126.5,98.7988 L113.5,113.7988 M126.5,98.7988 L139.5,113.7988 " fill="#FEFECE" filter="url(#f2cju65jgcxc6)" style="stroke: #A80036; stroke-width: 2.0;"/><text fill="#000000" font-family="sans-serif" font-size="14" lengthAdjust="spacingAndGlyphs" textLength="43" x="102" y="1527.5234">DFSP2</text><ellipse cx="126.5" cy="1540.4766" fill="#FEFECE" filter="url(#f2cju65jgcxc6)" rx="8" ry="8" style="stroke: #A80036; stroke-width: 2.0;"/><path d="M126.5,1548.4766 L126.5,1575.4766 M113.5,1556.4766 L139.5,1556.4766 M126.5,1575.4766 L113.5,1590.4766 M126.5,1575.4766 L139.5,1590.4766 " fill="#FEFECE" filter="url(#f2cju65jgcxc6)" style="stroke: #A80036; stroke-width: 2.0;"/><text fill="#000000" font-family="sans-serif" font-size="14" lengthAdjust="spacingAndGlyphs" textLength="104" x="290.5" y="134.334">ML API Adapter</text><path d="M325,92.7988 L325,116.7988 M325,104.7988 L342,104.7988 " fill="#FEFECE" filter="url(#f2cju65jgcxc6)" style="stroke: #A80036; stroke-width: 2.0;"/><ellipse cx="354" cy="104.7988" fill="#FEFECE" filter="url(#f2cju65jgcxc6)" rx="12" ry="12" style="stroke: #A80036; stroke-width: 2.0;"/><text fill="#000000" font-family="sans-serif" font-size="14" lengthAdjust="spacingAndGlyphs" textLength="104" x="290.5" y="1527.5234">ML API Adapter</text><path d="M325,1534.4766 L325,1558.4766 M325,1546.4766 L342,1546.4766 " fill="#FEFECE" filter="url(#f2cju65jgcxc6)" style="stroke: #A80036; stroke-width: 2.0;"/><ellipse cx="354" cy="1546.4766" fill="#FEFECE" filter="url(#f2cju65jgcxc6)" rx="12" ry="12" style="stroke: #A80036; stroke-width: 2.0;"/><text fill="#000000" font-family="sans-serif" font-size="14" lengthAdjust="spacingAndGlyphs" textLength="227" x="410.5" y="134.334">ML API Notification Event Handler</text><ellipse cx="527" cy="104.7988" fill="#FEFECE" filter="url(#f2cju65jgcxc6)" rx="12" ry="12" style="stroke: #A80036; stroke-width: 2.0;"/><polygon fill="#A80036" points="523,92.7988,529,87.7988,527,92.7988,529,97.7988,523,92.7988" style="stroke: #A80036; stroke-width: 1.0;"/><text fill="#000000" font-family="sans-serif" font-size="14" lengthAdjust="spacingAndGlyphs" textLength="227" x="410.5" y="1527.5234">ML API Notification Event Handler</text><ellipse cx="527" cy="1546.4766" fill="#FEFECE" filter="url(#f2cju65jgcxc6)" rx="12" ry="12" style="stroke: #A80036; stroke-width: 2.0;"/><polygon fill="#A80036" points="523,1534.4766,529,1529.4766,527,1534.4766,529,1539.4766,523,1534.4766" style="stroke: #A80036; stroke-width: 1.0;"/><text fill="#000000" font-family="sans-serif" font-size="14" lengthAdjust="spacingAndGlyphs" textLength="128" x="991" y="134.334">Central Service API</text><path d="M1037.5,92.7988 L1037.5,116.7988 M1037.5,104.7988 L1054.5,104.7988 " fill="#FEFECE" filter="url(#f2cju65jgcxc6)" style="stroke: #A80036; stroke-width: 2.0;"/><ellipse cx="1066.5" cy="104.7988" fill="#FEFECE" filter="url(#f2cju65jgcxc6)" rx="12" ry="12" style="stroke: #A80036; stroke-width: 2.0;"/><text fill="#000000" font-family="sans-serif" font-size="14" lengthAdjust="spacingAndGlyphs" textLength="128" x="991" y="1527.5234">Central Service API</text><path d="M1037.5,1534.4766 L1037.5,1558.4766 M1037.5,1546.4766 L1054.5,1546.4766 " fill="#FEFECE" filter="url(#f2cju65jgcxc6)" style="stroke: #A80036; stroke-width: 2.0;"/><ellipse cx="1066.5" cy="1546.4766" fill="#FEFECE" filter="url(#f2cju65jgcxc6)" rx="12" ry="12" style="stroke: #A80036; stroke-width: 2.0;"/><rect fill="#FEFECE" filter="url(#f2cju65jgcxc6)" height="30.4883" style="stroke: #A80036; stroke-width: 1.5;" width="221" x="1139" y="97.7988"/><rect fill="#FEFECE" filter="url(#f2cju65jgcxc6)" height="30.4883" style="stroke: #A80036; stroke-width: 1.5;" width="221" x="1135" y="101.7988"/><text fill="#000000" font-family="sans-serif" font-size="14" lengthAdjust="spacingAndGlyphs" textLength="207" x="1142" y="122.334">Prepare-Topic-handler-dfsp1</text><rect fill="#FEFECE" filter="url(#f2cju65jgcxc6)" height="30.4883" style="stroke: #A80036; stroke-width: 1.5;" width="221" x="1139" y="1513.9883"/><rect fill="#FEFECE" filter="url(#f2cju65jgcxc6)" height="30.4883" style="stroke: #A80036; stroke-width: 1.5;" width="221" x="1135" y="1517.9883"/><text fill="#000000" font-family="sans-serif" font-size="14" lengthAdjust="spacingAndGlyphs" textLength="207" x="1142" y="1538.5234">Prepare-Topic-handler-dfsp1</text><text fill="#000000" font-family="sans-serif" font-size="14" lengthAdjust="spacingAndGlyphs" textLength="152" x="1554.5" y="134.334">Prepare Event Handler</text><ellipse cx="1633.5" cy="104.7988" fill="#FEFECE" filter="url(#f2cju65jgcxc6)" rx="12" ry="12" style="stroke: #A80036; stroke-width: 2.0;"/><polygon fill="#A80036" points="1629.5,92.7988,1635.5,87.7988,1633.5,92.7988,1635.5,97.7988,1629.5,92.7988" style="stroke: #A80036; stroke-width: 1.0;"/><text fill="#000000" font-family="sans-serif" font-size="14" lengthAdjust="spacingAndGlyphs" textLength="152" x="1554.5" y="1527.5234">Prepare Event Handler</text><ellipse cx="1633.5" cy="1546.4766" fill="#FEFECE" filter="url(#f2cju65jgcxc6)" rx="12" ry="12" style="stroke: #A80036; stroke-width: 2.0;"/><polygon fill="#A80036" points="1629.5,1534.4766,1635.5,1529.4766,1633.5,1534.4766,1635.5,1539.4766,1629.5,1534.4766" style="stroke: #A80036; stroke-width: 1.0;"/><rect fill="#FEFECE" filter="url(#f2cju65jgcxc6)" height="30.4883" style="stroke: #A80036; stroke-width: 1.5;" width="223" x="1851" y="97.7988"/><rect fill="#FEFECE" filter="url(#f2cju65jgcxc6)" height="30.4883" style="stroke: #A80036; stroke-width: 1.5;" width="223" x="1847" y="101.7988"/><text fill="#000000" font-family="sans-serif" font-size="14" lengthAdjust="spacingAndGlyphs" textLength="209" x="1854" y="122.334">Position-Topic-handler-dfsp1</text><rect fill="#FEFECE" filter="url(#f2cju65jgcxc6)" height="30.4883" style="stroke: #A80036; stroke-width: 1.5;" width="223" x="1851" y="1513.9883"/><rect fill="#FEFECE" filter="url(#f2cju65jgcxc6)" height="30.4883" style="stroke: #A80036; stroke-width: 1.5;" width="223" x="1847" y="1517.9883"/><text fill="#000000" font-family="sans-serif" font-size="14" lengthAdjust="spacingAndGlyphs" textLength="209" x="1854" y="1538.5234">Position-Topic-handler-dfsp1</text><text fill="#000000" font-family="sans-serif" font-size="14" lengthAdjust="spacingAndGlyphs" textLength="154" x="2216.5" y="134.334">Position Event Handler</text><ellipse cx="2296.5" cy="104.7988" fill="#FEFECE" filter="url(#f2cju65jgcxc6)" rx="12" ry="12" style="stroke: #A80036; stroke-width: 2.0;"/><polygon fill="#A80036" points="2292.5,92.7988,2298.5,87.7988,2296.5,92.7988,2298.5,97.7988,2292.5,92.7988" style="stroke: #A80036; stroke-width: 1.0;"/><text fill="#000000" font-family="sans-serif" font-size="14" lengthAdjust="spacingAndGlyphs" textLength="154" x="2216.5" y="1527.5234">Position Event Handler</text><ellipse cx="2296.5" cy="1546.4766" fill="#FEFECE" filter="url(#f2cju65jgcxc6)" rx="12" ry="12" style="stroke: #A80036; stroke-width: 2.0;"/><polygon fill="#A80036" points="2292.5,1534.4766,2298.5,1529.4766,2296.5,1534.4766,2298.5,1539.4766,2292.5,1534.4766" style="stroke: #A80036; stroke-width: 1.0;"/><rect fill="#FEFECE" filter="url(#f2cju65jgcxc6)" height="30.4883" style="stroke: #A80036; stroke-width: 1.5;" width="179" x="2648" y="97.7988"/><rect fill="#FEFECE" filter="url(#f2cju65jgcxc6)" height="30.4883" style="stroke: #A80036; stroke-width: 1.5;" width="179" x="2644" y="101.7988"/><text fill="#000000" font-family="sans-serif" font-size="14" lengthAdjust="spacingAndGlyphs" textLength="165" x="2651" y="122.334">Transfer-Topic-handler</text><rect fill="#FEFECE" filter="url(#f2cju65jgcxc6)" height="30.4883" style="stroke: #A80036; stroke-width: 1.5;" width="179" x="2648" y="1513.9883"/><rect fill="#FEFECE" filter="url(#f2cju65jgcxc6)" height="30.4883" style="stroke: #A80036; stroke-width: 1.5;" width="179" x="2644" y="1517.9883"/><text fill="#000000" font-family="sans-serif" font-size="14" lengthAdjust="spacingAndGlyphs" textLength="165" x="2651" y="1538.5234">Transfer-Topic-handler</text><text fill="#000000" font-family="sans-serif" font-size="14" lengthAdjust="spacingAndGlyphs" textLength="157" x="2841" y="134.334">Transfer Event Handler</text><ellipse cx="2922.5" cy="104.7988" fill="#FEFECE" filter="url(#f2cju65jgcxc6)" rx="12" ry="12" style="stroke: #A80036; stroke-width: 2.0;"/><polygon fill="#A80036" points="2918.5,92.7988,2924.5,87.7988,2922.5,92.7988,2924.5,97.7988,2918.5,92.7988" style="stroke: #A80036; stroke-width: 1.0;"/><text fill="#000000" font-family="sans-serif" font-size="14" lengthAdjust="spacingAndGlyphs" textLength="157" x="2841" y="1527.5234">Transfer Event Handler</text><ellipse cx="2922.5" cy="1546.4766" fill="#FEFECE" filter="url(#f2cju65jgcxc6)" rx="12" ry="12" style="stroke: #A80036; stroke-width: 2.0;"/><polygon fill="#A80036" points="2918.5,1534.4766,2924.5,1529.4766,2922.5,1534.4766,2924.5,1539.4766,2918.5,1534.4766" style="stroke: #A80036; stroke-width: 1.0;"/><rect fill="#FEFECE" filter="url(#f2cju65jgcxc6)" height="30.4883" style="stroke: #A80036; stroke-width: 1.5;" width="200" x="3018" y="97.7988"/><rect fill="#FEFECE" filter="url(#f2cju65jgcxc6)" height="30.4883" style="stroke: #A80036; stroke-width: 1.5;" width="200" x="3014" y="101.7988"/><text fill="#000000" font-family="sans-serif" font-size="14" lengthAdjust="spacingAndGlyphs" textLength="186" x="3021" y="122.334">Notification-Topic-handler</text><rect fill="#FEFECE" filter="url(#f2cju65jgcxc6)" height="30.4883" style="stroke: #A80036; stroke-width: 1.5;" width="200" x="3018" y="1513.9883"/><rect fill="#FEFECE" filter="url(#f2cju65jgcxc6)" height="30.4883" style="stroke: #A80036; stroke-width: 1.5;" width="200" x="3014" y="1517.9883"/><text fill="#000000" font-family="sans-serif" font-size="14" lengthAdjust="spacingAndGlyphs" textLength="186" x="3021" y="1538.5234">Notification-Topic-handler</text><text fill="#000000" font-family="sans-serif" font-size="14" lengthAdjust="spacingAndGlyphs" textLength="90" x="3232" y="134.334">Position DAO</text><ellipse cx="3280" cy="104.7988" fill="#FEFECE" filter="url(#f2cju65jgcxc6)" rx="12" ry="12" style="stroke: #A80036; stroke-width: 2.0;"/><line style="stroke: #A80036; stroke-width: 2.0;" x1="3268" x2="3292" y1="118.7988" y2="118.7988"/><text fill="#000000" font-family="sans-serif" font-size="14" lengthAdjust="spacingAndGlyphs" textLength="90" x="3232" y="1527.5234">Position DAO</text><ellipse cx="3280" cy="1546.4766" fill="#FEFECE" filter="url(#f2cju65jgcxc6)" rx="12" ry="12" style="stroke: #A80036; stroke-width: 2.0;"/><line style="stroke: #A80036; stroke-width: 2.0;" x1="3268" x2="3292" y1="1560.4766" y2="1560.4766"/><text fill="#000000" font-family="sans-serif" font-size="14" lengthAdjust="spacingAndGlyphs" textLength="72" x="3338" y="134.334">Event DAO</text><ellipse cx="3377" cy="104.7988" fill="#FEFECE" filter="url(#f2cju65jgcxc6)" rx="12" ry="12" style="stroke: #A80036; stroke-width: 2.0;"/><line style="stroke: #A80036; stroke-width: 2.0;" x1="3365" x2="3389" y1="118.7988" y2="118.7988"/><text fill="#000000" font-family="sans-serif" font-size="14" lengthAdjust="spacingAndGlyphs" textLength="72" x="3338" y="1527.5234">Event DAO</text><ellipse cx="3377" cy="1546.4766" fill="#FEFECE" filter="url(#f2cju65jgcxc6)" rx="12" ry="12" style="stroke: #A80036; stroke-width: 2.0;"/><line style="stroke: #A80036; stroke-width: 2.0;" x1="3365" x2="3389" y1="1560.4766" y2="1560.4766"/><text fill="#000000" font-family="sans-serif" font-size="14" lengthAdjust="spacingAndGlyphs" textLength="93" x="3426" y="134.334">Transfer DAO</text><ellipse cx="3475.5" cy="104.7988" fill="#FEFECE" filter="url(#f2cju65jgcxc6)" rx="12" ry="12" style="stroke: #A80036; stroke-width: 2.0;"/><line style="stroke: #A80036; stroke-width: 2.0;" x1="3463.5" x2="3487.5" y1="118.7988" y2="118.7988"/><text fill="#000000" font-family="sans-serif" font-size="14" lengthAdjust="spacingAndGlyphs" textLength="93" x="3426" y="1527.5234">Transfer DAO</text><ellipse cx="3475.5" cy="1546.4766" fill="#FEFECE" filter="url(#f2cju65jgcxc6)" rx="12" ry="12" style="stroke: #A80036; stroke-width: 2.0;"/><line style="stroke: #A80036; stroke-width: 2.0;" x1="3463.5" x2="3487.5" y1="1560.4766" y2="1560.4766"/><text fill="#000000" font-family="sans-serif" font-size="14" lengthAdjust="spacingAndGlyphs" textLength="114" x="3535" y="134.334">Notification DAO</text><ellipse cx="3595" cy="104.7988" fill="#FEFECE" filter="url(#f2cju65jgcxc6)" rx="12" ry="12" style="stroke: #A80036; stroke-width: 2.0;"/><line style="stroke: #A80036; stroke-width: 2.0;" x1="3583" x2="3607" y1="118.7988" y2="118.7988"/><text fill="#000000" font-family="sans-serif" font-size="14" lengthAdjust="spacingAndGlyphs" textLength="114" x="3535" y="1527.5234">Notification DAO</text><ellipse cx="3595" cy="1546.4766" fill="#FEFECE" filter="url(#f2cju65jgcxc6)" rx="12" ry="12" style="stroke: #A80036; stroke-width: 2.0;"/><line style="stroke: #A80036; stroke-width: 2.0;" x1="3583" x2="3607" y1="1560.4766" y2="1560.4766"/><text fill="#000000" font-family="sans-serif" font-size="14" lengthAdjust="spacingAndGlyphs" textLength="90" x="3665" y="134.334">Central Store</text><path d="M3695,84.7988 C3695,74.7988 3713,74.7988 3713,74.7988 C3713,74.7988 3731,74.7988 3731,84.7988 L3731,110.7988 C3731,120.7988 3713,120.7988 3713,120.7988 C3713,120.7988 3695,120.7988 3695,110.7988 L3695,84.7988 " fill="#FEFECE" filter="url(#f2cju65jgcxc6)" style="stroke: #000000; stroke-width: 1.5;"/><path d="M3695,84.7988 C3695,94.7988 3713,94.7988 3713,94.7988 C3713,94.7988 3731,94.7988 3731,84.7988 " fill="none" style="stroke: #000000; stroke-width: 1.5;"/><text fill="#000000" font-family="sans-serif" font-size="14" lengthAdjust="spacingAndGlyphs" textLength="90" x="3665" y="1527.5234">Central Store</text><path d="M3695,1540.4766 C3695,1530.4766 3713,1530.4766 3713,1530.4766 C3713,1530.4766 3731,1530.4766 3731,1540.4766 L3731,1566.4766 C3731,1576.4766 3713,1576.4766 3713,1576.4766 C3713,1576.4766 3695,1576.4766 3695,1566.4766 L3695,1540.4766 " fill="#FEFECE" filter="url(#f2cju65jgcxc6)" style="stroke: #000000; stroke-width: 1.5;"/><path d="M3695,1540.4766 C3695,1550.4766 3713,1550.4766 3713,1550.4766 C3713,1550.4766 3731,1550.4766 3731,1540.4766 " fill="none" style="stroke: #000000; stroke-width: 1.5;"/><rect fill="#FEFECE" filter="url(#f2cju65jgcxc6)" height="30.4883" style="stroke: #A80036; stroke-width: 1.5;" width="36" x="3771" y="101.7988"/><text fill="#000000" font-family="sans-serif" font-size="14" lengthAdjust="spacingAndGlyphs" textLength="22" x="3778" y="122.334">API</text><rect fill="#FEFECE" filter="url(#f2cju65jgcxc6)" height="30.4883" style="stroke: #A80036; stroke-width: 1.5;" width="36" x="3771" y="1513.9883"/><text fill="#000000" font-family="sans-serif" font-size="14" lengthAdjust="spacingAndGlyphs" textLength="22" x="3778" y="1534.5234">API</text><rect fill="#FFFFFF" filter="url(#f2cju65jgcxc6)" height="1358.7012" style="stroke: #A80036; stroke-width: 1.0;" width="10" x="340.5" y="147.2871"/><rect fill="#FFFFFF" filter="url(#f2cju65jgcxc6)" height="162.8633" style="stroke: #A80036; stroke-width: 1.0;" width="10" x="522" y="1343.125"/><rect fill="#FFFFFF" filter="url(#f2cju65jgcxc6)" height="377.9688" style="stroke: #A80036; stroke-width: 1.0;" width="10" x="1628.5" y="515.2559"/><rect fill="#FFFFFF" filter="url(#f2cju65jgcxc6)" height="449.9004" style="stroke: #A80036; stroke-width: 1.0;" width="10" x="2291.5" y="893.2246"/><rect fill="none" height="1343.7012" style="stroke: #000000; stroke-width: 2.0;" width="3738" x="33" y="154.2871"/><polygon fill="#EEEEEE" points="33,154.2871,95,154.2871,95,161.2871,85,171.2871,33,171.2871,33,154.2871" style="stroke: #000000; stroke-width: 2.0;"/><text fill="#000000" font-family="sans-serif" font-size="13" font-weight="bold" lengthAdjust="spacingAndGlyphs" textLength="17" x="48" y="167.8555">alt</text><text fill="#000000" font-family="sans-serif" font-size="11" font-weight="bold" lengthAdjust="spacingAndGlyphs" textLength="142" x="110" y="166.9219">[Prepare Position Failure]</text><polygon fill="#A80036" points="328.5,188.5977,338.5,192.5977,328.5,196.5977,332.5,192.5977" style="stroke: #A80036; stroke-width: 1.0;"/><line style="stroke: #A80036; stroke-width: 1.0;" x1="67.5" x2="334.5" y1="192.5977" y2="192.5977"/><text fill="#000000" font-family="sans-serif" font-size="13" font-weight="bold" lengthAdjust="spacingAndGlyphs" textLength="9" x="74.5" y="188.166">1</text><text fill="#000000" font-family="sans-serif" font-size="13" lengthAdjust="spacingAndGlyphs" textLength="148" x="87.5" y="188.166">POST - http://transfers</text><polygon fill="#FFFF00" filter="url(#f2cju65jgcxc6)" points="355,205.9082,355,383.9082,575,383.9082,575,215.9082,565,205.9082,355,205.9082" style="stroke: #A80036; stroke-width: 1.0;"/><line style="stroke: #A80036; stroke-width: 1.0;" x1="565" x2="565" y1="205.9082" y2="215.9082"/><line style="stroke: #A80036; stroke-width: 1.0;" x1="575" x2="565" y1="215.9082" y2="215.9082"/><text fill="#000000" font-family="sans-serif" font-size="13" lengthAdjust="spacingAndGlyphs" textLength="58" x="361" y="223.4766">Message:</text><text fill="#000000" font-family="sans-serif" font-size="13" lengthAdjust="spacingAndGlyphs" textLength="4" x="361" y="238.7871">{</text><text fill="#000000" font-family="sans-serif" font-size="13" lengthAdjust="spacingAndGlyphs" textLength="159" x="377" y="254.0977">id: &lt;transferMessage.id&gt;</text><text fill="#000000" font-family="sans-serif" font-size="13" lengthAdjust="spacingAndGlyphs" textLength="168" x="377" y="269.4082">from: http://ledger/dfsp1,</text><text fill="#000000" font-family="sans-serif" font-size="13" lengthAdjust="spacingAndGlyphs" textLength="151" x="377" y="284.7188">to: http://ledger/dfsp2,</text><text fill="#000000" font-family="sans-serif" font-size="13" lengthAdjust="spacingAndGlyphs" textLength="183" x="377" y="300.0293">content: &lt;transferMessage&gt;,</text><text fill="#000000" font-family="sans-serif" font-size="13" lengthAdjust="spacingAndGlyphs" textLength="70" x="377" y="315.3398">metadata: {</text><text fill="#000000" font-family="sans-serif" font-size="13" lengthAdjust="spacingAndGlyphs" textLength="123" x="393" y="330.6504">eventType: prepare,</text><text fill="#000000" font-family="sans-serif" font-size="13" lengthAdjust="spacingAndGlyphs" textLength="134" x="393" y="345.9609">eventAction: prepare,</text><text fill="#000000" font-family="sans-serif" font-size="13" lengthAdjust="spacingAndGlyphs" textLength="4" x="377" y="361.2715">}</text><text fill="#000000" font-family="sans-serif" font-size="13" lengthAdjust="spacingAndGlyphs" textLength="4" x="361" y="376.582">}</text><polygon fill="#A80036" points="1237.5,410.3242,1247.5,414.3242,1237.5,418.3242,1241.5,414.3242" style="stroke: #A80036; stroke-width: 1.0;"/><line style="stroke: #A80036; stroke-width: 1.0;" x1="350.5" x2="1243.5" y1="414.3242" y2="414.3242"/><text fill="#000000" font-family="sans-serif" font-size="13" font-weight="bold" lengthAdjust="spacingAndGlyphs" textLength="9" x="357.5" y="409.8926">2</text><text fill="#000000" font-family="sans-serif" font-size="13" lengthAdjust="spacingAndGlyphs" textLength="273" x="370.5" y="409.8926">Routes &amp; Publishes Prepare event for DFSP1</text><line style="stroke: #A80036; stroke-width: 1.0;" x1="1249.5" x2="1291.5" y1="443.9453" y2="443.9453"/><line style="stroke: #A80036; stroke-width: 1.0;" x1="1291.5" x2="1291.5" y1="443.9453" y2="456.9453"/><line style="stroke: #A80036; stroke-width: 1.0;" x1="1250.5" x2="1291.5" y1="456.9453" y2="456.9453"/><polygon fill="#A80036" points="1260.5,452.9453,1250.5,456.9453,1260.5,460.9453,1256.5,456.9453" style="stroke: #A80036; stroke-width: 1.0;"/><text fill="#000000" font-family="sans-serif" font-size="13" font-weight="bold" lengthAdjust="spacingAndGlyphs" textLength="9" x="1256.5" y="439.2031">3</text><text fill="#000000" font-family="sans-serif" font-size="13" lengthAdjust="spacingAndGlyphs" textLength="357" x="1269.5" y="439.2031">Ensures that event is replicated as configured (ACKS=all)</text><polygon fill="#A80036" points="361.5,481.9453,351.5,485.9453,361.5,489.9453,357.5,485.9453" style="stroke: #A80036; stroke-width: 1.0;"/><line style="stroke: #A80036; stroke-width: 1.0;" x1="355.5" x2="1248.5" y1="485.9453" y2="485.9453"/><text fill="#000000" font-family="sans-serif" font-size="13" font-weight="bold" lengthAdjust="spacingAndGlyphs" textLength="9" x="367.5" y="481.5137">4</text><text fill="#000000" font-family="sans-serif" font-size="13" lengthAdjust="spacingAndGlyphs" textLength="370" x="380.5" y="481.5137">Responds replication acknoledgements have been received</text><polygon fill="#A80036" points="78.5,511.2559,68.5,515.2559,78.5,519.2559,74.5,515.2559" style="stroke: #A80036; stroke-width: 1.0;"/><line style="stroke: #A80036; stroke-width: 1.0;" x1="72.5" x2="339.5" y1="515.2559" y2="515.2559"/><text fill="#000000" font-family="sans-serif" font-size="13" font-weight="bold" lengthAdjust="spacingAndGlyphs" textLength="9" x="84.5" y="510.8242">5</text><text fill="#000000" font-family="sans-serif" font-size="13" lengthAdjust="spacingAndGlyphs" textLength="201" x="97.5" y="510.8242">Respond HTTP - 202 (Accepted)</text><polygon fill="#A80036" points="1616.5,540.5664,1626.5,544.5664,1616.5,548.5664,1620.5,544.5664" style="stroke: #A80036; stroke-width: 1.0;"/><line style="stroke: #A80036; stroke-width: 1.0;" x1="1249.5" x2="1622.5" y1="544.5664" y2="544.5664"/><text fill="#000000" font-family="sans-serif" font-size="13" font-weight="bold" lengthAdjust="spacingAndGlyphs" textLength="9" x="1256.5" y="540.1348">6</text><text fill="#000000" font-family="sans-serif" font-size="13" lengthAdjust="spacingAndGlyphs" textLength="278" x="1269.5" y="540.1348">Consumes Prepare event message for DFSP1</text><line style="stroke: #A80036; stroke-width: 1.0;" x1="1638.5" x2="1680.5" y1="574.1875" y2="574.1875"/><line style="stroke: #A80036; stroke-width: 1.0;" x1="1680.5" x2="1680.5" y1="574.1875" y2="587.1875"/><line style="stroke: #A80036; stroke-width: 1.0;" x1="1639.5" x2="1680.5" y1="587.1875" y2="587.1875"/><polygon fill="#A80036" points="1649.5,583.1875,1639.5,587.1875,1649.5,591.1875,1645.5,587.1875" style="stroke: #A80036; stroke-width: 1.0;"/><text fill="#000000" font-family="sans-serif" font-size="13" font-weight="bold" lengthAdjust="spacingAndGlyphs" textLength="9" x="1645.5" y="569.4453">7</text><text fill="#000000" font-family="sans-serif" font-size="13" lengthAdjust="spacingAndGlyphs" textLength="146" x="1658.5" y="569.4453">Validates from - DFSP1</text><line style="stroke: #A80036; stroke-width: 1.0;" x1="1638.5" x2="1680.5" y1="616.498" y2="616.498"/><line style="stroke: #A80036; stroke-width: 1.0;" x1="1680.5" x2="1680.5" y1="616.498" y2="629.498"/><line style="stroke: #A80036; stroke-width: 1.0;" x1="1639.5" x2="1680.5" y1="629.498" y2="629.498"/><polygon fill="#A80036" points="1649.5,625.498,1639.5,629.498,1649.5,633.498,1645.5,629.498" style="stroke: #A80036; stroke-width: 1.0;"/><text fill="#000000" font-family="sans-serif" font-size="13" font-weight="bold" lengthAdjust="spacingAndGlyphs" textLength="9" x="1645.5" y="611.7559">8</text><text fill="#000000" font-family="sans-serif" font-size="13" lengthAdjust="spacingAndGlyphs" textLength="129" x="1658.5" y="611.7559">Validates to - DFSP2</text><line style="stroke: #A80036; stroke-width: 1.0;" x1="1638.5" x2="1680.5" y1="658.8086" y2="658.8086"/><line style="stroke: #A80036; stroke-width: 1.0;" x1="1680.5" x2="1680.5" y1="658.8086" y2="671.8086"/><line style="stroke: #A80036; stroke-width: 1.0;" x1="1639.5" x2="1680.5" y1="671.8086" y2="671.8086"/><polygon fill="#A80036" points="1649.5,667.8086,1639.5,671.8086,1649.5,675.8086,1645.5,671.8086" style="stroke: #A80036; stroke-width: 1.0;"/><text fill="#000000" font-family="sans-serif" font-size="13" font-weight="bold" lengthAdjust="spacingAndGlyphs" textLength="9" x="1645.5" y="654.0664">9</text><text fill="#000000" font-family="sans-serif" font-size="13" lengthAdjust="spacingAndGlyphs" textLength="179" x="1658.5" y="654.0664">Validates message signature</text><polygon fill="#FFFF00" filter="url(#f2cju65jgcxc6)" points="1643,684.8086,1643,862.8086,1863,862.8086,1863,694.8086,1853,684.8086,1643,684.8086" style="stroke: #A80036; stroke-width: 1.0;"/><line style="stroke: #A80036; stroke-width: 1.0;" x1="1853" x2="1853" y1="684.8086" y2="694.8086"/><line style="stroke: #A80036; stroke-width: 1.0;" x1="1863" x2="1853" y1="694.8086" y2="694.8086"/><text fill="#000000" font-family="sans-serif" font-size="13" lengthAdjust="spacingAndGlyphs" textLength="58" x="1649" y="702.377">Message:</text><text fill="#000000" font-family="sans-serif" font-size="13" lengthAdjust="spacingAndGlyphs" textLength="4" x="1649" y="717.6875">{</text><text fill="#000000" font-family="sans-serif" font-size="13" lengthAdjust="spacingAndGlyphs" textLength="159" x="1665" y="732.998">id: &lt;transferMessage.id&gt;</text><text fill="#000000" font-family="sans-serif" font-size="13" lengthAdjust="spacingAndGlyphs" textLength="168" x="1665" y="748.3086">from: http://ledger/dfsp1,</text><text fill="#000000" font-family="sans-serif" font-size="13" lengthAdjust="spacingAndGlyphs" textLength="151" x="1665" y="763.6191">to: http://ledger/dfsp2,</text><text fill="#000000" font-family="sans-serif" font-size="13" lengthAdjust="spacingAndGlyphs" textLength="183" x="1665" y="778.9297">content: &lt;transferMessage&gt;,</text><text fill="#000000" font-family="sans-serif" font-size="13" lengthAdjust="spacingAndGlyphs" textLength="70" x="1665" y="794.2402">metadata: {</text><text fill="#000000" font-family="sans-serif" font-size="13" lengthAdjust="spacingAndGlyphs" textLength="128" x="1681" y="809.5508">eventType: position,</text><text fill="#000000" font-family="sans-serif" font-size="13" lengthAdjust="spacingAndGlyphs" textLength="134" x="1681" y="824.8613">eventAction: prepare,</text><text fill="#000000" font-family="sans-serif" font-size="13" lengthAdjust="spacingAndGlyphs" textLength="4" x="1665" y="840.1719">}</text><text fill="#000000" font-family="sans-serif" font-size="13" lengthAdjust="spacingAndGlyphs" textLength="4" x="1649" y="855.4824">}</text><polygon fill="#A80036" points="1950.5,889.2246,1960.5,893.2246,1950.5,897.2246,1954.5,893.2246" style="stroke: #A80036; stroke-width: 1.0;"/><line style="stroke: #A80036; stroke-width: 1.0;" x1="1633.5" x2="1956.5" y1="893.2246" y2="893.2246"/><text fill="#000000" font-family="sans-serif" font-size="13" font-weight="bold" lengthAdjust="spacingAndGlyphs" textLength="18" x="1640.5" y="888.793">10</text><text fill="#000000" font-family="sans-serif" font-size="13" lengthAdjust="spacingAndGlyphs" textLength="278" x="1662.5" y="888.793">Routes &amp; Publishes Position event for DFSP1</text><polygon fill="#A80036" points="2279.5,918.5352,2289.5,922.5352,2279.5,926.5352,2283.5,922.5352" style="stroke: #A80036; stroke-width: 1.0;"/><line style="stroke: #A80036; stroke-width: 1.0;" x1="1962.5" x2="2285.5" y1="922.5352" y2="922.5352"/><text fill="#000000" font-family="sans-serif" font-size="13" font-weight="bold" lengthAdjust="spacingAndGlyphs" textLength="18" x="1969.5" y="918.1035">11</text><text fill="#000000" font-family="sans-serif" font-size="13" lengthAdjust="spacingAndGlyphs" textLength="283" x="1991.5" y="918.1035">Consumes Position event message for DFSP1</text><polygon fill="#A80036" points="3365,947.8457,3375,951.8457,3365,955.8457,3369,951.8457" style="stroke: #A80036; stroke-width: 1.0;"/><line style="stroke: #A80036; stroke-width: 1.0;" x1="2301.5" x2="3371" y1="951.8457" y2="951.8457"/><text fill="#000000" font-family="sans-serif" font-size="13" font-weight="bold" lengthAdjust="spacingAndGlyphs" textLength="18" x="2308.5" y="947.4141">12</text><text fill="#000000" font-family="sans-serif" font-size="13" lengthAdjust="spacingAndGlyphs" textLength="230" x="2330.5" y="947.4141">Request to persist event information</text><polygon fill="#A80036" points="3388,977.1563,3378,981.1563,3388,985.1563,3384,981.1563" style="stroke: #A80036; stroke-width: 1.0;"/><polygon fill="#A80036" points="3701,977.1563,3711,981.1563,3701,985.1563,3705,981.1563" style="stroke: #A80036; stroke-width: 1.0;"/><line style="stroke: #A80036; stroke-width: 1.0;" x1="3382" x2="3707" y1="981.1563" y2="981.1563"/><text fill="#000000" font-family="sans-serif" font-size="13" font-weight="bold" lengthAdjust="spacingAndGlyphs" textLength="18" x="3394" y="976.7246">13</text><text fill="#000000" font-family="sans-serif" font-size="13" lengthAdjust="spacingAndGlyphs" textLength="158" x="3416" y="976.7246">Persist event information</text><polygon fill="#A80036" points="2312.5,1006.4668,2302.5,1010.4668,2312.5,1014.4668,2308.5,1010.4668" style="stroke: #A80036; stroke-width: 1.0;"/><line style="stroke: #A80036; stroke-width: 1.0;" x1="2306.5" x2="3376" y1="1010.4668" y2="1010.4668"/><text fill="#000000" font-family="sans-serif" font-size="13" font-weight="bold" lengthAdjust="spacingAndGlyphs" textLength="18" x="2318.5" y="1006.0352">14</text><text fill="#000000" font-family="sans-serif" font-size="13" lengthAdjust="spacingAndGlyphs" textLength="92" x="2340.5" y="1006.0352">return success</text><polygon fill="#A80036" points="2312.5,1035.7773,2302.5,1039.7773,2312.5,1043.7773,2308.5,1039.7773" style="stroke: #A80036; stroke-width: 1.0;"/><polygon fill="#A80036" points="3701,1035.7773,3711,1039.7773,3701,1043.7773,3705,1039.7773" style="stroke: #A80036; stroke-width: 1.0;"/><line style="stroke: #A80036; stroke-width: 1.0;" x1="2306.5" x2="3707" y1="1039.7773" y2="1039.7773"/><text fill="#000000" font-family="sans-serif" font-size="13" font-weight="bold" lengthAdjust="spacingAndGlyphs" textLength="18" x="2318.5" y="1035.3457">15</text><text fill="#000000" font-family="sans-serif" font-size="13" lengthAdjust="spacingAndGlyphs" textLength="272" x="2340.5" y="1035.3457">Retrieves latest position from DB for DFSP1</text><line style="stroke: #A80036; stroke-width: 1.0;" x1="2301.5" x2="2343.5" y1="1069.3984" y2="1069.3984"/><line style="stroke: #A80036; stroke-width: 1.0;" x1="2343.5" x2="2343.5" y1="1069.3984" y2="1082.3984"/><line style="stroke: #A80036; stroke-width: 1.0;" x1="2302.5" x2="2343.5" y1="1082.3984" y2="1082.3984"/><polygon fill="#A80036" points="2312.5,1078.3984,2302.5,1082.3984,2312.5,1086.3984,2308.5,1082.3984" style="stroke: #A80036; stroke-width: 1.0;"/><text fill="#000000" font-family="sans-serif" font-size="13" font-weight="bold" lengthAdjust="spacingAndGlyphs" textLength="18" x="2308.5" y="1064.6563">16</text><text fill="#000000" font-family="sans-serif" font-size="13" lengthAdjust="spacingAndGlyphs" textLength="395" x="2330.5" y="1064.6563">Calculates latest position by decrementing transfer for prepare</text><polygon fill="#FF0000" filter="url(#f2cju65jgcxc6)" points="2306,1095.3984,2306,1120.3984,2438,1120.3984,2438,1105.3984,2428,1095.3984,2306,1095.3984" style="stroke: #A80036; stroke-width: 1.0;"/><line style="stroke: #A80036; stroke-width: 1.0;" x1="2428" x2="2428" y1="1095.3984" y2="1105.3984"/><line style="stroke: #A80036; stroke-width: 1.0;" x1="2438" x2="2428" y1="1105.3984" y2="1105.3984"/><text fill="#000000" font-family="sans-serif" font-size="13" lengthAdjust="spacingAndGlyphs" textLength="111" x="2312" y="1112.9668">Validation failure!</text><polygon fill="#FFFF00" filter="url(#f2cju65jgcxc6)" points="2306,1134.709,2306,1312.709,2586,1312.709,2586,1144.709,2576,1134.709,2306,1134.709" style="stroke: #A80036; stroke-width: 1.0;"/><line style="stroke: #A80036; stroke-width: 1.0;" x1="2576" x2="2576" y1="1134.709" y2="1144.709"/><line style="stroke: #A80036; stroke-width: 1.0;" x1="2586" x2="2576" y1="1144.709" y2="1144.709"/><text fill="#000000" font-family="sans-serif" font-size="13" lengthAdjust="spacingAndGlyphs" textLength="58" x="2312" y="1152.2773">Message:</text><text fill="#000000" font-family="sans-serif" font-size="13" lengthAdjust="spacingAndGlyphs" textLength="4" x="2312" y="1167.5879">{</text><text fill="#000000" font-family="sans-serif" font-size="13" lengthAdjust="spacingAndGlyphs" textLength="159" x="2328" y="1182.8984">id: &lt;transferMessage.id&gt;</text><text fill="#000000" font-family="sans-serif" font-size="13" lengthAdjust="spacingAndGlyphs" textLength="168" x="2328" y="1198.209">from: http://ledger/dfsp1,</text><text fill="#000000" font-family="sans-serif" font-size="13" lengthAdjust="spacingAndGlyphs" textLength="151" x="2328" y="1213.5195">to: http://ledger/dfsp2,</text><text fill="#000000" font-family="sans-serif" font-size="13" lengthAdjust="spacingAndGlyphs" textLength="243" x="2328" y="1228.8301">content: &lt;transferResponseMessage&gt;,</text><text fill="#000000" font-family="sans-serif" font-size="13" lengthAdjust="spacingAndGlyphs" textLength="70" x="2328" y="1244.1406">metadata: {</text><text fill="#000000" font-family="sans-serif" font-size="13" lengthAdjust="spacingAndGlyphs" textLength="149" x="2344" y="1259.4512">eventType: notification,</text><text fill="#000000" font-family="sans-serif" font-size="13" lengthAdjust="spacingAndGlyphs" textLength="134" x="2344" y="1274.7617">eventAction: prepare,</text><text fill="#000000" font-family="sans-serif" font-size="13" lengthAdjust="spacingAndGlyphs" textLength="4" x="2328" y="1290.0723">}</text><text fill="#000000" font-family="sans-serif" font-size="13" lengthAdjust="spacingAndGlyphs" textLength="4" x="2312" y="1305.3828">}</text><polygon fill="#A80036" points="3106,1339.125,3116,1343.125,3106,1347.125,3110,1343.125" style="stroke: #A80036; stroke-width: 1.0;"/><line style="stroke: #A80036; stroke-width: 1.0;" x1="2296.5" x2="3112" y1="1343.125" y2="1343.125"/><text fill="#000000" font-family="sans-serif" font-size="13" font-weight="bold" lengthAdjust="spacingAndGlyphs" textLength="18" x="2303.5" y="1338.6934">17</text><text fill="#000000" font-family="sans-serif" font-size="13" lengthAdjust="spacingAndGlyphs" textLength="303" x="2325.5" y="1338.6934">Publishes Notifications (Failure) event for DFSP2</text><polygon fill="#A80036" points="543,1368.4355,533,1372.4355,543,1376.4355,539,1372.4355" style="stroke: #A80036; stroke-width: 1.0;"/><line style="stroke: #A80036; stroke-width: 1.0;" x1="537" x2="3117" y1="1372.4355" y2="1372.4355"/><text fill="#000000" font-family="sans-serif" font-size="13" font-weight="bold" lengthAdjust="spacingAndGlyphs" textLength="18" x="549" y="1368.0039">18</text><text fill="#000000" font-family="sans-serif" font-size="13" lengthAdjust="spacingAndGlyphs" textLength="190" x="571" y="1368.0039">Consumes Notifications event</text><polygon fill="#A80036" points="1046,1397.7461,1056,1401.7461,1046,1405.7461,1050,1401.7461" style="stroke: #A80036; stroke-width: 1.0;"/><line style="stroke: #A80036; stroke-width: 1.0;" x1="532" x2="1052" y1="1401.7461" y2="1401.7461"/><text fill="#000000" font-family="sans-serif" font-size="13" font-weight="bold" lengthAdjust="spacingAndGlyphs" textLength="18" x="539" y="1397.3145">19</text><text fill="#000000" font-family="sans-serif" font-size="13" lengthAdjust="spacingAndGlyphs" textLength="480" x="561" y="1397.3145">Requests Notification details for DFSP1 - GET - HTTP://notifications/DFPS1</text><polygon fill="#A80036" points="1069,1427.0566,1059,1431.0566,1069,1435.0566,1065,1431.0566" style="stroke: #A80036; stroke-width: 1.0;"/><polygon fill="#A80036" points="3583,1427.0566,3593,1431.0566,3583,1435.0566,3587,1431.0566" style="stroke: #A80036; stroke-width: 1.0;"/><line style="stroke: #A80036; stroke-width: 1.0;" x1="1063" x2="3589" y1="1431.0566" y2="1431.0566"/><text fill="#000000" font-family="sans-serif" font-size="13" font-weight="bold" lengthAdjust="spacingAndGlyphs" textLength="18" x="1075" y="1426.625">20</text><text fill="#000000" font-family="sans-serif" font-size="13" lengthAdjust="spacingAndGlyphs" textLength="245" x="1097" y="1426.625">Fetches Notifications details for DFSP1</text><polygon fill="#A80036" points="543,1456.3672,533,1460.3672,543,1464.3672,539,1460.3672" style="stroke: #A80036; stroke-width: 1.0;"/><line style="stroke: #A80036; stroke-width: 1.0;" x1="537" x2="1057" y1="1460.3672" y2="1460.3672"/><text fill="#000000" font-family="sans-serif" font-size="13" font-weight="bold" lengthAdjust="spacingAndGlyphs" textLength="18" x="549" y="1455.9355">21</text><text fill="#000000" font-family="sans-serif" font-size="13" lengthAdjust="spacingAndGlyphs" textLength="245" x="571" y="1455.9355">Returns Notifications details for DFSP1</text><polygon fill="#A80036" points="78.5,1485.6777,68.5,1489.6777,78.5,1493.6777,74.5,1489.6777" style="stroke: #A80036; stroke-width: 1.0;"/><line style="stroke: #A80036; stroke-width: 1.0;" x1="72.5" x2="521" y1="1489.6777" y2="1489.6777"/><text fill="#000000" font-family="sans-serif" font-size="13" font-weight="bold" lengthAdjust="spacingAndGlyphs" textLength="18" x="84.5" y="1485.2461">22</text><text fill="#000000" font-family="sans-serif" font-size="13" lengthAdjust="spacingAndGlyphs" textLength="272" x="106.5" y="1485.2461">HTTP Callback with Prepare result to DFSP1</text><!--
@startuml
' declate title
title 1.3. DFSP1 sends a Prepare Transfer request to DFSP2 - Prepare Position Failure

autonumber

' Actor Keys:
'   boundary - APIs/Interfaces, etc
'   collections - Kafka Topics
'   control - Kafka Consumers
'   entity - Database Access Objects
'   database - Database Persistance Store

' declare actors
actor DFSP1
actor DFSP2
boundary "ML API Adapter" as MLAPI
control "ML API Notification Event Handler" as NOTIFY_HANDLER
boundary "Central Service API" as CSAPI
collections "Prepare-Topic-handler-dfsp1" as TOPIC_PREPARE_DFSP1
control "Prepare Event Handler" as PREP_HANDLER
collections "Position-Topic-handler-dfsp1" as TOPIC_POSITION_DFSP1
control "Position Event Handler" as POS_HANDLER
collections "Transfer-Topic-handler" as TOPIC_TRANSFERS
control "Transfer Event Handler" as TRANS_HANDLER
collections "Notification-Topic-handler" as TOPIC_NOTIFICATIONS
entity "Position DAO" as POS_DAO
entity "Event DAO" as EVENT_DAO
entity "Transfer DAO" as TRANS_DAO
entity "Notification DAO" as NOTIFY_DAO
database "Central Store" as DB

box "Financial Service Providers" #LightBlue
	participant DFSP1
	participant DFSP2
end box

box "ML API Adapter Service" #LightGreen
	participant MLAPI
	participant NOTIFY_HANDLER
end box

box "Central Service" #LightYellow
    participant CSAPI
	participant TOPIC_PREPARE_DFSP1
    participant PREP_HANDLER
    participant TOPIC_POSITION_DFSP1
    participant POS_HANDLER
    participant TOPIC_TRANSFERS
    participant TRANS_HANDLER
    participant TOPIC_NOTIFICATIONS
    participant POS_DAO
    participant EVENT_DAO
    participant TRANS_DAO
    participant NOTIFY_DAO
    participant DB
end box

' start flow
alt Prepare Position Failure
    activate MLAPI
    DFSP1 -> MLAPI: POST - http://transfers
    note right of MLAPI #yellow
        Message:
        {
            id: <transferMessage.id>
            from: http://ledger/dfsp1,
            to: http://ledger/dfsp2,
            content: <transferMessage>,
            metadata: {
                eventType: prepare,
                eventAction: prepare,
            }
        }
    end note
    MLAPI -> TOPIC_PREPARE_DFSP1: Routes & Publishes Prepare event for DFSP1
    TOPIC_PREPARE_DFSP1 <-> TOPIC_PREPARE_DFSP1: Ensures that event is replicated as configured (ACKS=all)
    TOPIC_PREPARE_DFSP1 -> MLAPI: Responds replication acknoledgements have been received
    MLAPI -> DFSP1: Respond HTTP - 202 (Accepted)
    deactivate API
    activate PREP_HANDLER
    TOPIC_PREPARE_DFSP1 -> PREP_HANDLER: Consumes Prepare event message for DFSP1
    PREP_HANDLER <-> PREP_HANDLER: Validates from - DFSP1
    PREP_HANDLER <-> PREP_HANDLER: Validates to - DFSP2
    PREP_HANDLER <-> PREP_HANDLER: Validates message signature
        note right of PREP_HANDLER #yellow
        Message:
        {
            id: <transferMessage.id>
            from: http://ledger/dfsp1,
            to: http://ledger/dfsp2,
            content: <transferMessage>,
            metadata: {
                eventType: position,
                eventAction: prepare,
            }
        }
    end note
    PREP_HANDLER -> TOPIC_POSITION_DFSP1: Routes & Publishes Position event for DFSP1
    deactivate PREP_HANDLER
    activate POS_HANDLER
    TOPIC_POSITION_DFSP1 -> POS_HANDLER: Consumes Position event message for DFSP1
    POS_HANDLER -> EVENT_DAO: Request to persist event information
    EVENT_DAO <-> DB: Persist event information
    EVENT_DAO -> POS_HANDLER: return success
    POS_HANDLER <-> DB: Retrieves latest position from DB for DFSP1
    POS_HANDLER <-> POS_HANDLER: Calculates latest position by decrementing transfer for prepare
    note right of POS_HANDLER #red: Validation failure!
    note right of POS_HANDLER #yellow
        Message:
        {
            id: <transferMessage.id>
            from: http://ledger/dfsp1,
            to: http://ledger/dfsp2,
            content: <transferResponseMessage>,
            metadata: {
                eventType: notification,
                eventAction: prepare,
            }
        }
    end note
    POS_HANDLER -> TOPIC_NOTIFICATIONS: Publishes Notifications (Failure) event for DFSP2
    deactivate POS_HANDLER
    activate NOTIFY_HANDLER
    TOPIC_NOTIFICATIONS -> NOTIFY_HANDLER: Consumes Notifications event
    NOTIFY_HANDLER -> CSAPI: Requests Notification details for DFSP1 - GET - HTTP://notifications/DFPS1
    CSAPI <-> NOTIFY_DAO: Fetches Notifications details for DFSP1
    CSAPI -> NOTIFY_HANDLER: Returns Notifications details for DFSP1
    NOTIFY_HANDLER -> DFSP1: HTTP Callback with Prepare result to DFSP1
end
@enduml

PlantUML version 1.2017.18(Fri Oct 06 18:56:32 SAST 2017)
(GPL source distribution)
Java Runtime: Java(TM) SE Runtime Environment
JVM: Java HotSpot(TM) 64-Bit Server VM
Java Version: 1.8.0_152-b16
Operating System: Mac OS X
OS Version: 10.13.4
Default Encoding: UTF-8
Language: en
Country: ZA
--></g></svg>