<?xml version="1.0" encoding="UTF-8" standalone="no"?><svg xmlns="http://www.w3.org/2000/svg" xmlns:xlink="http://www.w3.org/1999/xlink" contentScriptType="application/ecmascript" contentStyleType="text/css" height="1293px" preserveAspectRatio="none" style="width:3094px;height:1293px;" version="1.1" viewBox="0 0 3094 1293" width="3094px" zoomAndPan="magnify"><defs><filter height="300%" id="fpne0j8emmknw" width="300%" x="-1" y="-1"><feGaussianBlur result="blurOut" stdDeviation="2.0"/><feColorMatrix in="blurOut" result="blurOut2" type="matrix" values="0 0 0 0 0 0 0 0 0 0 0 0 0 0 0 0 0 0 .4 0"/><feOffset dx="4.0" dy="4.0" in="blurOut2" result="blurOut3"/><feBlend in="SourceGraphic" in2="blurOut3" mode="normal"/></filter></defs><g><text fill="#000000" font-family="sans-serif" font-size="14" font-weight="bold" lengthAdjust="spacingAndGlyphs" textLength="591" x="1248" y="23.5352">1.2 DFSP1 sends a Prepare Transfer request to DFSP2 - Prepare Validation Failure</text><rect fill="#ADD8E6" height="1248.2617" style="stroke: #A80036; stroke-width: 1.0;" width="186" x="4" y="34.4883"/><text fill="#000000" font-family="sans-serif" font-size="13" font-weight="bold" lengthAdjust="spacingAndGlyphs" textLength="180" x="7" y="47.0566">Financial Service Providers</text><rect fill="#90EE90" height="1248.2617" style="stroke: #A80036; stroke-width: 1.0;" width="361" x="286.5" y="34.4883"/><text fill="#000000" font-family="sans-serif" font-size="13" font-weight="bold" lengthAdjust="spacingAndGlyphs" textLength="157" x="388.5" y="47.0566">ML API Adapter Service</text><rect fill="#FFFFE0" height="1248.2617" style="stroke: #A80036; stroke-width: 1.0;" width="2096" x="987" y="34.4883"/><text fill="#000000" font-family="sans-serif" font-size="13" font-weight="bold" lengthAdjust="spacingAndGlyphs" textLength="101" x="1984.5" y="47.0566">Central Service</text><rect fill="#FFFFFF" filter="url(#fpne0j8emmknw)" height="413.9004" style="stroke: #A80036; stroke-width: 1.0;" width="10" x="340.5" y="147.2871"/><rect fill="#FFFFFF" filter="url(#fpne0j8emmknw)" height="146.5527" style="stroke: #A80036; stroke-width: 1.0;" width="10" x="522" y="1024.3984"/><rect fill="#FFFFFF" filter="url(#fpne0j8emmknw)" height="463.2109" style="stroke: #A80036; stroke-width: 1.0;" width="10" x="1598" y="561.1875"/><rect fill="#FFFFFF" filter="url(#fpne0j8emmknw)" height="1024.9746" style="stroke: #000000; stroke-width: 2.0;" width="2950" x="33" y="154.2871"/><line style="stroke: #A80036; stroke-width: 1.0; stroke-dasharray: 5.0,5.0;" x1="67" x2="67" y1="137.2871" y2="1196.2617"/><line style="stroke: #A80036; stroke-width: 1.0; stroke-dasharray: 5.0,5.0;" x1="126" x2="126" y1="137.2871" y2="1196.2617"/><line style="stroke: #A80036; stroke-width: 1.0; stroke-dasharray: 5.0,5.0;" x1="345.5" x2="345.5" y1="137.2871" y2="1196.2617"/><line style="stroke: #A80036; stroke-width: 1.0; stroke-dasharray: 5.0,5.0;" x1="526.5" x2="526.5" y1="137.2871" y2="1196.2617"/><line style="stroke: #A80036; stroke-width: 1.0; stroke-dasharray: 5.0,5.0;" x1="1058" x2="1058" y1="137.2871" y2="1196.2617"/><line style="stroke: #A80036; stroke-width: 1.0; stroke-dasharray: 5.0,5.0;" x1="1219" x2="1219" y1="137.2871" y2="1196.2617"/><line style="stroke: #A80036; stroke-width: 1.0; stroke-dasharray: 5.0,5.0;" x1="1603" x2="1603" y1="137.2871" y2="1196.2617"/><line style="stroke: #A80036; stroke-width: 1.0; stroke-dasharray: 5.0,5.0;" x1="1819" x2="1819" y1="137.2871" y2="1196.2617"/><line style="stroke: #A80036; stroke-width: 1.0; stroke-dasharray: 5.0,5.0;" x1="1994" x2="1994" y1="137.2871" y2="1196.2617"/><line style="stroke: #A80036; stroke-width: 1.0; stroke-dasharray: 5.0,5.0;" x1="2147" x2="2147" y1="137.2871" y2="1196.2617"/><line style="stroke: #A80036; stroke-width: 1.0; stroke-dasharray: 5.0,5.0;" x1="2301" x2="2301" y1="137.2871" y2="1196.2617"/><line style="stroke: #A80036; stroke-width: 1.0; stroke-dasharray: 5.0,5.0;" x1="2466" x2="2466" y1="137.2871" y2="1196.2617"/><line style="stroke: #A80036; stroke-width: 1.0; stroke-dasharray: 5.0,5.0;" x1="2598" x2="2598" y1="137.2871" y2="1196.2617"/><line style="stroke: #A80036; stroke-width: 1.0; stroke-dasharray: 5.0,5.0;" x1="2695" x2="2695" y1="137.2871" y2="1196.2617"/><line style="stroke: #A80036; stroke-width: 1.0; stroke-dasharray: 5.0,5.0;" x1="2793" x2="2793" y1="137.2871" y2="1196.2617"/><line style="stroke: #A80036; stroke-width: 1.0; stroke-dasharray: 5.0,5.0;" x1="2913" x2="2913" y1="137.2871" y2="1196.2617"/><line style="stroke: #A80036; stroke-width: 1.0; stroke-dasharray: 5.0,5.0;" x1="3031" x2="3031" y1="137.2871" y2="1196.2617"/><text fill="#000000" font-family="sans-serif" font-size="14" lengthAdjust="spacingAndGlyphs" textLength="43" x="43" y="134.334">DFSP1</text><ellipse cx="67.5" cy="63.7988" fill="#FEFECE" filter="url(#fpne0j8emmknw)" rx="8" ry="8" style="stroke: #A80036; stroke-width: 2.0;"/><path d="M67.5,71.7988 L67.5,98.7988 M54.5,79.7988 L80.5,79.7988 M67.5,98.7988 L54.5,113.7988 M67.5,98.7988 L80.5,113.7988 " fill="#FEFECE" filter="url(#fpne0j8emmknw)" style="stroke: #A80036; stroke-width: 2.0;"/><text fill="#000000" font-family="sans-serif" font-size="14" lengthAdjust="spacingAndGlyphs" textLength="43" x="43" y="1208.7969">DFSP1</text><ellipse cx="67.5" cy="1221.75" fill="#FEFECE" filter="url(#fpne0j8emmknw)" rx="8" ry="8" style="stroke: #A80036; stroke-width: 2.0;"/><path d="M67.5,1229.75 L67.5,1256.75 M54.5,1237.75 L80.5,1237.75 M67.5,1256.75 L54.5,1271.75 M67.5,1256.75 L80.5,1271.75 " fill="#FEFECE" filter="url(#fpne0j8emmknw)" style="stroke: #A80036; stroke-width: 2.0;"/><text fill="#000000" font-family="sans-serif" font-size="14" lengthAdjust="spacingAndGlyphs" textLength="43" x="102" y="134.334">DFSP2</text><ellipse cx="126.5" cy="63.7988" fill="#FEFECE" filter="url(#fpne0j8emmknw)" rx="8" ry="8" style="stroke: #A80036; stroke-width: 2.0;"/><path d="M126.5,71.7988 L126.5,98.7988 M113.5,79.7988 L139.5,79.7988 M126.5,98.7988 L113.5,113.7988 M126.5,98.7988 L139.5,113.7988 " fill="#FEFECE" filter="url(#fpne0j8emmknw)" style="stroke: #A80036; stroke-width: 2.0;"/><text fill="#000000" font-family="sans-serif" font-size="14" lengthAdjust="spacingAndGlyphs" textLength="43" x="102" y="1208.7969">DFSP2</text><ellipse cx="126.5" cy="1221.75" fill="#FEFECE" filter="url(#fpne0j8emmknw)" rx="8" ry="8" style="stroke: #A80036; stroke-width: 2.0;"/><path d="M126.5,1229.75 L126.5,1256.75 M113.5,1237.75 L139.5,1237.75 M126.5,1256.75 L113.5,1271.75 M126.5,1256.75 L139.5,1271.75 " fill="#FEFECE" filter="url(#fpne0j8emmknw)" style="stroke: #A80036; stroke-width: 2.0;"/><text fill="#000000" font-family="sans-serif" font-size="14" lengthAdjust="spacingAndGlyphs" textLength="104" x="290.5" y="134.334">ML API Adapter</text><path d="M325,92.7988 L325,116.7988 M325,104.7988 L342,104.7988 " fill="#FEFECE" filter="url(#fpne0j8emmknw)" style="stroke: #A80036; stroke-width: 2.0;"/><ellipse cx="354" cy="104.7988" fill="#FEFECE" filter="url(#fpne0j8emmknw)" rx="12" ry="12" style="stroke: #A80036; stroke-width: 2.0;"/><text fill="#000000" font-family="sans-serif" font-size="14" lengthAdjust="spacingAndGlyphs" textLength="104" x="290.5" y="1208.7969">ML API Adapter</text><path d="M325,1215.75 L325,1239.75 M325,1227.75 L342,1227.75 " fill="#FEFECE" filter="url(#fpne0j8emmknw)" style="stroke: #A80036; stroke-width: 2.0;"/><ellipse cx="354" cy="1227.75" fill="#FEFECE" filter="url(#fpne0j8emmknw)" rx="12" ry="12" style="stroke: #A80036; stroke-width: 2.0;"/><text fill="#000000" font-family="sans-serif" font-size="14" lengthAdjust="spacingAndGlyphs" textLength="227" x="410.5" y="134.334">ML API Notification Event Handler</text><ellipse cx="527" cy="104.7988" fill="#FEFECE" filter="url(#fpne0j8emmknw)" rx="12" ry="12" style="stroke: #A80036; stroke-width: 2.0;"/><polygon fill="#A80036" points="523,92.7988,529,87.7988,527,92.7988,529,97.7988,523,92.7988" style="stroke: #A80036; stroke-width: 1.0;"/><text fill="#000000" font-family="sans-serif" font-size="14" lengthAdjust="spacingAndGlyphs" textLength="227" x="410.5" y="1208.7969">ML API Notification Event Handler</text><ellipse cx="527" cy="1227.75" fill="#FEFECE" filter="url(#fpne0j8emmknw)" rx="12" ry="12" style="stroke: #A80036; stroke-width: 2.0;"/><polygon fill="#A80036" points="523,1215.75,529,1210.75,527,1215.75,529,1220.75,523,1215.75" style="stroke: #A80036; stroke-width: 1.0;"/><text fill="#000000" font-family="sans-serif" font-size="14" lengthAdjust="spacingAndGlyphs" textLength="128" x="991" y="134.334">Central Service API</text><path d="M1037.5,92.7988 L1037.5,116.7988 M1037.5,104.7988 L1054.5,104.7988 " fill="#FEFECE" filter="url(#fpne0j8emmknw)" style="stroke: #A80036; stroke-width: 2.0;"/><ellipse cx="1066.5" cy="104.7988" fill="#FEFECE" filter="url(#fpne0j8emmknw)" rx="12" ry="12" style="stroke: #A80036; stroke-width: 2.0;"/><text fill="#000000" font-family="sans-serif" font-size="14" lengthAdjust="spacingAndGlyphs" textLength="128" x="991" y="1208.7969">Central Service API</text><path d="M1037.5,1215.75 L1037.5,1239.75 M1037.5,1227.75 L1054.5,1227.75 " fill="#FEFECE" filter="url(#fpne0j8emmknw)" style="stroke: #A80036; stroke-width: 2.0;"/><ellipse cx="1066.5" cy="1227.75" fill="#FEFECE" filter="url(#fpne0j8emmknw)" rx="12" ry="12" style="stroke: #A80036; stroke-width: 2.0;"/><rect fill="#FEFECE" filter="url(#fpne0j8emmknw)" height="30.4883" style="stroke: #A80036; stroke-width: 1.5;" width="160" x="1139" y="97.7988"/><rect fill="#FEFECE" filter="url(#fpne0j8emmknw)" height="30.4883" style="stroke: #A80036; stroke-width: 1.5;" width="160" x="1135" y="101.7988"/><text fill="#000000" font-family="sans-serif" font-size="14" lengthAdjust="spacingAndGlyphs" textLength="146" x="1142" y="122.334">Prepare-Topic-dfsp1</text><rect fill="#FEFECE" filter="url(#fpne0j8emmknw)" height="30.4883" style="stroke: #A80036; stroke-width: 1.5;" width="160" x="1139" y="1195.2617"/><rect fill="#FEFECE" filter="url(#fpne0j8emmknw)" height="30.4883" style="stroke: #A80036; stroke-width: 1.5;" width="160" x="1135" y="1199.2617"/><text fill="#000000" font-family="sans-serif" font-size="14" lengthAdjust="spacingAndGlyphs" textLength="146" x="1142" y="1219.7969">Prepare-Topic-dfsp1</text><text fill="#000000" font-family="sans-serif" font-size="14" lengthAdjust="spacingAndGlyphs" textLength="152" x="1524" y="134.334">Prepare Event Handler</text><ellipse cx="1603" cy="104.7988" fill="#FEFECE" filter="url(#fpne0j8emmknw)" rx="12" ry="12" style="stroke: #A80036; stroke-width: 2.0;"/><polygon fill="#A80036" points="1599,92.7988,1605,87.7988,1603,92.7988,1605,97.7988,1599,92.7988" style="stroke: #A80036; stroke-width: 1.0;"/><text fill="#000000" font-family="sans-serif" font-size="14" lengthAdjust="spacingAndGlyphs" textLength="152" x="1524" y="1208.7969">Prepare Event Handler</text><ellipse cx="1603" cy="1227.75" fill="#FEFECE" filter="url(#fpne0j8emmknw)" rx="12" ry="12" style="stroke: #A80036; stroke-width: 2.0;"/><polygon fill="#A80036" points="1599,1215.75,1605,1210.75,1603,1215.75,1605,1220.75,1599,1215.75" style="stroke: #A80036; stroke-width: 1.0;"/><rect fill="#FEFECE" filter="url(#fpne0j8emmknw)" height="30.4883" style="stroke: #A80036; stroke-width: 1.5;" width="162" x="1738" y="97.7988"/><rect fill="#FEFECE" filter="url(#fpne0j8emmknw)" height="30.4883" style="stroke: #A80036; stroke-width: 1.5;" width="162" x="1734" y="101.7988"/><text fill="#000000" font-family="sans-serif" font-size="14" lengthAdjust="spacingAndGlyphs" textLength="148" x="1741" y="122.334">Position-Topic-dfsp1</text><rect fill="#FEFECE" filter="url(#fpne0j8emmknw)" height="30.4883" style="stroke: #A80036; stroke-width: 1.5;" width="162" x="1738" y="1195.2617"/><rect fill="#FEFECE" filter="url(#fpne0j8emmknw)" height="30.4883" style="stroke: #A80036; stroke-width: 1.5;" width="162" x="1734" y="1199.2617"/><text fill="#000000" font-family="sans-serif" font-size="14" lengthAdjust="spacingAndGlyphs" textLength="148" x="1741" y="1219.7969">Position-Topic-dfsp1</text><text fill="#000000" font-family="sans-serif" font-size="14" lengthAdjust="spacingAndGlyphs" textLength="154" x="1914" y="134.334">Position Event Handler</text><ellipse cx="1994" cy="104.7988" fill="#FEFECE" filter="url(#fpne0j8emmknw)" rx="12" ry="12" style="stroke: #A80036; stroke-width: 2.0;"/><polygon fill="#A80036" points="1990,92.7988,1996,87.7988,1994,92.7988,1996,97.7988,1990,92.7988" style="stroke: #A80036; stroke-width: 1.0;"/><text fill="#000000" font-family="sans-serif" font-size="14" lengthAdjust="spacingAndGlyphs" textLength="154" x="1914" y="1208.7969">Position Event Handler</text><ellipse cx="1994" cy="1227.75" fill="#FEFECE" filter="url(#fpne0j8emmknw)" rx="12" ry="12" style="stroke: #A80036; stroke-width: 2.0;"/><polygon fill="#A80036" points="1990,1215.75,1996,1210.75,1994,1215.75,1996,1220.75,1990,1215.75" style="stroke: #A80036; stroke-width: 1.0;"/><rect fill="#FEFECE" filter="url(#fpne0j8emmknw)" height="30.4883" style="stroke: #A80036; stroke-width: 1.5;" width="118" x="2088" y="97.7988"/><rect fill="#FEFECE" filter="url(#fpne0j8emmknw)" height="30.4883" style="stroke: #A80036; stroke-width: 1.5;" width="118" x="2084" y="101.7988"/><text fill="#000000" font-family="sans-serif" font-size="14" lengthAdjust="spacingAndGlyphs" textLength="104" x="2091" y="122.334">Transfer-Topic</text><rect fill="#FEFECE" filter="url(#fpne0j8emmknw)" height="30.4883" style="stroke: #A80036; stroke-width: 1.5;" width="118" x="2088" y="1195.2617"/><rect fill="#FEFECE" filter="url(#fpne0j8emmknw)" height="30.4883" style="stroke: #A80036; stroke-width: 1.5;" width="118" x="2084" y="1199.2617"/><text fill="#000000" font-family="sans-serif" font-size="14" lengthAdjust="spacingAndGlyphs" textLength="104" x="2091" y="1219.7969">Transfer-Topic</text><text fill="#000000" font-family="sans-serif" font-size="14" lengthAdjust="spacingAndGlyphs" textLength="157" x="2220" y="134.334">Transfer Event Handler</text><ellipse cx="2301.5" cy="104.7988" fill="#FEFECE" filter="url(#fpne0j8emmknw)" rx="12" ry="12" style="stroke: #A80036; stroke-width: 2.0;"/><polygon fill="#A80036" points="2297.5,92.7988,2303.5,87.7988,2301.5,92.7988,2303.5,97.7988,2297.5,92.7988" style="stroke: #A80036; stroke-width: 1.0;"/><text fill="#000000" font-family="sans-serif" font-size="14" lengthAdjust="spacingAndGlyphs" textLength="157" x="2220" y="1208.7969">Transfer Event Handler</text><ellipse cx="2301.5" cy="1227.75" fill="#FEFECE" filter="url(#fpne0j8emmknw)" rx="12" ry="12" style="stroke: #A80036; stroke-width: 2.0;"/><polygon fill="#A80036" points="2297.5,1215.75,2303.5,1210.75,2301.5,1215.75,2303.5,1220.75,2297.5,1215.75" style="stroke: #A80036; stroke-width: 1.0;"/><rect fill="#FEFECE" filter="url(#fpne0j8emmknw)" height="30.4883" style="stroke: #A80036; stroke-width: 1.5;" width="139" x="2397" y="97.7988"/><rect fill="#FEFECE" filter="url(#fpne0j8emmknw)" height="30.4883" style="stroke: #A80036; stroke-width: 1.5;" width="139" x="2393" y="101.7988"/><text fill="#000000" font-family="sans-serif" font-size="14" lengthAdjust="spacingAndGlyphs" textLength="125" x="2400" y="122.334">Notification-Topic</text><rect fill="#FEFECE" filter="url(#fpne0j8emmknw)" height="30.4883" style="stroke: #A80036; stroke-width: 1.5;" width="139" x="2397" y="1195.2617"/><rect fill="#FEFECE" filter="url(#fpne0j8emmknw)" height="30.4883" style="stroke: #A80036; stroke-width: 1.5;" width="139" x="2393" y="1199.2617"/><text fill="#000000" font-family="sans-serif" font-size="14" lengthAdjust="spacingAndGlyphs" textLength="125" x="2400" y="1219.7969">Notification-Topic</text><text fill="#000000" font-family="sans-serif" font-size="14" lengthAdjust="spacingAndGlyphs" textLength="90" x="2550" y="134.334">Position DAO</text><ellipse cx="2598" cy="104.7988" fill="#FEFECE" filter="url(#fpne0j8emmknw)" rx="12" ry="12" style="stroke: #A80036; stroke-width: 2.0;"/><line style="stroke: #A80036; stroke-width: 2.0;" x1="2586" x2="2610" y1="118.7988" y2="118.7988"/><text fill="#000000" font-family="sans-serif" font-size="14" lengthAdjust="spacingAndGlyphs" textLength="90" x="2550" y="1208.7969">Position DAO</text><ellipse cx="2598" cy="1227.75" fill="#FEFECE" filter="url(#fpne0j8emmknw)" rx="12" ry="12" style="stroke: #A80036; stroke-width: 2.0;"/><line style="stroke: #A80036; stroke-width: 2.0;" x1="2586" x2="2610" y1="1241.75" y2="1241.75"/><text fill="#000000" font-family="sans-serif" font-size="14" lengthAdjust="spacingAndGlyphs" textLength="72" x="2656" y="134.334">Event DAO</text><ellipse cx="2695" cy="104.7988" fill="#FEFECE" filter="url(#fpne0j8emmknw)" rx="12" ry="12" style="stroke: #A80036; stroke-width: 2.0;"/><line style="stroke: #A80036; stroke-width: 2.0;" x1="2683" x2="2707" y1="118.7988" y2="118.7988"/><text fill="#000000" font-family="sans-serif" font-size="14" lengthAdjust="spacingAndGlyphs" textLength="72" x="2656" y="1208.7969">Event DAO</text><ellipse cx="2695" cy="1227.75" fill="#FEFECE" filter="url(#fpne0j8emmknw)" rx="12" ry="12" style="stroke: #A80036; stroke-width: 2.0;"/><line style="stroke: #A80036; stroke-width: 2.0;" x1="2683" x2="2707" y1="1241.75" y2="1241.75"/><text fill="#000000" font-family="sans-serif" font-size="14" lengthAdjust="spacingAndGlyphs" textLength="93" x="2744" y="134.334">Transfer DAO</text><ellipse cx="2793.5" cy="104.7988" fill="#FEFECE" filter="url(#fpne0j8emmknw)" rx="12" ry="12" style="stroke: #A80036; stroke-width: 2.0;"/><line style="stroke: #A80036; stroke-width: 2.0;" x1="2781.5" x2="2805.5" y1="118.7988" y2="118.7988"/><text fill="#000000" font-family="sans-serif" font-size="14" lengthAdjust="spacingAndGlyphs" textLength="93" x="2744" y="1208.7969">Transfer DAO</text><ellipse cx="2793.5" cy="1227.75" fill="#FEFECE" filter="url(#fpne0j8emmknw)" rx="12" ry="12" style="stroke: #A80036; stroke-width: 2.0;"/><line style="stroke: #A80036; stroke-width: 2.0;" x1="2781.5" x2="2805.5" y1="1241.75" y2="1241.75"/><text fill="#000000" font-family="sans-serif" font-size="14" lengthAdjust="spacingAndGlyphs" textLength="114" x="2853" y="134.334">Notification DAO</text><ellipse cx="2913" cy="104.7988" fill="#FEFECE" filter="url(#fpne0j8emmknw)" rx="12" ry="12" style="stroke: #A80036; stroke-width: 2.0;"/><line style="stroke: #A80036; stroke-width: 2.0;" x1="2901" x2="2925" y1="118.7988" y2="118.7988"/><text fill="#000000" font-family="sans-serif" font-size="14" lengthAdjust="spacingAndGlyphs" textLength="114" x="2853" y="1208.7969">Notification DAO</text><ellipse cx="2913" cy="1227.75" fill="#FEFECE" filter="url(#fpne0j8emmknw)" rx="12" ry="12" style="stroke: #A80036; stroke-width: 2.0;"/><line style="stroke: #A80036; stroke-width: 2.0;" x1="2901" x2="2925" y1="1241.75" y2="1241.75"/><text fill="#000000" font-family="sans-serif" font-size="14" lengthAdjust="spacingAndGlyphs" textLength="90" x="2983" y="134.334">Central Store</text><path d="M3013,84.7988 C3013,74.7988 3031,74.7988 3031,74.7988 C3031,74.7988 3049,74.7988 3049,84.7988 L3049,110.7988 C3049,120.7988 3031,120.7988 3031,120.7988 C3031,120.7988 3013,120.7988 3013,110.7988 L3013,84.7988 " fill="#FEFECE" filter="url(#fpne0j8emmknw)" style="stroke: #000000; stroke-width: 1.5;"/><path d="M3013,84.7988 C3013,94.7988 3031,94.7988 3031,94.7988 C3031,94.7988 3049,94.7988 3049,84.7988 " fill="none" style="stroke: #000000; stroke-width: 1.5;"/><text fill="#000000" font-family="sans-serif" font-size="14" lengthAdjust="spacingAndGlyphs" textLength="90" x="2983" y="1208.7969">Central Store</text><path d="M3013,1221.75 C3013,1211.75 3031,1211.75 3031,1211.75 C3031,1211.75 3049,1211.75 3049,1221.75 L3049,1247.75 C3049,1257.75 3031,1257.75 3031,1257.75 C3031,1257.75 3013,1257.75 3013,1247.75 L3013,1221.75 " fill="#FEFECE" filter="url(#fpne0j8emmknw)" style="stroke: #000000; stroke-width: 1.5;"/><path d="M3013,1221.75 C3013,1231.75 3031,1231.75 3031,1231.75 C3031,1231.75 3049,1231.75 3049,1221.75 " fill="none" style="stroke: #000000; stroke-width: 1.5;"/><rect fill="#FFFFFF" filter="url(#fpne0j8emmknw)" height="413.9004" style="stroke: #A80036; stroke-width: 1.0;" width="10" x="340.5" y="147.2871"/><rect fill="#FFFFFF" filter="url(#fpne0j8emmknw)" height="146.5527" style="stroke: #A80036; stroke-width: 1.0;" width="10" x="522" y="1024.3984"/><rect fill="#FFFFFF" filter="url(#fpne0j8emmknw)" height="463.2109" style="stroke: #A80036; stroke-width: 1.0;" width="10" x="1598" y="561.1875"/><rect fill="none" height="1024.9746" style="stroke: #000000; stroke-width: 2.0;" width="2950" x="33" y="154.2871"/><polygon fill="#EEEEEE" points="33,154.2871,95,154.2871,95,161.2871,85,171.2871,33,171.2871,33,154.2871" style="stroke: #000000; stroke-width: 2.0;"/><text fill="#000000" font-family="sans-serif" font-size="13" font-weight="bold" lengthAdjust="spacingAndGlyphs" textLength="17" x="48" y="167.8555">alt</text><text fill="#000000" font-family="sans-serif" font-size="11" font-weight="bold" lengthAdjust="spacingAndGlyphs" textLength="153" x="110" y="166.9219">[Prepare Validation Failure]</text><polygon fill="#A80036" points="328.5,188.5977,338.5,192.5977,328.5,196.5977,332.5,192.5977" style="stroke: #A80036; stroke-width: 1.0;"/><line style="stroke: #A80036; stroke-width: 1.0;" x1="67.5" x2="334.5" y1="192.5977" y2="192.5977"/><text fill="#000000" font-family="sans-serif" font-size="13" font-weight="bold" lengthAdjust="spacingAndGlyphs" textLength="9" x="74.5" y="188.166">1</text><text fill="#000000" font-family="sans-serif" font-size="13" lengthAdjust="spacingAndGlyphs" textLength="148" x="87.5" y="188.166">POST - http://transfers</text><polygon fill="#FFFF00" filter="url(#fpne0j8emmknw)" points="355,205.9082,355,429.9082,575,429.9082,575,215.9082,565,205.9082,355,205.9082" style="stroke: #A80036; stroke-width: 1.0;"/><line style="stroke: #A80036; stroke-width: 1.0;" x1="565" x2="565" y1="205.9082" y2="215.9082"/><line style="stroke: #A80036; stroke-width: 1.0;" x1="575" x2="565" y1="215.9082" y2="215.9082"/><text fill="#000000" font-family="sans-serif" font-size="13" lengthAdjust="spacingAndGlyphs" textLength="58" x="361" y="223.4766">Message:</text><text fill="#000000" font-family="sans-serif" font-size="13" lengthAdjust="spacingAndGlyphs" textLength="4" x="361" y="238.7871">{</text><text fill="#000000" font-family="sans-serif" font-size="13" lengthAdjust="spacingAndGlyphs" textLength="159" x="377" y="254.0977">id: &lt;transferMessage.id&gt;</text><text fill="#000000" font-family="sans-serif" font-size="13" lengthAdjust="spacingAndGlyphs" textLength="168" x="377" y="269.4082">from: http://ledger/dfsp1,</text><text fill="#000000" font-family="sans-serif" font-size="13" lengthAdjust="spacingAndGlyphs" textLength="151" x="377" y="284.7188">to: http://ledger/dfsp2,</text><text fill="#000000" font-family="sans-serif" font-size="13" lengthAdjust="spacingAndGlyphs" textLength="139" x="377" y="300.0293">type: application/json</text><text fill="#000000" font-family="sans-serif" font-size="13" lengthAdjust="spacingAndGlyphs" textLength="183" x="377" y="315.3398">content: &lt;transferMessage&gt;,</text><text fill="#000000" font-family="sans-serif" font-size="13" lengthAdjust="spacingAndGlyphs" textLength="70" x="377" y="330.6504">metadata: {</text><text fill="#000000" font-family="sans-serif" font-size="13" lengthAdjust="spacingAndGlyphs" textLength="46" x="393" y="345.9609">event: {</text><text fill="#000000" font-family="sans-serif" font-size="13" lengthAdjust="spacingAndGlyphs" textLength="86" x="409" y="361.2715">type: prepare,</text><text fill="#000000" font-family="sans-serif" font-size="13" lengthAdjust="spacingAndGlyphs" textLength="94" x="409" y="376.582">action: prepare</text><text fill="#000000" font-family="sans-serif" font-size="13" lengthAdjust="spacingAndGlyphs" textLength="4" x="393" y="391.8926">}</text><text fill="#000000" font-family="sans-serif" font-size="13" lengthAdjust="spacingAndGlyphs" textLength="4" x="377" y="407.2031">}</text><text fill="#000000" font-family="sans-serif" font-size="13" lengthAdjust="spacingAndGlyphs" textLength="4" x="361" y="422.5137">}</text><polygon fill="#A80036" points="1207,456.2559,1217,460.2559,1207,464.2559,1211,460.2559" style="stroke: #A80036; stroke-width: 1.0;"/><line style="stroke: #A80036; stroke-width: 1.0;" x1="350.5" x2="1213" y1="460.2559" y2="460.2559"/><text fill="#000000" font-family="sans-serif" font-size="13" font-weight="bold" lengthAdjust="spacingAndGlyphs" textLength="9" x="357.5" y="455.8242">2</text><text fill="#000000" font-family="sans-serif" font-size="13" lengthAdjust="spacingAndGlyphs" textLength="273" x="370.5" y="455.8242">Routes &amp; Publishes Prepare event for DFSP1</text><line style="stroke: #A80036; stroke-width: 1.0;" x1="1219" x2="1261" y1="489.877" y2="489.877"/><line style="stroke: #A80036; stroke-width: 1.0;" x1="1261" x2="1261" y1="489.877" y2="502.877"/><line style="stroke: #A80036; stroke-width: 1.0;" x1="1220" x2="1261" y1="502.877" y2="502.877"/><polygon fill="#A80036" points="1230,498.877,1220,502.877,1230,506.877,1226,502.877" style="stroke: #A80036; stroke-width: 1.0;"/><text fill="#000000" font-family="sans-serif" font-size="13" font-weight="bold" lengthAdjust="spacingAndGlyphs" textLength="9" x="1226" y="485.1348">3</text><text fill="#000000" font-family="sans-serif" font-size="13" lengthAdjust="spacingAndGlyphs" textLength="357" x="1239" y="485.1348">Ensures that event is replicated as configured (ACKS=all)</text><polygon fill="#A80036" points="361.5,527.877,351.5,531.877,361.5,535.877,357.5,531.877" style="stroke: #A80036; stroke-width: 1.0;"/><line style="stroke: #A80036; stroke-width: 1.0;" x1="355.5" x2="1218" y1="531.877" y2="531.877"/><text fill="#000000" font-family="sans-serif" font-size="13" font-weight="bold" lengthAdjust="spacingAndGlyphs" textLength="9" x="367.5" y="527.4453">4</text><text fill="#000000" font-family="sans-serif" font-size="13" lengthAdjust="spacingAndGlyphs" textLength="370" x="380.5" y="527.4453">Responds replication acknoledgements have been received</text><polygon fill="#A80036" points="78.5,557.1875,68.5,561.1875,78.5,565.1875,74.5,561.1875" style="stroke: #A80036; stroke-width: 1.0;"/><line style="stroke: #A80036; stroke-width: 1.0;" x1="72.5" x2="344.5" y1="561.1875" y2="561.1875"/><text fill="#000000" font-family="sans-serif" font-size="13" font-weight="bold" lengthAdjust="spacingAndGlyphs" textLength="9" x="84.5" y="556.7559">5</text><text fill="#000000" font-family="sans-serif" font-size="13" lengthAdjust="spacingAndGlyphs" textLength="201" x="97.5" y="556.7559">Respond HTTP - 202 (Accepted)</text><polygon fill="#A80036" points="1586,586.498,1596,590.498,1586,594.498,1590,590.498" style="stroke: #A80036; stroke-width: 1.0;"/><line style="stroke: #A80036; stroke-width: 1.0;" x1="1219" x2="1592" y1="590.498" y2="590.498"/><text fill="#000000" font-family="sans-serif" font-size="13" font-weight="bold" lengthAdjust="spacingAndGlyphs" textLength="9" x="1226" y="586.0664">6</text><text fill="#000000" font-family="sans-serif" font-size="13" lengthAdjust="spacingAndGlyphs" textLength="278" x="1239" y="586.0664">Consumes Prepare event message for DFSP1</text><line style="stroke: #A80036; stroke-width: 1.0;" x1="1608" x2="1650" y1="620.1191" y2="620.1191"/><line style="stroke: #A80036; stroke-width: 1.0;" x1="1650" x2="1650" y1="620.1191" y2="633.1191"/><line style="stroke: #A80036; stroke-width: 1.0;" x1="1609" x2="1650" y1="633.1191" y2="633.1191"/><polygon fill="#A80036" points="1619,629.1191,1609,633.1191,1619,637.1191,1615,633.1191" style="stroke: #A80036; stroke-width: 1.0;"/><text fill="#000000" font-family="sans-serif" font-size="13" font-weight="bold" lengthAdjust="spacingAndGlyphs" textLength="9" x="1615" y="615.377">7</text><text fill="#000000" font-family="sans-serif" font-size="13" lengthAdjust="spacingAndGlyphs" textLength="146" x="1628" y="615.377">Validates from - DFSP1</text><line style="stroke: #A80036; stroke-width: 1.0;" x1="1608" x2="1650" y1="662.4297" y2="662.4297"/><line style="stroke: #A80036; stroke-width: 1.0;" x1="1650" x2="1650" y1="662.4297" y2="675.4297"/><line style="stroke: #A80036; stroke-width: 1.0;" x1="1609" x2="1650" y1="675.4297" y2="675.4297"/><polygon fill="#A80036" points="1619,671.4297,1609,675.4297,1619,679.4297,1615,675.4297" style="stroke: #A80036; stroke-width: 1.0;"/><text fill="#000000" font-family="sans-serif" font-size="13" font-weight="bold" lengthAdjust="spacingAndGlyphs" textLength="9" x="1615" y="657.6875">8</text><text fill="#000000" font-family="sans-serif" font-size="13" lengthAdjust="spacingAndGlyphs" textLength="129" x="1628" y="657.6875">Validates to - DFSP2</text><line style="stroke: #A80036; stroke-width: 1.0;" x1="1608" x2="1650" y1="704.7402" y2="704.7402"/><line style="stroke: #A80036; stroke-width: 1.0;" x1="1650" x2="1650" y1="704.7402" y2="717.7402"/><line style="stroke: #A80036; stroke-width: 1.0;" x1="1609" x2="1650" y1="717.7402" y2="717.7402"/><polygon fill="#A80036" points="1619,713.7402,1609,717.7402,1619,721.7402,1615,717.7402" style="stroke: #A80036; stroke-width: 1.0;"/><text fill="#000000" font-family="sans-serif" font-size="13" font-weight="bold" lengthAdjust="spacingAndGlyphs" textLength="9" x="1615" y="699.998">9</text><text fill="#000000" font-family="sans-serif" font-size="13" lengthAdjust="spacingAndGlyphs" textLength="179" x="1628" y="699.998">Validates message signature</text><polygon fill="#FF0000" filter="url(#fpne0j8emmknw)" points="1613,730.7402,1613,755.7402,1745,755.7402,1745,740.7402,1735,730.7402,1613,730.7402" style="stroke: #A80036; stroke-width: 1.0;"/><line style="stroke: #A80036; stroke-width: 1.0;" x1="1735" x2="1735" y1="730.7402" y2="740.7402"/><line style="stroke: #A80036; stroke-width: 1.0;" x1="1745" x2="1735" y1="740.7402" y2="740.7402"/><text fill="#000000" font-family="sans-serif" font-size="13" lengthAdjust="spacingAndGlyphs" textLength="111" x="1619" y="748.3086">Validation failure!</text><polygon fill="#FFFF00" filter="url(#fpne0j8emmknw)" points="1613,770.0508,1613,994.0508,1893,994.0508,1893,780.0508,1883,770.0508,1613,770.0508" style="stroke: #A80036; stroke-width: 1.0;"/><line style="stroke: #A80036; stroke-width: 1.0;" x1="1883" x2="1883" y1="770.0508" y2="780.0508"/><line style="stroke: #A80036; stroke-width: 1.0;" x1="1893" x2="1883" y1="780.0508" y2="780.0508"/><text fill="#000000" font-family="sans-serif" font-size="13" lengthAdjust="spacingAndGlyphs" textLength="58" x="1619" y="787.6191">Message:</text><text fill="#000000" font-family="sans-serif" font-size="13" lengthAdjust="spacingAndGlyphs" textLength="4" x="1619" y="802.9297">{</text><text fill="#000000" font-family="sans-serif" font-size="13" lengthAdjust="spacingAndGlyphs" textLength="159" x="1635" y="818.2402">id: &lt;transferMessage.id&gt;</text><text fill="#000000" font-family="sans-serif" font-size="13" lengthAdjust="spacingAndGlyphs" textLength="168" x="1635" y="833.5508">from: http://ledger/dfsp1,</text><text fill="#000000" font-family="sans-serif" font-size="13" lengthAdjust="spacingAndGlyphs" textLength="151" x="1635" y="848.8613">to: http://ledger/dfsp1,</text><text fill="#000000" font-family="sans-serif" font-size="13" lengthAdjust="spacingAndGlyphs" textLength="139" x="1635" y="864.1719">type: application/json</text><text fill="#000000" font-family="sans-serif" font-size="13" lengthAdjust="spacingAndGlyphs" textLength="243" x="1635" y="879.4824">content: &lt;transferResponseMessage&gt;,</text><text fill="#000000" font-family="sans-serif" font-size="13" lengthAdjust="spacingAndGlyphs" textLength="70" x="1635" y="894.793">metadata: {</text><text fill="#000000" font-family="sans-serif" font-size="13" lengthAdjust="spacingAndGlyphs" textLength="46" x="1651" y="910.1035">event: {</text><text fill="#000000" font-family="sans-serif" font-size="13" lengthAdjust="spacingAndGlyphs" textLength="112" x="1667" y="925.4141">type: notification,</text><text fill="#000000" font-family="sans-serif" font-size="13" lengthAdjust="spacingAndGlyphs" textLength="94" x="1667" y="940.7246">action: prepare</text><text fill="#000000" font-family="sans-serif" font-size="13" lengthAdjust="spacingAndGlyphs" textLength="4" x="1651" y="956.0352">}</text><text fill="#000000" font-family="sans-serif" font-size="13" lengthAdjust="spacingAndGlyphs" textLength="4" x="1635" y="971.3457">}</text><text fill="#000000" font-family="sans-serif" font-size="13" lengthAdjust="spacingAndGlyphs" textLength="4" x="1619" y="986.6563">}</text><polygon fill="#A80036" points="2454.5,1020.3984,2464.5,1024.3984,2454.5,1028.3984,2458.5,1024.3984" style="stroke: #A80036; stroke-width: 1.0;"/><line style="stroke: #A80036; stroke-width: 1.0;" x1="1603" x2="2460.5" y1="1024.3984" y2="1024.3984"/><text fill="#000000" font-family="sans-serif" font-size="13" font-weight="bold" lengthAdjust="spacingAndGlyphs" textLength="18" x="1610" y="1019.9668">10</text><text fill="#000000" font-family="sans-serif" font-size="13" lengthAdjust="spacingAndGlyphs" textLength="294" x="1632" y="1019.9668">Publishes Notification (failure) event for DFSP1</text><polygon fill="#A80036" points="543,1049.709,533,1053.709,543,1057.709,539,1053.709" style="stroke: #A80036; stroke-width: 1.0;"/><line style="stroke: #A80036; stroke-width: 1.0;" x1="537" x2="2465.5" y1="1053.709" y2="1053.709"/><text fill="#000000" font-family="sans-serif" font-size="13" font-weight="bold" lengthAdjust="spacingAndGlyphs" textLength="18" x="549" y="1049.2773">11</text><text fill="#000000" font-family="sans-serif" font-size="13" lengthAdjust="spacingAndGlyphs" textLength="190" x="571" y="1049.2773">Consumes Notifications event</text><polygon fill="#A80036" points="1046,1079.0195,1056,1083.0195,1046,1087.0195,1050,1083.0195" style="stroke: #A80036; stroke-width: 1.0;"/><line style="stroke: #A80036; stroke-width: 1.0;" x1="532" x2="1052" y1="1083.0195" y2="1083.0195"/><text fill="#000000" font-family="sans-serif" font-size="13" font-weight="bold" lengthAdjust="spacingAndGlyphs" textLength="18" x="539" y="1078.5879">12</text><text fill="#000000" font-family="sans-serif" font-size="13" lengthAdjust="spacingAndGlyphs" textLength="480" x="561" y="1078.5879">Requests Notification details for DFSP1 - GET - HTTP://notifications/DFPS1</text><polygon fill="#A80036" points="1069,1108.3301,1059,1112.3301,1069,1116.3301,1065,1112.3301" style="stroke: #A80036; stroke-width: 1.0;"/><polygon fill="#A80036" points="2901,1108.3301,2911,1112.3301,2901,1116.3301,2905,1112.3301" style="stroke: #A80036; stroke-width: 1.0;"/><line style="stroke: #A80036; stroke-width: 1.0;" x1="1063" x2="2907" y1="1112.3301" y2="1112.3301"/><text fill="#000000" font-family="sans-serif" font-size="13" font-weight="bold" lengthAdjust="spacingAndGlyphs" textLength="18" x="1075" y="1107.8984">13</text><text fill="#000000" font-family="sans-serif" font-size="13" lengthAdjust="spacingAndGlyphs" textLength="245" x="1097" y="1107.8984">Fetches Notifications details for DFSP1</text><polygon fill="#A80036" points="543,1137.6406,533,1141.6406,543,1145.6406,539,1141.6406" style="stroke: #A80036; stroke-width: 1.0;"/><line style="stroke: #A80036; stroke-width: 1.0;" x1="537" x2="1057" y1="1141.6406" y2="1141.6406"/><text fill="#000000" font-family="sans-serif" font-size="13" font-weight="bold" lengthAdjust="spacingAndGlyphs" textLength="18" x="549" y="1137.209">14</text><text fill="#000000" font-family="sans-serif" font-size="13" lengthAdjust="spacingAndGlyphs" textLength="245" x="571" y="1137.209">Returns Notifications details for DFSP1</text><polygon fill="#A80036" points="78.5,1166.9512,68.5,1170.9512,78.5,1174.9512,74.5,1170.9512" style="stroke: #A80036; stroke-width: 1.0;"/><line style="stroke: #A80036; stroke-width: 1.0;" x1="72.5" x2="526" y1="1170.9512" y2="1170.9512"/><text fill="#000000" font-family="sans-serif" font-size="13" font-weight="bold" lengthAdjust="spacingAndGlyphs" textLength="18" x="84.5" y="1166.5195">15</text><text fill="#000000" font-family="sans-serif" font-size="13" lengthAdjust="spacingAndGlyphs" textLength="272" x="106.5" y="1166.5195">HTTP Callback with Prepare result to DFSP1</text><!--
@startuml
' declate title
title 1.2 DFSP1 sends a Prepare Transfer request to DFSP2 - Prepare Validation Failure

autonumber

' Actor Keys:
'   boundary - APIs/Interfaces, etc
'   collections - Kafka Topics
'   control - Kafka Consumers
'   entity - Database Access Objects
'   database - Database Persistance Store

' declare actors
actor DFSP1
actor DFSP2
boundary "ML API Adapter" as MLAPI
control "ML API Notification Event Handler" as NOTIFY_HANDLER
boundary "Central Service API" as CSAPI
collections "Prepare-Topic-dfsp1" as TOPIC_PREPARE_DFSP1
control "Prepare Event Handler" as PREP_HANDLER
collections "Position-Topic-dfsp1" as TOPIC_POSITION_DFSP1
control "Position Event Handler" as POS_HANDLER
collections "Transfer-Topic" as TOPIC_TRANSFERS
control "Transfer Event Handler" as TRANS_HANDLER
collections "Notification-Topic" as TOPIC_NOTIFICATIONS
entity "Position DAO" as POS_DAO
entity "Event DAO" as EVENT_DAO
entity "Transfer DAO" as TRANS_DAO
entity "Notification DAO" as NOTIFY_DAO
database "Central Store" as DB

box "Financial Service Providers" #LightBlue
	participant DFSP1
	participant DFSP2
end box

box "ML API Adapter Service" #LightGreen
	participant MLAPI
	participant NOTIFY_HANDLER
end box

box "Central Service" #LightYellow
    participant CSAPI
	participant TOPIC_PREPARE_DFSP1
    participant PREP_HANDLER
    participant TOPIC_POSITION_DFSP1
    participant POS_HANDLER
    participant TOPIC_TRANSFERS
    participant TRANS_HANDLER
    participant TOPIC_NOTIFICATIONS
    participant POS_DAO
    participant EVENT_DAO
    participant TRANS_DAO
    participant NOTIFY_DAO
    participant DB
end box

' start flow
alt Prepare Validation Failure
    activate MLAPI
    DFSP1 -> MLAPI: POST - http://transfers
    note right of MLAPI #yellow
        Message:
        {
            id: <transferMessage.id>
            from: http://ledger/dfsp1,
            to: http://ledger/dfsp2,
            type: application/json
            content: <transferMessage>,
            metadata: {
                event: {
                    type: prepare,
                    action: prepare
                }
            }
        }
    end note
    MLAPI -> TOPIC_PREPARE_DFSP1: Routes & Publishes Prepare event for DFSP1
    TOPIC_PREPARE_DFSP1 <-> TOPIC_PREPARE_DFSP1: Ensures that event is replicated as configured (ACKS=all)
    TOPIC_PREPARE_DFSP1 -> MLAPI: Responds replication acknoledgements have been received
    MLAPI -> DFSP1: Respond HTTP - 202 (Accepted)
    deactivate MLAPI
    activate PREP_HANDLER
    TOPIC_PREPARE_DFSP1 -> PREP_HANDLER: Consumes Prepare event message for DFSP1
    PREP_HANDLER <-> PREP_HANDLER: Validates from - DFSP1
    PREP_HANDLER <-> PREP_HANDLER: Validates to - DFSP2
    PREP_HANDLER <-> PREP_HANDLER: Validates message signature
    note right of PREP_HANDLER #red: Validation failure!
    note right of PREP_HANDLER #yellow
        Message:
        {
            id: <transferMessage.id>
            from: http://ledger/dfsp1,
            to: http://ledger/dfsp1,
            type: application/json
            content: <transferResponseMessage>,
            metadata: {
                event: {
                    type: notification,
                    action: prepare
                }
            }
        }
    end note
    PREP_HANDLER -> TOPIC_NOTIFICATIONS: Publishes Notification (failure) event for DFSP1
    deactivate PREP_HANDLER
    activate NOTIFY_HANDLER
    TOPIC_NOTIFICATIONS -> NOTIFY_HANDLER: Consumes Notifications event
    NOTIFY_HANDLER -> CSAPI: Requests Notification details for DFSP1 - GET - HTTP://notifications/DFPS1
    CSAPI <-> NOTIFY_DAO: Fetches Notifications details for DFSP1
    CSAPI -> NOTIFY_HANDLER: Returns Notifications details for DFSP1
    NOTIFY_HANDLER -> DFSP1: HTTP Callback with Prepare result to DFSP1
    deactivate NOTIFY_HANDLER
end
@enduml

PlantUML version 1.2017.18(Fri Oct 06 18:56:32 SAST 2017)
(GPL source distribution)
Java Runtime: Java(TM) SE Runtime Environment
JVM: Java HotSpot(TM) 64-Bit Server VM
Java Version: 1.8.0_152-b16
Operating System: Mac OS X
OS Version: 10.13.4
Default Encoding: UTF-8
Language: en
Country: ZA
--></g></svg>