<?xml version="1.0" encoding="UTF-8" standalone="no"?><svg xmlns="http://www.w3.org/2000/svg" xmlns:xlink="http://www.w3.org/1999/xlink" contentScriptType="application/ecmascript" contentStyleType="text/css" height="1516px" preserveAspectRatio="none" style="width:3273px;height:1516px;" version="1.1" viewBox="0 0 3273 1516" width="3273px" zoomAndPan="magnify"><defs><filter height="300%" id="f16pv7ujz1q4xm" width="300%" x="-1" y="-1"><feGaussianBlur result="blurOut" stdDeviation="2.0"/><feColorMatrix in="blurOut" result="blurOut2" type="matrix" values="0 0 0 0 0 0 0 0 0 0 0 0 0 0 0 0 0 0 .4 0"/><feOffset dx="4.0" dy="4.0" in="blurOut2" result="blurOut3"/><feBlend in="SourceGraphic" in2="blurOut3" mode="normal"/></filter></defs><g><text fill="#000000" font-family="sans-serif" font-size="14" font-weight="bold" lengthAdjust="spacingAndGlyphs" textLength="591" x="1342" y="23.5352">1.2 DFSP1 sends a Prepare Transfer request to DFSP2 - Prepare Validation Failure</text><rect fill="#ADD8E6" height="1471.3672" style="stroke: #A80036; stroke-width: 1.0;" width="186" x="4" y="34.4883"/><text fill="#000000" font-family="sans-serif" font-size="13" font-weight="bold" lengthAdjust="spacingAndGlyphs" textLength="180" x="7" y="47.0566">Financial Service Providers</text><rect fill="#90EE90" height="1471.3672" style="stroke: #A80036; stroke-width: 1.0;" width="361" x="286.5" y="34.4883"/><text fill="#000000" font-family="sans-serif" font-size="13" font-weight="bold" lengthAdjust="spacingAndGlyphs" textLength="157" x="388.5" y="47.0566">ML API Adapter Service</text><rect fill="#FFFFE0" height="1471.3672" style="stroke: #A80036; stroke-width: 1.0;" width="2269" x="987" y="34.4883"/><text fill="#000000" font-family="sans-serif" font-size="13" font-weight="bold" lengthAdjust="spacingAndGlyphs" textLength="101" x="2071" y="47.0566">Central Service</text><rect fill="#FFFFFF" filter="url(#f16pv7ujz1q4xm)" height="444.5215" style="stroke: #A80036; stroke-width: 1.0;" width="10" x="340.5" y="147.2871"/><rect fill="#FFFFFF" filter="url(#f16pv7ujz1q4xm)" height="205.1738" style="stroke: #A80036; stroke-width: 1.0;" width="10" x="522" y="1188.8828"/><rect fill="#FFFFFF" filter="url(#f16pv7ujz1q4xm)" height="597.0742" style="stroke: #A80036; stroke-width: 1.0;" width="10" x="1598" y="591.8086"/><rect fill="#FFFFFF" filter="url(#f16pv7ujz1q4xm)" height="1248.0801" style="stroke: #000000; stroke-width: 2.0;" width="3229" x="33" y="154.2871"/><line style="stroke: #A80036; stroke-width: 1.0; stroke-dasharray: 5.0,5.0;" x1="67" x2="67" y1="137.2871" y2="1419.3672"/><line style="stroke: #A80036; stroke-width: 1.0; stroke-dasharray: 5.0,5.0;" x1="126" x2="126" y1="137.2871" y2="1419.3672"/><line style="stroke: #A80036; stroke-width: 1.0; stroke-dasharray: 5.0,5.0;" x1="345.5" x2="345.5" y1="137.2871" y2="1419.3672"/><line style="stroke: #A80036; stroke-width: 1.0; stroke-dasharray: 5.0,5.0;" x1="526.5" x2="526.5" y1="137.2871" y2="1419.3672"/><line style="stroke: #A80036; stroke-width: 1.0; stroke-dasharray: 5.0,5.0;" x1="1058" x2="1058" y1="137.2871" y2="1419.3672"/><line style="stroke: #A80036; stroke-width: 1.0; stroke-dasharray: 5.0,5.0;" x1="1219" x2="1219" y1="137.2871" y2="1419.3672"/><line style="stroke: #A80036; stroke-width: 1.0; stroke-dasharray: 5.0,5.0;" x1="1603" x2="1603" y1="137.2871" y2="1419.3672"/><line style="stroke: #A80036; stroke-width: 1.0; stroke-dasharray: 5.0,5.0;" x1="1819" x2="1819" y1="137.2871" y2="1419.3672"/><line style="stroke: #A80036; stroke-width: 1.0; stroke-dasharray: 5.0,5.0;" x1="1994" x2="1994" y1="137.2871" y2="1419.3672"/><line style="stroke: #A80036; stroke-width: 1.0; stroke-dasharray: 5.0,5.0;" x1="2147" x2="2147" y1="137.2871" y2="1419.3672"/><line style="stroke: #A80036; stroke-width: 1.0; stroke-dasharray: 5.0,5.0;" x1="2301" x2="2301" y1="137.2871" y2="1419.3672"/><line style="stroke: #A80036; stroke-width: 1.0; stroke-dasharray: 5.0,5.0;" x1="2466" x2="2466" y1="137.2871" y2="1419.3672"/><line style="stroke: #A80036; stroke-width: 1.0; stroke-dasharray: 5.0,5.0;" x1="2598" x2="2598" y1="137.2871" y2="1419.3672"/><line style="stroke: #A80036; stroke-width: 1.0; stroke-dasharray: 5.0,5.0;" x1="2695" x2="2695" y1="137.2871" y2="1419.3672"/><line style="stroke: #A80036; stroke-width: 1.0; stroke-dasharray: 5.0,5.0;" x1="2793" x2="2793" y1="137.2871" y2="1419.3672"/><line style="stroke: #A80036; stroke-width: 1.0; stroke-dasharray: 5.0,5.0;" x1="2913" x2="2913" y1="137.2871" y2="1419.3672"/><line style="stroke: #A80036; stroke-width: 1.0; stroke-dasharray: 5.0,5.0;" x1="3204" x2="3204" y1="137.2871" y2="1419.3672"/><text fill="#000000" font-family="sans-serif" font-size="14" lengthAdjust="spacingAndGlyphs" textLength="43" x="43" y="134.334">DFSP1</text><ellipse cx="67.5" cy="63.7988" fill="#FEFECE" filter="url(#f16pv7ujz1q4xm)" rx="8" ry="8" style="stroke: #A80036; stroke-width: 2.0;"/><path d="M67.5,71.7988 L67.5,98.7988 M54.5,79.7988 L80.5,79.7988 M67.5,98.7988 L54.5,113.7988 M67.5,98.7988 L80.5,113.7988 " fill="#FEFECE" filter="url(#f16pv7ujz1q4xm)" style="stroke: #A80036; stroke-width: 2.0;"/><text fill="#000000" font-family="sans-serif" font-size="14" lengthAdjust="spacingAndGlyphs" textLength="43" x="43" y="1431.9023">DFSP1</text><ellipse cx="67.5" cy="1444.8555" fill="#FEFECE" filter="url(#f16pv7ujz1q4xm)" rx="8" ry="8" style="stroke: #A80036; stroke-width: 2.0;"/><path d="M67.5,1452.8555 L67.5,1479.8555 M54.5,1460.8555 L80.5,1460.8555 M67.5,1479.8555 L54.5,1494.8555 M67.5,1479.8555 L80.5,1494.8555 " fill="#FEFECE" filter="url(#f16pv7ujz1q4xm)" style="stroke: #A80036; stroke-width: 2.0;"/><text fill="#000000" font-family="sans-serif" font-size="14" lengthAdjust="spacingAndGlyphs" textLength="43" x="102" y="134.334">DFSP2</text><ellipse cx="126.5" cy="63.7988" fill="#FEFECE" filter="url(#f16pv7ujz1q4xm)" rx="8" ry="8" style="stroke: #A80036; stroke-width: 2.0;"/><path d="M126.5,71.7988 L126.5,98.7988 M113.5,79.7988 L139.5,79.7988 M126.5,98.7988 L113.5,113.7988 M126.5,98.7988 L139.5,113.7988 " fill="#FEFECE" filter="url(#f16pv7ujz1q4xm)" style="stroke: #A80036; stroke-width: 2.0;"/><text fill="#000000" font-family="sans-serif" font-size="14" lengthAdjust="spacingAndGlyphs" textLength="43" x="102" y="1431.9023">DFSP2</text><ellipse cx="126.5" cy="1444.8555" fill="#FEFECE" filter="url(#f16pv7ujz1q4xm)" rx="8" ry="8" style="stroke: #A80036; stroke-width: 2.0;"/><path d="M126.5,1452.8555 L126.5,1479.8555 M113.5,1460.8555 L139.5,1460.8555 M126.5,1479.8555 L113.5,1494.8555 M126.5,1479.8555 L139.5,1494.8555 " fill="#FEFECE" filter="url(#f16pv7ujz1q4xm)" style="stroke: #A80036; stroke-width: 2.0;"/><text fill="#000000" font-family="sans-serif" font-size="14" lengthAdjust="spacingAndGlyphs" textLength="104" x="290.5" y="134.334">ML API Adapter</text><path d="M325,92.7988 L325,116.7988 M325,104.7988 L342,104.7988 " fill="#FEFECE" filter="url(#f16pv7ujz1q4xm)" style="stroke: #A80036; stroke-width: 2.0;"/><ellipse cx="354" cy="104.7988" fill="#FEFECE" filter="url(#f16pv7ujz1q4xm)" rx="12" ry="12" style="stroke: #A80036; stroke-width: 2.0;"/><text fill="#000000" font-family="sans-serif" font-size="14" lengthAdjust="spacingAndGlyphs" textLength="104" x="290.5" y="1431.9023">ML API Adapter</text><path d="M325,1438.8555 L325,1462.8555 M325,1450.8555 L342,1450.8555 " fill="#FEFECE" filter="url(#f16pv7ujz1q4xm)" style="stroke: #A80036; stroke-width: 2.0;"/><ellipse cx="354" cy="1450.8555" fill="#FEFECE" filter="url(#f16pv7ujz1q4xm)" rx="12" ry="12" style="stroke: #A80036; stroke-width: 2.0;"/><text fill="#000000" font-family="sans-serif" font-size="14" lengthAdjust="spacingAndGlyphs" textLength="227" x="410.5" y="134.334">ML API Notification Event Handler</text><ellipse cx="527" cy="104.7988" fill="#FEFECE" filter="url(#f16pv7ujz1q4xm)" rx="12" ry="12" style="stroke: #A80036; stroke-width: 2.0;"/><polygon fill="#A80036" points="523,92.7988,529,87.7988,527,92.7988,529,97.7988,523,92.7988" style="stroke: #A80036; stroke-width: 1.0;"/><text fill="#000000" font-family="sans-serif" font-size="14" lengthAdjust="spacingAndGlyphs" textLength="227" x="410.5" y="1431.9023">ML API Notification Event Handler</text><ellipse cx="527" cy="1450.8555" fill="#FEFECE" filter="url(#f16pv7ujz1q4xm)" rx="12" ry="12" style="stroke: #A80036; stroke-width: 2.0;"/><polygon fill="#A80036" points="523,1438.8555,529,1433.8555,527,1438.8555,529,1443.8555,523,1438.8555" style="stroke: #A80036; stroke-width: 1.0;"/><text fill="#000000" font-family="sans-serif" font-size="14" lengthAdjust="spacingAndGlyphs" textLength="128" x="991" y="134.334">Central Service API</text><path d="M1037.5,92.7988 L1037.5,116.7988 M1037.5,104.7988 L1054.5,104.7988 " fill="#FEFECE" filter="url(#f16pv7ujz1q4xm)" style="stroke: #A80036; stroke-width: 2.0;"/><ellipse cx="1066.5" cy="104.7988" fill="#FEFECE" filter="url(#f16pv7ujz1q4xm)" rx="12" ry="12" style="stroke: #A80036; stroke-width: 2.0;"/><text fill="#000000" font-family="sans-serif" font-size="14" lengthAdjust="spacingAndGlyphs" textLength="128" x="991" y="1431.9023">Central Service API</text><path d="M1037.5,1438.8555 L1037.5,1462.8555 M1037.5,1450.8555 L1054.5,1450.8555 " fill="#FEFECE" filter="url(#f16pv7ujz1q4xm)" style="stroke: #A80036; stroke-width: 2.0;"/><ellipse cx="1066.5" cy="1450.8555" fill="#FEFECE" filter="url(#f16pv7ujz1q4xm)" rx="12" ry="12" style="stroke: #A80036; stroke-width: 2.0;"/><rect fill="#FEFECE" filter="url(#f16pv7ujz1q4xm)" height="30.4883" style="stroke: #A80036; stroke-width: 1.5;" width="160" x="1139" y="97.7988"/><rect fill="#FEFECE" filter="url(#f16pv7ujz1q4xm)" height="30.4883" style="stroke: #A80036; stroke-width: 1.5;" width="160" x="1135" y="101.7988"/><text fill="#000000" font-family="sans-serif" font-size="14" lengthAdjust="spacingAndGlyphs" textLength="146" x="1142" y="122.334">Prepare-Topic-dfsp1</text><rect fill="#FEFECE" filter="url(#f16pv7ujz1q4xm)" height="30.4883" style="stroke: #A80036; stroke-width: 1.5;" width="160" x="1139" y="1418.3672"/><rect fill="#FEFECE" filter="url(#f16pv7ujz1q4xm)" height="30.4883" style="stroke: #A80036; stroke-width: 1.5;" width="160" x="1135" y="1422.3672"/><text fill="#000000" font-family="sans-serif" font-size="14" lengthAdjust="spacingAndGlyphs" textLength="146" x="1142" y="1442.9023">Prepare-Topic-dfsp1</text><text fill="#000000" font-family="sans-serif" font-size="14" lengthAdjust="spacingAndGlyphs" textLength="152" x="1524" y="134.334">Prepare Event Handler</text><ellipse cx="1603" cy="104.7988" fill="#FEFECE" filter="url(#f16pv7ujz1q4xm)" rx="12" ry="12" style="stroke: #A80036; stroke-width: 2.0;"/><polygon fill="#A80036" points="1599,92.7988,1605,87.7988,1603,92.7988,1605,97.7988,1599,92.7988" style="stroke: #A80036; stroke-width: 1.0;"/><text fill="#000000" font-family="sans-serif" font-size="14" lengthAdjust="spacingAndGlyphs" textLength="152" x="1524" y="1431.9023">Prepare Event Handler</text><ellipse cx="1603" cy="1450.8555" fill="#FEFECE" filter="url(#f16pv7ujz1q4xm)" rx="12" ry="12" style="stroke: #A80036; stroke-width: 2.0;"/><polygon fill="#A80036" points="1599,1438.8555,1605,1433.8555,1603,1438.8555,1605,1443.8555,1599,1438.8555" style="stroke: #A80036; stroke-width: 1.0;"/><rect fill="#FEFECE" filter="url(#f16pv7ujz1q4xm)" height="30.4883" style="stroke: #A80036; stroke-width: 1.5;" width="162" x="1738" y="97.7988"/><rect fill="#FEFECE" filter="url(#f16pv7ujz1q4xm)" height="30.4883" style="stroke: #A80036; stroke-width: 1.5;" width="162" x="1734" y="101.7988"/><text fill="#000000" font-family="sans-serif" font-size="14" lengthAdjust="spacingAndGlyphs" textLength="148" x="1741" y="122.334">Position-Topic-dfsp1</text><rect fill="#FEFECE" filter="url(#f16pv7ujz1q4xm)" height="30.4883" style="stroke: #A80036; stroke-width: 1.5;" width="162" x="1738" y="1418.3672"/><rect fill="#FEFECE" filter="url(#f16pv7ujz1q4xm)" height="30.4883" style="stroke: #A80036; stroke-width: 1.5;" width="162" x="1734" y="1422.3672"/><text fill="#000000" font-family="sans-serif" font-size="14" lengthAdjust="spacingAndGlyphs" textLength="148" x="1741" y="1442.9023">Position-Topic-dfsp1</text><text fill="#000000" font-family="sans-serif" font-size="14" lengthAdjust="spacingAndGlyphs" textLength="154" x="1914" y="134.334">Position Event Handler</text><ellipse cx="1994" cy="104.7988" fill="#FEFECE" filter="url(#f16pv7ujz1q4xm)" rx="12" ry="12" style="stroke: #A80036; stroke-width: 2.0;"/><polygon fill="#A80036" points="1990,92.7988,1996,87.7988,1994,92.7988,1996,97.7988,1990,92.7988" style="stroke: #A80036; stroke-width: 1.0;"/><text fill="#000000" font-family="sans-serif" font-size="14" lengthAdjust="spacingAndGlyphs" textLength="154" x="1914" y="1431.9023">Position Event Handler</text><ellipse cx="1994" cy="1450.8555" fill="#FEFECE" filter="url(#f16pv7ujz1q4xm)" rx="12" ry="12" style="stroke: #A80036; stroke-width: 2.0;"/><polygon fill="#A80036" points="1990,1438.8555,1996,1433.8555,1994,1438.8555,1996,1443.8555,1990,1438.8555" style="stroke: #A80036; stroke-width: 1.0;"/><rect fill="#FEFECE" filter="url(#f16pv7ujz1q4xm)" height="30.4883" style="stroke: #A80036; stroke-width: 1.5;" width="118" x="2088" y="97.7988"/><rect fill="#FEFECE" filter="url(#f16pv7ujz1q4xm)" height="30.4883" style="stroke: #A80036; stroke-width: 1.5;" width="118" x="2084" y="101.7988"/><text fill="#000000" font-family="sans-serif" font-size="14" lengthAdjust="spacingAndGlyphs" textLength="104" x="2091" y="122.334">Transfer-Topic</text><rect fill="#FEFECE" filter="url(#f16pv7ujz1q4xm)" height="30.4883" style="stroke: #A80036; stroke-width: 1.5;" width="118" x="2088" y="1418.3672"/><rect fill="#FEFECE" filter="url(#f16pv7ujz1q4xm)" height="30.4883" style="stroke: #A80036; stroke-width: 1.5;" width="118" x="2084" y="1422.3672"/><text fill="#000000" font-family="sans-serif" font-size="14" lengthAdjust="spacingAndGlyphs" textLength="104" x="2091" y="1442.9023">Transfer-Topic</text><text fill="#000000" font-family="sans-serif" font-size="14" lengthAdjust="spacingAndGlyphs" textLength="157" x="2220" y="134.334">Transfer Event Handler</text><ellipse cx="2301.5" cy="104.7988" fill="#FEFECE" filter="url(#f16pv7ujz1q4xm)" rx="12" ry="12" style="stroke: #A80036; stroke-width: 2.0;"/><polygon fill="#A80036" points="2297.5,92.7988,2303.5,87.7988,2301.5,92.7988,2303.5,97.7988,2297.5,92.7988" style="stroke: #A80036; stroke-width: 1.0;"/><text fill="#000000" font-family="sans-serif" font-size="14" lengthAdjust="spacingAndGlyphs" textLength="157" x="2220" y="1431.9023">Transfer Event Handler</text><ellipse cx="2301.5" cy="1450.8555" fill="#FEFECE" filter="url(#f16pv7ujz1q4xm)" rx="12" ry="12" style="stroke: #A80036; stroke-width: 2.0;"/><polygon fill="#A80036" points="2297.5,1438.8555,2303.5,1433.8555,2301.5,1438.8555,2303.5,1443.8555,2297.5,1438.8555" style="stroke: #A80036; stroke-width: 1.0;"/><rect fill="#FEFECE" filter="url(#f16pv7ujz1q4xm)" height="30.4883" style="stroke: #A80036; stroke-width: 1.5;" width="139" x="2397" y="97.7988"/><rect fill="#FEFECE" filter="url(#f16pv7ujz1q4xm)" height="30.4883" style="stroke: #A80036; stroke-width: 1.5;" width="139" x="2393" y="101.7988"/><text fill="#000000" font-family="sans-serif" font-size="14" lengthAdjust="spacingAndGlyphs" textLength="125" x="2400" y="122.334">Notification-Topic</text><rect fill="#FEFECE" filter="url(#f16pv7ujz1q4xm)" height="30.4883" style="stroke: #A80036; stroke-width: 1.5;" width="139" x="2397" y="1418.3672"/><rect fill="#FEFECE" filter="url(#f16pv7ujz1q4xm)" height="30.4883" style="stroke: #A80036; stroke-width: 1.5;" width="139" x="2393" y="1422.3672"/><text fill="#000000" font-family="sans-serif" font-size="14" lengthAdjust="spacingAndGlyphs" textLength="125" x="2400" y="1442.9023">Notification-Topic</text><text fill="#000000" font-family="sans-serif" font-size="14" lengthAdjust="spacingAndGlyphs" textLength="90" x="2550" y="134.334">Position DAO</text><ellipse cx="2598" cy="104.7988" fill="#FEFECE" filter="url(#f16pv7ujz1q4xm)" rx="12" ry="12" style="stroke: #A80036; stroke-width: 2.0;"/><line style="stroke: #A80036; stroke-width: 2.0;" x1="2586" x2="2610" y1="118.7988" y2="118.7988"/><text fill="#000000" font-family="sans-serif" font-size="14" lengthAdjust="spacingAndGlyphs" textLength="90" x="2550" y="1431.9023">Position DAO</text><ellipse cx="2598" cy="1450.8555" fill="#FEFECE" filter="url(#f16pv7ujz1q4xm)" rx="12" ry="12" style="stroke: #A80036; stroke-width: 2.0;"/><line style="stroke: #A80036; stroke-width: 2.0;" x1="2586" x2="2610" y1="1464.8555" y2="1464.8555"/><text fill="#000000" font-family="sans-serif" font-size="14" lengthAdjust="spacingAndGlyphs" textLength="72" x="2656" y="134.334">Event DAO</text><ellipse cx="2695" cy="104.7988" fill="#FEFECE" filter="url(#f16pv7ujz1q4xm)" rx="12" ry="12" style="stroke: #A80036; stroke-width: 2.0;"/><line style="stroke: #A80036; stroke-width: 2.0;" x1="2683" x2="2707" y1="118.7988" y2="118.7988"/><text fill="#000000" font-family="sans-serif" font-size="14" lengthAdjust="spacingAndGlyphs" textLength="72" x="2656" y="1431.9023">Event DAO</text><ellipse cx="2695" cy="1450.8555" fill="#FEFECE" filter="url(#f16pv7ujz1q4xm)" rx="12" ry="12" style="stroke: #A80036; stroke-width: 2.0;"/><line style="stroke: #A80036; stroke-width: 2.0;" x1="2683" x2="2707" y1="1464.8555" y2="1464.8555"/><text fill="#000000" font-family="sans-serif" font-size="14" lengthAdjust="spacingAndGlyphs" textLength="93" x="2744" y="134.334">Transfer DAO</text><ellipse cx="2793.5" cy="104.7988" fill="#FEFECE" filter="url(#f16pv7ujz1q4xm)" rx="12" ry="12" style="stroke: #A80036; stroke-width: 2.0;"/><line style="stroke: #A80036; stroke-width: 2.0;" x1="2781.5" x2="2805.5" y1="118.7988" y2="118.7988"/><text fill="#000000" font-family="sans-serif" font-size="14" lengthAdjust="spacingAndGlyphs" textLength="93" x="2744" y="1431.9023">Transfer DAO</text><ellipse cx="2793.5" cy="1450.8555" fill="#FEFECE" filter="url(#f16pv7ujz1q4xm)" rx="12" ry="12" style="stroke: #A80036; stroke-width: 2.0;"/><line style="stroke: #A80036; stroke-width: 2.0;" x1="2781.5" x2="2805.5" y1="1464.8555" y2="1464.8555"/><text fill="#000000" font-family="sans-serif" font-size="14" lengthAdjust="spacingAndGlyphs" textLength="114" x="2853" y="134.334">Notification DAO</text><ellipse cx="2913" cy="104.7988" fill="#FEFECE" filter="url(#f16pv7ujz1q4xm)" rx="12" ry="12" style="stroke: #A80036; stroke-width: 2.0;"/><line style="stroke: #A80036; stroke-width: 2.0;" x1="2901" x2="2925" y1="118.7988" y2="118.7988"/><text fill="#000000" font-family="sans-serif" font-size="14" lengthAdjust="spacingAndGlyphs" textLength="114" x="2853" y="1431.9023">Notification DAO</text><ellipse cx="2913" cy="1450.8555" fill="#FEFECE" filter="url(#f16pv7ujz1q4xm)" rx="12" ry="12" style="stroke: #A80036; stroke-width: 2.0;"/><line style="stroke: #A80036; stroke-width: 2.0;" x1="2901" x2="2925" y1="1464.8555" y2="1464.8555"/><text fill="#000000" font-family="sans-serif" font-size="14" lengthAdjust="spacingAndGlyphs" textLength="90" x="3156" y="134.334">Central Store</text><path d="M3186,84.7988 C3186,74.7988 3204,74.7988 3204,74.7988 C3204,74.7988 3222,74.7988 3222,84.7988 L3222,110.7988 C3222,120.7988 3204,120.7988 3204,120.7988 C3204,120.7988 3186,120.7988 3186,110.7988 L3186,84.7988 " fill="#FEFECE" filter="url(#f16pv7ujz1q4xm)" style="stroke: #000000; stroke-width: 1.5;"/><path d="M3186,84.7988 C3186,94.7988 3204,94.7988 3204,94.7988 C3204,94.7988 3222,94.7988 3222,84.7988 " fill="none" style="stroke: #000000; stroke-width: 1.5;"/><text fill="#000000" font-family="sans-serif" font-size="14" lengthAdjust="spacingAndGlyphs" textLength="90" x="3156" y="1431.9023">Central Store</text><path d="M3186,1444.8555 C3186,1434.8555 3204,1434.8555 3204,1434.8555 C3204,1434.8555 3222,1434.8555 3222,1444.8555 L3222,1470.8555 C3222,1480.8555 3204,1480.8555 3204,1480.8555 C3204,1480.8555 3186,1480.8555 3186,1470.8555 L3186,1444.8555 " fill="#FEFECE" filter="url(#f16pv7ujz1q4xm)" style="stroke: #000000; stroke-width: 1.5;"/><path d="M3186,1444.8555 C3186,1454.8555 3204,1454.8555 3204,1454.8555 C3204,1454.8555 3222,1454.8555 3222,1444.8555 " fill="none" style="stroke: #000000; stroke-width: 1.5;"/><rect fill="#FFFFFF" filter="url(#f16pv7ujz1q4xm)" height="444.5215" style="stroke: #A80036; stroke-width: 1.0;" width="10" x="340.5" y="147.2871"/><rect fill="#FFFFFF" filter="url(#f16pv7ujz1q4xm)" height="205.1738" style="stroke: #A80036; stroke-width: 1.0;" width="10" x="522" y="1188.8828"/><rect fill="#FFFFFF" filter="url(#f16pv7ujz1q4xm)" height="597.0742" style="stroke: #A80036; stroke-width: 1.0;" width="10" x="1598" y="591.8086"/><rect fill="none" height="1248.0801" style="stroke: #000000; stroke-width: 2.0;" width="3229" x="33" y="154.2871"/><polygon fill="#EEEEEE" points="33,154.2871,95,154.2871,95,161.2871,85,171.2871,33,171.2871,33,154.2871" style="stroke: #000000; stroke-width: 2.0;"/><text fill="#000000" font-family="sans-serif" font-size="13" font-weight="bold" lengthAdjust="spacingAndGlyphs" textLength="17" x="48" y="167.8555">alt</text><text fill="#000000" font-family="sans-serif" font-size="11" font-weight="bold" lengthAdjust="spacingAndGlyphs" textLength="153" x="110" y="166.9219">[Prepare Validation Failure]</text><polygon fill="#A80036" points="328.5,188.5977,338.5,192.5977,328.5,196.5977,332.5,192.5977" style="stroke: #A80036; stroke-width: 1.0;"/><line style="stroke: #A80036; stroke-width: 1.0;" x1="67.5" x2="334.5" y1="192.5977" y2="192.5977"/><text fill="#000000" font-family="sans-serif" font-size="13" font-weight="bold" lengthAdjust="spacingAndGlyphs" textLength="9" x="74.5" y="188.166">1</text><text fill="#000000" font-family="sans-serif" font-size="13" lengthAdjust="spacingAndGlyphs" textLength="148" x="87.5" y="188.166">POST - http://transfers</text><polygon fill="#FFFF00" filter="url(#f16pv7ujz1q4xm)" points="355,205.9082,355,459.9082,579,459.9082,579,215.9082,569,205.9082,355,205.9082" style="stroke: #A80036; stroke-width: 1.0;"/><line style="stroke: #A80036; stroke-width: 1.0;" x1="569" x2="569" y1="205.9082" y2="215.9082"/><line style="stroke: #A80036; stroke-width: 1.0;" x1="579" x2="569" y1="215.9082" y2="215.9082"/><text fill="#000000" font-family="sans-serif" font-size="13" lengthAdjust="spacingAndGlyphs" textLength="58" x="361" y="223.4766">Message:</text><text fill="#000000" font-family="sans-serif" font-size="13" lengthAdjust="spacingAndGlyphs" textLength="4" x="361" y="238.7871">{</text><text fill="#000000" font-family="sans-serif" font-size="13" lengthAdjust="spacingAndGlyphs" textLength="159" x="377" y="254.0977">id: &lt;transferMessage.id&gt;</text><text fill="#000000" font-family="sans-serif" font-size="13" lengthAdjust="spacingAndGlyphs" textLength="168" x="377" y="269.4082">from: http://ledger/dfsp1,</text><text fill="#000000" font-family="sans-serif" font-size="13" lengthAdjust="spacingAndGlyphs" textLength="151" x="377" y="284.7188">to: http://ledger/dfsp2,</text><text fill="#000000" font-family="sans-serif" font-size="13" lengthAdjust="spacingAndGlyphs" textLength="139" x="377" y="300.0293">type: application/json</text><text fill="#000000" font-family="sans-serif" font-size="13" lengthAdjust="spacingAndGlyphs" textLength="183" x="377" y="315.3398">content: &lt;transferMessage&gt;,</text><text fill="#000000" font-family="sans-serif" font-size="13" lengthAdjust="spacingAndGlyphs" textLength="70" x="377" y="330.6504">metadata: {</text><text fill="#000000" font-family="sans-serif" font-size="13" lengthAdjust="spacingAndGlyphs" textLength="46" x="393" y="345.9609">event: {</text><text fill="#000000" font-family="sans-serif" font-size="13" lengthAdjust="spacingAndGlyphs" textLength="72" x="409" y="361.2715">id: &lt;uuid&gt;,</text><text fill="#000000" font-family="sans-serif" font-size="13" lengthAdjust="spacingAndGlyphs" textLength="86" x="409" y="376.582">type: prepare,</text><text fill="#000000" font-family="sans-serif" font-size="13" lengthAdjust="spacingAndGlyphs" textLength="98" x="409" y="391.8926">action: prepare,</text><text fill="#000000" font-family="sans-serif" font-size="13" lengthAdjust="spacingAndGlyphs" textLength="155" x="409" y="407.2031">createdAt: &lt;timestamp&gt;</text><text fill="#000000" font-family="sans-serif" font-size="13" lengthAdjust="spacingAndGlyphs" textLength="4" x="393" y="422.5137">}</text><text fill="#000000" font-family="sans-serif" font-size="13" lengthAdjust="spacingAndGlyphs" textLength="4" x="377" y="437.8242">}</text><text fill="#000000" font-family="sans-serif" font-size="13" lengthAdjust="spacingAndGlyphs" textLength="4" x="361" y="453.1348">}</text><polygon fill="#A80036" points="1207,486.877,1217,490.877,1207,494.877,1211,490.877" style="stroke: #A80036; stroke-width: 1.0;"/><line style="stroke: #A80036; stroke-width: 1.0;" x1="350.5" x2="1213" y1="490.877" y2="490.877"/><text fill="#000000" font-family="sans-serif" font-size="13" font-weight="bold" lengthAdjust="spacingAndGlyphs" textLength="9" x="357.5" y="486.4453">2</text><text fill="#000000" font-family="sans-serif" font-size="13" lengthAdjust="spacingAndGlyphs" textLength="273" x="370.5" y="486.4453">Routes &amp; Publishes Prepare event for DFSP1</text><line style="stroke: #A80036; stroke-width: 1.0;" x1="1219" x2="1261" y1="520.498" y2="520.498"/><line style="stroke: #A80036; stroke-width: 1.0;" x1="1261" x2="1261" y1="520.498" y2="533.498"/><line style="stroke: #A80036; stroke-width: 1.0;" x1="1220" x2="1261" y1="533.498" y2="533.498"/><polygon fill="#A80036" points="1230,529.498,1220,533.498,1230,537.498,1226,533.498" style="stroke: #A80036; stroke-width: 1.0;"/><text fill="#000000" font-family="sans-serif" font-size="13" font-weight="bold" lengthAdjust="spacingAndGlyphs" textLength="9" x="1226" y="515.7559">3</text><text fill="#000000" font-family="sans-serif" font-size="13" lengthAdjust="spacingAndGlyphs" textLength="357" x="1239" y="515.7559">Ensures that event is replicated as configured (ACKS=all)</text><polygon fill="#A80036" points="361.5,558.498,351.5,562.498,361.5,566.498,357.5,562.498" style="stroke: #A80036; stroke-width: 1.0;"/><line style="stroke: #A80036; stroke-width: 1.0;" x1="355.5" x2="1218" y1="562.498" y2="562.498"/><text fill="#000000" font-family="sans-serif" font-size="13" font-weight="bold" lengthAdjust="spacingAndGlyphs" textLength="9" x="367.5" y="558.0664">4</text><text fill="#000000" font-family="sans-serif" font-size="13" lengthAdjust="spacingAndGlyphs" textLength="370" x="380.5" y="558.0664">Responds replication acknoledgements have been received</text><polygon fill="#A80036" points="78.5,587.8086,68.5,591.8086,78.5,595.8086,74.5,591.8086" style="stroke: #A80036; stroke-width: 1.0;"/><line style="stroke: #A80036; stroke-width: 1.0;" x1="72.5" x2="344.5" y1="591.8086" y2="591.8086"/><text fill="#000000" font-family="sans-serif" font-size="13" font-weight="bold" lengthAdjust="spacingAndGlyphs" textLength="9" x="84.5" y="587.377">5</text><text fill="#000000" font-family="sans-serif" font-size="13" lengthAdjust="spacingAndGlyphs" textLength="201" x="97.5" y="587.377">Respond HTTP - 202 (Accepted)</text><polygon fill="#A80036" points="1586,617.1191,1596,621.1191,1586,625.1191,1590,621.1191" style="stroke: #A80036; stroke-width: 1.0;"/><line style="stroke: #A80036; stroke-width: 1.0;" x1="1219" x2="1592" y1="621.1191" y2="621.1191"/><text fill="#000000" font-family="sans-serif" font-size="13" font-weight="bold" lengthAdjust="spacingAndGlyphs" textLength="9" x="1226" y="616.6875">6</text><text fill="#000000" font-family="sans-serif" font-size="13" lengthAdjust="spacingAndGlyphs" textLength="278" x="1239" y="616.6875">Consumes Prepare event message for DFSP1</text><line style="stroke: #A80036; stroke-width: 1.0;" x1="1608" x2="1650" y1="650.7402" y2="650.7402"/><line style="stroke: #A80036; stroke-width: 1.0;" x1="1650" x2="1650" y1="650.7402" y2="663.7402"/><line style="stroke: #A80036; stroke-width: 1.0;" x1="1609" x2="1650" y1="663.7402" y2="663.7402"/><polygon fill="#A80036" points="1619,659.7402,1609,663.7402,1619,667.7402,1615,663.7402" style="stroke: #A80036; stroke-width: 1.0;"/><text fill="#000000" font-family="sans-serif" font-size="13" font-weight="bold" lengthAdjust="spacingAndGlyphs" textLength="9" x="1615" y="645.998">7</text><text fill="#000000" font-family="sans-serif" font-size="13" lengthAdjust="spacingAndGlyphs" textLength="146" x="1628" y="645.998">Validates from - DFSP1</text><line style="stroke: #A80036; stroke-width: 1.0;" x1="1608" x2="1650" y1="693.0508" y2="693.0508"/><line style="stroke: #A80036; stroke-width: 1.0;" x1="1650" x2="1650" y1="693.0508" y2="706.0508"/><line style="stroke: #A80036; stroke-width: 1.0;" x1="1609" x2="1650" y1="706.0508" y2="706.0508"/><polygon fill="#A80036" points="1619,702.0508,1609,706.0508,1619,710.0508,1615,706.0508" style="stroke: #A80036; stroke-width: 1.0;"/><text fill="#000000" font-family="sans-serif" font-size="13" font-weight="bold" lengthAdjust="spacingAndGlyphs" textLength="9" x="1615" y="688.3086">8</text><text fill="#000000" font-family="sans-serif" font-size="13" lengthAdjust="spacingAndGlyphs" textLength="129" x="1628" y="688.3086">Validates to - DFSP2</text><line style="stroke: #A80036; stroke-width: 1.0;" x1="1608" x2="1650" y1="735.3613" y2="735.3613"/><line style="stroke: #A80036; stroke-width: 1.0;" x1="1650" x2="1650" y1="735.3613" y2="748.3613"/><line style="stroke: #A80036; stroke-width: 1.0;" x1="1609" x2="1650" y1="748.3613" y2="748.3613"/><polygon fill="#A80036" points="1619,744.3613,1609,748.3613,1619,752.3613,1615,748.3613" style="stroke: #A80036; stroke-width: 1.0;"/><text fill="#000000" font-family="sans-serif" font-size="13" font-weight="bold" lengthAdjust="spacingAndGlyphs" textLength="9" x="1615" y="730.6191">9</text><text fill="#000000" font-family="sans-serif" font-size="13" lengthAdjust="spacingAndGlyphs" textLength="179" x="1628" y="730.6191">Validates message signature</text><polygon fill="#FF0000" filter="url(#f16pv7ujz1q4xm)" points="1613,761.3613,1613,786.3613,1745,786.3613,1745,771.3613,1735,761.3613,1613,761.3613" style="stroke: #A80036; stroke-width: 1.0;"/><line style="stroke: #A80036; stroke-width: 1.0;" x1="1735" x2="1735" y1="761.3613" y2="771.3613"/><line style="stroke: #A80036; stroke-width: 1.0;" x1="1745" x2="1735" y1="771.3613" y2="771.3613"/><text fill="#000000" font-family="sans-serif" font-size="13" lengthAdjust="spacingAndGlyphs" textLength="111" x="1619" y="778.9297">Validation failure!</text><polygon fill="#A80036" points="2683,812.6719,2693,816.6719,2683,820.6719,2687,816.6719" style="stroke: #A80036; stroke-width: 1.0;"/><line style="stroke: #A80036; stroke-width: 1.0;" x1="1608" x2="2689" y1="816.6719" y2="816.6719"/><text fill="#000000" font-family="sans-serif" font-size="13" font-weight="bold" lengthAdjust="spacingAndGlyphs" textLength="18" x="1615" y="812.2402">10</text><text fill="#000000" font-family="sans-serif" font-size="13" lengthAdjust="spacingAndGlyphs" textLength="230" x="1637" y="812.2402">Request to persist event information</text><polygon fill="#A80036" points="2706,841.9824,2696,845.9824,2706,849.9824,2702,845.9824" style="stroke: #A80036; stroke-width: 1.0;"/><polygon fill="#A80036" points="3192,841.9824,3202,845.9824,3192,849.9824,3196,845.9824" style="stroke: #A80036; stroke-width: 1.0;"/><line style="stroke: #A80036; stroke-width: 1.0;" x1="2700" x2="3198" y1="845.9824" y2="845.9824"/><text fill="#000000" font-family="sans-serif" font-size="13" font-weight="bold" lengthAdjust="spacingAndGlyphs" textLength="18" x="2712" y="841.5508">11</text><text fill="#000000" font-family="sans-serif" font-size="13" lengthAdjust="spacingAndGlyphs" textLength="158" x="2734" y="841.5508">Persist event information</text><polygon fill="#A80036" points="1619,871.293,1609,875.293,1619,879.293,1615,875.293" style="stroke: #A80036; stroke-width: 1.0;"/><line style="stroke: #A80036; stroke-width: 1.0;" x1="1613" x2="2694" y1="875.293" y2="875.293"/><text fill="#000000" font-family="sans-serif" font-size="13" font-weight="bold" lengthAdjust="spacingAndGlyphs" textLength="18" x="1625" y="870.8613">12</text><text fill="#000000" font-family="sans-serif" font-size="13" lengthAdjust="spacingAndGlyphs" textLength="92" x="1647" y="870.8613">return success</text><polygon fill="#FFFF00" filter="url(#f16pv7ujz1q4xm)" points="1613,888.6035,1613,1158.6035,1893,1158.6035,1893,898.6035,1883,888.6035,1613,888.6035" style="stroke: #A80036; stroke-width: 1.0;"/><line style="stroke: #A80036; stroke-width: 1.0;" x1="1883" x2="1883" y1="888.6035" y2="898.6035"/><line style="stroke: #A80036; stroke-width: 1.0;" x1="1893" x2="1883" y1="898.6035" y2="898.6035"/><text fill="#000000" font-family="sans-serif" font-size="13" lengthAdjust="spacingAndGlyphs" textLength="58" x="1619" y="906.1719">Message:</text><text fill="#000000" font-family="sans-serif" font-size="13" lengthAdjust="spacingAndGlyphs" textLength="4" x="1619" y="921.4824">{</text><text fill="#000000" font-family="sans-serif" font-size="13" lengthAdjust="spacingAndGlyphs" textLength="159" x="1635" y="936.793">id: &lt;transferMessage.id&gt;</text><text fill="#000000" font-family="sans-serif" font-size="13" lengthAdjust="spacingAndGlyphs" textLength="168" x="1635" y="952.1035">from: http://ledger/dfsp1,</text><text fill="#000000" font-family="sans-serif" font-size="13" lengthAdjust="spacingAndGlyphs" textLength="151" x="1635" y="967.4141">to: http://ledger/dfsp1,</text><text fill="#000000" font-family="sans-serif" font-size="13" lengthAdjust="spacingAndGlyphs" textLength="139" x="1635" y="982.7246">type: application/json</text><text fill="#000000" font-family="sans-serif" font-size="13" lengthAdjust="spacingAndGlyphs" textLength="243" x="1635" y="998.0352">content: &lt;transferResponseMessage&gt;,</text><text fill="#000000" font-family="sans-serif" font-size="13" lengthAdjust="spacingAndGlyphs" textLength="70" x="1635" y="1013.3457">metadata: {</text><text fill="#000000" font-family="sans-serif" font-size="13" lengthAdjust="spacingAndGlyphs" textLength="46" x="1651" y="1028.6563">event: {</text><text fill="#000000" font-family="sans-serif" font-size="13" lengthAdjust="spacingAndGlyphs" textLength="72" x="1667" y="1043.9668">id: &lt;uuid&gt;,</text><text fill="#000000" font-family="sans-serif" font-size="13" lengthAdjust="spacingAndGlyphs" textLength="191" x="1667" y="1059.2773">responseTo: &lt;previous.uuid&gt;,</text><text fill="#000000" font-family="sans-serif" font-size="13" lengthAdjust="spacingAndGlyphs" textLength="112" x="1667" y="1074.5879">type: notification,</text><text fill="#000000" font-family="sans-serif" font-size="13" lengthAdjust="spacingAndGlyphs" textLength="98" x="1667" y="1089.8984">action: prepare,</text><text fill="#000000" font-family="sans-serif" font-size="13" lengthAdjust="spacingAndGlyphs" textLength="155" x="1667" y="1105.209">createdAt: &lt;timestamp&gt;</text><text fill="#000000" font-family="sans-serif" font-size="13" lengthAdjust="spacingAndGlyphs" textLength="4" x="1651" y="1120.5195">}</text><text fill="#000000" font-family="sans-serif" font-size="13" lengthAdjust="spacingAndGlyphs" textLength="4" x="1635" y="1135.8301">}</text><text fill="#000000" font-family="sans-serif" font-size="13" lengthAdjust="spacingAndGlyphs" textLength="4" x="1619" y="1151.1406">}</text><polygon fill="#A80036" points="2454.5,1184.8828,2464.5,1188.8828,2454.5,1192.8828,2458.5,1188.8828" style="stroke: #A80036; stroke-width: 1.0;"/><line style="stroke: #A80036; stroke-width: 1.0;" x1="1603" x2="2460.5" y1="1188.8828" y2="1188.8828"/><text fill="#000000" font-family="sans-serif" font-size="13" font-weight="bold" lengthAdjust="spacingAndGlyphs" textLength="18" x="1610" y="1184.4512">13</text><text fill="#000000" font-family="sans-serif" font-size="13" lengthAdjust="spacingAndGlyphs" textLength="294" x="1632" y="1184.4512">Publishes Notification (failure) event for DFSP1</text><polygon fill="#A80036" points="543,1214.1934,533,1218.1934,543,1222.1934,539,1218.1934" style="stroke: #A80036; stroke-width: 1.0;"/><line style="stroke: #A80036; stroke-width: 1.0;" x1="537" x2="2465.5" y1="1218.1934" y2="1218.1934"/><text fill="#000000" font-family="sans-serif" font-size="13" font-weight="bold" lengthAdjust="spacingAndGlyphs" textLength="18" x="549" y="1213.7617">14</text><text fill="#000000" font-family="sans-serif" font-size="13" lengthAdjust="spacingAndGlyphs" textLength="190" x="571" y="1213.7617">Consumes Notifications event</text><polygon fill="#A80036" points="1046,1243.5039,1056,1247.5039,1046,1251.5039,1050,1247.5039" style="stroke: #A80036; stroke-width: 1.0;"/><line style="stroke: #A80036; stroke-width: 1.0;" x1="532" x2="1052" y1="1247.5039" y2="1247.5039"/><text fill="#000000" font-family="sans-serif" font-size="13" font-weight="bold" lengthAdjust="spacingAndGlyphs" textLength="18" x="539" y="1243.0723">15</text><text fill="#000000" font-family="sans-serif" font-size="13" lengthAdjust="spacingAndGlyphs" textLength="480" x="561" y="1243.0723">Requests Notification details for DFSP1 - GET - HTTP://notifications/DFPS1</text><polygon fill="#A80036" points="2901,1272.8145,2911,1276.8145,2901,1280.8145,2905,1276.8145" style="stroke: #A80036; stroke-width: 1.0;"/><line style="stroke: #A80036; stroke-width: 1.0;" x1="1058" x2="2907" y1="1276.8145" y2="1276.8145"/><text fill="#000000" font-family="sans-serif" font-size="13" font-weight="bold" lengthAdjust="spacingAndGlyphs" textLength="18" x="1065" y="1272.3828">16</text><text fill="#000000" font-family="sans-serif" font-size="13" lengthAdjust="spacingAndGlyphs" textLength="245" x="1087" y="1272.3828">Fetches Notifications details for DFSP1</text><polygon fill="#A80036" points="2924,1302.125,2914,1306.125,2924,1310.125,2920,1306.125" style="stroke: #A80036; stroke-width: 1.0;"/><polygon fill="#A80036" points="3192,1302.125,3202,1306.125,3192,1310.125,3196,1306.125" style="stroke: #A80036; stroke-width: 1.0;"/><line style="stroke: #A80036; stroke-width: 1.0;" x1="2918" x2="3198" y1="1306.125" y2="1306.125"/><text fill="#000000" font-family="sans-serif" font-size="13" font-weight="bold" lengthAdjust="spacingAndGlyphs" textLength="18" x="2930" y="1301.6934">17</text><text fill="#000000" font-family="sans-serif" font-size="13" lengthAdjust="spacingAndGlyphs" textLength="245" x="2952" y="1301.6934">Fetches Notifications details for DFSP1</text><polygon fill="#A80036" points="1069,1331.4355,1059,1335.4355,1069,1339.4355,1065,1335.4355" style="stroke: #A80036; stroke-width: 1.0;"/><line style="stroke: #A80036; stroke-width: 1.0;" x1="1063" x2="2912" y1="1335.4355" y2="1335.4355"/><text fill="#000000" font-family="sans-serif" font-size="13" font-weight="bold" lengthAdjust="spacingAndGlyphs" textLength="18" x="1075" y="1331.0039">18</text><text fill="#000000" font-family="sans-serif" font-size="13" lengthAdjust="spacingAndGlyphs" textLength="245" x="1097" y="1331.0039">Returns Notifications details for DFSP1</text><polygon fill="#A80036" points="543,1360.7461,533,1364.7461,543,1368.7461,539,1364.7461" style="stroke: #A80036; stroke-width: 1.0;"/><line style="stroke: #A80036; stroke-width: 1.0;" x1="537" x2="1057" y1="1364.7461" y2="1364.7461"/><text fill="#000000" font-family="sans-serif" font-size="13" font-weight="bold" lengthAdjust="spacingAndGlyphs" textLength="18" x="549" y="1360.3145">19</text><text fill="#000000" font-family="sans-serif" font-size="13" lengthAdjust="spacingAndGlyphs" textLength="245" x="571" y="1360.3145">Returns Notifications details for DFSP1</text><polygon fill="#A80036" points="78.5,1390.0566,68.5,1394.0566,78.5,1398.0566,74.5,1394.0566" style="stroke: #A80036; stroke-width: 1.0;"/><line style="stroke: #A80036; stroke-width: 1.0;" x1="72.5" x2="526" y1="1394.0566" y2="1394.0566"/><text fill="#000000" font-family="sans-serif" font-size="13" font-weight="bold" lengthAdjust="spacingAndGlyphs" textLength="18" x="84.5" y="1389.625">20</text><text fill="#000000" font-family="sans-serif" font-size="13" lengthAdjust="spacingAndGlyphs" textLength="272" x="106.5" y="1389.625">HTTP Callback with Prepare result to DFSP1</text><!--
@startuml
' declate title
title 1.2 DFSP1 sends a Prepare Transfer request to DFSP2 - Prepare Validation Failure

autonumber

' Actor Keys:
'   boundary - APIs/Interfaces, etc
'   collections - Kafka Topics
'   control - Kafka Consumers
'   entity - Database Access Objects
'   database - Database Persistance Store

' declare actors
actor DFSP1
actor DFSP2
boundary "ML API Adapter" as MLAPI
control "ML API Notification Event Handler" as NOTIFY_HANDLER
boundary "Central Service API" as CSAPI
collections "Prepare-Topic-dfsp1" as TOPIC_PREPARE_DFSP1
control "Prepare Event Handler" as PREP_HANDLER
collections "Position-Topic-dfsp1" as TOPIC_POSITION_DFSP1
control "Position Event Handler" as POS_HANDLER
collections "Transfer-Topic" as TOPIC_TRANSFERS
control "Transfer Event Handler" as TRANS_HANDLER
collections "Notification-Topic" as TOPIC_NOTIFICATIONS
entity "Position DAO" as POS_DAO
entity "Event DAO" as EVENT_DAO
entity "Transfer DAO" as TRANS_DAO
entity "Notification DAO" as NOTIFY_DAO
database "Central Store" as DB

box "Financial Service Providers" #LightBlue
	participant DFSP1
	participant DFSP2
end box

box "ML API Adapter Service" #LightGreen
	participant MLAPI
	participant NOTIFY_HANDLER
end box

box "Central Service" #LightYellow
    participant CSAPI
	participant TOPIC_PREPARE_DFSP1
    participant PREP_HANDLER
    participant TOPIC_POSITION_DFSP1
    participant POS_HANDLER
    participant TOPIC_TRANSFERS
    participant TRANS_HANDLER
    participant TOPIC_NOTIFICATIONS
    participant POS_DAO
    participant EVENT_DAO
    participant TRANS_DAO
    participant NOTIFY_DAO
    participant DB
end box

' start flow
alt Prepare Validation Failure
    activate MLAPI
    DFSP1 -> MLAPI: POST - http://transfers
    note right of MLAPI #yellow
        Message:
        {
            id: <transferMessage.id>
            from: http://ledger/dfsp1,
            to: http://ledger/dfsp2,
            type: application/json
            content: <transferMessage>,
            metadata: {
                event: {
                    id: <uuid>,
                    type: prepare,
                    action: prepare,
                    createdAt: <timestamp>
                }
            }
        }
    end note
    MLAPI -> TOPIC_PREPARE_DFSP1: Routes & Publishes Prepare event for DFSP1
    TOPIC_PREPARE_DFSP1 <-> TOPIC_PREPARE_DFSP1: Ensures that event is replicated as configured (ACKS=all)
    TOPIC_PREPARE_DFSP1 -> MLAPI: Responds replication acknoledgements have been received
    MLAPI -> DFSP1: Respond HTTP - 202 (Accepted)
    deactivate MLAPI
    activate PREP_HANDLER
    TOPIC_PREPARE_DFSP1 -> PREP_HANDLER: Consumes Prepare event message for DFSP1
    PREP_HANDLER <-> PREP_HANDLER: Validates from - DFSP1
    PREP_HANDLER <-> PREP_HANDLER: Validates to - DFSP2
    PREP_HANDLER <-> PREP_HANDLER: Validates message signature
    note right of PREP_HANDLER #red: Validation failure!
    PREP_HANDLER -> EVENT_DAO: Request to persist event information
    EVENT_DAO <-> DB: Persist event information
    EVENT_DAO -> PREP_HANDLER: return success
    note right of PREP_HANDLER #yellow
        Message:
        {
            id: <transferMessage.id>
            from: http://ledger/dfsp1,
            to: http://ledger/dfsp1,
            type: application/json
            content: <transferResponseMessage>,
            metadata: {
                event: {
                    id: <uuid>,
                    responseTo: <previous.uuid>,
                    type: notification,
                    action: prepare,
                    createdAt: <timestamp>
                }
            }
        }
    end note
    PREP_HANDLER -> TOPIC_NOTIFICATIONS: Publishes Notification (failure) event for DFSP1
    deactivate PREP_HANDLER
    activate NOTIFY_HANDLER
    TOPIC_NOTIFICATIONS -> NOTIFY_HANDLER: Consumes Notifications event
    NOTIFY_HANDLER -> CSAPI: Requests Notification details for DFSP1 - GET - HTTP://notifications/DFPS1
    CSAPI -> NOTIFY_DAO: Fetches Notifications details for DFSP1
    NOTIFY_DAO <-> DB: Fetches Notifications details for DFSP1
    NOTIFY_DAO -> CSAPI: Returns Notifications details for DFSP1
    CSAPI -> NOTIFY_HANDLER: Returns Notifications details for DFSP1
    NOTIFY_HANDLER -> DFSP1: HTTP Callback with Prepare result to DFSP1
    deactivate NOTIFY_HANDLER
end
@enduml

PlantUML version 1.2017.18(Fri Oct 06 18:56:32 SAST 2017)
(GPL source distribution)
Java Runtime: Java(TM) SE Runtime Environment
JVM: Java HotSpot(TM) 64-Bit Server VM
Java Version: 1.8.0_152-b16
Operating System: Mac OS X
OS Version: 10.13.4
Default Encoding: UTF-8
Language: en
Country: ZA
--></g></svg>