<?xml version="1.0" encoding="UTF-8" standalone="no"?><svg xmlns="http://www.w3.org/2000/svg" xmlns:xlink="http://www.w3.org/1999/xlink" contentScriptType="application/ecmascript" contentStyleType="text/css" height="876px" preserveAspectRatio="none" style="width:2108px;height:876px;" version="1.1" viewBox="0 0 2108 876" width="2108px" zoomAndPan="magnify"><defs><filter height="300%" id="fk60j5uvq7y6j" width="300%" x="-1" y="-1"><feGaussianBlur result="blurOut" stdDeviation="2.0"/><feColorMatrix in="blurOut" result="blurOut2" type="matrix" values="0 0 0 0 0 0 0 0 0 0 0 0 0 0 0 0 0 0 .4 0"/><feOffset dx="4.0" dy="4.0" in="blurOut2" result="blurOut3"/><feBlend in="SourceGraphic" in2="blurOut3" mode="normal"/></filter></defs><g><text fill="#000000" font-family="sans-serif" font-size="14" font-weight="bold" lengthAdjust="spacingAndGlyphs" textLength="508" x="800.5" y="23.5352">1.1.4.a. Send notification to Participant (Payer/Payee) (single message)</text><rect fill="#D3D3D3" height="830.8535" style="stroke: #A80036; stroke-width: 1.0;" width="179" x="4" y="34.4883"/><text fill="#000000" font-family="sans-serif" font-size="13" font-weight="bold" lengthAdjust="spacingAndGlyphs" textLength="173" x="7" y="47.0566">Financial Service Provider</text><rect fill="#ADD8E6" height="830.8535" style="stroke: #A80036; stroke-width: 1.0;" width="241" x="703" y="34.4883"/><text fill="#000000" font-family="sans-serif" font-size="13" font-weight="bold" lengthAdjust="spacingAndGlyphs" textLength="157" x="745" y="47.0566">ML API Adapter Service</text><rect fill="#FFFFE0" height="830.8535" style="stroke: #A80036; stroke-width: 1.0;" width="1102" x="974" y="34.4883"/><text fill="#000000" font-family="sans-serif" font-size="13" font-weight="bold" lengthAdjust="spacingAndGlyphs" textLength="101" x="1474.5" y="47.0566">Central Service</text><rect fill="#FFFFFF" filter="url(#fk60j5uvq7y6j)" height="588.5898" style="stroke: #A80036; stroke-width: 1.0;" width="10" x="818.5" y="163.7754"/><rect fill="#FFFFFF" filter="url(#fk60j5uvq7y6j)" height="30" style="stroke: #A80036; stroke-width: 1.0;" width="10" x="1046.5" y="209.3965"/><rect fill="#FFFFFF" filter="url(#fk60j5uvq7y6j)" height="198.8633" style="stroke: #A80036; stroke-width: 1.0;" width="10" x="1369.5" y="293.0176"/><rect fill="#FFFFFF" filter="url(#fk60j5uvq7y6j)" height="179.8633" style="stroke: #A80036; stroke-width: 1.0;" width="10" x="1369.5" y="528.1914"/><rect fill="#FFFFFF" filter="url(#fk60j5uvq7y6j)" height="140.2422" style="stroke: #A80036; stroke-width: 1.0;" width="10" x="1573.5" y="322.3281"/><rect fill="#FFFFFF" filter="url(#fk60j5uvq7y6j)" height="121.2422" style="stroke: #A80036; stroke-width: 1.0;" width="10" x="1696" y="557.502"/><rect fill="#FFFFFF" filter="url(#fk60j5uvq7y6j)" height="62.6211" style="stroke: #A80036; stroke-width: 1.0;" width="10" x="2019" y="586.8125"/><rect fill="#FFFFFF" filter="url(#fk60j5uvq7y6j)" height="574.5898" style="stroke: #000000; stroke-width: 2.0;" width="2052" x="44" y="170.7754"/><rect fill="#FFFFFF" filter="url(#fk60j5uvq7y6j)" height="245.4844" style="stroke: #000000; stroke-width: 2.0;" width="944" x="697" y="254.3965"/><line style="stroke: #A80036; stroke-width: 1.0; stroke-dasharray: 5.0,5.0;" x1="93" x2="93" y1="153.7754" y2="762.3652"/><line style="stroke: #A80036; stroke-width: 1.0; stroke-dasharray: 5.0,5.0;" x1="823" x2="823" y1="153.7754" y2="762.3652"/><line style="stroke: #A80036; stroke-width: 1.0; stroke-dasharray: 5.0,5.0;" x1="1051" x2="1051" y1="153.7754" y2="762.3652"/><line style="stroke: #A80036; stroke-width: 1.0; stroke-dasharray: 5.0,5.0;" x1="1374.5" x2="1374.5" y1="153.7754" y2="762.3652"/><line style="stroke: #A80036; stroke-width: 1.0; stroke-dasharray: 5.0,5.0;" x1="1578" x2="1578" y1="153.7754" y2="762.3652"/><line style="stroke: #A80036; stroke-width: 1.0; stroke-dasharray: 5.0,5.0;" x1="1701" x2="1701" y1="153.7754" y2="762.3652"/><line style="stroke: #A80036; stroke-width: 1.0; stroke-dasharray: 5.0,5.0;" x1="2024" x2="2024" y1="153.7754" y2="762.3652"/><text fill="#000000" font-family="sans-serif" font-size="14" lengthAdjust="spacingAndGlyphs" textLength="53" x="64" y="134.334">DFSP(n)</text><text fill="#000000" font-family="sans-serif" font-size="14" lengthAdjust="spacingAndGlyphs" textLength="73" x="54" y="150.8223">Participant</text><ellipse cx="93.5" cy="63.7988" fill="#FEFECE" filter="url(#fk60j5uvq7y6j)" rx="8" ry="8" style="stroke: #A80036; stroke-width: 2.0;"/><path d="M93.5,71.7988 L93.5,98.7988 M80.5,79.7988 L106.5,79.7988 M93.5,98.7988 L80.5,113.7988 M93.5,98.7988 L106.5,113.7988 " fill="none" filter="url(#fk60j5uvq7y6j)" style="stroke: #A80036; stroke-width: 2.0;"/><text fill="#000000" font-family="sans-serif" font-size="14" lengthAdjust="spacingAndGlyphs" textLength="53" x="64" y="774.9004">DFSP(n)</text><text fill="#000000" font-family="sans-serif" font-size="14" lengthAdjust="spacingAndGlyphs" textLength="73" x="54" y="791.3887">Participant</text><ellipse cx="93.5" cy="804.3418" fill="#FEFECE" filter="url(#fk60j5uvq7y6j)" rx="8" ry="8" style="stroke: #A80036; stroke-width: 2.0;"/><path d="M93.5,812.3418 L93.5,839.3418 M80.5,820.3418 L106.5,820.3418 M93.5,839.3418 L80.5,854.3418 M93.5,839.3418 L106.5,854.3418 " fill="none" filter="url(#fk60j5uvq7y6j)" style="stroke: #A80036; stroke-width: 2.0;"/><text fill="#000000" font-family="sans-serif" font-size="14" lengthAdjust="spacingAndGlyphs" textLength="227" x="707" y="150.8223">ML API Notification Event Handler</text><ellipse cx="823.5" cy="121.2871" fill="#FEFECE" filter="url(#fk60j5uvq7y6j)" rx="12" ry="12" style="stroke: #A80036; stroke-width: 2.0;"/><polygon fill="#A80036" points="819.5,109.2871,825.5,104.2871,823.5,109.2871,825.5,114.2871,819.5,109.2871" style="stroke: #A80036; stroke-width: 1.0;"/><text fill="#000000" font-family="sans-serif" font-size="14" lengthAdjust="spacingAndGlyphs" textLength="227" x="707" y="774.9004">ML API Notification Event Handler</text><ellipse cx="823.5" cy="793.8535" fill="#FEFECE" filter="url(#fk60j5uvq7y6j)" rx="12" ry="12" style="stroke: #A80036; stroke-width: 2.0;"/><polygon fill="#A80036" points="819.5,781.8535,825.5,776.8535,823.5,781.8535,825.5,786.8535,819.5,781.8535" style="stroke: #A80036; stroke-width: 1.0;"/><rect fill="#FEFECE" filter="url(#fk60j5uvq7y6j)" height="30.4883" style="stroke: #A80036; stroke-width: 1.5;" width="139" x="982" y="114.2871"/><rect fill="#FEFECE" filter="url(#fk60j5uvq7y6j)" height="30.4883" style="stroke: #A80036; stroke-width: 1.5;" width="139" x="978" y="118.2871"/><text fill="#000000" font-family="sans-serif" font-size="14" lengthAdjust="spacingAndGlyphs" textLength="125" x="985" y="138.8223">Notification-Topic</text><rect fill="#FEFECE" filter="url(#fk60j5uvq7y6j)" height="30.4883" style="stroke: #A80036; stroke-width: 1.5;" width="139" x="982" y="761.3652"/><rect fill="#FEFECE" filter="url(#fk60j5uvq7y6j)" height="30.4883" style="stroke: #A80036; stroke-width: 1.5;" width="139" x="978" y="765.3652"/><text fill="#000000" font-family="sans-serif" font-size="14" lengthAdjust="spacingAndGlyphs" textLength="125" x="985" y="785.9004">Notification-Topic</text><text fill="#000000" font-family="sans-serif" font-size="14" lengthAdjust="spacingAndGlyphs" textLength="128" x="1307.5" y="150.8223">Central Service API</text><path d="M1354,109.2871 L1354,133.2871 M1354,121.2871 L1371,121.2871 " fill="none" filter="url(#fk60j5uvq7y6j)" style="stroke: #A80036; stroke-width: 2.0;"/><ellipse cx="1383" cy="121.2871" fill="#FEFECE" filter="url(#fk60j5uvq7y6j)" rx="12" ry="12" style="stroke: #A80036; stroke-width: 2.0;"/><text fill="#000000" font-family="sans-serif" font-size="14" lengthAdjust="spacingAndGlyphs" textLength="128" x="1307.5" y="774.9004">Central Service API</text><path d="M1354,781.8535 L1354,805.8535 M1354,793.8535 L1371,793.8535 " fill="none" filter="url(#fk60j5uvq7y6j)" style="stroke: #A80036; stroke-width: 2.0;"/><ellipse cx="1383" cy="793.8535" fill="#FEFECE" filter="url(#fk60j5uvq7y6j)" rx="12" ry="12" style="stroke: #A80036; stroke-width: 2.0;"/><rect fill="#FEFECE" filter="url(#fk60j5uvq7y6j)" height="30.4883" style="stroke: #A80036; stroke-width: 1.5;" width="97" x="1530" y="114.2871"/><rect fill="#FEFECE" filter="url(#fk60j5uvq7y6j)" height="30.4883" style="stroke: #A80036; stroke-width: 1.5;" width="97" x="1526" y="118.2871"/><text fill="#000000" font-family="sans-serif" font-size="14" lengthAdjust="spacingAndGlyphs" textLength="83" x="1533" y="138.8223">Event-Topic</text><rect fill="#FEFECE" filter="url(#fk60j5uvq7y6j)" height="30.4883" style="stroke: #A80036; stroke-width: 1.5;" width="97" x="1530" y="761.3652"/><rect fill="#FEFECE" filter="url(#fk60j5uvq7y6j)" height="30.4883" style="stroke: #A80036; stroke-width: 1.5;" width="97" x="1526" y="765.3652"/><text fill="#000000" font-family="sans-serif" font-size="14" lengthAdjust="spacingAndGlyphs" textLength="83" x="1533" y="785.9004">Event-Topic</text><text fill="#000000" font-family="sans-serif" font-size="14" lengthAdjust="spacingAndGlyphs" textLength="114" x="1641" y="150.8223">Notification DAO</text><ellipse cx="1701" cy="121.2871" fill="#FEFECE" filter="url(#fk60j5uvq7y6j)" rx="12" ry="12" style="stroke: #A80036; stroke-width: 2.0;"/><line style="stroke: #A80036; stroke-width: 2.0;" x1="1689" x2="1713" y1="135.2871" y2="135.2871"/><text fill="#000000" font-family="sans-serif" font-size="14" lengthAdjust="spacingAndGlyphs" textLength="114" x="1641" y="774.9004">Notification DAO</text><ellipse cx="1701" cy="793.8535" fill="#FEFECE" filter="url(#fk60j5uvq7y6j)" rx="12" ry="12" style="stroke: #A80036; stroke-width: 2.0;"/><line style="stroke: #A80036; stroke-width: 2.0;" x1="1689" x2="1713" y1="807.8535" y2="807.8535"/><text fill="#000000" font-family="sans-serif" font-size="14" lengthAdjust="spacingAndGlyphs" textLength="90" x="1976" y="150.8223">Central Store</text><path d="M2006,101.2871 C2006,91.2871 2024,91.2871 2024,91.2871 C2024,91.2871 2042,91.2871 2042,101.2871 L2042,127.2871 C2042,137.2871 2024,137.2871 2024,137.2871 C2024,137.2871 2006,137.2871 2006,127.2871 L2006,101.2871 " fill="#FEFECE" filter="url(#fk60j5uvq7y6j)" style="stroke: #000000; stroke-width: 1.5;"/><path d="M2006,101.2871 C2006,111.2871 2024,111.2871 2024,111.2871 C2024,111.2871 2042,111.2871 2042,101.2871 " fill="none" style="stroke: #000000; stroke-width: 1.5;"/><text fill="#000000" font-family="sans-serif" font-size="14" lengthAdjust="spacingAndGlyphs" textLength="90" x="1976" y="774.9004">Central Store</text><path d="M2006,787.8535 C2006,777.8535 2024,777.8535 2024,777.8535 C2024,777.8535 2042,777.8535 2042,787.8535 L2042,813.8535 C2042,823.8535 2024,823.8535 2024,823.8535 C2024,823.8535 2006,823.8535 2006,813.8535 L2006,787.8535 " fill="#FEFECE" filter="url(#fk60j5uvq7y6j)" style="stroke: #000000; stroke-width: 1.5;"/><path d="M2006,787.8535 C2006,797.8535 2024,797.8535 2024,797.8535 C2024,797.8535 2042,797.8535 2042,787.8535 " fill="none" style="stroke: #000000; stroke-width: 1.5;"/><rect fill="#FFFFFF" filter="url(#fk60j5uvq7y6j)" height="588.5898" style="stroke: #A80036; stroke-width: 1.0;" width="10" x="818.5" y="163.7754"/><rect fill="#FFFFFF" filter="url(#fk60j5uvq7y6j)" height="30" style="stroke: #A80036; stroke-width: 1.0;" width="10" x="1046.5" y="209.3965"/><rect fill="#FFFFFF" filter="url(#fk60j5uvq7y6j)" height="198.8633" style="stroke: #A80036; stroke-width: 1.0;" width="10" x="1369.5" y="293.0176"/><rect fill="#FFFFFF" filter="url(#fk60j5uvq7y6j)" height="179.8633" style="stroke: #A80036; stroke-width: 1.0;" width="10" x="1369.5" y="528.1914"/><rect fill="#FFFFFF" filter="url(#fk60j5uvq7y6j)" height="140.2422" style="stroke: #A80036; stroke-width: 1.0;" width="10" x="1573.5" y="322.3281"/><rect fill="#FFFFFF" filter="url(#fk60j5uvq7y6j)" height="121.2422" style="stroke: #A80036; stroke-width: 1.0;" width="10" x="1696" y="557.502"/><rect fill="#FFFFFF" filter="url(#fk60j5uvq7y6j)" height="62.6211" style="stroke: #A80036; stroke-width: 1.0;" width="10" x="2019" y="586.8125"/><path d="M44,170.7754 L296,170.7754 L296,177.7754 L286,187.7754 L44,187.7754 L44,170.7754 " fill="#EEEEEE" style="stroke: #000000; stroke-width: 1.0;"/><rect fill="none" height="574.5898" style="stroke: #000000; stroke-width: 2.0;" width="2052" x="44" y="170.7754"/><text fill="#000000" font-family="sans-serif" font-size="13" font-weight="bold" lengthAdjust="spacingAndGlyphs" textLength="207" x="59" y="184.3438">Send notification to Participant</text><polygon fill="#A80036" points="1034.5,205.3965,1044.5,209.3965,1034.5,213.3965,1038.5,209.3965" style="stroke: #A80036; stroke-width: 1.0;"/><line style="stroke: #A80036; stroke-width: 1.0;" x1="828.5" x2="1040.5" y1="209.3965" y2="209.3965"/><text fill="#000000" font-family="sans-serif" font-size="13" font-weight="bold" lengthAdjust="spacingAndGlyphs" textLength="9" x="835.5" y="204.6543">1</text><text fill="#FF0000" font-family="sans-serif" font-size="13" font-weight="bold" lengthAdjust="spacingAndGlyphs" textLength="186" x="848.5" y="204.6543">Consume Notification event</text><path d="M697,254.3965 L912,254.3965 L912,261.3965 L902,271.3965 L697,271.3965 L697,254.3965 " fill="#EEEEEE" style="stroke: #000000; stroke-width: 1.0;"/><rect fill="none" height="245.4844" style="stroke: #000000; stroke-width: 2.0;" width="944" x="697" y="254.3965"/><text fill="#000000" font-family="sans-serif" font-size="13" font-weight="bold" lengthAdjust="spacingAndGlyphs" textLength="170" x="712" y="267.9648">Persist Event Information</text><polygon fill="#A80036" points="1357.5,289.0176,1367.5,293.0176,1357.5,297.0176,1361.5,293.0176" style="stroke: #A80036; stroke-width: 1.0;"/><line style="stroke: #A80036; stroke-width: 1.0;" x1="828.5" x2="1363.5" y1="293.0176" y2="293.0176"/><text fill="#000000" font-family="sans-serif" font-size="13" font-weight="bold" lengthAdjust="spacingAndGlyphs" textLength="9" x="835.5" y="288.2754">2</text><text fill="#000000" font-family="sans-serif" font-size="13" lengthAdjust="spacingAndGlyphs" textLength="393" x="848.5" y="288.2754">Request to persist event information - POST - HTTP://events/</text><polygon fill="#A80036" points="1561.5,318.3281,1571.5,322.3281,1561.5,326.3281,1565.5,322.3281" style="stroke: #A80036; stroke-width: 1.0;"/><line style="stroke: #A80036; stroke-width: 1.0;" x1="1379.5" x2="1567.5" y1="322.3281" y2="322.3281"/><text fill="#000000" font-family="sans-serif" font-size="13" font-weight="bold" lengthAdjust="spacingAndGlyphs" textLength="9" x="1386.5" y="317.5859">3</text><text fill="#000000" font-family="sans-serif" font-size="13" lengthAdjust="spacingAndGlyphs" textLength="162" x="1399.5" y="317.5859">Publish event information</text><rect fill="#FFFFFF" filter="url(#fk60j5uvq7y6j)" height="55.9316" style="stroke: #000000; stroke-width: 2.0;" width="210" x="1523" y="355.3281"/><polygon fill="#EEEEEE" points="1523,355.3281,1587,355.3281,1587,362.3281,1577,372.3281,1523,372.3281,1523,355.3281" style="stroke: #000000; stroke-width: 2.0;"/><text fill="#000000" font-family="sans-serif" font-size="13" font-weight="bold" lengthAdjust="spacingAndGlyphs" textLength="19" x="1536" y="369.8965">ref</text><text fill="#000000" font-family="sans-serif" font-size="13" lengthAdjust="spacingAndGlyphs" textLength="198" x="1529" y="388.8965">Event Handler Consume {9.1.0.}</text><text fill="#000000" font-family="sans-serif" font-size="13" lengthAdjust="spacingAndGlyphs" textLength="0" x="1533" y="404.207"/><polygon fill="#A80036" points="1390.5,458.5703,1380.5,462.5703,1390.5,466.5703,1386.5,462.5703" style="stroke: #A80036; stroke-width: 1.0;"/><line style="stroke: #A80036; stroke-width: 1.0; stroke-dasharray: 2.0,2.0;" x1="1384.5" x2="1577.5" y1="462.5703" y2="462.5703"/><text fill="#000000" font-family="sans-serif" font-size="13" font-weight="bold" lengthAdjust="spacingAndGlyphs" textLength="9" x="1396.5" y="457.8281">4</text><text fill="#000000" font-family="sans-serif" font-size="13" lengthAdjust="spacingAndGlyphs" textLength="95" x="1409.5" y="457.8281">Return success</text><polygon fill="#A80036" points="839.5,487.8809,829.5,491.8809,839.5,495.8809,835.5,491.8809" style="stroke: #A80036; stroke-width: 1.0;"/><line style="stroke: #A80036; stroke-width: 1.0; stroke-dasharray: 2.0,2.0;" x1="833.5" x2="1373.5" y1="491.8809" y2="491.8809"/><text fill="#000000" font-family="sans-serif" font-size="13" font-weight="bold" lengthAdjust="spacingAndGlyphs" textLength="9" x="845.5" y="487.1387">5</text><text fill="#000000" font-family="sans-serif" font-size="13" lengthAdjust="spacingAndGlyphs" textLength="95" x="858.5" y="487.1387">Return success</text><polygon fill="#A80036" points="1357.5,524.1914,1367.5,528.1914,1357.5,532.1914,1361.5,528.1914" style="stroke: #A80036; stroke-width: 1.0;"/><line style="stroke: #A80036; stroke-width: 1.0;" x1="828.5" x2="1363.5" y1="528.1914" y2="528.1914"/><text fill="#000000" font-family="sans-serif" font-size="13" font-weight="bold" lengthAdjust="spacingAndGlyphs" textLength="9" x="835.5" y="523.4492">6</text><text fill="#000000" font-family="sans-serif" font-size="13" lengthAdjust="spacingAndGlyphs" textLength="509" x="848.5" y="523.4492">Request Notification details for Participant - GET - HTTP://notifications/DFSP(n)</text><polygon fill="#A80036" points="1684,553.502,1694,557.502,1684,561.502,1688,557.502" style="stroke: #A80036; stroke-width: 1.0;"/><line style="stroke: #A80036; stroke-width: 1.0;" x1="1379.5" x2="1690" y1="557.502" y2="557.502"/><text fill="#000000" font-family="sans-serif" font-size="13" font-weight="bold" lengthAdjust="spacingAndGlyphs" textLength="9" x="1386.5" y="552.7598">7</text><text fill="#000000" font-family="sans-serif" font-size="13" lengthAdjust="spacingAndGlyphs" textLength="252" x="1399.5" y="552.7598">Fetch Notification details for Participant</text><polygon fill="#A80036" points="2007,582.8125,2017,586.8125,2007,590.8125,2011,586.8125" style="stroke: #A80036; stroke-width: 1.0;"/><line style="stroke: #A80036; stroke-width: 1.0;" x1="1706" x2="2013" y1="586.8125" y2="586.8125"/><text fill="#000000" font-family="sans-serif" font-size="13" font-weight="bold" lengthAdjust="spacingAndGlyphs" textLength="9" x="1713" y="582.0703">8</text><text fill="#000000" font-family="sans-serif" font-size="13" lengthAdjust="spacingAndGlyphs" textLength="252" x="1726" y="582.0703">Fetch Notification details for Participant</text><polygon fill="#FFFFE0" filter="url(#fk60j5uvq7y6j)" points="1972,599.8125,2076,599.8125,2086,610.8125,2076,622.8125,1972,622.8125,1962,610.8125,1972,599.8125" style="stroke: #A80036; stroke-width: 1.0;"/><text fill="#000000" font-family="sans-serif" font-size="13" lengthAdjust="spacingAndGlyphs" textLength="100" x="1974" y="616.3809">transferPosition</text><polygon fill="#A80036" points="1717,645.4336,1707,649.4336,1717,653.4336,1713,649.4336" style="stroke: #A80036; stroke-width: 1.0;"/><line style="stroke: #A80036; stroke-width: 1.0;" x1="1711" x2="2023" y1="649.4336" y2="649.4336"/><text fill="#000000" font-family="sans-serif" font-size="13" font-weight="bold" lengthAdjust="spacingAndGlyphs" textLength="9" x="1723" y="644.6914">9</text><text fill="#000000" font-family="sans-serif" font-size="13" lengthAdjust="spacingAndGlyphs" textLength="276" x="1736" y="644.6914">Retrieved Notification details for Participant</text><polygon fill="#A80036" points="1390.5,674.7441,1380.5,678.7441,1390.5,682.7441,1386.5,678.7441" style="stroke: #A80036; stroke-width: 1.0;"/><line style="stroke: #A80036; stroke-width: 1.0; stroke-dasharray: 2.0,2.0;" x1="1384.5" x2="1700" y1="678.7441" y2="678.7441"/><text fill="#000000" font-family="sans-serif" font-size="13" font-weight="bold" lengthAdjust="spacingAndGlyphs" textLength="18" x="1396.5" y="674.002">10</text><text fill="#000000" font-family="sans-serif" font-size="13" lengthAdjust="spacingAndGlyphs" textLength="259" x="1418.5" y="674.002">Return Notification details for Participant</text><polygon fill="#A80036" points="839.5,704.0547,829.5,708.0547,839.5,712.0547,835.5,708.0547" style="stroke: #A80036; stroke-width: 1.0;"/><line style="stroke: #A80036; stroke-width: 1.0; stroke-dasharray: 2.0,2.0;" x1="833.5" x2="1373.5" y1="708.0547" y2="708.0547"/><text fill="#000000" font-family="sans-serif" font-size="13" font-weight="bold" lengthAdjust="spacingAndGlyphs" textLength="18" x="845.5" y="703.3125">11</text><text fill="#000000" font-family="sans-serif" font-size="13" lengthAdjust="spacingAndGlyphs" textLength="259" x="867.5" y="703.3125">Return Notification details for Participant</text><polygon fill="#A80036" points="104.5,733.3652,94.5,737.3652,104.5,741.3652,100.5,737.3652" style="stroke: #A80036; stroke-width: 1.0;"/><line style="stroke: #A80036; stroke-width: 1.0; stroke-dasharray: 2.0,2.0;" x1="98.5" x2="817.5" y1="737.3652" y2="737.3652"/><text fill="#000000" font-family="sans-serif" font-size="13" font-weight="bold" lengthAdjust="spacingAndGlyphs" textLength="18" x="110.5" y="732.623">12</text><text fill="#000000" font-family="sans-serif" font-size="13" lengthAdjust="spacingAndGlyphs" textLength="633" x="132.5" y="732.623">Callback with Prepare result to Participant to specified URL - PUT - HTTP://&lt;dfsp-host&gt;&gt;/transfers</text><!--
@startuml
title 1.1.4.a. Send notification to Participant (Payer/Payee) (single message)

autonumber


actor "DFSP(n)\nParticipant" as DFSP
control "ML API Notification Event Handler" as NOTIFY_HANDLER
boundary "Central Service API" as CSAPI
collections "Notification-Topic" as TOPIC_NOTIFICATIONS
collections "Event-Topic" as TOPIC_EVENTS
entity "Notification DAO" as NOTIFY_DAO
database "Central Store" as DB

box "Financial Service Provider" #lightGray
	participant DFSP
end box

box "ML API Adapter Service" #LightBlue
	participant NOTIFY_HANDLER
end box

box "Central Service" #LightYellow
participant TOPIC_NOTIFICATIONS
    participant CSAPI
    participant TOPIC_EVENTS
    participant NOTIFY_DAO
    participant DB
end box

activate NOTIFY_HANDLER
group Send notification to Participant
    TOPIC_NOTIFICATIONS <- NOTIFY_HANDLER: <color #FF0000>**Consume Notification event**</color>
    activate TOPIC_NOTIFICATIONS
    deactivate TOPIC_NOTIFICATIONS

    group Persist Event Information
        NOTIFY_HANDLER -> CSAPI: Request to persist event information - POST - HTTP://events/
        activate CSAPI
        CSAPI -> TOPIC_EVENTS: Publish event information
        activate TOPIC_EVENTS
        |||
        ref over TOPIC_EVENTS :  Event Handler Consume {9.1.0.} \n
        |||
        TOPIC_EVENTS - -> CSAPI: Return success
        deactivate TOPIC_EVENTS
        CSAPI - -> NOTIFY_HANDLER: Return success
        deactivate CSAPI
    end
    NOTIFY_HANDLER -> CSAPI: Request Notification details for Participant - GET - HTTP://notifications/DFSP(n)
    activate CSAPI
    CSAPI -> NOTIFY_DAO: Fetch Notification details for Participant
    activate NOTIFY_DAO
    NOTIFY_DAO -> DB: Fetch Notification details for Participant
    activate DB
    hnote over DB #lightyellow
        transferPosition
    end note
    DB -> NOTIFY_DAO: Retrieved Notification details for Participant
    deactivate DB
    NOTIFY_DAO - -> CSAPI: Return Notification details for Participant
    deactivate NOTIFY_DAO
    CSAPI - -> NOTIFY_HANDLER: Return Notification details for Participant
    deactivate CSAPI
    NOTIFY_HANDLER - -> DFSP: Callback with Prepare result to Participant to specified URL - PUT - HTTP://<dfsp-host>>/transfers
end
deactivate NOTIFY_HANDLER
@enduml

PlantUML version 1.2018.05(Sat May 05 23:00:17 EEST 2018)
(GPL source distribution)
Java Runtime: Java(TM) SE Runtime Environment
JVM: Java HotSpot(TM) 64-Bit Server VM
Java Version: 1.8.0_131-b11
Operating System: Mac OS X
OS Version: 10.13.4
Default Encoding: UTF-8
Language: en
Country: US
--></g></svg>