<?xml version="1.0" encoding="UTF-8" standalone="no"?><svg xmlns="http://www.w3.org/2000/svg" xmlns:xlink="http://www.w3.org/1999/xlink" contentScriptType="application/ecmascript" contentStyleType="text/css" height="1324px" preserveAspectRatio="none" style="width:3094px;height:1324px;" version="1.1" viewBox="0 0 3094 1324" width="3094px" zoomAndPan="magnify"><defs><filter height="300%" id="fp20q07ld23mw" width="300%" x="-1" y="-1"><feGaussianBlur result="blurOut" stdDeviation="2.0"/><feColorMatrix in="blurOut" result="blurOut2" type="matrix" values="0 0 0 0 0 0 0 0 0 0 0 0 0 0 0 0 0 0 .4 0"/><feOffset dx="4.0" dy="4.0" in="blurOut2" result="blurOut3"/><feBlend in="SourceGraphic" in2="blurOut3" mode="normal"/></filter></defs><g><text fill="#000000" font-family="sans-serif" font-size="14" font-weight="bold" lengthAdjust="spacingAndGlyphs" textLength="591" x="1248" y="23.5352">1.2 DFSP1 sends a Prepare Transfer request to DFSP2 - Prepare Validation Failure</text><rect fill="#ADD8E6" height="1278.8828" style="stroke: #A80036; stroke-width: 1.0;" width="186" x="4" y="34.4883"/><text fill="#000000" font-family="sans-serif" font-size="13" font-weight="bold" lengthAdjust="spacingAndGlyphs" textLength="180" x="7" y="47.0566">Financial Service Providers</text><rect fill="#90EE90" height="1278.8828" style="stroke: #A80036; stroke-width: 1.0;" width="361" x="286.5" y="34.4883"/><text fill="#000000" font-family="sans-serif" font-size="13" font-weight="bold" lengthAdjust="spacingAndGlyphs" textLength="157" x="388.5" y="47.0566">ML API Adapter Service</text><rect fill="#FFFFE0" height="1278.8828" style="stroke: #A80036; stroke-width: 1.0;" width="2096" x="987" y="34.4883"/><text fill="#000000" font-family="sans-serif" font-size="13" font-weight="bold" lengthAdjust="spacingAndGlyphs" textLength="101" x="1984.5" y="47.0566">Central Service</text><rect fill="#FFFFFF" filter="url(#fp20q07ld23mw)" height="429.2109" style="stroke: #A80036; stroke-width: 1.0;" width="10" x="340.5" y="147.2871"/><rect fill="#FFFFFF" filter="url(#fp20q07ld23mw)" height="146.5527" style="stroke: #A80036; stroke-width: 1.0;" width="10" x="522" y="1055.0195"/><rect fill="#FFFFFF" filter="url(#fp20q07ld23mw)" height="478.5215" style="stroke: #A80036; stroke-width: 1.0;" width="10" x="1598" y="576.498"/><rect fill="#FFFFFF" filter="url(#fp20q07ld23mw)" height="1055.5957" style="stroke: #000000; stroke-width: 2.0;" width="2950" x="33" y="154.2871"/><line style="stroke: #A80036; stroke-width: 1.0; stroke-dasharray: 5.0,5.0;" x1="67" x2="67" y1="137.2871" y2="1226.8828"/><line style="stroke: #A80036; stroke-width: 1.0; stroke-dasharray: 5.0,5.0;" x1="126" x2="126" y1="137.2871" y2="1226.8828"/><line style="stroke: #A80036; stroke-width: 1.0; stroke-dasharray: 5.0,5.0;" x1="345.5" x2="345.5" y1="137.2871" y2="1226.8828"/><line style="stroke: #A80036; stroke-width: 1.0; stroke-dasharray: 5.0,5.0;" x1="526.5" x2="526.5" y1="137.2871" y2="1226.8828"/><line style="stroke: #A80036; stroke-width: 1.0; stroke-dasharray: 5.0,5.0;" x1="1058" x2="1058" y1="137.2871" y2="1226.8828"/><line style="stroke: #A80036; stroke-width: 1.0; stroke-dasharray: 5.0,5.0;" x1="1219" x2="1219" y1="137.2871" y2="1226.8828"/><line style="stroke: #A80036; stroke-width: 1.0; stroke-dasharray: 5.0,5.0;" x1="1603" x2="1603" y1="137.2871" y2="1226.8828"/><line style="stroke: #A80036; stroke-width: 1.0; stroke-dasharray: 5.0,5.0;" x1="1819" x2="1819" y1="137.2871" y2="1226.8828"/><line style="stroke: #A80036; stroke-width: 1.0; stroke-dasharray: 5.0,5.0;" x1="1994" x2="1994" y1="137.2871" y2="1226.8828"/><line style="stroke: #A80036; stroke-width: 1.0; stroke-dasharray: 5.0,5.0;" x1="2147" x2="2147" y1="137.2871" y2="1226.8828"/><line style="stroke: #A80036; stroke-width: 1.0; stroke-dasharray: 5.0,5.0;" x1="2301" x2="2301" y1="137.2871" y2="1226.8828"/><line style="stroke: #A80036; stroke-width: 1.0; stroke-dasharray: 5.0,5.0;" x1="2466" x2="2466" y1="137.2871" y2="1226.8828"/><line style="stroke: #A80036; stroke-width: 1.0; stroke-dasharray: 5.0,5.0;" x1="2598" x2="2598" y1="137.2871" y2="1226.8828"/><line style="stroke: #A80036; stroke-width: 1.0; stroke-dasharray: 5.0,5.0;" x1="2695" x2="2695" y1="137.2871" y2="1226.8828"/><line style="stroke: #A80036; stroke-width: 1.0; stroke-dasharray: 5.0,5.0;" x1="2793" x2="2793" y1="137.2871" y2="1226.8828"/><line style="stroke: #A80036; stroke-width: 1.0; stroke-dasharray: 5.0,5.0;" x1="2913" x2="2913" y1="137.2871" y2="1226.8828"/><line style="stroke: #A80036; stroke-width: 1.0; stroke-dasharray: 5.0,5.0;" x1="3031" x2="3031" y1="137.2871" y2="1226.8828"/><text fill="#000000" font-family="sans-serif" font-size="14" lengthAdjust="spacingAndGlyphs" textLength="43" x="43" y="134.334">DFSP1</text><ellipse cx="67.5" cy="63.7988" fill="#FEFECE" filter="url(#fp20q07ld23mw)" rx="8" ry="8" style="stroke: #A80036; stroke-width: 2.0;"/><path d="M67.5,71.7988 L67.5,98.7988 M54.5,79.7988 L80.5,79.7988 M67.5,98.7988 L54.5,113.7988 M67.5,98.7988 L80.5,113.7988 " fill="#FEFECE" filter="url(#fp20q07ld23mw)" style="stroke: #A80036; stroke-width: 2.0;"/><text fill="#000000" font-family="sans-serif" font-size="14" lengthAdjust="spacingAndGlyphs" textLength="43" x="43" y="1239.418">DFSP1</text><ellipse cx="67.5" cy="1252.3711" fill="#FEFECE" filter="url(#fp20q07ld23mw)" rx="8" ry="8" style="stroke: #A80036; stroke-width: 2.0;"/><path d="M67.5,1260.3711 L67.5,1287.3711 M54.5,1268.3711 L80.5,1268.3711 M67.5,1287.3711 L54.5,1302.3711 M67.5,1287.3711 L80.5,1302.3711 " fill="#FEFECE" filter="url(#fp20q07ld23mw)" style="stroke: #A80036; stroke-width: 2.0;"/><text fill="#000000" font-family="sans-serif" font-size="14" lengthAdjust="spacingAndGlyphs" textLength="43" x="102" y="134.334">DFSP2</text><ellipse cx="126.5" cy="63.7988" fill="#FEFECE" filter="url(#fp20q07ld23mw)" rx="8" ry="8" style="stroke: #A80036; stroke-width: 2.0;"/><path d="M126.5,71.7988 L126.5,98.7988 M113.5,79.7988 L139.5,79.7988 M126.5,98.7988 L113.5,113.7988 M126.5,98.7988 L139.5,113.7988 " fill="#FEFECE" filter="url(#fp20q07ld23mw)" style="stroke: #A80036; stroke-width: 2.0;"/><text fill="#000000" font-family="sans-serif" font-size="14" lengthAdjust="spacingAndGlyphs" textLength="43" x="102" y="1239.418">DFSP2</text><ellipse cx="126.5" cy="1252.3711" fill="#FEFECE" filter="url(#fp20q07ld23mw)" rx="8" ry="8" style="stroke: #A80036; stroke-width: 2.0;"/><path d="M126.5,1260.3711 L126.5,1287.3711 M113.5,1268.3711 L139.5,1268.3711 M126.5,1287.3711 L113.5,1302.3711 M126.5,1287.3711 L139.5,1302.3711 " fill="#FEFECE" filter="url(#fp20q07ld23mw)" style="stroke: #A80036; stroke-width: 2.0;"/><text fill="#000000" font-family="sans-serif" font-size="14" lengthAdjust="spacingAndGlyphs" textLength="104" x="290.5" y="134.334">ML API Adapter</text><path d="M325,92.7988 L325,116.7988 M325,104.7988 L342,104.7988 " fill="#FEFECE" filter="url(#fp20q07ld23mw)" style="stroke: #A80036; stroke-width: 2.0;"/><ellipse cx="354" cy="104.7988" fill="#FEFECE" filter="url(#fp20q07ld23mw)" rx="12" ry="12" style="stroke: #A80036; stroke-width: 2.0;"/><text fill="#000000" font-family="sans-serif" font-size="14" lengthAdjust="spacingAndGlyphs" textLength="104" x="290.5" y="1239.418">ML API Adapter</text><path d="M325,1246.3711 L325,1270.3711 M325,1258.3711 L342,1258.3711 " fill="#FEFECE" filter="url(#fp20q07ld23mw)" style="stroke: #A80036; stroke-width: 2.0;"/><ellipse cx="354" cy="1258.3711" fill="#FEFECE" filter="url(#fp20q07ld23mw)" rx="12" ry="12" style="stroke: #A80036; stroke-width: 2.0;"/><text fill="#000000" font-family="sans-serif" font-size="14" lengthAdjust="spacingAndGlyphs" textLength="227" x="410.5" y="134.334">ML API Notification Event Handler</text><ellipse cx="527" cy="104.7988" fill="#FEFECE" filter="url(#fp20q07ld23mw)" rx="12" ry="12" style="stroke: #A80036; stroke-width: 2.0;"/><polygon fill="#A80036" points="523,92.7988,529,87.7988,527,92.7988,529,97.7988,523,92.7988" style="stroke: #A80036; stroke-width: 1.0;"/><text fill="#000000" font-family="sans-serif" font-size="14" lengthAdjust="spacingAndGlyphs" textLength="227" x="410.5" y="1239.418">ML API Notification Event Handler</text><ellipse cx="527" cy="1258.3711" fill="#FEFECE" filter="url(#fp20q07ld23mw)" rx="12" ry="12" style="stroke: #A80036; stroke-width: 2.0;"/><polygon fill="#A80036" points="523,1246.3711,529,1241.3711,527,1246.3711,529,1251.3711,523,1246.3711" style="stroke: #A80036; stroke-width: 1.0;"/><text fill="#000000" font-family="sans-serif" font-size="14" lengthAdjust="spacingAndGlyphs" textLength="128" x="991" y="134.334">Central Service API</text><path d="M1037.5,92.7988 L1037.5,116.7988 M1037.5,104.7988 L1054.5,104.7988 " fill="#FEFECE" filter="url(#fp20q07ld23mw)" style="stroke: #A80036; stroke-width: 2.0;"/><ellipse cx="1066.5" cy="104.7988" fill="#FEFECE" filter="url(#fp20q07ld23mw)" rx="12" ry="12" style="stroke: #A80036; stroke-width: 2.0;"/><text fill="#000000" font-family="sans-serif" font-size="14" lengthAdjust="spacingAndGlyphs" textLength="128" x="991" y="1239.418">Central Service API</text><path d="M1037.5,1246.3711 L1037.5,1270.3711 M1037.5,1258.3711 L1054.5,1258.3711 " fill="#FEFECE" filter="url(#fp20q07ld23mw)" style="stroke: #A80036; stroke-width: 2.0;"/><ellipse cx="1066.5" cy="1258.3711" fill="#FEFECE" filter="url(#fp20q07ld23mw)" rx="12" ry="12" style="stroke: #A80036; stroke-width: 2.0;"/><rect fill="#FEFECE" filter="url(#fp20q07ld23mw)" height="30.4883" style="stroke: #A80036; stroke-width: 1.5;" width="160" x="1139" y="97.7988"/><rect fill="#FEFECE" filter="url(#fp20q07ld23mw)" height="30.4883" style="stroke: #A80036; stroke-width: 1.5;" width="160" x="1135" y="101.7988"/><text fill="#000000" font-family="sans-serif" font-size="14" lengthAdjust="spacingAndGlyphs" textLength="146" x="1142" y="122.334">Prepare-Topic-dfsp1</text><rect fill="#FEFECE" filter="url(#fp20q07ld23mw)" height="30.4883" style="stroke: #A80036; stroke-width: 1.5;" width="160" x="1139" y="1225.8828"/><rect fill="#FEFECE" filter="url(#fp20q07ld23mw)" height="30.4883" style="stroke: #A80036; stroke-width: 1.5;" width="160" x="1135" y="1229.8828"/><text fill="#000000" font-family="sans-serif" font-size="14" lengthAdjust="spacingAndGlyphs" textLength="146" x="1142" y="1250.418">Prepare-Topic-dfsp1</text><text fill="#000000" font-family="sans-serif" font-size="14" lengthAdjust="spacingAndGlyphs" textLength="152" x="1524" y="134.334">Prepare Event Handler</text><ellipse cx="1603" cy="104.7988" fill="#FEFECE" filter="url(#fp20q07ld23mw)" rx="12" ry="12" style="stroke: #A80036; stroke-width: 2.0;"/><polygon fill="#A80036" points="1599,92.7988,1605,87.7988,1603,92.7988,1605,97.7988,1599,92.7988" style="stroke: #A80036; stroke-width: 1.0;"/><text fill="#000000" font-family="sans-serif" font-size="14" lengthAdjust="spacingAndGlyphs" textLength="152" x="1524" y="1239.418">Prepare Event Handler</text><ellipse cx="1603" cy="1258.3711" fill="#FEFECE" filter="url(#fp20q07ld23mw)" rx="12" ry="12" style="stroke: #A80036; stroke-width: 2.0;"/><polygon fill="#A80036" points="1599,1246.3711,1605,1241.3711,1603,1246.3711,1605,1251.3711,1599,1246.3711" style="stroke: #A80036; stroke-width: 1.0;"/><rect fill="#FEFECE" filter="url(#fp20q07ld23mw)" height="30.4883" style="stroke: #A80036; stroke-width: 1.5;" width="162" x="1738" y="97.7988"/><rect fill="#FEFECE" filter="url(#fp20q07ld23mw)" height="30.4883" style="stroke: #A80036; stroke-width: 1.5;" width="162" x="1734" y="101.7988"/><text fill="#000000" font-family="sans-serif" font-size="14" lengthAdjust="spacingAndGlyphs" textLength="148" x="1741" y="122.334">Position-Topic-dfsp1</text><rect fill="#FEFECE" filter="url(#fp20q07ld23mw)" height="30.4883" style="stroke: #A80036; stroke-width: 1.5;" width="162" x="1738" y="1225.8828"/><rect fill="#FEFECE" filter="url(#fp20q07ld23mw)" height="30.4883" style="stroke: #A80036; stroke-width: 1.5;" width="162" x="1734" y="1229.8828"/><text fill="#000000" font-family="sans-serif" font-size="14" lengthAdjust="spacingAndGlyphs" textLength="148" x="1741" y="1250.418">Position-Topic-dfsp1</text><text fill="#000000" font-family="sans-serif" font-size="14" lengthAdjust="spacingAndGlyphs" textLength="154" x="1914" y="134.334">Position Event Handler</text><ellipse cx="1994" cy="104.7988" fill="#FEFECE" filter="url(#fp20q07ld23mw)" rx="12" ry="12" style="stroke: #A80036; stroke-width: 2.0;"/><polygon fill="#A80036" points="1990,92.7988,1996,87.7988,1994,92.7988,1996,97.7988,1990,92.7988" style="stroke: #A80036; stroke-width: 1.0;"/><text fill="#000000" font-family="sans-serif" font-size="14" lengthAdjust="spacingAndGlyphs" textLength="154" x="1914" y="1239.418">Position Event Handler</text><ellipse cx="1994" cy="1258.3711" fill="#FEFECE" filter="url(#fp20q07ld23mw)" rx="12" ry="12" style="stroke: #A80036; stroke-width: 2.0;"/><polygon fill="#A80036" points="1990,1246.3711,1996,1241.3711,1994,1246.3711,1996,1251.3711,1990,1246.3711" style="stroke: #A80036; stroke-width: 1.0;"/><rect fill="#FEFECE" filter="url(#fp20q07ld23mw)" height="30.4883" style="stroke: #A80036; stroke-width: 1.5;" width="118" x="2088" y="97.7988"/><rect fill="#FEFECE" filter="url(#fp20q07ld23mw)" height="30.4883" style="stroke: #A80036; stroke-width: 1.5;" width="118" x="2084" y="101.7988"/><text fill="#000000" font-family="sans-serif" font-size="14" lengthAdjust="spacingAndGlyphs" textLength="104" x="2091" y="122.334">Transfer-Topic</text><rect fill="#FEFECE" filter="url(#fp20q07ld23mw)" height="30.4883" style="stroke: #A80036; stroke-width: 1.5;" width="118" x="2088" y="1225.8828"/><rect fill="#FEFECE" filter="url(#fp20q07ld23mw)" height="30.4883" style="stroke: #A80036; stroke-width: 1.5;" width="118" x="2084" y="1229.8828"/><text fill="#000000" font-family="sans-serif" font-size="14" lengthAdjust="spacingAndGlyphs" textLength="104" x="2091" y="1250.418">Transfer-Topic</text><text fill="#000000" font-family="sans-serif" font-size="14" lengthAdjust="spacingAndGlyphs" textLength="157" x="2220" y="134.334">Transfer Event Handler</text><ellipse cx="2301.5" cy="104.7988" fill="#FEFECE" filter="url(#fp20q07ld23mw)" rx="12" ry="12" style="stroke: #A80036; stroke-width: 2.0;"/><polygon fill="#A80036" points="2297.5,92.7988,2303.5,87.7988,2301.5,92.7988,2303.5,97.7988,2297.5,92.7988" style="stroke: #A80036; stroke-width: 1.0;"/><text fill="#000000" font-family="sans-serif" font-size="14" lengthAdjust="spacingAndGlyphs" textLength="157" x="2220" y="1239.418">Transfer Event Handler</text><ellipse cx="2301.5" cy="1258.3711" fill="#FEFECE" filter="url(#fp20q07ld23mw)" rx="12" ry="12" style="stroke: #A80036; stroke-width: 2.0;"/><polygon fill="#A80036" points="2297.5,1246.3711,2303.5,1241.3711,2301.5,1246.3711,2303.5,1251.3711,2297.5,1246.3711" style="stroke: #A80036; stroke-width: 1.0;"/><rect fill="#FEFECE" filter="url(#fp20q07ld23mw)" height="30.4883" style="stroke: #A80036; stroke-width: 1.5;" width="139" x="2397" y="97.7988"/><rect fill="#FEFECE" filter="url(#fp20q07ld23mw)" height="30.4883" style="stroke: #A80036; stroke-width: 1.5;" width="139" x="2393" y="101.7988"/><text fill="#000000" font-family="sans-serif" font-size="14" lengthAdjust="spacingAndGlyphs" textLength="125" x="2400" y="122.334">Notification-Topic</text><rect fill="#FEFECE" filter="url(#fp20q07ld23mw)" height="30.4883" style="stroke: #A80036; stroke-width: 1.5;" width="139" x="2397" y="1225.8828"/><rect fill="#FEFECE" filter="url(#fp20q07ld23mw)" height="30.4883" style="stroke: #A80036; stroke-width: 1.5;" width="139" x="2393" y="1229.8828"/><text fill="#000000" font-family="sans-serif" font-size="14" lengthAdjust="spacingAndGlyphs" textLength="125" x="2400" y="1250.418">Notification-Topic</text><text fill="#000000" font-family="sans-serif" font-size="14" lengthAdjust="spacingAndGlyphs" textLength="90" x="2550" y="134.334">Position DAO</text><ellipse cx="2598" cy="104.7988" fill="#FEFECE" filter="url(#fp20q07ld23mw)" rx="12" ry="12" style="stroke: #A80036; stroke-width: 2.0;"/><line style="stroke: #A80036; stroke-width: 2.0;" x1="2586" x2="2610" y1="118.7988" y2="118.7988"/><text fill="#000000" font-family="sans-serif" font-size="14" lengthAdjust="spacingAndGlyphs" textLength="90" x="2550" y="1239.418">Position DAO</text><ellipse cx="2598" cy="1258.3711" fill="#FEFECE" filter="url(#fp20q07ld23mw)" rx="12" ry="12" style="stroke: #A80036; stroke-width: 2.0;"/><line style="stroke: #A80036; stroke-width: 2.0;" x1="2586" x2="2610" y1="1272.3711" y2="1272.3711"/><text fill="#000000" font-family="sans-serif" font-size="14" lengthAdjust="spacingAndGlyphs" textLength="72" x="2656" y="134.334">Event DAO</text><ellipse cx="2695" cy="104.7988" fill="#FEFECE" filter="url(#fp20q07ld23mw)" rx="12" ry="12" style="stroke: #A80036; stroke-width: 2.0;"/><line style="stroke: #A80036; stroke-width: 2.0;" x1="2683" x2="2707" y1="118.7988" y2="118.7988"/><text fill="#000000" font-family="sans-serif" font-size="14" lengthAdjust="spacingAndGlyphs" textLength="72" x="2656" y="1239.418">Event DAO</text><ellipse cx="2695" cy="1258.3711" fill="#FEFECE" filter="url(#fp20q07ld23mw)" rx="12" ry="12" style="stroke: #A80036; stroke-width: 2.0;"/><line style="stroke: #A80036; stroke-width: 2.0;" x1="2683" x2="2707" y1="1272.3711" y2="1272.3711"/><text fill="#000000" font-family="sans-serif" font-size="14" lengthAdjust="spacingAndGlyphs" textLength="93" x="2744" y="134.334">Transfer DAO</text><ellipse cx="2793.5" cy="104.7988" fill="#FEFECE" filter="url(#fp20q07ld23mw)" rx="12" ry="12" style="stroke: #A80036; stroke-width: 2.0;"/><line style="stroke: #A80036; stroke-width: 2.0;" x1="2781.5" x2="2805.5" y1="118.7988" y2="118.7988"/><text fill="#000000" font-family="sans-serif" font-size="14" lengthAdjust="spacingAndGlyphs" textLength="93" x="2744" y="1239.418">Transfer DAO</text><ellipse cx="2793.5" cy="1258.3711" fill="#FEFECE" filter="url(#fp20q07ld23mw)" rx="12" ry="12" style="stroke: #A80036; stroke-width: 2.0;"/><line style="stroke: #A80036; stroke-width: 2.0;" x1="2781.5" x2="2805.5" y1="1272.3711" y2="1272.3711"/><text fill="#000000" font-family="sans-serif" font-size="14" lengthAdjust="spacingAndGlyphs" textLength="114" x="2853" y="134.334">Notification DAO</text><ellipse cx="2913" cy="104.7988" fill="#FEFECE" filter="url(#fp20q07ld23mw)" rx="12" ry="12" style="stroke: #A80036; stroke-width: 2.0;"/><line style="stroke: #A80036; stroke-width: 2.0;" x1="2901" x2="2925" y1="118.7988" y2="118.7988"/><text fill="#000000" font-family="sans-serif" font-size="14" lengthAdjust="spacingAndGlyphs" textLength="114" x="2853" y="1239.418">Notification DAO</text><ellipse cx="2913" cy="1258.3711" fill="#FEFECE" filter="url(#fp20q07ld23mw)" rx="12" ry="12" style="stroke: #A80036; stroke-width: 2.0;"/><line style="stroke: #A80036; stroke-width: 2.0;" x1="2901" x2="2925" y1="1272.3711" y2="1272.3711"/><text fill="#000000" font-family="sans-serif" font-size="14" lengthAdjust="spacingAndGlyphs" textLength="90" x="2983" y="134.334">Central Store</text><path d="M3013,84.7988 C3013,74.7988 3031,74.7988 3031,74.7988 C3031,74.7988 3049,74.7988 3049,84.7988 L3049,110.7988 C3049,120.7988 3031,120.7988 3031,120.7988 C3031,120.7988 3013,120.7988 3013,110.7988 L3013,84.7988 " fill="#FEFECE" filter="url(#fp20q07ld23mw)" style="stroke: #000000; stroke-width: 1.5;"/><path d="M3013,84.7988 C3013,94.7988 3031,94.7988 3031,94.7988 C3031,94.7988 3049,94.7988 3049,84.7988 " fill="none" style="stroke: #000000; stroke-width: 1.5;"/><text fill="#000000" font-family="sans-serif" font-size="14" lengthAdjust="spacingAndGlyphs" textLength="90" x="2983" y="1239.418">Central Store</text><path d="M3013,1252.3711 C3013,1242.3711 3031,1242.3711 3031,1242.3711 C3031,1242.3711 3049,1242.3711 3049,1252.3711 L3049,1278.3711 C3049,1288.3711 3031,1288.3711 3031,1288.3711 C3031,1288.3711 3013,1288.3711 3013,1278.3711 L3013,1252.3711 " fill="#FEFECE" filter="url(#fp20q07ld23mw)" style="stroke: #000000; stroke-width: 1.5;"/><path d="M3013,1252.3711 C3013,1262.3711 3031,1262.3711 3031,1262.3711 C3031,1262.3711 3049,1262.3711 3049,1252.3711 " fill="none" style="stroke: #000000; stroke-width: 1.5;"/><rect fill="#FFFFFF" filter="url(#fp20q07ld23mw)" height="429.2109" style="stroke: #A80036; stroke-width: 1.0;" width="10" x="340.5" y="147.2871"/><rect fill="#FFFFFF" filter="url(#fp20q07ld23mw)" height="146.5527" style="stroke: #A80036; stroke-width: 1.0;" width="10" x="522" y="1055.0195"/><rect fill="#FFFFFF" filter="url(#fp20q07ld23mw)" height="478.5215" style="stroke: #A80036; stroke-width: 1.0;" width="10" x="1598" y="576.498"/><rect fill="none" height="1055.5957" style="stroke: #000000; stroke-width: 2.0;" width="2950" x="33" y="154.2871"/><polygon fill="#EEEEEE" points="33,154.2871,95,154.2871,95,161.2871,85,171.2871,33,171.2871,33,154.2871" style="stroke: #000000; stroke-width: 2.0;"/><text fill="#000000" font-family="sans-serif" font-size="13" font-weight="bold" lengthAdjust="spacingAndGlyphs" textLength="17" x="48" y="167.8555">alt</text><text fill="#000000" font-family="sans-serif" font-size="11" font-weight="bold" lengthAdjust="spacingAndGlyphs" textLength="153" x="110" y="166.9219">[Prepare Validation Failure]</text><polygon fill="#A80036" points="328.5,188.5977,338.5,192.5977,328.5,196.5977,332.5,192.5977" style="stroke: #A80036; stroke-width: 1.0;"/><line style="stroke: #A80036; stroke-width: 1.0;" x1="67.5" x2="334.5" y1="192.5977" y2="192.5977"/><text fill="#000000" font-family="sans-serif" font-size="13" font-weight="bold" lengthAdjust="spacingAndGlyphs" textLength="9" x="74.5" y="188.166">1</text><text fill="#000000" font-family="sans-serif" font-size="13" lengthAdjust="spacingAndGlyphs" textLength="148" x="87.5" y="188.166">POST - http://transfers</text><polygon fill="#FFFF00" filter="url(#fp20q07ld23mw)" points="355,205.9082,355,444.9082,575,444.9082,575,215.9082,565,205.9082,355,205.9082" style="stroke: #A80036; stroke-width: 1.0;"/><line style="stroke: #A80036; stroke-width: 1.0;" x1="565" x2="565" y1="205.9082" y2="215.9082"/><line style="stroke: #A80036; stroke-width: 1.0;" x1="575" x2="565" y1="215.9082" y2="215.9082"/><text fill="#000000" font-family="sans-serif" font-size="13" lengthAdjust="spacingAndGlyphs" textLength="58" x="361" y="223.4766">Message:</text><text fill="#000000" font-family="sans-serif" font-size="13" lengthAdjust="spacingAndGlyphs" textLength="4" x="361" y="238.7871">{</text><text fill="#000000" font-family="sans-serif" font-size="13" lengthAdjust="spacingAndGlyphs" textLength="159" x="377" y="254.0977">id: &lt;transferMessage.id&gt;</text><text fill="#000000" font-family="sans-serif" font-size="13" lengthAdjust="spacingAndGlyphs" textLength="168" x="377" y="269.4082">from: http://ledger/dfsp1,</text><text fill="#000000" font-family="sans-serif" font-size="13" lengthAdjust="spacingAndGlyphs" textLength="151" x="377" y="284.7188">to: http://ledger/dfsp2,</text><text fill="#000000" font-family="sans-serif" font-size="13" lengthAdjust="spacingAndGlyphs" textLength="139" x="377" y="300.0293">type: application/json</text><text fill="#000000" font-family="sans-serif" font-size="13" lengthAdjust="spacingAndGlyphs" textLength="183" x="377" y="315.3398">content: &lt;transferMessage&gt;,</text><text fill="#000000" font-family="sans-serif" font-size="13" lengthAdjust="spacingAndGlyphs" textLength="70" x="377" y="330.6504">metadata: {</text><text fill="#000000" font-family="sans-serif" font-size="13" lengthAdjust="spacingAndGlyphs" textLength="46" x="393" y="345.9609">event: {</text><text fill="#000000" font-family="sans-serif" font-size="13" lengthAdjust="spacingAndGlyphs" textLength="86" x="409" y="361.2715">type: prepare,</text><text fill="#000000" font-family="sans-serif" font-size="13" lengthAdjust="spacingAndGlyphs" textLength="98" x="409" y="376.582">action: prepare,</text><text fill="#000000" font-family="sans-serif" font-size="13" lengthAdjust="spacingAndGlyphs" textLength="147" x="409" y="391.8926">createAt: &lt;timestamp&gt;</text><text fill="#000000" font-family="sans-serif" font-size="13" lengthAdjust="spacingAndGlyphs" textLength="4" x="393" y="407.2031">}</text><text fill="#000000" font-family="sans-serif" font-size="13" lengthAdjust="spacingAndGlyphs" textLength="4" x="377" y="422.5137">}</text><text fill="#000000" font-family="sans-serif" font-size="13" lengthAdjust="spacingAndGlyphs" textLength="4" x="361" y="437.8242">}</text><polygon fill="#A80036" points="1207,471.5664,1217,475.5664,1207,479.5664,1211,475.5664" style="stroke: #A80036; stroke-width: 1.0;"/><line style="stroke: #A80036; stroke-width: 1.0;" x1="350.5" x2="1213" y1="475.5664" y2="475.5664"/><text fill="#000000" font-family="sans-serif" font-size="13" font-weight="bold" lengthAdjust="spacingAndGlyphs" textLength="9" x="357.5" y="471.1348">2</text><text fill="#000000" font-family="sans-serif" font-size="13" lengthAdjust="spacingAndGlyphs" textLength="273" x="370.5" y="471.1348">Routes &amp; Publishes Prepare event for DFSP1</text><line style="stroke: #A80036; stroke-width: 1.0;" x1="1219" x2="1261" y1="505.1875" y2="505.1875"/><line style="stroke: #A80036; stroke-width: 1.0;" x1="1261" x2="1261" y1="505.1875" y2="518.1875"/><line style="stroke: #A80036; stroke-width: 1.0;" x1="1220" x2="1261" y1="518.1875" y2="518.1875"/><polygon fill="#A80036" points="1230,514.1875,1220,518.1875,1230,522.1875,1226,518.1875" style="stroke: #A80036; stroke-width: 1.0;"/><text fill="#000000" font-family="sans-serif" font-size="13" font-weight="bold" lengthAdjust="spacingAndGlyphs" textLength="9" x="1226" y="500.4453">3</text><text fill="#000000" font-family="sans-serif" font-size="13" lengthAdjust="spacingAndGlyphs" textLength="357" x="1239" y="500.4453">Ensures that event is replicated as configured (ACKS=all)</text><polygon fill="#A80036" points="361.5,543.1875,351.5,547.1875,361.5,551.1875,357.5,547.1875" style="stroke: #A80036; stroke-width: 1.0;"/><line style="stroke: #A80036; stroke-width: 1.0;" x1="355.5" x2="1218" y1="547.1875" y2="547.1875"/><text fill="#000000" font-family="sans-serif" font-size="13" font-weight="bold" lengthAdjust="spacingAndGlyphs" textLength="9" x="367.5" y="542.7559">4</text><text fill="#000000" font-family="sans-serif" font-size="13" lengthAdjust="spacingAndGlyphs" textLength="370" x="380.5" y="542.7559">Responds replication acknoledgements have been received</text><polygon fill="#A80036" points="78.5,572.498,68.5,576.498,78.5,580.498,74.5,576.498" style="stroke: #A80036; stroke-width: 1.0;"/><line style="stroke: #A80036; stroke-width: 1.0;" x1="72.5" x2="344.5" y1="576.498" y2="576.498"/><text fill="#000000" font-family="sans-serif" font-size="13" font-weight="bold" lengthAdjust="spacingAndGlyphs" textLength="9" x="84.5" y="572.0664">5</text><text fill="#000000" font-family="sans-serif" font-size="13" lengthAdjust="spacingAndGlyphs" textLength="201" x="97.5" y="572.0664">Respond HTTP - 202 (Accepted)</text><polygon fill="#A80036" points="1586,601.8086,1596,605.8086,1586,609.8086,1590,605.8086" style="stroke: #A80036; stroke-width: 1.0;"/><line style="stroke: #A80036; stroke-width: 1.0;" x1="1219" x2="1592" y1="605.8086" y2="605.8086"/><text fill="#000000" font-family="sans-serif" font-size="13" font-weight="bold" lengthAdjust="spacingAndGlyphs" textLength="9" x="1226" y="601.377">6</text><text fill="#000000" font-family="sans-serif" font-size="13" lengthAdjust="spacingAndGlyphs" textLength="278" x="1239" y="601.377">Consumes Prepare event message for DFSP1</text><line style="stroke: #A80036; stroke-width: 1.0;" x1="1608" x2="1650" y1="635.4297" y2="635.4297"/><line style="stroke: #A80036; stroke-width: 1.0;" x1="1650" x2="1650" y1="635.4297" y2="648.4297"/><line style="stroke: #A80036; stroke-width: 1.0;" x1="1609" x2="1650" y1="648.4297" y2="648.4297"/><polygon fill="#A80036" points="1619,644.4297,1609,648.4297,1619,652.4297,1615,648.4297" style="stroke: #A80036; stroke-width: 1.0;"/><text fill="#000000" font-family="sans-serif" font-size="13" font-weight="bold" lengthAdjust="spacingAndGlyphs" textLength="9" x="1615" y="630.6875">7</text><text fill="#000000" font-family="sans-serif" font-size="13" lengthAdjust="spacingAndGlyphs" textLength="146" x="1628" y="630.6875">Validates from - DFSP1</text><line style="stroke: #A80036; stroke-width: 1.0;" x1="1608" x2="1650" y1="677.7402" y2="677.7402"/><line style="stroke: #A80036; stroke-width: 1.0;" x1="1650" x2="1650" y1="677.7402" y2="690.7402"/><line style="stroke: #A80036; stroke-width: 1.0;" x1="1609" x2="1650" y1="690.7402" y2="690.7402"/><polygon fill="#A80036" points="1619,686.7402,1609,690.7402,1619,694.7402,1615,690.7402" style="stroke: #A80036; stroke-width: 1.0;"/><text fill="#000000" font-family="sans-serif" font-size="13" font-weight="bold" lengthAdjust="spacingAndGlyphs" textLength="9" x="1615" y="672.998">8</text><text fill="#000000" font-family="sans-serif" font-size="13" lengthAdjust="spacingAndGlyphs" textLength="129" x="1628" y="672.998">Validates to - DFSP2</text><line style="stroke: #A80036; stroke-width: 1.0;" x1="1608" x2="1650" y1="720.0508" y2="720.0508"/><line style="stroke: #A80036; stroke-width: 1.0;" x1="1650" x2="1650" y1="720.0508" y2="733.0508"/><line style="stroke: #A80036; stroke-width: 1.0;" x1="1609" x2="1650" y1="733.0508" y2="733.0508"/><polygon fill="#A80036" points="1619,729.0508,1609,733.0508,1619,737.0508,1615,733.0508" style="stroke: #A80036; stroke-width: 1.0;"/><text fill="#000000" font-family="sans-serif" font-size="13" font-weight="bold" lengthAdjust="spacingAndGlyphs" textLength="9" x="1615" y="715.3086">9</text><text fill="#000000" font-family="sans-serif" font-size="13" lengthAdjust="spacingAndGlyphs" textLength="179" x="1628" y="715.3086">Validates message signature</text><polygon fill="#FF0000" filter="url(#fp20q07ld23mw)" points="1613,746.0508,1613,771.0508,1745,771.0508,1745,756.0508,1735,746.0508,1613,746.0508" style="stroke: #A80036; stroke-width: 1.0;"/><line style="stroke: #A80036; stroke-width: 1.0;" x1="1735" x2="1735" y1="746.0508" y2="756.0508"/><line style="stroke: #A80036; stroke-width: 1.0;" x1="1745" x2="1735" y1="756.0508" y2="756.0508"/><text fill="#000000" font-family="sans-serif" font-size="13" lengthAdjust="spacingAndGlyphs" textLength="111" x="1619" y="763.6191">Validation failure!</text><polygon fill="#FFFF00" filter="url(#fp20q07ld23mw)" points="1613,785.3613,1613,1024.3613,1893,1024.3613,1893,795.3613,1883,785.3613,1613,785.3613" style="stroke: #A80036; stroke-width: 1.0;"/><line style="stroke: #A80036; stroke-width: 1.0;" x1="1883" x2="1883" y1="785.3613" y2="795.3613"/><line style="stroke: #A80036; stroke-width: 1.0;" x1="1893" x2="1883" y1="795.3613" y2="795.3613"/><text fill="#000000" font-family="sans-serif" font-size="13" lengthAdjust="spacingAndGlyphs" textLength="58" x="1619" y="802.9297">Message:</text><text fill="#000000" font-family="sans-serif" font-size="13" lengthAdjust="spacingAndGlyphs" textLength="4" x="1619" y="818.2402">{</text><text fill="#000000" font-family="sans-serif" font-size="13" lengthAdjust="spacingAndGlyphs" textLength="159" x="1635" y="833.5508">id: &lt;transferMessage.id&gt;</text><text fill="#000000" font-family="sans-serif" font-size="13" lengthAdjust="spacingAndGlyphs" textLength="168" x="1635" y="848.8613">from: http://ledger/dfsp1,</text><text fill="#000000" font-family="sans-serif" font-size="13" lengthAdjust="spacingAndGlyphs" textLength="151" x="1635" y="864.1719">to: http://ledger/dfsp1,</text><text fill="#000000" font-family="sans-serif" font-size="13" lengthAdjust="spacingAndGlyphs" textLength="139" x="1635" y="879.4824">type: application/json</text><text fill="#000000" font-family="sans-serif" font-size="13" lengthAdjust="spacingAndGlyphs" textLength="243" x="1635" y="894.793">content: &lt;transferResponseMessage&gt;,</text><text fill="#000000" font-family="sans-serif" font-size="13" lengthAdjust="spacingAndGlyphs" textLength="70" x="1635" y="910.1035">metadata: {</text><text fill="#000000" font-family="sans-serif" font-size="13" lengthAdjust="spacingAndGlyphs" textLength="46" x="1651" y="925.4141">event: {</text><text fill="#000000" font-family="sans-serif" font-size="13" lengthAdjust="spacingAndGlyphs" textLength="112" x="1667" y="940.7246">type: notification,</text><text fill="#000000" font-family="sans-serif" font-size="13" lengthAdjust="spacingAndGlyphs" textLength="98" x="1667" y="956.0352">action: prepare,</text><text fill="#000000" font-family="sans-serif" font-size="13" lengthAdjust="spacingAndGlyphs" textLength="147" x="1667" y="971.3457">createAt: &lt;timestamp&gt;</text><text fill="#000000" font-family="sans-serif" font-size="13" lengthAdjust="spacingAndGlyphs" textLength="4" x="1651" y="986.6563">}</text><text fill="#000000" font-family="sans-serif" font-size="13" lengthAdjust="spacingAndGlyphs" textLength="4" x="1635" y="1001.9668">}</text><text fill="#000000" font-family="sans-serif" font-size="13" lengthAdjust="spacingAndGlyphs" textLength="4" x="1619" y="1017.2773">}</text><polygon fill="#A80036" points="2454.5,1051.0195,2464.5,1055.0195,2454.5,1059.0195,2458.5,1055.0195" style="stroke: #A80036; stroke-width: 1.0;"/><line style="stroke: #A80036; stroke-width: 1.0;" x1="1603" x2="2460.5" y1="1055.0195" y2="1055.0195"/><text fill="#000000" font-family="sans-serif" font-size="13" font-weight="bold" lengthAdjust="spacingAndGlyphs" textLength="18" x="1610" y="1050.5879">10</text><text fill="#000000" font-family="sans-serif" font-size="13" lengthAdjust="spacingAndGlyphs" textLength="294" x="1632" y="1050.5879">Publishes Notification (failure) event for DFSP1</text><polygon fill="#A80036" points="543,1080.3301,533,1084.3301,543,1088.3301,539,1084.3301" style="stroke: #A80036; stroke-width: 1.0;"/><line style="stroke: #A80036; stroke-width: 1.0;" x1="537" x2="2465.5" y1="1084.3301" y2="1084.3301"/><text fill="#000000" font-family="sans-serif" font-size="13" font-weight="bold" lengthAdjust="spacingAndGlyphs" textLength="18" x="549" y="1079.8984">11</text><text fill="#000000" font-family="sans-serif" font-size="13" lengthAdjust="spacingAndGlyphs" textLength="190" x="571" y="1079.8984">Consumes Notifications event</text><polygon fill="#A80036" points="1046,1109.6406,1056,1113.6406,1046,1117.6406,1050,1113.6406" style="stroke: #A80036; stroke-width: 1.0;"/><line style="stroke: #A80036; stroke-width: 1.0;" x1="532" x2="1052" y1="1113.6406" y2="1113.6406"/><text fill="#000000" font-family="sans-serif" font-size="13" font-weight="bold" lengthAdjust="spacingAndGlyphs" textLength="18" x="539" y="1109.209">12</text><text fill="#000000" font-family="sans-serif" font-size="13" lengthAdjust="spacingAndGlyphs" textLength="480" x="561" y="1109.209">Requests Notification details for DFSP1 - GET - HTTP://notifications/DFPS1</text><polygon fill="#A80036" points="1069,1138.9512,1059,1142.9512,1069,1146.9512,1065,1142.9512" style="stroke: #A80036; stroke-width: 1.0;"/><polygon fill="#A80036" points="2901,1138.9512,2911,1142.9512,2901,1146.9512,2905,1142.9512" style="stroke: #A80036; stroke-width: 1.0;"/><line style="stroke: #A80036; stroke-width: 1.0;" x1="1063" x2="2907" y1="1142.9512" y2="1142.9512"/><text fill="#000000" font-family="sans-serif" font-size="13" font-weight="bold" lengthAdjust="spacingAndGlyphs" textLength="18" x="1075" y="1138.5195">13</text><text fill="#000000" font-family="sans-serif" font-size="13" lengthAdjust="spacingAndGlyphs" textLength="245" x="1097" y="1138.5195">Fetches Notifications details for DFSP1</text><polygon fill="#A80036" points="543,1168.2617,533,1172.2617,543,1176.2617,539,1172.2617" style="stroke: #A80036; stroke-width: 1.0;"/><line style="stroke: #A80036; stroke-width: 1.0;" x1="537" x2="1057" y1="1172.2617" y2="1172.2617"/><text fill="#000000" font-family="sans-serif" font-size="13" font-weight="bold" lengthAdjust="spacingAndGlyphs" textLength="18" x="549" y="1167.8301">14</text><text fill="#000000" font-family="sans-serif" font-size="13" lengthAdjust="spacingAndGlyphs" textLength="245" x="571" y="1167.8301">Returns Notifications details for DFSP1</text><polygon fill="#A80036" points="78.5,1197.5723,68.5,1201.5723,78.5,1205.5723,74.5,1201.5723" style="stroke: #A80036; stroke-width: 1.0;"/><line style="stroke: #A80036; stroke-width: 1.0;" x1="72.5" x2="526" y1="1201.5723" y2="1201.5723"/><text fill="#000000" font-family="sans-serif" font-size="13" font-weight="bold" lengthAdjust="spacingAndGlyphs" textLength="18" x="84.5" y="1197.1406">15</text><text fill="#000000" font-family="sans-serif" font-size="13" lengthAdjust="spacingAndGlyphs" textLength="272" x="106.5" y="1197.1406">HTTP Callback with Prepare result to DFSP1</text><!--
@startuml
' declate title
title 1.2 DFSP1 sends a Prepare Transfer request to DFSP2 - Prepare Validation Failure

autonumber

' Actor Keys:
'   boundary - APIs/Interfaces, etc
'   collections - Kafka Topics
'   control - Kafka Consumers
'   entity - Database Access Objects
'   database - Database Persistance Store

' declare actors
actor DFSP1
actor DFSP2
boundary "ML API Adapter" as MLAPI
control "ML API Notification Event Handler" as NOTIFY_HANDLER
boundary "Central Service API" as CSAPI
collections "Prepare-Topic-dfsp1" as TOPIC_PREPARE_DFSP1
control "Prepare Event Handler" as PREP_HANDLER
collections "Position-Topic-dfsp1" as TOPIC_POSITION_DFSP1
control "Position Event Handler" as POS_HANDLER
collections "Transfer-Topic" as TOPIC_TRANSFERS
control "Transfer Event Handler" as TRANS_HANDLER
collections "Notification-Topic" as TOPIC_NOTIFICATIONS
entity "Position DAO" as POS_DAO
entity "Event DAO" as EVENT_DAO
entity "Transfer DAO" as TRANS_DAO
entity "Notification DAO" as NOTIFY_DAO
database "Central Store" as DB

box "Financial Service Providers" #LightBlue
	participant DFSP1
	participant DFSP2
end box

box "ML API Adapter Service" #LightGreen
	participant MLAPI
	participant NOTIFY_HANDLER
end box

box "Central Service" #LightYellow
    participant CSAPI
	participant TOPIC_PREPARE_DFSP1
    participant PREP_HANDLER
    participant TOPIC_POSITION_DFSP1
    participant POS_HANDLER
    participant TOPIC_TRANSFERS
    participant TRANS_HANDLER
    participant TOPIC_NOTIFICATIONS
    participant POS_DAO
    participant EVENT_DAO
    participant TRANS_DAO
    participant NOTIFY_DAO
    participant DB
end box

' start flow
alt Prepare Validation Failure
    activate MLAPI
    DFSP1 -> MLAPI: POST - http://transfers
    note right of MLAPI #yellow
        Message:
        {
            id: <transferMessage.id>
            from: http://ledger/dfsp1,
            to: http://ledger/dfsp2,
            type: application/json
            content: <transferMessage>,
            metadata: {
                event: {
                    type: prepare,
                    action: prepare,
                    createAt: <timestamp>
                }
            }
        }
    end note
    MLAPI -> TOPIC_PREPARE_DFSP1: Routes & Publishes Prepare event for DFSP1
    TOPIC_PREPARE_DFSP1 <-> TOPIC_PREPARE_DFSP1: Ensures that event is replicated as configured (ACKS=all)
    TOPIC_PREPARE_DFSP1 -> MLAPI: Responds replication acknoledgements have been received
    MLAPI -> DFSP1: Respond HTTP - 202 (Accepted)
    deactivate MLAPI
    activate PREP_HANDLER
    TOPIC_PREPARE_DFSP1 -> PREP_HANDLER: Consumes Prepare event message for DFSP1
    PREP_HANDLER <-> PREP_HANDLER: Validates from - DFSP1
    PREP_HANDLER <-> PREP_HANDLER: Validates to - DFSP2
    PREP_HANDLER <-> PREP_HANDLER: Validates message signature
    note right of PREP_HANDLER #red: Validation failure!
    note right of PREP_HANDLER #yellow
        Message:
        {
            id: <transferMessage.id>
            from: http://ledger/dfsp1,
            to: http://ledger/dfsp1,
            type: application/json
            content: <transferResponseMessage>,
            metadata: {
                event: {
                    type: notification,
                    action: prepare,
                    createAt: <timestamp>
                }
            }
        }
    end note
    PREP_HANDLER -> TOPIC_NOTIFICATIONS: Publishes Notification (failure) event for DFSP1
    deactivate PREP_HANDLER
    activate NOTIFY_HANDLER
    TOPIC_NOTIFICATIONS -> NOTIFY_HANDLER: Consumes Notifications event
    NOTIFY_HANDLER -> CSAPI: Requests Notification details for DFSP1 - GET - HTTP://notifications/DFPS1
    CSAPI <-> NOTIFY_DAO: Fetches Notifications details for DFSP1
    CSAPI -> NOTIFY_HANDLER: Returns Notifications details for DFSP1
    NOTIFY_HANDLER -> DFSP1: HTTP Callback with Prepare result to DFSP1
    deactivate NOTIFY_HANDLER
end
@enduml

PlantUML version 1.2017.18(Fri Oct 06 18:56:32 SAST 2017)
(GPL source distribution)
Java Runtime: Java(TM) SE Runtime Environment
JVM: Java HotSpot(TM) 64-Bit Server VM
Java Version: 1.8.0_152-b16
Operating System: Mac OS X
OS Version: 10.13.4
Default Encoding: UTF-8
Language: en
Country: ZA
--></g></svg>