<?xml version="1.0" encoding="UTF-8" standalone="no"?><svg xmlns="http://www.w3.org/2000/svg" xmlns:xlink="http://www.w3.org/1999/xlink" contentScriptType="application/ecmascript" contentStyleType="text/css" height="1653px" preserveAspectRatio="none" style="width:1880px;height:1653px;" version="1.1" viewBox="0 0 1880 1653" width="1880px" zoomAndPan="magnify"><defs><filter height="300%" id="frp7qenl4id4f" width="300%" x="-1" y="-1"><feGaussianBlur result="blurOut" stdDeviation="2.0"/><feColorMatrix in="blurOut" result="blurOut2" type="matrix" values="0 0 0 0 0 0 0 0 0 0 0 0 0 0 0 0 0 0 .4 0"/><feOffset dx="4.0" dy="4.0" in="blurOut2" result="blurOut3"/><feBlend in="SourceGraphic" in2="blurOut3" mode="normal"/></filter></defs><g><text fill="#000000" font-family="sans-serif" font-size="14" font-weight="bold" lengthAdjust="spacingAndGlyphs" textLength="290" x="796.25" y="22.9951">3.1.0 Get Participant Callback Details</text><rect fill="#ADD8E6" height="1608.6406" style="stroke: #A80036; stroke-width: 1.0;" width="179" x="14.5" y="34.2969"/><text fill="#000000" font-family="sans-serif" font-size="13" font-weight="bold" lengthAdjust="spacingAndGlyphs" textLength="173" x="17.5" y="46.3638">ML API Adapter Service</text><rect fill="#FFFFE0" height="1608.6406" style="stroke: #A80036; stroke-width: 1.0;" width="1143" x="674.5" y="34.2969"/><text fill="#000000" font-family="sans-serif" font-size="13" font-weight="bold" lengthAdjust="spacingAndGlyphs" textLength="119" x="1186.5" y="46.3638">Central Services</text><rect fill="#FFFFFF" filter="url(#frp7qenl4id4f)" height="1434.9141" style="stroke: #A80036; stroke-width: 1.0;" width="10" x="99" y="125.7266"/><rect fill="#FFFFFF" filter="url(#frp7qenl4id4f)" height="1389.6484" style="stroke: #A80036; stroke-width: 1.0;" width="10" x="740.5" y="170.9922"/><rect fill="#FFFFFF" filter="url(#frp7qenl4id4f)" height="645.1875" style="stroke: #A80036; stroke-width: 1.0;" width="10" x="1034.5" y="200.125"/><rect fill="#FFFFFF" filter="url(#frp7qenl4id4f)" height="642.0625" style="stroke: #A80036; stroke-width: 1.0;" width="10" x="1034.5" y="874.4453"/><rect fill="#FFFFFF" filter="url(#frp7qenl4id4f)" height="120.5313" style="stroke: #A80036; stroke-width: 1.0;" width="10" x="1388.5" y="244.3906"/><rect fill="#FFFFFF" filter="url(#frp7qenl4id4f)" height="189.9297" style="stroke: #A80036; stroke-width: 1.0;" width="10" x="1388.5" y="541.7188"/><rect fill="#FFFFFF" filter="url(#frp7qenl4id4f)" height="174.7969" style="stroke: #A80036; stroke-width: 1.0;" width="10" x="1388.5" y="933.5156"/><rect fill="#FFFFFF" filter="url(#frp7qenl4id4f)" height="62.2656" style="stroke: #A80036; stroke-width: 1.0;" width="10" x="1760.5" y="273.5234"/><rect fill="#FFFFFF" filter="url(#frp7qenl4id4f)" height="131.6641" style="stroke: #A80036; stroke-width: 1.0;" width="10" x="1760.5" y="570.8516"/><rect fill="#FFFFFF" filter="url(#frp7qenl4id4f)" height="116.5313" style="stroke: #A80036; stroke-width: 1.0;" width="10" x="1760.5" y="962.6484"/><rect fill="#FFFFFF" filter="url(#frp7qenl4id4f)" height="1427.9141" style="stroke: #000000; stroke-width: 2.0;" width="1856" x="13" y="132.7266"/><rect fill="#FFFFFF" filter="url(#frp7qenl4id4f)" height="1131.5859" style="stroke: #000000; stroke-width: 2.0;" width="1836" x="23" y="422.0547"/><rect fill="#FFFFFF" filter="url(#frp7qenl4id4f)" height="816.1875" style="stroke: #000000; stroke-width: 2.0;" width="1816" x="33" y="488.3203"/><rect fill="#FFFFFF" height="422.0625" style="stroke: none; stroke-width: 1.0;" width="1816" x="33" y="882.4453"/><rect fill="#FFFFFF" height="242.1328" style="stroke: none; stroke-width: 1.0;" width="1836" x="23" y="1311.5078"/><line style="stroke: #A80036; stroke-width: 1.0; stroke-dasharray: 5.0,5.0;" x1="104" x2="104" y1="115.7266" y2="1577.6406"/><line style="stroke: #A80036; stroke-width: 1.0; stroke-dasharray: 5.0,5.0;" x1="745.5" x2="745.5" y1="115.7266" y2="1577.6406"/><line style="stroke: #A80036; stroke-width: 1.0; stroke-dasharray: 5.0,5.0;" x1="1039" x2="1039" y1="115.7266" y2="1577.6406"/><line style="stroke: #A80036; stroke-width: 1.0; stroke-dasharray: 5.0,5.0;" x1="1393" x2="1393" y1="115.7266" y2="1577.6406"/><line style="stroke: #A80036; stroke-width: 1.0; stroke-dasharray: 5.0,5.0;" x1="1765.5" x2="1765.5" y1="115.7266" y2="1577.6406"/><text fill="#000000" font-family="sans-serif" font-size="14" lengthAdjust="spacingAndGlyphs" textLength="116" x="43" y="112.4248">ML-API-ADAPTER</text><ellipse cx="104" cy="83.4297" fill="#FEFECE" filter="url(#frp7qenl4id4f)" rx="12" ry="12" style="stroke: #A80036; stroke-width: 2.0;"/><line style="stroke: #A80036; stroke-width: 2.0;" x1="92" x2="116" y1="97.4297" y2="97.4297"/><text fill="#000000" font-family="sans-serif" font-size="14" lengthAdjust="spacingAndGlyphs" textLength="116" x="43" y="1589.6357">ML-API-ADAPTER</text><ellipse cx="104" cy="1608.9375" fill="#FEFECE" filter="url(#frp7qenl4id4f)" rx="12" ry="12" style="stroke: #A80036; stroke-width: 2.0;"/><line style="stroke: #A80036; stroke-width: 2.0;" x1="92" x2="116" y1="1622.9375" y2="1622.9375"/><text fill="#000000" font-family="sans-serif" font-size="14" lengthAdjust="spacingAndGlyphs" textLength="128" x="678.5" y="112.4248">Central Service API</text><path d="M725,71.4297 L725,95.4297 M725,83.4297 L742,83.4297 " fill="none" filter="url(#frp7qenl4id4f)" style="stroke: #A80036; stroke-width: 2.0;"/><ellipse cx="754" cy="83.4297" fill="#FEFECE" filter="url(#frp7qenl4id4f)" rx="12" ry="12" style="stroke: #A80036; stroke-width: 2.0;"/><text fill="#000000" font-family="sans-serif" font-size="14" lengthAdjust="spacingAndGlyphs" textLength="128" x="678.5" y="1589.6357">Central Service API</text><path d="M725,1596.9375 L725,1620.9375 M725,1608.9375 L742,1608.9375 " fill="none" filter="url(#frp7qenl4id4f)" style="stroke: #A80036; stroke-width: 2.0;"/><ellipse cx="754" cy="1608.9375" fill="#FEFECE" filter="url(#frp7qenl4id4f)" rx="12" ry="12" style="stroke: #A80036; stroke-width: 2.0;"/><text fill="#000000" font-family="sans-serif" font-size="14" lengthAdjust="spacingAndGlyphs" textLength="129" x="972" y="112.4248">Participant Handler</text><ellipse cx="1039.5" cy="83.4297" fill="#FEFECE" filter="url(#frp7qenl4id4f)" rx="12" ry="12" style="stroke: #A80036; stroke-width: 2.0;"/><polygon fill="#A80036" points="1035.5,71.4297,1041.5,66.4297,1039.5,71.4297,1041.5,76.4297,1035.5,71.4297" style="stroke: #A80036; stroke-width: 1.0;"/><text fill="#000000" font-family="sans-serif" font-size="14" lengthAdjust="spacingAndGlyphs" textLength="129" x="972" y="1589.6357">Participant Handler</text><ellipse cx="1039.5" cy="1608.9375" fill="#FEFECE" filter="url(#frp7qenl4id4f)" rx="12" ry="12" style="stroke: #A80036; stroke-width: 2.0;"/><polygon fill="#A80036" points="1035.5,1596.9375,1041.5,1591.9375,1039.5,1596.9375,1041.5,1601.9375,1035.5,1596.9375" style="stroke: #A80036; stroke-width: 1.0;"/><text fill="#000000" font-family="sans-serif" font-size="14" lengthAdjust="spacingAndGlyphs" textLength="107" x="1337" y="112.4248">Participant DAO</text><ellipse cx="1393.5" cy="83.4297" fill="#FEFECE" filter="url(#frp7qenl4id4f)" rx="12" ry="12" style="stroke: #A80036; stroke-width: 2.0;"/><line style="stroke: #A80036; stroke-width: 2.0;" x1="1381.5" x2="1405.5" y1="97.4297" y2="97.4297"/><text fill="#000000" font-family="sans-serif" font-size="14" lengthAdjust="spacingAndGlyphs" textLength="107" x="1337" y="1589.6357">Participant DAO</text><ellipse cx="1393.5" cy="1608.9375" fill="#FEFECE" filter="url(#frp7qenl4id4f)" rx="12" ry="12" style="stroke: #A80036; stroke-width: 2.0;"/><line style="stroke: #A80036; stroke-width: 2.0;" x1="1381.5" x2="1405.5" y1="1622.9375" y2="1622.9375"/><text fill="#000000" font-family="sans-serif" font-size="14" lengthAdjust="spacingAndGlyphs" textLength="90" x="1717.5" y="112.4248">Central Store</text><path d="M1747.5,63.4297 C1747.5,53.4297 1765.5,53.4297 1765.5,53.4297 C1765.5,53.4297 1783.5,53.4297 1783.5,63.4297 L1783.5,89.4297 C1783.5,99.4297 1765.5,99.4297 1765.5,99.4297 C1765.5,99.4297 1747.5,99.4297 1747.5,89.4297 L1747.5,63.4297 " fill="#FEFECE" filter="url(#frp7qenl4id4f)" style="stroke: #000000; stroke-width: 1.5;"/><path d="M1747.5,63.4297 C1747.5,73.4297 1765.5,73.4297 1765.5,73.4297 C1765.5,73.4297 1783.5,73.4297 1783.5,63.4297 " fill="none" style="stroke: #000000; stroke-width: 1.5;"/><text fill="#000000" font-family="sans-serif" font-size="14" lengthAdjust="spacingAndGlyphs" textLength="90" x="1717.5" y="1589.6357">Central Store</text><path d="M1747.5,1602.9375 C1747.5,1592.9375 1765.5,1592.9375 1765.5,1592.9375 C1765.5,1592.9375 1783.5,1592.9375 1783.5,1602.9375 L1783.5,1628.9375 C1783.5,1638.9375 1765.5,1638.9375 1765.5,1638.9375 C1765.5,1638.9375 1747.5,1638.9375 1747.5,1628.9375 L1747.5,1602.9375 " fill="#FEFECE" filter="url(#frp7qenl4id4f)" style="stroke: #000000; stroke-width: 1.5;"/><path d="M1747.5,1602.9375 C1747.5,1612.9375 1765.5,1612.9375 1765.5,1612.9375 C1765.5,1612.9375 1783.5,1612.9375 1783.5,1602.9375 " fill="none" style="stroke: #000000; stroke-width: 1.5;"/><rect fill="#FFFFFF" filter="url(#frp7qenl4id4f)" height="1434.9141" style="stroke: #A80036; stroke-width: 1.0;" width="10" x="99" y="125.7266"/><rect fill="#FFFFFF" filter="url(#frp7qenl4id4f)" height="1389.6484" style="stroke: #A80036; stroke-width: 1.0;" width="10" x="740.5" y="170.9922"/><rect fill="#FFFFFF" filter="url(#frp7qenl4id4f)" height="645.1875" style="stroke: #A80036; stroke-width: 1.0;" width="10" x="1034.5" y="200.125"/><rect fill="#FFFFFF" filter="url(#frp7qenl4id4f)" height="642.0625" style="stroke: #A80036; stroke-width: 1.0;" width="10" x="1034.5" y="874.4453"/><rect fill="#FFFFFF" filter="url(#frp7qenl4id4f)" height="120.5313" style="stroke: #A80036; stroke-width: 1.0;" width="10" x="1388.5" y="244.3906"/><rect fill="#FFFFFF" filter="url(#frp7qenl4id4f)" height="189.9297" style="stroke: #A80036; stroke-width: 1.0;" width="10" x="1388.5" y="541.7188"/><rect fill="#FFFFFF" filter="url(#frp7qenl4id4f)" height="174.7969" style="stroke: #A80036; stroke-width: 1.0;" width="10" x="1388.5" y="933.5156"/><rect fill="#FFFFFF" filter="url(#frp7qenl4id4f)" height="62.2656" style="stroke: #A80036; stroke-width: 1.0;" width="10" x="1760.5" y="273.5234"/><rect fill="#FFFFFF" filter="url(#frp7qenl4id4f)" height="131.6641" style="stroke: #A80036; stroke-width: 1.0;" width="10" x="1760.5" y="570.8516"/><rect fill="#FFFFFF" filter="url(#frp7qenl4id4f)" height="116.5313" style="stroke: #A80036; stroke-width: 1.0;" width="10" x="1760.5" y="962.6484"/><path d="M13,132.7266 L208,132.7266 L208,139.7266 L198,149.7266 L13,149.7266 L13,132.7266 " fill="#EEEEEE" style="stroke: #000000; stroke-width: 1.0;"/><rect fill="none" height="1427.9141" style="stroke: #000000; stroke-width: 2.0;" width="1856" x="13" y="132.7266"/><text fill="#000000" font-family="sans-serif" font-size="13" font-weight="bold" lengthAdjust="spacingAndGlyphs" textLength="150" x="28" y="145.7935">Get Callback Details</text><polygon fill="#A80036" points="728.5,166.9922,738.5,170.9922,728.5,174.9922,732.5,170.9922" style="stroke: #A80036; stroke-width: 1.0;"/><line style="stroke: #A80036; stroke-width: 1.0;" x1="109" x2="734.5" y1="170.9922" y2="170.9922"/><text fill="#000000" font-family="sans-serif" font-size="13" font-weight="bold" lengthAdjust="spacingAndGlyphs" textLength="9" x="116" y="165.9263">1</text><text fill="#000000" font-family="sans-serif" font-size="13" lengthAdjust="spacingAndGlyphs" textLength="575" x="129" y="165.9263">Request to get callback details - GET - /participants/{name}/endpoints?type={typeValue}</text><polygon fill="#A80036" points="1022.5,196.125,1032.5,200.125,1022.5,204.125,1026.5,200.125" style="stroke: #A80036; stroke-width: 1.0;"/><line style="stroke: #A80036; stroke-width: 1.0;" x1="750.5" x2="1028.5" y1="200.125" y2="200.125"/><text fill="#000000" font-family="sans-serif" font-size="13" font-weight="bold" lengthAdjust="spacingAndGlyphs" textLength="9" x="757.5" y="195.0591">2</text><text fill="#000000" font-family="sans-serif" font-size="13" lengthAdjust="spacingAndGlyphs" textLength="231" x="770.5" y="195.0591">Fetch Callback details for Participant</text><polygon fill="#A80036" points="1376.5,240.3906,1386.5,244.3906,1376.5,248.3906,1380.5,244.3906" style="stroke: #A80036; stroke-width: 1.0;"/><line style="stroke: #A80036; stroke-width: 1.0;" x1="1044.5" x2="1382.5" y1="244.3906" y2="244.3906"/><text fill="#000000" font-family="sans-serif" font-size="13" font-weight="bold" lengthAdjust="spacingAndGlyphs" textLength="9" x="1051.5" y="231.7583">3</text><text fill="#000000" font-family="sans-serif" font-size="13" lengthAdjust="spacingAndGlyphs" textLength="107" x="1064.5" y="224.1919">Fetch Participant</text><text fill="#FF0000" font-family="sans-serif" font-size="13" font-weight="bold" lengthAdjust="spacingAndGlyphs" textLength="82" x="1064.5" y="239.3247">Error code:</text><text fill="#FF0000" font-family="sans-serif" font-size="13" lengthAdjust="spacingAndGlyphs" textLength="32" x="1150.5" y="239.3247">3200</text><polygon fill="#A80036" points="1748.5,269.5234,1758.5,273.5234,1748.5,277.5234,1752.5,273.5234" style="stroke: #A80036; stroke-width: 1.0;"/><line style="stroke: #A80036; stroke-width: 1.0;" x1="1398.5" x2="1754.5" y1="273.5234" y2="273.5234"/><text fill="#000000" font-family="sans-serif" font-size="13" font-weight="bold" lengthAdjust="spacingAndGlyphs" textLength="9" x="1405.5" y="268.4575">4</text><text fill="#000000" font-family="sans-serif" font-size="13" lengthAdjust="spacingAndGlyphs" textLength="107" x="1418.5" y="268.4575">Fetch Participant</text><polygon fill="#FFFFE0" filter="url(#frp7qenl4id4f)" points="1729,286.5234,1801,286.5234,1811,297.5234,1801,309.5234,1729,309.5234,1719,297.5234,1729,286.5234" style="stroke: #A80036; stroke-width: 1.0;"/><text fill="#000000" font-family="sans-serif" font-size="13" lengthAdjust="spacingAndGlyphs" textLength="68" x="1731" y="302.5903">participant</text><polygon fill="#A80036" points="1409.5,331.7891,1399.5,335.7891,1409.5,339.7891,1405.5,335.7891" style="stroke: #A80036; stroke-width: 1.0;"/><line style="stroke: #A80036; stroke-width: 1.0; stroke-dasharray: 2.0,2.0;" x1="1403.5" x2="1764.5" y1="335.7891" y2="335.7891"/><text fill="#000000" font-family="sans-serif" font-size="13" font-weight="bold" lengthAdjust="spacingAndGlyphs" textLength="9" x="1415.5" y="330.7231">5</text><text fill="#000000" font-family="sans-serif" font-size="13" lengthAdjust="spacingAndGlyphs" textLength="132" x="1428.5" y="330.7231">Retrieved Participant</text><polygon fill="#A80036" points="1055.5,360.9219,1045.5,364.9219,1055.5,368.9219,1051.5,364.9219" style="stroke: #A80036; stroke-width: 1.0;"/><line style="stroke: #A80036; stroke-width: 1.0; stroke-dasharray: 2.0,2.0;" x1="1049.5" x2="1392.5" y1="364.9219" y2="364.9219"/><text fill="#000000" font-family="sans-serif" font-size="13" font-weight="bold" lengthAdjust="spacingAndGlyphs" textLength="9" x="1061.5" y="359.856">6</text><text fill="#000000" font-family="sans-serif" font-size="13" lengthAdjust="spacingAndGlyphs" textLength="114" x="1074.5" y="359.856">Return Participant</text><line style="stroke: #A80036; stroke-width: 1.0;" x1="1044.5" x2="1086.5" y1="394.0547" y2="394.0547"/><line style="stroke: #A80036; stroke-width: 1.0;" x1="1086.5" x2="1086.5" y1="394.0547" y2="407.0547"/><line style="stroke: #A80036; stroke-width: 1.0;" x1="1045.5" x2="1086.5" y1="407.0547" y2="407.0547"/><polygon fill="#A80036" points="1055.5,403.0547,1045.5,407.0547,1055.5,411.0547,1051.5,407.0547" style="stroke: #A80036; stroke-width: 1.0;"/><text fill="#000000" font-family="sans-serif" font-size="13" font-weight="bold" lengthAdjust="spacingAndGlyphs" textLength="9" x="1051.5" y="388.9888">7</text><text fill="#000000" font-family="sans-serif" font-size="13" lengthAdjust="spacingAndGlyphs" textLength="90" x="1064.5" y="388.9888">Validate DFSP</text><path d="M23,422.0547 L87,422.0547 L87,429.0547 L77,439.0547 L23,439.0547 L23,422.0547 " fill="#EEEEEE" style="stroke: #000000; stroke-width: 1.0;"/><rect fill="none" height="1131.5859" style="stroke: #000000; stroke-width: 2.0;" width="1836" x="23" y="422.0547"/><text fill="#000000" font-family="sans-serif" font-size="13" font-weight="bold" lengthAdjust="spacingAndGlyphs" textLength="19" x="38" y="435.1216">alt</text><text fill="#000000" font-family="sans-serif" font-size="11" font-weight="bold" lengthAdjust="spacingAndGlyphs" textLength="202" x="102" y="434.2651">[Validate participant (success)]</text><line style="stroke: #A80036; stroke-width: 1.0;" x1="1044.5" x2="1086.5" y1="460.3203" y2="460.3203"/><line style="stroke: #A80036; stroke-width: 1.0;" x1="1086.5" x2="1086.5" y1="460.3203" y2="473.3203"/><line style="stroke: #A80036; stroke-width: 1.0;" x1="1045.5" x2="1086.5" y1="473.3203" y2="473.3203"/><polygon fill="#A80036" points="1055.5,469.3203,1045.5,473.3203,1055.5,477.3203,1051.5,473.3203" style="stroke: #A80036; stroke-width: 1.0;"/><text fill="#000000" font-family="sans-serif" font-size="13" font-weight="bold" lengthAdjust="spacingAndGlyphs" textLength="9" x="1051.5" y="455.2544">8</text><text fill="#000000" font-family="sans-serif" font-size="13" lengthAdjust="spacingAndGlyphs" textLength="208" x="1064.5" y="455.2544">check if "type" parameter is sent</text><path d="M33,488.3203 L97,488.3203 L97,495.3203 L87,505.3203 L33,505.3203 L33,488.3203 " fill="#EEEEEE" style="stroke: #000000; stroke-width: 1.0;"/><rect fill="none" height="816.1875" style="stroke: #000000; stroke-width: 2.0;" width="1816" x="33" y="488.3203"/><text fill="#000000" font-family="sans-serif" font-size="13" font-weight="bold" lengthAdjust="spacingAndGlyphs" textLength="19" x="48" y="501.3872">alt</text><text fill="#000000" font-family="sans-serif" font-size="11" font-weight="bold" lengthAdjust="spacingAndGlyphs" textLength="266" x="112" y="500.5308">[Check if "type" parameter is sent (Sent)]</text><polygon fill="#A80036" points="1376.5,537.7188,1386.5,541.7188,1376.5,545.7188,1380.5,541.7188" style="stroke: #A80036; stroke-width: 1.0;"/><line style="stroke: #A80036; stroke-width: 1.0;" x1="1044.5" x2="1382.5" y1="541.7188" y2="541.7188"/><text fill="#000000" font-family="sans-serif" font-size="13" font-weight="bold" lengthAdjust="spacingAndGlyphs" textLength="9" x="1051.5" y="529.0864">9</text><text fill="#000000" font-family="sans-serif" font-size="13" lengthAdjust="spacingAndGlyphs" textLength="291" x="1064.5" y="521.52">Fetch Callback details for Participant and type</text><text fill="#FF0000" font-family="sans-serif" font-size="13" font-weight="bold" lengthAdjust="spacingAndGlyphs" textLength="82" x="1064.5" y="536.6528">Error code:</text><text fill="#FF0000" font-family="sans-serif" font-size="13" lengthAdjust="spacingAndGlyphs" textLength="32" x="1150.5" y="536.6528">3000</text><polygon fill="#A80036" points="1748.5,566.8516,1758.5,570.8516,1748.5,574.8516,1752.5,570.8516" style="stroke: #A80036; stroke-width: 1.0;"/><line style="stroke: #A80036; stroke-width: 1.0;" x1="1398.5" x2="1754.5" y1="570.8516" y2="570.8516"/><text fill="#000000" font-family="sans-serif" font-size="13" font-weight="bold" lengthAdjust="spacingAndGlyphs" textLength="18" x="1405.5" y="565.7856">10</text><text fill="#000000" font-family="sans-serif" font-size="13" lengthAdjust="spacingAndGlyphs" textLength="291" x="1427.5" y="565.7856">Fetch Callback details for Participant and type</text><path d="M1403,583.8516 L1403,638.8516 L1616,638.8516 L1616,593.8516 L1606,583.8516 L1403,583.8516 " fill="#D3D3D3" filter="url(#frp7qenl4id4f)" style="stroke: #A80036; stroke-width: 1.0;"/><path d="M1606,583.8516 L1606,593.8516 L1616,593.8516 L1606,583.8516 " fill="#D3D3D3" style="stroke: #A80036; stroke-width: 1.0;"/><text fill="#000000" font-family="sans-serif" font-size="13" lengthAdjust="spacingAndGlyphs" textLength="64" x="1409" y="600.9185">Condition:</text><text fill="#000000" font-family="sans-serif" font-size="13" lengthAdjust="spacingAndGlyphs" textLength="76" x="1425" y="616.0513">isActive = 1</text><text fill="#000000" font-family="sans-serif" font-size="13" lengthAdjust="spacingAndGlyphs" textLength="176" x="1425" y="631.1841">[endpointTypeId = &lt;type&gt;]</text><polygon fill="#FFFFE0" filter="url(#frp7qenl4id4f)" points="1701,653.25,1829,653.25,1839,664.25,1829,676.25,1701,676.25,1691,664.25,1701,653.25" style="stroke: #A80036; stroke-width: 1.0;"/><text fill="#000000" font-family="sans-serif" font-size="13" lengthAdjust="spacingAndGlyphs" textLength="124" x="1703" y="669.3169">participantEndpoint</text><polygon fill="#A80036" points="1409.5,698.5156,1399.5,702.5156,1409.5,706.5156,1405.5,702.5156" style="stroke: #A80036; stroke-width: 1.0;"/><line style="stroke: #A80036; stroke-width: 1.0; stroke-dasharray: 2.0,2.0;" x1="1403.5" x2="1764.5" y1="702.5156" y2="702.5156"/><text fill="#000000" font-family="sans-serif" font-size="13" font-weight="bold" lengthAdjust="spacingAndGlyphs" textLength="18" x="1415.5" y="697.4497">11</text><text fill="#000000" font-family="sans-serif" font-size="13" lengthAdjust="spacingAndGlyphs" textLength="316" x="1437.5" y="697.4497">Retrieved Callback details for Participant and type</text><polygon fill="#A80036" points="1055.5,727.6484,1045.5,731.6484,1055.5,735.6484,1051.5,731.6484" style="stroke: #A80036; stroke-width: 1.0;"/><line style="stroke: #A80036; stroke-width: 1.0; stroke-dasharray: 2.0,2.0;" x1="1049.5" x2="1392.5" y1="731.6484" y2="731.6484"/><text fill="#000000" font-family="sans-serif" font-size="13" font-weight="bold" lengthAdjust="spacingAndGlyphs" textLength="18" x="1061.5" y="726.5825">12</text><text fill="#000000" font-family="sans-serif" font-size="13" lengthAdjust="spacingAndGlyphs" textLength="298" x="1083.5" y="726.5825">Return Callback details for Participant and type</text><path d="M1049,744.6484 L1049,814.6484 L1365,814.6484 L1365,754.6484 L1355,744.6484 L1049,744.6484 " fill="#FFFF00" filter="url(#frp7qenl4id4f)" style="stroke: #A80036; stroke-width: 1.0;"/><path d="M1355,744.6484 L1355,754.6484 L1365,754.6484 L1355,744.6484 " fill="#FFFF00" style="stroke: #A80036; stroke-width: 1.0;"/><text fill="#000000" font-family="sans-serif" font-size="13" lengthAdjust="spacingAndGlyphs" textLength="61" x="1055" y="761.7153">Message:</text><text fill="#000000" font-family="sans-serif" font-size="13" lengthAdjust="spacingAndGlyphs" textLength="8" x="1055" y="776.8481">{</text><text fill="#000000" font-family="sans-serif" font-size="13" lengthAdjust="spacingAndGlyphs" textLength="279" x="1071" y="791.981">endpoints: {type: &lt;type&gt;, value: &lt;value&gt;}</text><text fill="#000000" font-family="sans-serif" font-size="13" lengthAdjust="spacingAndGlyphs" textLength="8" x="1055" y="807.1138">}</text><polygon fill="#A80036" points="761.5,841.3125,751.5,845.3125,761.5,849.3125,757.5,845.3125" style="stroke: #A80036; stroke-width: 1.0;"/><line style="stroke: #A80036; stroke-width: 1.0; stroke-dasharray: 2.0,2.0;" x1="755.5" x2="1038.5" y1="845.3125" y2="845.3125"/><text fill="#000000" font-family="sans-serif" font-size="13" font-weight="bold" lengthAdjust="spacingAndGlyphs" textLength="18" x="767.5" y="840.2466">13</text><text fill="#000000" font-family="sans-serif" font-size="13" lengthAdjust="spacingAndGlyphs" textLength="238" x="789.5" y="840.2466">Return Callback details for Participant</text><polygon fill="#A80036" points="120,870.4453,110,874.4453,120,878.4453,116,874.4453" style="stroke: #A80036; stroke-width: 1.0;"/><line style="stroke: #A80036; stroke-width: 1.0; stroke-dasharray: 2.0,2.0;" x1="114" x2="739.5" y1="874.4453" y2="874.4453"/><text fill="#000000" font-family="sans-serif" font-size="13" font-weight="bold" lengthAdjust="spacingAndGlyphs" textLength="18" x="126" y="869.3794">14</text><text fill="#000000" font-family="sans-serif" font-size="13" lengthAdjust="spacingAndGlyphs" textLength="238" x="148" y="869.3794">Return Callback details for Participant</text><line style="stroke: #000000; stroke-width: 1.0; stroke-dasharray: 2.0,2.0;" x1="33" x2="1849" y1="883.4453" y2="883.4453"/><text fill="#000000" font-family="sans-serif" font-size="11" font-weight="bold" lengthAdjust="spacingAndGlyphs" textLength="292" x="38" y="893.6558">[Check if "type" parameter is sent (Not Sent)]</text><polygon fill="#A80036" points="1376.5,929.5156,1386.5,933.5156,1376.5,937.5156,1380.5,933.5156" style="stroke: #A80036; stroke-width: 1.0;"/><line style="stroke: #A80036; stroke-width: 1.0;" x1="1044.5" x2="1382.5" y1="933.5156" y2="933.5156"/><text fill="#000000" font-family="sans-serif" font-size="13" font-weight="bold" lengthAdjust="spacingAndGlyphs" textLength="18" x="1051.5" y="920.8833">15</text><text fill="#000000" font-family="sans-serif" font-size="13" lengthAdjust="spacingAndGlyphs" textLength="231" x="1073.5" y="913.3169">Fetch Callback details for Participant</text><text fill="#FF0000" font-family="sans-serif" font-size="13" font-weight="bold" lengthAdjust="spacingAndGlyphs" textLength="82" x="1073.5" y="928.4497">Error code:</text><text fill="#FF0000" font-family="sans-serif" font-size="13" lengthAdjust="spacingAndGlyphs" textLength="32" x="1159.5" y="928.4497">3000</text><polygon fill="#A80036" points="1748.5,958.6484,1758.5,962.6484,1748.5,966.6484,1752.5,962.6484" style="stroke: #A80036; stroke-width: 1.0;"/><line style="stroke: #A80036; stroke-width: 1.0;" x1="1398.5" x2="1754.5" y1="962.6484" y2="962.6484"/><text fill="#000000" font-family="sans-serif" font-size="13" font-weight="bold" lengthAdjust="spacingAndGlyphs" textLength="18" x="1405.5" y="957.5825">16</text><text fill="#000000" font-family="sans-serif" font-size="13" lengthAdjust="spacingAndGlyphs" textLength="231" x="1427.5" y="957.5825">Fetch Callback details for Participant</text><path d="M1403,975.6484 L1403,1015.6484 L1516,1015.6484 L1516,985.6484 L1506,975.6484 L1403,975.6484 " fill="#D3D3D3" filter="url(#frp7qenl4id4f)" style="stroke: #A80036; stroke-width: 1.0;"/><path d="M1506,975.6484 L1506,985.6484 L1516,985.6484 L1506,975.6484 " fill="#D3D3D3" style="stroke: #A80036; stroke-width: 1.0;"/><text fill="#000000" font-family="sans-serif" font-size="13" lengthAdjust="spacingAndGlyphs" textLength="64" x="1409" y="992.7153">Condition:</text><text fill="#000000" font-family="sans-serif" font-size="13" lengthAdjust="spacingAndGlyphs" textLength="76" x="1425" y="1007.8481">isActive = 1</text><polygon fill="#FFFFE0" filter="url(#frp7qenl4id4f)" points="1701,1029.9141,1829,1029.9141,1839,1040.9141,1829,1052.9141,1701,1052.9141,1691,1040.9141,1701,1029.9141" style="stroke: #A80036; stroke-width: 1.0;"/><text fill="#000000" font-family="sans-serif" font-size="13" lengthAdjust="spacingAndGlyphs" textLength="124" x="1703" y="1045.981">participantEndpoint</text><polygon fill="#A80036" points="1409.5,1075.1797,1399.5,1079.1797,1409.5,1083.1797,1405.5,1079.1797" style="stroke: #A80036; stroke-width: 1.0;"/><line style="stroke: #A80036; stroke-width: 1.0; stroke-dasharray: 2.0,2.0;" x1="1403.5" x2="1764.5" y1="1079.1797" y2="1079.1797"/><text fill="#000000" font-family="sans-serif" font-size="13" font-weight="bold" lengthAdjust="spacingAndGlyphs" textLength="18" x="1415.5" y="1074.1138">17</text><text fill="#000000" font-family="sans-serif" font-size="13" lengthAdjust="spacingAndGlyphs" textLength="256" x="1437.5" y="1074.1138">Retrieved Callback details for Participant</text><polygon fill="#A80036" points="1055.5,1104.3125,1045.5,1108.3125,1055.5,1112.3125,1051.5,1108.3125" style="stroke: #A80036; stroke-width: 1.0;"/><line style="stroke: #A80036; stroke-width: 1.0; stroke-dasharray: 2.0,2.0;" x1="1049.5" x2="1392.5" y1="1108.3125" y2="1108.3125"/><text fill="#000000" font-family="sans-serif" font-size="13" font-weight="bold" lengthAdjust="spacingAndGlyphs" textLength="18" x="1061.5" y="1103.2466">18</text><text fill="#000000" font-family="sans-serif" font-size="13" lengthAdjust="spacingAndGlyphs" textLength="238" x="1083.5" y="1103.2466">Return Callback details for Participant</text><path d="M1049,1121.3125 L1049,1236.3125 L1314,1236.3125 L1314,1131.3125 L1304,1121.3125 L1049,1121.3125 " fill="#FFFF00" filter="url(#frp7qenl4id4f)" style="stroke: #A80036; stroke-width: 1.0;"/><path d="M1304,1121.3125 L1304,1131.3125 L1314,1131.3125 L1304,1121.3125 " fill="#FFFF00" style="stroke: #A80036; stroke-width: 1.0;"/><text fill="#000000" font-family="sans-serif" font-size="13" lengthAdjust="spacingAndGlyphs" textLength="61" x="1055" y="1138.3794">Message:</text><text fill="#000000" font-family="sans-serif" font-size="13" lengthAdjust="spacingAndGlyphs" textLength="8" x="1055" y="1153.5122">{</text><text fill="#000000" font-family="sans-serif" font-size="13" lengthAdjust="spacingAndGlyphs" textLength="76" x="1071" y="1168.645">endpoints: [</text><text fill="#000000" font-family="sans-serif" font-size="13" lengthAdjust="spacingAndGlyphs" textLength="212" x="1087" y="1183.7778">{type: &lt;type&gt;, value: &lt;value&gt;},</text><text fill="#000000" font-family="sans-serif" font-size="13" lengthAdjust="spacingAndGlyphs" textLength="208" x="1087" y="1198.9106">{type: &lt;type&gt;, value: &lt;value&gt;}</text><text fill="#000000" font-family="sans-serif" font-size="13" lengthAdjust="spacingAndGlyphs" textLength="5" x="1071" y="1214.0435">]</text><text fill="#000000" font-family="sans-serif" font-size="13" lengthAdjust="spacingAndGlyphs" textLength="8" x="1055" y="1229.1763">}</text><polygon fill="#A80036" points="761.5,1263.375,751.5,1267.375,761.5,1271.375,757.5,1267.375" style="stroke: #A80036; stroke-width: 1.0;"/><line style="stroke: #A80036; stroke-width: 1.0; stroke-dasharray: 2.0,2.0;" x1="755.5" x2="1033.5" y1="1267.375" y2="1267.375"/><text fill="#000000" font-family="sans-serif" font-size="13" font-weight="bold" lengthAdjust="spacingAndGlyphs" textLength="18" x="767.5" y="1262.3091">19</text><text fill="#000000" font-family="sans-serif" font-size="13" lengthAdjust="spacingAndGlyphs" textLength="238" x="789.5" y="1262.3091">Return Callback details for Participant</text><polygon fill="#A80036" points="120,1292.5078,110,1296.5078,120,1300.5078,116,1296.5078" style="stroke: #A80036; stroke-width: 1.0;"/><line style="stroke: #A80036; stroke-width: 1.0; stroke-dasharray: 2.0,2.0;" x1="114" x2="739.5" y1="1296.5078" y2="1296.5078"/><text fill="#000000" font-family="sans-serif" font-size="13" font-weight="bold" lengthAdjust="spacingAndGlyphs" textLength="18" x="126" y="1291.4419">20</text><text fill="#000000" font-family="sans-serif" font-size="13" lengthAdjust="spacingAndGlyphs" textLength="238" x="148" y="1291.4419">Return Callback details for Participant</text><line style="stroke: #000000; stroke-width: 1.0; stroke-dasharray: 2.0,2.0;" x1="23" x2="1859" y1="1312.5078" y2="1312.5078"/><text fill="#000000" font-family="sans-serif" font-size="11" font-weight="bold" lengthAdjust="spacingAndGlyphs" textLength="232" x="28" y="1322.7183">[Validate participant (failure)/ Error]</text><path d="M1049,1331.3125 L1049,1356.3125 L1220,1356.3125 L1220,1341.3125 L1210,1331.3125 L1049,1331.3125 " fill="#FF0000" filter="url(#frp7qenl4id4f)" style="stroke: #A80036; stroke-width: 1.0;"/><path d="M1210,1331.3125 L1210,1341.3125 L1220,1341.3125 L1210,1331.3125 " fill="#FF0000" style="stroke: #A80036; stroke-width: 1.0;"/><text fill="#000000" font-family="sans-serif" font-size="13" lengthAdjust="spacingAndGlyphs" textLength="150" x="1055" y="1348.3794">Validation failure/ Error!</text><path d="M1049,1370.4453 L1049,1485.4453 L1337,1485.4453 L1337,1380.4453 L1327,1370.4453 L1049,1370.4453 " fill="#FFFF00" filter="url(#frp7qenl4id4f)" style="stroke: #A80036; stroke-width: 1.0;"/><path d="M1327,1370.4453 L1327,1380.4453 L1337,1380.4453 L1327,1370.4453 " fill="#FFFF00" style="stroke: #A80036; stroke-width: 1.0;"/><text fill="#000000" font-family="sans-serif" font-size="13" lengthAdjust="spacingAndGlyphs" textLength="61" x="1055" y="1387.5122">Message:</text><text fill="#000000" font-family="sans-serif" font-size="13" lengthAdjust="spacingAndGlyphs" textLength="8" x="1055" y="1402.645">{</text><text fill="#000000" font-family="sans-serif" font-size="13" lengthAdjust="spacingAndGlyphs" textLength="130" x="1071" y="1417.7778">"errorInformation": {</text><text fill="#000000" font-family="sans-serif" font-size="13" lengthAdjust="spacingAndGlyphs" textLength="172" x="1087" y="1432.9106">"errorCode": &lt;errorCode&gt;,</text><text fill="#000000" font-family="sans-serif" font-size="13" lengthAdjust="spacingAndGlyphs" textLength="235" x="1087" y="1448.0435">"errorDescription": &lt;ErrorMessage&gt;,</text><text fill="#000000" font-family="sans-serif" font-size="13" lengthAdjust="spacingAndGlyphs" textLength="8" x="1071" y="1463.1763">}</text><text fill="#000000" font-family="sans-serif" font-size="13" lengthAdjust="spacingAndGlyphs" textLength="8" x="1055" y="1478.3091">}</text><polygon fill="#A80036" points="761.5,1512.5078,751.5,1516.5078,761.5,1520.5078,757.5,1516.5078" style="stroke: #A80036; stroke-width: 1.0;"/><line style="stroke: #A80036; stroke-width: 1.0; stroke-dasharray: 2.0,2.0;" x1="755.5" x2="1038.5" y1="1516.5078" y2="1516.5078"/><text fill="#000000" font-family="sans-serif" font-size="13" font-weight="bold" lengthAdjust="spacingAndGlyphs" textLength="18" x="767.5" y="1511.4419">21</text><text fill="#000000" font-family="sans-serif" font-size="13" lengthAdjust="spacingAndGlyphs" textLength="42" x="789.5" y="1511.4419">Return</text><text fill="#FF0000" font-family="sans-serif" font-size="13" font-weight="bold" lengthAdjust="spacingAndGlyphs" textLength="82" x="835.5" y="1511.4419">Error code:</text><text fill="#FF0000" font-family="sans-serif" font-size="13" lengthAdjust="spacingAndGlyphs" textLength="72" x="921.5" y="1511.4419">3000, 3200</text><polygon fill="#A80036" points="120,1541.6406,110,1545.6406,120,1549.6406,116,1545.6406" style="stroke: #A80036; stroke-width: 1.0;"/><line style="stroke: #A80036; stroke-width: 1.0; stroke-dasharray: 2.0,2.0;" x1="114" x2="739.5" y1="1545.6406" y2="1545.6406"/><text fill="#000000" font-family="sans-serif" font-size="13" font-weight="bold" lengthAdjust="spacingAndGlyphs" textLength="18" x="126" y="1540.5747">22</text><text fill="#000000" font-family="sans-serif" font-size="13" lengthAdjust="spacingAndGlyphs" textLength="42" x="148" y="1540.5747">Return</text><text fill="#FF0000" font-family="sans-serif" font-size="13" font-weight="bold" lengthAdjust="spacingAndGlyphs" textLength="82" x="194" y="1540.5747">Error code:</text><text fill="#FF0000" font-family="sans-serif" font-size="13" lengthAdjust="spacingAndGlyphs" textLength="72" x="280" y="1540.5747">3000, 3200</text><!--
@startuml
title 3.1.0 Get Participant Callback Details

autonumber



entity "ML-API-ADAPTER" as MLAPI
boundary "Central Service API" as CSAPI
control "Participant Handler" as PARTICIPANT_HANDLER
entity "Central Service API" as CSAPI
entity "Participant DAO" as PARTICIPANT_DAO
database "Central Store" as DB
box "ML API Adapter Service" #LightBlue
participant MLAPI
end box

box "Central Services" #LightYellow
participant CSAPI
participant PARTICIPANT_HANDLER
participant PARTICIPANT_DAO
participant DB
end box


activate MLAPI
group Get Callback Details
    MLAPI -> CSAPI: Request to get callback details - GET - /participants/{name}/endpoints?type={typeValue}
    activate CSAPI
    CSAPI -> PARTICIPANT_HANDLER: Fetch Callback details for Participant
    activate PARTICIPANT_HANDLER
    PARTICIPANT_HANDLER ->PARTICIPANT_DAO: Fetch Participant \n<color #FF0000><b>Error code:</b> 3200</color>

    activate PARTICIPANT_DAO
    PARTICIPANT_DAO ->DB: Fetch Participant
    activate DB
    hnote over DB #lightyellow
        participant
    end note
    DB - -> PARTICIPANT_DAO: Retrieved Participant
    deactivate DB
    PARTICIPANT_DAO - ->PARTICIPANT_HANDLER: Return Participant
    deactivate PARTICIPANT_DAO
    PARTICIPANT_HANDLER ->PARTICIPANT_HANDLER: Validate DFSP
    alt Validate participant (success)
        PARTICIPANT_HANDLER -> PARTICIPANT_HANDLER: check if "type" parameter is sent
        alt Check if "type" parameter is sent (Sent)
            PARTICIPANT_HANDLER ->PARTICIPANT_DAO: Fetch Callback details for Participant and type \n<color #FF0000><b>Error code:</b> 3000</color>
            activate PARTICIPANT_DAO
            PARTICIPANT_DAO ->DB: Fetch Callback details for Participant and type
            note right of PARTICIPANT_DAO #lightgrey
                Condition:
                    isActive = 1
                    [endpointTypeId = <type>]
            end note

            activate DB
            hnote over DB #lightyellow
                participantEndpoint
            end note
            DB - -> PARTICIPANT_DAO: Retrieved Callback details for Participant and type
            deactivate DB
            PARTICIPANT_DAO - ->PARTICIPANT_HANDLER: Return Callback details for Participant and type
            deactivate PARTICIPANT_DAO
            note right of PARTICIPANT_HANDLER #yellow
                Message:
                {
                    endpoints: {type: <type>, value: <value>}
                }
            end note
            PARTICIPANT_HANDLER - ->CSAPI: Return Callback details for Participant
            deactivate PARTICIPANT_HANDLER
            CSAPI - ->MLAPI: Return Callback details for Participant
        else Check if "type" parameter is sent (Not Sent)
            activate PARTICIPANT_HANDLER
            PARTICIPANT_HANDLER ->PARTICIPANT_DAO: Fetch Callback details for Participant \n<color #FF0000><b>Error code:</b> 3000</color>
            activate PARTICIPANT_DAO
            PARTICIPANT_DAO ->DB: Fetch Callback details for Participant
            note right of PARTICIPANT_DAO #lightgrey
                Condition:
                    isActive = 1
            end note

            activate DB
            hnote over DB #lightyellow
                participantEndpoint
            end note
            DB - -> PARTICIPANT_DAO: Retrieved Callback details for Participant
            deactivate DB
            PARTICIPANT_DAO - ->PARTICIPANT_HANDLER: Return Callback details for Participant
            deactivate PARTICIPANT_DAO
            note right of PARTICIPANT_HANDLER #yellow
                Message:
                {
                    endpoints: [
                        {type: <type>, value: <value>},
                        {type: <type>, value: <value>}
                    ]
                }
            end note
            PARTICIPANT_HANDLER - ->CSAPI: Return Callback details for Participant
            CSAPI - ->MLAPI: Return Callback details for Participant
        end


    else Validate participant (failure)/ Error
        activate PARTICIPANT_HANDLER
        note right of PARTICIPANT_HANDLER #red: Validation failure/ Error!
        activate PARTICIPANT_HANDLER
        note right of PARTICIPANT_HANDLER #yellow
            Message:
            {
                "errorInformation": {
                    "errorCode": <errorCode>,
                    "errorDescription": <ErrorMessage>,
                }
            }
        end note
        PARTICIPANT_HANDLER - ->CSAPI: Return <color #FF0000><b>Error code:</b> 3000, 3200</color>
        deactivate PARTICIPANT_HANDLER
        CSAPI - ->MLAPI: Return <color #FF0000><b>Error code:</b> 3000, 3200</color>

    end
    deactivate CSAPI
    deactivate MLAPI
end
@enduml

PlantUML version 1.2018.08(Sun Jun 24 12:31:00 UTC 2018)
(GPL source distribution)
Java Runtime: Java(TM) SE Runtime Environment
JVM: Java HotSpot(TM) 64-Bit Server VM
Java Version: 1.7.0_25-b15
Operating System: Linux
Default Encoding: UTF-8
Language: en
Country: US
--></g></svg>